<svg width="116" height="24" viewBox="0 0 116 24" fill="none" xmlns="http://www.w3.org/2000/svg">
<g id="Desktop - 5 1" clip-path="url(#clip0_2809_1043)">
<g id="Clip path group">
<mask id="mask0_2809_1043" style="mask-type:luminance" maskUnits="userSpaceOnUse" x="0" y="0" width="116" height="24">
<g id="clip0_2808_267">
<path id="Vector" d="M115.154 0H0V24H115.154V0Z" fill="white"/>
</g>
</mask>
<g mask="url(#mask0_2809_1043)">
<g id="Group">
<path id="Vector_2" d="M2.15631 6.528C2.15631 5.70831 2.38892 4.96985 2.85415 4.31262C3.32677 3.65538 3.96554 3.14215 4.77046 2.77292C5.58277 2.39631 6.48369 2.208 7.47323 2.208C8.32985 2.208 9.10892 2.34831 9.81046 2.62892C10.5194 2.90215 11.1065 3.29723 11.5717 3.81415C12.0443 4.32369 12.3729 4.92554 12.5575 5.61969L10.1649 5.63077C10.0394 5.29108 9.82892 4.99938 9.53354 4.75569C9.23815 4.512 8.90585 4.32738 8.53661 4.20185C8.16738 4.07631 7.81661 4.01354 7.48431 4.01354C7.00431 4.01354 6.53538 4.11323 6.07754 4.31262C5.62708 4.512 5.25785 4.80369 4.96985 5.18769C4.68185 5.56431 4.53785 6.01108 4.53785 6.528C4.53785 7.05231 4.67446 7.50277 4.94769 7.87938C5.22092 8.24862 5.58277 8.53292 6.03323 8.73231C6.48369 8.92431 6.96738 9.02031 7.48431 9.02031C8.03077 9.02031 8.54769 8.88369 9.03508 8.61046C9.52985 8.33723 9.89908 7.94954 10.1428 7.44738H12.5575C12.3582 8.14892 12.0222 8.75446 11.5495 9.264C11.0769 9.76615 10.4935 10.1538 9.79938 10.4271C9.10523 10.7003 8.32985 10.8369 7.47323 10.8369C6.49108 10.8369 5.59385 10.6486 4.78154 10.272C3.96923 9.89538 3.32677 9.37846 2.85415 8.72123C2.38892 8.064 2.15631 7.33292 2.15631 6.528ZM12.9533 4.31262V2.41846H22.4351L12.9533 4.31262ZM22.4351 2.41846V4.32369H18.8684V10.6154H16.5644V4.32369H12.9533V2.41846H22.4351ZM32.8795 2.41846L28.7589 9.37477C28.5005 9.84738 27.9872 10.1834 27.2192 10.3828C26.4586 10.5822 25.6722 10.6671 24.8598 10.6375V8.88738C25.3398 8.88738 25.6611 8.85046 25.8235 8.77662C25.9934 8.70277 26.0783 8.60308 26.0783 8.47754C26.0783 8.41846 26.0709 8.352 26.0562 8.27815L22.6998 2.41846H25.1589L27.7177 7.13723L30.4315 2.41846H32.8795ZM40.6735 8.84308H41.7702V11.6788H39.5991V10.6265L33.2077 10.6154V11.6788H31.0366V8.84308H31.7788C32.3991 7.71323 32.8532 6.66462 33.1412 5.69723C33.4292 4.72246 33.5732 3.62954 33.5732 2.41846H40.6625L40.6735 8.84308ZM35.6114 4.13538C35.5006 4.96246 35.3123 5.74892 35.0465 6.49477C34.788 7.24062 34.4483 8.02338 34.0274 8.84308H38.5135V4.14646L35.6114 4.13538ZM44.8138 2.41846V7.97908L50.0199 2.41846H52.3239V10.6154H50.0199V5.05477L44.8138 10.6154H42.5208V2.41846H44.8138ZM60.5926 6.26215C60.6 5.68615 60.6 5.44246 60.5926 5.53108V6.26215ZM62.5422 10.6043H60.3157V7.95692H57.9452L55.6745 10.6043H52.9938L55.3754 7.83508C54.6517 7.68 54.0831 7.37354 53.6695 6.91569C53.2634 6.45785 53.0603 5.87815 53.0603 5.17662V5.13231C53.0603 4.59323 53.2043 4.12062 53.4923 3.71446C53.7877 3.30092 54.1975 2.97969 54.7218 2.75077C55.2535 2.52185 55.8628 2.40738 56.5495 2.40738H62.5422V10.6043ZM57.0812 4.06892C56.6751 4.06892 56.3575 4.08738 56.1286 4.12431C55.9071 4.16123 55.7225 4.26092 55.5748 4.42338C55.4345 4.58585 55.3643 4.84431 55.3643 5.19877C55.3643 5.53108 55.4345 5.77477 55.5748 5.92985C55.7225 6.08492 55.9071 6.18092 56.1286 6.21785C56.3575 6.24738 56.6751 6.26215 57.0812 6.26215H57.1034H60.3157V4.10215C59.0529 4.10215 58.1262 4.09477 57.5354 4.08C57.4098 4.07262 57.2585 4.06892 57.0812 4.06892Z" fill="#303030"/>
<path id="Vector_3" d="M2.15631 17.3742C2.15631 16.5545 2.38892 15.816 2.85415 15.1588C3.32677 14.5015 3.96554 13.9883 4.77046 13.6191C5.58277 13.2425 6.48369 13.0542 7.47323 13.0542C8.32985 13.0542 9.10892 13.1945 9.81046 13.4751C10.5194 13.7483 11.1065 14.1434 11.5717 14.6603C12.0443 15.1698 12.3729 15.7717 12.5575 16.4658L10.1649 16.4769C10.0394 16.1372 9.82892 15.8455 9.53354 15.6018C9.23815 15.3582 8.90585 15.1735 8.53661 15.048C8.16738 14.9225 7.81661 14.8597 7.48431 14.8597C7.00431 14.8597 6.53538 14.9594 6.07754 15.1588C5.62708 15.3582 5.25785 15.6498 4.96985 16.0338C4.68185 16.4105 4.53785 16.8572 4.53785 17.3742C4.53785 17.8985 4.67446 18.3489 4.94769 18.7255C5.22092 19.0948 5.58277 19.3791 6.03323 19.5785C6.48369 19.7705 6.96738 19.8665 7.48431 19.8665C8.03077 19.8665 8.54769 19.7298 9.03508 19.4566C9.52985 19.1834 9.89908 18.7957 10.1428 18.2935H12.5575C12.3582 18.9951 12.0222 19.6006 11.5495 20.1102C11.0769 20.6123 10.4935 21 9.79938 21.2732C9.10523 21.5465 8.32985 21.6831 7.47323 21.6831C6.49108 21.6831 5.59385 21.4948 4.78154 21.1182C3.96923 20.7415 3.32677 20.2246 2.85415 19.5674C2.38892 18.9102 2.15631 18.1791 2.15631 17.3742ZM12.9533 15.1588V13.2646H22.4351L12.9533 15.1588ZM22.4351 13.2646V15.1698H18.8684V21.4615H16.5644V15.1698H12.9533V13.2646H22.4351ZM29.3128 13.2646C29.9995 13.2646 30.6051 13.3791 31.1294 13.608C31.6611 13.8369 32.0709 14.1582 32.3589 14.5717C32.6543 14.9778 32.802 15.4505 32.802 15.9895V16.0338C32.802 16.9274 32.514 17.6142 31.938 18.0942C31.3694 18.5668 30.5608 18.8031 29.5122 18.8031H25.6242V21.4615H23.3202V13.2646H29.3128ZM28.9583 17.1083C29.3645 17.1083 29.6746 17.0935 29.8888 17.064C30.1103 17.0271 30.2949 16.9348 30.4426 16.7871C30.5977 16.632 30.6752 16.3846 30.6752 16.0449C30.6752 15.6978 30.5977 15.4468 30.4426 15.2917C30.2949 15.1292 30.1066 15.0295 29.8777 14.9926C29.6562 14.9557 29.3497 14.9372 28.9583 14.9372H28.5485C28.3786 14.9372 28.0832 14.9409 27.6623 14.9483C27.2488 14.9483 26.5657 14.9483 25.6131 14.9483V17.1083H28.9472H28.9583ZM35.922 13.2646V18.8252L41.1282 13.2646H43.4322V21.4615H41.1282V15.9009L35.922 21.4615H33.6291V13.2646H35.922ZM54.7689 17.0197L59.5652 21.4615H56.5966L52.8748 17.8948V21.4615H50.5708V17.9502L46.9154 21.4615H43.9357L48.7431 17.0197L44.1018 13.2646H47.1148L50.5708 16.1889V13.2646H52.8748V16.2332L56.3972 13.2646H59.3991L54.7689 17.0197ZM70.7333 21.4615H68.3739L67.521 19.8886H62.6139L61.761 21.4615H59.4016L63.8545 13.2646H66.2915L70.7333 21.4615ZM65.073 15.3582L63.5222 18.2049H66.6127L65.073 15.3582ZM75.309 17.0197L80.1164 21.4615H77.1367L73.4149 17.8837V21.4615H71.1219V13.2646H73.4149V16.2443L76.9373 13.2646H79.9502L75.309 17.0197ZM84.144 13.0874C85.1335 13.0874 86.0234 13.2757 86.8135 13.6523C87.6037 14.0215 88.224 14.5348 88.6745 15.192C89.1249 15.8418 89.3502 16.5766 89.3502 17.3963C89.3502 18.2086 89.1249 18.9397 88.6745 19.5895C88.224 20.2394 87.6037 20.7526 86.8135 21.1292C86.0234 21.4985 85.1335 21.6831 84.144 21.6831C83.1914 21.6831 82.3126 21.4985 81.5077 21.1292C80.7102 20.7526 80.0751 20.2394 79.6025 19.5895C79.1298 18.9323 78.8935 18.2012 78.8935 17.3963C78.8935 16.584 79.1262 15.8492 79.5914 15.192C80.064 14.5348 80.7028 14.0215 81.5077 13.6523C82.3126 13.2757 83.1914 13.0874 84.144 13.0874ZM84.144 19.8775C84.624 19.8775 85.0782 19.7815 85.5065 19.5895C85.9348 19.3902 86.2818 19.1058 86.5477 18.7366C86.8135 18.36 86.9465 17.9132 86.9465 17.3963C86.9465 16.8868 86.8135 16.4437 86.5477 16.0671C86.2818 15.6831 85.9348 15.3914 85.5065 15.192C85.0782 14.9926 84.624 14.8929 84.144 14.8929C83.6492 14.8929 83.184 14.9926 82.7483 15.192C82.32 15.384 81.9766 15.6683 81.7182 16.0449C81.4597 16.4215 81.3305 16.8646 81.3305 17.3742C81.3305 17.8911 81.4597 18.3415 81.7182 18.7255C81.984 19.1022 82.3311 19.3902 82.7594 19.5895C83.1951 19.7815 83.6566 19.8775 84.144 19.8775ZM98.457 17.1637C99.0773 17.2892 99.5462 17.5071 99.8638 17.8172C100.181 18.12 100.34 18.5557 100.34 19.1243V19.1686C100.34 19.7742 100.178 20.2431 99.8527 20.5754C99.5278 20.9077 99.0773 21.1403 98.5013 21.2732C97.9253 21.3988 97.2016 21.4652 96.3302 21.4726H96.3081H95.865L90.1604 21.4615V13.2646H96.8398C97.6964 13.272 98.3795 13.4492 98.889 13.7963C99.3985 14.1434 99.6533 14.6345 99.6533 15.2695V15.3138C99.6533 15.7938 99.5536 16.1852 99.3542 16.488C99.1549 16.7908 98.8558 17.016 98.457 17.1637ZM97.4047 15.6351C97.4047 15.3618 97.3419 15.1662 97.2164 15.048C97.0908 14.9225 96.9247 14.8449 96.7179 14.8154C96.5185 14.7858 96.2305 14.7711 95.8539 14.7711H95.8428H92.3425V16.4991L95.001 16.5212H95.8539C96.2527 16.5212 96.5444 16.5102 96.729 16.488C96.9136 16.4658 97.0724 16.392 97.2053 16.2665C97.3382 16.1409 97.4047 15.9305 97.4047 15.6351ZM96.2195 19.8332C96.6699 19.8332 97.0059 19.8185 97.2275 19.7889C97.449 19.752 97.6262 19.6634 97.7592 19.5231C97.8921 19.3828 97.9585 19.1575 97.9585 18.8474C97.9585 18.5446 97.8921 18.3268 97.7592 18.1938C97.6262 18.0535 97.449 17.9686 97.2275 17.9391C97.0059 17.9095 96.6699 17.8948 96.2195 17.8948H96.2084H92.3425V19.8111C93.945 19.8111 95.0859 19.8185 95.7653 19.8332H96.2195ZM111.612 21.4615H109.253L108.4 19.8886H103.493L102.64 21.4615H100.28L104.733 13.2646H107.17L111.612 21.4615ZM105.952 15.3582L104.401 18.2049H107.491L105.952 15.3582Z" fill="#303030"/>
</g>
</g>
</g>
</g>
<defs>
<clipPath id="clip0_2809_1043">
<rect width="115.154" height="24" fill="white"/>
</clipPath>
</defs>
</svg>
