<svg width="135" height="28" viewBox="0 0 135 28" fill="none" xmlns="http://www.w3.org/2000/svg">
<path d="M10.8081 15.3187L14.3849 21.1053H10.5272L7.53091 15.6558C5.13387 15.6558 4.75933 15.6558 4.75933 15.6558V21.1053H1.40723V5.95527H8.41107C11.707 5.95527 13.7295 8.33358 13.7295 10.843C13.7295 12.7718 12.5871 14.6445 10.8081 15.3187ZM4.75933 12.7157H8.67324C9.83431 12.7157 10.7894 12.004 10.7894 10.843C10.7894 9.66319 9.83431 8.89538 8.67324 8.89538H4.75933V12.7157ZM25.5862 5.93654H28.5638V15.3C28.5638 18.6333 26.7098 21.3862 22.3278 21.3862C18.0206 21.3862 16.1104 18.6333 16.1104 15.3V5.93654H19.0693V15.2625V15.3749C19.0693 17.7532 20.8483 18.4086 22.3278 18.4086C23.8259 18.4086 25.5862 17.7532 25.5862 15.3562V15.2625V5.93654ZM34.4479 5.95527V11.6857H40.8338V5.95527H44.2046V21.1053H40.8338V14.7195H34.4479V21.1053H31.0958V5.95527H34.4479ZM56.1892 5.93654H59.1668V15.3C59.1668 18.6333 57.3129 21.3862 52.9308 21.3862C48.6236 21.3862 46.7134 18.6333 46.7134 15.3V5.93654H49.6723V15.2625V15.3749C49.6723 17.7532 51.4513 18.4086 52.9308 18.4086C54.4289 18.4086 56.1892 17.7532 56.1892 15.3562V15.2625V5.93654ZM72.2234 5.95527H75.332V21.1053H72.2234L64.8824 10.8055L64.7888 21.1053H61.6989V5.95527H64.7888L72.2234 16.1801V5.95527ZM77.285 5.95527H91.1987V8.98902H85.9181V21.1053H82.566V8.98902H77.285V5.95527ZM93.1617 5.95527H103.985V8.98902H96.4383V11.6857L102.731 11.7231V14.7382L96.4383 14.7195V18.0903H103.985V21.1053H93.1617V5.95527ZM116.063 15.3187L119.64 21.1053H115.782L112.785 15.6558C110.388 15.6558 110.014 15.6558 110.014 15.6558V21.1053H106.662V5.95527H113.666C116.962 5.95527 118.984 8.33358 118.984 10.843C118.984 12.7718 117.841 14.6445 116.063 15.3187ZM110.014 12.7157H113.928C115.089 12.7157 116.044 12.004 116.044 10.843C116.044 9.66319 115.089 8.89538 113.928 8.89538H110.014V12.7157ZM127.997 12.0415C130.431 12.5846 133.446 13.2587 133.446 16.2925C133.446 19.2888 131.18 21.3862 126.817 21.3862C123.184 21.3862 120.918 19.2701 120.918 16.5547V16.255H124.513V16.5547C124.513 17.8655 125.918 18.315 127.323 18.315C128.652 18.315 130.001 17.9217 130.001 16.5547C130.001 15.431 128.39 15.0565 126.518 14.6071C124.139 14.0453 121.162 13.3336 121.162 10.5059C121.162 7.56578 123.615 5.65564 127.397 5.65564C130.88 5.65564 133.315 7.65941 133.315 10.5059V10.8055H130.001V10.5059C130.001 9.36356 128.502 8.67066 127.061 8.67066C126.086 8.67066 124.664 9.13883 124.664 10.225C124.664 11.2924 126.199 11.6482 127.997 12.0415Z" fill="white"/>
</svg>
