<svg width="1000" height="370" viewBox="0 0 1000 370" fill="none" xmlns="http://www.w3.org/2000/svg">
<mask id="mask0_3133_58" style="mask-type:luminance" maskUnits="userSpaceOnUse" x="0" y="0" width="1000" height="370">
<path d="M1000 0H0V369.504H1000V0Z" fill="white"/>
</mask>
<g mask="url(#mask0_3133_58)">
<path d="M55.4862 274.313L63.6108 206.241L69.4994 156.098H108.731V365.92H80.1452V247.704H79.3048L72.8248 294.762L65.7796 335.384H43.2374L35.3464 294.762L28.8664 249.104H28.0259V365.92H0V156.098H35.5901L43.7147 205.121L54.0856 274.313H55.4862Z" fill="white"/>
<path d="M160.577 203.721L156.935 264.792L154.974 296.727H165.9L164.499 262.826L161.983 203.721H160.577ZM168.141 323.617H152.453L149.366 365.92H119.664L140.961 156.098H182.72L201.215 365.92H171.228L168.141 323.617Z" fill="white"/>
<path d="M242.689 283.56V365.92H213.262V156.378H242.689V231.736H244.369L262.865 156.378H292.852L267.348 253.584L291.731 365.92H260.624L244.09 283.56H242.689Z" fill="white"/>
<path d="M336.569 203.721L332.928 264.792L330.967 296.727H341.892L340.491 262.826L337.976 203.721H336.569ZM344.132 323.617H328.443L325.356 365.92H295.656L316.952 156.098H358.713L377.207 365.92H347.219L344.132 323.617Z" fill="white"/>
<mask id="mask1_3133_58" style="mask-type:luminance" maskUnits="userSpaceOnUse" x="1" y="-4" width="1001" height="370">
<path d="M1.86835 -3.88892H1001.87V365.615H1.86835V-3.88892Z" fill="white"/>
</mask>
<g mask="url(#mask1_3133_58)">
<path d="M429.889 190.274C429.889 186.54 429.237 183.973 427.928 182.572C426.62 181.172 424.653 180.467 422.039 180.467H418.677V243.498H422.039C424.653 243.498 426.62 242.798 427.928 241.397C429.237 239.997 429.889 237.523 429.889 233.976V190.274ZM418.677 268.432V365.92H389.251V156.098H421.479C434.371 156.098 443.901 159.038 450.066 164.919C456.234 170.805 459.314 179.725 459.314 191.674V232.296C459.314 244.618 456.234 253.725 450.066 259.605C443.901 265.486 434.371 268.432 421.479 268.432H418.677Z" fill="white"/>
<path d="M510.88 186.632C510.88 183.271 510.416 180.984 509.476 179.77C508.542 178.557 507.048 177.95 504.994 177.95C502.94 177.95 501.491 178.557 500.65 179.77C499.811 180.984 499.389 183.271 499.389 186.632V333.703C499.389 337.248 499.811 339.63 500.65 340.844C501.491 342.062 502.94 342.663 504.994 342.663C507.048 342.663 508.542 342.011 509.476 340.704C510.416 339.402 510.88 337.062 510.88 333.703V186.632ZM504.994 368.717C493.596 368.717 484.91 365.45 478.934 358.913C472.952 352.378 469.964 343.223 469.964 331.462V190.272C469.964 178.51 472.952 169.31 478.934 162.678C484.91 156.055 493.596 152.736 504.994 152.736C516.392 152.736 525.075 156.055 531.057 162.678C537.036 169.31 540.027 178.51 540.027 190.272V331.462C540.027 343.223 537.036 352.378 531.057 358.913C525.075 365.45 516.392 368.717 504.994 368.717Z" fill="white"/>
<path d="M600.841 258.068H587.108V365.917H557.961V156.1H587.108V233.133H600.841V156.1H629.982V365.917H600.841V258.068Z" fill="white"/>
<path d="M689.677 258.068H675.943V365.917H646.796V156.1H675.943V233.133H689.677V156.1H718.817V365.917H689.677V258.068Z" fill="white"/>
<path d="M784.398 256.105L763.94 342.951V365.92H735.635V156.098H763.656V270.113H764.228L785.24 178.227V156.098H814.386V365.92H785.24V256.105H784.398Z" fill="white"/>
<path d="M862.027 283.56V365.92H832.602V156.378H862.027V231.736H863.71L882.204 156.378H912.192L886.686 253.584L911.072 365.92H879.964L863.428 283.56H862.027Z" fill="white"/>
<path d="M969.919 256.105L949.461 342.951V365.92H921.156V156.098H949.183V270.113H949.748L970.757 178.227V156.098H999.901V365.92H970.757V256.105H969.919Z" fill="white"/>
<path d="M247.202 71.4073V72.6107C247.466 73.2797 247.404 73.9487 246.999 74.6123C246.599 75.4162 246.128 75.883 245.598 76.0179C245.328 76.1525 244.96 76.2875 244.499 76.417C244.026 76.5519 243.321 76.7904 242.387 77.1225C241.453 77.4543 240.649 77.755 239.98 78.0195C237.173 79.093 233.764 80.2964 229.754 81.629C225.743 82.967 221.334 84.3726 216.519 85.8401L202.081 90.0513C197.266 91.3893 192.654 92.5872 188.244 93.6607C184.369 94.5942 180.493 95.2632 176.618 95.6623C175.009 95.9322 171.202 96.3989 165.183 97.0626C163.046 97.3375 159.834 97.602 155.559 97.8665C152.083 98.0014 148.872 97.7992 145.93 97.2648C142.994 96.7308 140.39 95.5277 138.112 93.6607C136.644 92.3227 135.84 90.518 135.705 88.2465C135.575 85.9751 135.974 83.9681 136.908 82.2306C139.186 77.1536 142.325 72.8129 146.335 69.2035C150.475 65.4641 154.62 61.9169 158.766 58.5773C162.376 55.9064 166.516 53.2977 171.202 50.7618C175.476 48.3556 180.223 47.2872 185.437 47.5517C187.175 47.6867 188.644 48.288 189.847 49.3565C190.916 50.295 191.788 51.4984 192.457 52.9659C193.126 54.4389 193.323 55.9686 193.059 57.5762C192.924 59.1787 192.322 60.5843 191.253 61.7873C189.78 62.1868 188.778 62.1192 188.244 61.5851C187.575 61.051 187.175 60.2522 187.04 59.1787C186.906 58.2452 186.906 57.1717 187.04 55.9686C187.31 54.3661 187.44 53.3653 187.44 52.9659C185.702 52.2969 183.897 52.0947 182.029 52.3642C180.291 52.4992 178.62 52.8986 177.017 53.5676C175.943 53.9667 174.34 54.7033 172.203 55.7715C170.465 56.5754 168.991 57.4466 167.793 58.375C163.243 61.3206 159.233 64.3906 155.762 67.601C151.881 71.0755 148.472 74.8822 145.531 79.0257C143.658 81.5616 142.724 83.5064 142.724 84.8393C142.724 86.3119 143.124 87.4426 143.928 88.2465C144.732 89.0451 145.604 89.6468 146.532 90.0513L147.938 90.4504C151.414 91.2543 155.762 91.4515 160.97 91.0521C166.184 90.6476 171.601 90.0513 177.214 89.2473C182.963 88.4434 188.312 87.4426 193.261 86.2395C199.004 84.9066 203.015 83.8331 205.292 83.0346C207.025 82.5002 208.934 81.8677 211.004 81.1311C213.074 80.3948 215.383 79.5962 217.925 78.725C220.462 77.8588 222.465 77.1536 223.943 76.6193C230.356 74.3478 236.976 71.9417 243.793 69.4003C244.727 69.1358 245.463 69.2035 245.998 69.6026C246.667 70.002 247.066 70.6037 247.202 71.4073Z" fill="white"/>
<path d="M262.041 106.085L261.637 106.484C261.906 107.159 262.306 107.491 262.84 107.491C263.375 107.491 264.044 107.288 264.848 106.884C265.512 106.619 266.384 106.018 267.452 105.084C268.791 104.016 269.792 103.145 270.466 102.476C272.599 100.339 275.006 97.7358 277.683 94.6553C274.472 95.3294 271.665 96.1333 269.263 97.0614C267.255 98.0003 265.382 99.2033 263.644 100.671C262.041 102.144 261.501 103.949 262.041 106.085ZM284.096 32.3141L283.499 31.9147C277.745 37.1266 271.867 42.9403 265.849 49.3553C260.5 54.9717 255.224 61.3816 250.01 68.6006C254.15 66.4641 260.5 63.2537 269.06 58.9806C277.61 54.7022 283.966 51.4296 288.111 49.153C296.396 44.6101 302.551 41.1355 306.56 38.7342C313.506 34.5907 319.458 30.7116 324.407 27.1072C325.341 26.4382 326.746 25.3025 328.62 23.6948C330.087 22.4968 331.425 21.1641 332.626 19.686C333.698 18.3532 334.701 16.8182 335.638 15.0809C336.437 13.4732 336.838 11.741 336.838 9.8637C336.168 8.80057 335.365 8.06417 334.434 7.65966C333.497 7.26032 332.494 7.05807 331.425 7.05807C330.087 7.05807 329.081 7.12548 328.416 7.26032L325.407 7.86191C317.251 9.73405 309.901 12.9442 303.347 17.4871C297.201 21.7604 290.783 26.7027 284.096 32.3141ZM364.512 71.4061L363.91 72.0078C364.18 72.6768 364.111 73.3458 363.713 74.0097C363.311 74.8134 362.841 75.2855 362.305 75.415C362.171 75.415 361.102 75.8145 359.099 76.6181C358.431 76.888 357.159 77.3858 355.29 78.1221C353.413 78.8585 351.877 79.4239 350.674 79.8284C348.272 80.7619 344.06 82.2295 338.042 84.2365C336.437 84.7705 333.964 85.5694 330.623 86.6375C327.281 87.711 324.671 88.5822 322.802 89.2461L314.979 91.6526C308.832 93.1201 303.754 94.1263 299.743 94.6553C295.997 95.1944 292.189 95.4589 288.308 95.4589H286.503C285.704 95.4589 285.102 95.3916 284.703 95.262C283.763 97.1341 282.363 99.136 280.49 101.273C278.617 103.549 276.542 105.551 274.275 107.288C271.732 109.16 269.325 110.493 267.053 111.297C264.78 112.096 262.508 111.966 260.236 110.893C258.897 109.829 258.16 108.761 258.031 107.688C257.761 106.355 257.828 105.084 258.233 103.881C258.633 102.543 259.234 101.273 260.033 100.069C261.102 98.467 261.906 97.3363 262.44 96.6623C263.774 95.1944 265.382 93.924 267.255 92.8556C269.123 91.7872 270.928 90.9836 272.666 90.4492C274.275 90.0501 276.345 89.5779 278.887 89.0439C281.559 88.3749 283.499 86.8397 284.703 84.4336C285.102 83.6348 285.704 82.499 286.503 81.0264C287.307 79.5586 287.841 78.4904 288.111 77.8214C279.421 78.8896 271.732 81.965 265.05 87.042C258.498 91.9844 252.614 97.9326 247.4 104.882C244.324 108.626 241.517 112.635 238.98 116.908C237.242 119.714 234.767 123.925 231.561 129.536C230.757 130.605 230.155 131.341 229.756 131.74C228.952 132.544 228.35 133.078 227.95 133.343C227.551 133.613 226.814 133.877 225.745 134.147C224.277 134.411 223.473 133.815 223.338 132.342C223.208 131.409 223.136 130.402 223.136 129.334C225.009 115.171 228.619 101.34 233.963 87.8408C239.317 74.4815 246.866 62.4552 256.625 51.7617C262.907 44.5427 269.86 37.3289 277.481 30.115C284.703 23.2955 292.521 17.0826 300.946 11.4714C306.425 8.26121 311.638 5.523 316.59 3.25152C322.201 0.845212 327.946 -0.088273 333.829 0.445887C336.371 0.580725 338.644 1.58163 340.65 3.4486C342.653 5.1911 343.524 7.39517 343.255 10.066C343.12 13.1413 342.12 16.0143 340.246 18.6851C338.374 21.3611 336.371 23.7674 334.234 25.9041C330.623 29.3787 326.476 32.5888 321.802 35.5241C315.913 39.2686 311.503 42.0068 308.563 43.7439C299.338 49.0908 288.91 54.7644 277.284 60.78C266.856 66.1269 256.225 71.3388 245.398 76.4158C242.057 83.2303 239.048 90.2469 236.371 97.4659C233.699 104.68 231.696 112.096 230.357 119.714C233.164 115.171 236.173 110.561 239.38 105.883C242.99 100.806 246.466 96.4651 249.807 92.8556C253.419 88.9817 257.559 85.3722 262.243 82.0272C266.783 78.6927 271.732 76.1513 277.081 74.4142C279.489 73.6103 282.16 73.0086 285.102 72.6095C288.039 72.205 290.518 73.0762 292.521 75.2128C293.59 77.8888 293.522 80.3625 292.319 82.634C291.52 84.2365 290.316 86.5079 288.713 89.4484C292.588 89.4484 296.998 89.0439 301.949 88.2453C306.892 87.4414 313.506 85.8389 321.802 83.4325C327.814 81.161 334.03 78.9572 340.449 76.8153C346.865 74.6838 353.683 72.2774 360.904 69.6014C362.638 69.0673 363.841 69.6741 364.512 71.4061Z" fill="white"/>
<path d="M394.192 63.1858H394.395C394.395 63.725 394.659 64.1866 395.195 64.5911C395.599 64.8607 396.195 65.3897 397 66.1936C397.398 65.924 398.069 65.3274 399.006 64.3889C400.611 62.7864 401.814 61.3811 402.617 60.1777C402.883 59.7786 403.216 59.2442 403.614 58.5752C404.018 57.9062 404.284 57.5071 404.419 57.3722C403.883 57.5071 403.216 57.7094 402.41 57.9739C399.338 59.1769 397.263 60.2504 396.195 61.1839C394.991 62.1174 394.323 62.7864 394.192 63.1858ZM488.039 71.4055L486.437 72.8058C487.105 74.6832 486.503 75.8812 484.632 76.4152C484.497 76.4152 484.299 76.4826 484.03 76.6175C483.763 76.7524 483.464 76.8509 483.132 76.9182C482.793 76.9858 482.494 77.0842 482.225 77.2192C480.62 77.7532 478.416 78.5572 475.608 79.6202L469.59 82.0266C468.656 82.4311 465.248 83.7015 459.365 85.8383C454.284 87.7104 450.404 89.1779 447.734 90.2464C443.722 91.8488 440.314 93.2542 437.509 94.4575C433.497 96.06 428.886 98.067 423.671 100.468C418.587 102.745 413.44 104.752 408.231 106.484C403.281 108.086 398.671 108.89 394.395 108.89C390.111 108.89 386.97 107.355 384.967 104.28C383.895 102.812 383.563 101.075 383.967 99.0678C384.365 96.7963 385.03 94.7944 385.97 93.0519C387.039 90.9205 388.243 88.9811 389.581 87.2386C391.719 84.4327 392.922 82.8979 393.192 82.6334C396.129 79.0239 397.533 76.353 397.398 74.6105C397.398 73.9466 397.201 73.4075 396.796 73.008C394.659 74.2111 391.252 76.0834 386.572 78.6245C383.494 80.227 379.754 81.8968 375.344 83.6342C371.734 84.9722 368.521 85.973 365.716 86.6369C363.042 87.171 361.036 87.0414 359.704 86.2375C358.362 85.4389 357.566 84.3032 357.296 82.8303C357.159 81.4976 357.159 80.092 357.296 78.6245C357.566 77.1516 357.964 75.8136 358.5 74.6105C358.635 74.346 358.835 73.9466 359.102 73.4075C359.237 73.143 359.335 72.9407 359.395 72.8058C359.47 72.6762 359.536 72.5051 359.605 72.3079C359.671 72.1057 359.769 71.9396 359.898 71.805C360.832 70.0726 362.105 69.6681 363.713 70.6016C365.446 71.5405 365.85 72.8058 364.91 74.4133C364.111 76.2857 363.578 77.6859 363.308 78.6245C362.907 80.092 362.772 81.0982 362.907 81.6272C363.841 81.6272 365.518 81.2278 367.925 80.4241C370.326 79.6202 372.937 78.6245 375.743 77.4214C377.611 76.6175 380.557 75.2846 384.569 73.4075C387.105 72.2041 389.913 70.6692 392.988 68.8023V68.6C391.251 67.2671 390.183 65.9913 389.778 64.7883C389.377 63.725 389.311 62.6514 389.581 61.5833C390.111 57.7094 394.126 54.4368 401.611 51.7608C406.021 50.0237 409.03 50.3555 410.635 52.7619C411.302 53.8354 411.506 54.9711 411.24 56.1691C410.964 57.5071 410.503 58.7775 409.835 59.9808C409.03 61.4535 408.159 62.7191 407.225 63.7872C406.557 64.5911 405.425 65.7891 403.817 67.3967C402.883 68.3301 402.213 68.9318 401.814 69.2014C402.883 70.6692 403.416 72.0745 403.416 73.4075C403.817 76.6175 402.012 80.6937 398 85.6361C395.195 88.9811 393.12 92.1238 391.784 95.0589C390.581 97.6002 390.311 99.3996 390.982 100.468C391.65 101.671 393.859 102.076 397.602 101.671C401.611 101.272 407.159 99.7368 414.246 97.0608C421.865 94.1254 429.419 91.1176 436.907 88.0422C447.734 83.6342 453.482 81.2954 454.15 81.0255C459.231 79.0239 465.311 76.7524 472.401 74.2111C473.605 73.812 475.542 73.0754 478.213 72.0072C480.886 70.9388 482.961 70.1349 484.434 69.6008C486.168 69.0668 487.371 69.6681 488.039 71.4055Z" fill="white"/>
<path d="M643.054 71.2042L642.656 71.6036C643.317 73.4757 642.722 74.679 640.844 75.2131L635.832 77.0178C632.491 78.2209 628.075 79.8234 622.602 81.8253C615.782 84.3663 609.695 86.5705 604.35 88.4425C598.737 90.4444 591.847 92.721 583.698 95.257C581.015 96.0609 579.081 96.6626 577.877 97.0617L572.464 98.8664C566.177 101.008 561.234 102.544 557.629 103.477C553.213 104.68 549.404 105.282 546.198 105.282C542.183 105.282 539.374 104.078 537.773 101.672C535.901 99.4008 535.764 96.6626 537.368 93.4522C538.976 90.2472 541.183 87.0372 543.988 83.8322C546.53 81.0267 549.467 78.0186 552.811 74.8086C555.883 72.003 558.027 69.8716 559.231 68.3936C558.557 68.3936 556.62 68.9327 553.413 70.0011C549.934 71.2042 546.599 72.4075 543.386 73.6106C539.776 74.9486 536.371 76.3488 533.162 77.8164C529.949 79.2893 527.746 80.2901 526.542 80.8244C524.802 81.763 522.326 83.1632 519.123 85.0353C516.716 86.5082 514.111 87.7113 511.302 88.6448C509.964 89.1791 508.695 88.9769 507.491 88.0434C506.29 87.1099 506.015 85.9066 506.692 84.4339C507.222 82.1624 508.159 79.8233 509.497 77.4172L513.108 70.6028C510.168 71.4064 507.422 72.4075 504.886 73.6106C503.147 74.4091 500.539 75.7471 497.063 77.6195C493.587 79.4915 490.982 80.8244 489.243 81.6281C487.102 82.6965 484.428 83.7649 481.222 84.833C480.153 84.833 479.35 84.6308 478.814 84.2317C478.281 83.8322 477.88 83.2306 477.611 82.432C477.347 81.6281 477.347 80.8245 477.611 80.0256C477.88 79.0921 478.281 78.3507 478.814 77.8164C481.087 74.2123 483.629 70.4679 486.437 66.5939C489.108 62.8549 492.117 59.5099 495.458 56.5694C495.859 55.9004 496.392 55.5683 497.063 55.5683C497.731 55.5683 498.332 55.7655 498.868 56.17C499.401 56.5694 499.868 57.0413 500.273 57.5753C500.674 58.2392 500.605 58.9082 500.072 59.5772L492.853 67.9941C490.847 70.4005 488.575 73.4083 486.033 77.0178C491.65 74.0773 495.79 71.8732 498.467 70.4005C502.479 68.2637 506.82 66.6612 511.506 65.5877C513.108 65.0587 514.713 65.0587 516.314 65.5877C517.785 66.1272 518.85 67.3302 519.521 69.1972C519.123 71.4741 518.323 73.6106 517.12 75.6125C515.515 78.2885 514.374 80.3577 513.707 81.8253C522.536 76.7482 531.287 72.4075 539.976 68.7981C540.249 68.6682 540.647 68.4971 541.183 68.2948C541.716 68.098 542.347 67.8281 543.084 67.4963C543.823 67.1645 544.59 66.8635 545.395 66.5939C547.931 65.6604 550.671 64.8565 553.611 64.1875C556.425 63.5239 559.027 63.3162 561.434 63.5861C563.973 63.8557 565.311 65.0587 565.446 67.1956C565.575 68.1291 565.177 69.3994 564.243 71.0019C563.302 72.6098 561.97 74.3418 560.231 76.2139C559.162 77.4172 557.222 79.4188 554.416 82.2247L547.802 88.8419C545.922 90.9839 544.521 92.9855 543.59 94.8578C542.65 96.7299 542.446 97.9329 542.988 98.4619C543.79 99.5354 545.524 99.9399 548.201 99.6653C550.871 99.4008 553.88 98.7991 557.222 97.8656C559.494 97.1966 563.039 96.0609 567.853 94.4533C568.656 94.1888 571.862 93.0531 577.476 91.0512C586.967 87.9758 596.527 84.7708 606.156 81.4258C609.892 80.0932 615.548 78.0862 623.102 75.4153C630.65 72.7393 636.036 70.7997 639.246 69.5966C639.916 69.3321 640.647 69.3994 641.446 69.7989C642.38 70.2034 642.919 70.6701 643.054 71.2042Z" fill="white"/>
<path d="M628.419 95.8565H628.216C630.09 94.389 631.497 92.3198 632.425 89.6438C633.632 86.4388 634.365 84.1 634.635 82.6271C631.698 85.9721 629.29 88.9748 627.419 91.6457C625.545 94.3217 624.545 96.1264 624.41 97.0599C626.012 97.3295 627.35 96.93 628.419 95.8565ZM791.853 71.2024L790.443 72.6077C790.719 73.2767 790.65 73.9406 790.24 74.6096C789.847 75.4132 789.38 75.88 788.844 76.0098C788.71 76.0098 786.91 76.6166 783.434 77.8146C779.946 79.0176 775.536 80.6201 770.189 82.6271C764.85 84.629 758.629 86.8382 751.542 89.2444C744.461 91.6457 737.24 94.0518 729.892 96.4582C722.401 98.8646 714.308 101.338 705.623 103.874C699.611 105.611 693.793 107.084 688.18 108.282C682.566 109.485 678.62 110.227 676.347 110.492C673.404 110.891 670.997 111.093 669.129 111.093C666.722 111.093 665.114 110.891 664.314 110.492C663.512 110.092 662.91 109.558 662.506 108.889C661.036 107.287 660.434 105.477 660.704 103.475C660.97 101.338 661.772 99.2015 663.111 97.0599C664.716 94.6535 666.521 92.3198 668.524 90.0432C669.997 88.4407 672.335 86.0343 675.542 82.8294V82.6271L686.775 71.4046L640.85 83.2288C640.449 84.9659 640.18 86.1692 640.045 86.8382C639.647 88.4407 639.051 89.981 638.246 91.4485C637.171 93.5904 636.311 95.1929 635.641 96.261C634.701 97.7289 633.497 98.9993 632.024 100.068C630.692 100.866 629.617 101.406 628.817 101.67C627.62 102.07 626.41 102.272 625.213 102.272C624.003 102.272 622.874 101.94 621.805 101.271C620.737 100.737 619.925 99.7359 619.398 98.263C618.862 96.5255 619.458 94.1245 621.198 91.0491C622.805 88.3731 625.147 85.1681 628.216 81.424C630.758 78.3537 633.904 74.9465 637.644 71.2024C640.18 68.6664 643.323 65.6583 647.069 62.1787C647.74 61.5148 648.47 61.1776 649.275 61.1776C649.94 61.1776 650.608 61.5148 651.278 62.1787C651.811 62.7179 652.081 63.3818 652.081 64.1857C652.081 64.8547 651.746 65.5237 651.075 66.1927C649.737 67.3957 647.868 69.1954 645.461 71.6015L640.249 76.8135L695.994 62.381C697.602 62.2511 698.671 62.7179 699.21 63.7863C699.868 64.8547 699.671 65.9904 698.605 67.1935C694.593 71.472 690.584 75.4809 686.572 79.2199C681.359 84.1673 677.814 87.6419 675.943 89.6438C672.737 93.1183 670.395 95.9292 668.928 98.0607C667.32 100.467 666.853 102.406 667.521 103.874C668.725 104.678 672.467 104.476 678.755 103.273C685.168 102.07 693.524 100.068 703.817 97.2621C713.446 94.7262 725.805 90.9818 740.916 86.0343C754.281 81.7609 770.06 76.2121 788.249 69.3977C790.111 68.7337 791.314 69.33 791.853 71.2024Z" fill="white"/>
<path d="M818.719 52.5629C813.641 52.8325 809.027 54.435 804.883 57.3704C800.736 60.3159 797.132 63.7231 794.054 67.5971C798.47 66.1296 803.009 64.1899 807.689 61.7838C812.105 59.6469 815.781 56.5718 818.719 52.5629ZM892.716 71.4037L891.114 71.606C891.377 72.275 891.311 72.944 890.91 73.613C890.512 74.4115 890.039 74.8837 889.509 75.0132C889.24 75.2828 887.434 76.014 884.093 77.2174C880.617 78.4204 876.602 79.8257 872.063 81.4282C868.982 82.4966 864.509 84.1042 858.626 86.241C854.216 87.8435 851.009 89.0466 849.003 89.8451C842.449 91.7175 838.371 92.8532 836.769 93.2524C831.82 94.4557 827.68 95.3943 824.332 96.0633C822.329 96.4627 819.186 97.0641 814.91 97.8629C812.105 98.397 808.892 98.6666 805.281 98.6666C802.075 98.6666 798.868 98.2674 795.659 97.4635C792.317 96.6596 789.308 95.192 786.632 93.0555C784.635 91.453 783.425 89.5133 783.024 87.2419C782.626 85.2349 782.754 82.8284 783.425 80.0229C783.964 77.7514 784.898 75.2828 786.231 72.6068C787.171 70.7347 788.305 68.7328 789.647 66.5963C792.317 62.3178 795.659 58.5734 799.668 55.3685C803.686 52.1584 808.021 49.752 812.707 48.1495C814.713 47.4859 816.913 47.2837 819.32 47.5532C821.859 47.8177 823.596 49.0208 824.536 51.1576C825.069 53.1646 824.871 55.0367 823.934 56.7741C822.994 58.5061 821.796 59.979 820.326 61.1821C816.311 64.6566 811.701 67.5298 806.491 69.8013C802.075 71.8032 797.063 73.6803 791.446 75.4126C791.177 76.0867 790.775 77.1498 790.248 78.6227C789.707 80.0956 789.374 81.0237 789.239 81.4282C788.44 83.5702 788.772 85.5721 790.248 87.4441C792.784 89.8451 795.922 91.2507 799.668 91.6499C803.686 92.0493 807.156 92.1842 810.096 92.0493C819.32 91.2507 828.748 89.5133 838.371 86.8373C847.859 84.1664 857.024 81.1637 865.847 77.8188C869.054 76.6157 871.063 75.8845 871.859 75.6149L879.081 73.2085C879.88 72.944 881.018 72.5446 882.491 72.0054C883.958 71.4711 884.967 71.1393 885.494 71.0043C887.503 70.3353 888.638 69.9362 888.904 69.8013C889.572 69.5317 890.308 69.599 891.114 70.0035C892.048 70.4029 892.581 70.8697 892.716 71.4037Z" fill="white"/>
</g>
</g>
</svg>
