<svg width="38" height="28" viewBox="0 0 38 28" fill="none" xmlns="http://www.w3.org/2000/svg">
<g clip-path="url(#clip0_3163_1096)">
<g clip-path="url(#clip1_3163_1096)">
<path d="M16.3483 0.496245C12.4302 1.32922 8.88236 3.99784 7.10843 7.43773L6.84619 7.94678H7.38609C7.8797 7.94678 7.98768 7.86965 8.65098 6.83614C11.1808 2.90263 15.9935 0.681351 20.5903 1.3138C24.2462 1.80742 27.5781 3.88986 29.5217 6.89784C30.1387 7.85422 30.2467 7.94678 30.7249 7.94678H31.2648L30.7712 7.0521C28.8739 3.6739 25.5728 1.28295 21.6393 0.480819C20.1739 0.172309 17.7829 0.187734 16.3483 0.496245Z" fill="white"/>
<path d="M21.1303 3.34996C21.0994 3.45794 20.8526 4.3372 20.6058 5.27816L20.1431 7.02124H20.9606H21.7627L22.2409 5.17018C22.4877 4.15209 22.6729 3.28826 22.6266 3.24199C22.4569 3.0723 21.192 3.16486 21.1303 3.34996Z" fill="white"/>
<path d="M15.8392 5.17018L15.3765 7.02124H16.1786H16.9807L17.4435 5.17018L17.9217 3.31911H17.1195H16.302L15.8392 5.17018Z" fill="white"/>
<path d="M18.6004 3.88981C18.5233 4.21374 18.3382 4.92332 18.1994 5.47864C18.0605 6.03396 17.9217 6.6047 17.8754 6.75896C17.7983 7.00577 17.8754 7.03662 18.6004 6.99034L19.418 6.94406L19.7573 5.63289C19.9425 4.90789 20.143 4.09034 20.1893 3.81268L20.3127 3.31906H19.526C18.7547 3.31906 18.7547 3.31906 18.6004 3.88981Z" fill="white"/>
<path d="M1.15421 8.51758C1.15421 8.67184 1.49357 9.89046 1.91006 11.2325L2.65049 13.6697L2.04889 15.6288C1.72496 16.7085 1.35474 17.9117 1.23134 18.3128L1.01538 19.0532H19.0324H37.0494L36.2936 16.3383L35.5377 13.6234L36.2473 11.1862C36.6329 9.84418 36.9414 8.64099 36.9414 8.50216C36.9414 8.27078 35.4452 8.25535 19.0478 8.25535C2.11059 8.25535 1.15421 8.27078 1.15421 8.51758ZM35.7383 9.25801C35.7845 9.30429 35.5377 10.2915 35.2138 11.4639L34.5968 13.5926L35.2138 15.8139L35.8154 18.0506L27.4393 18.0968C22.8271 18.1123 15.284 18.1123 10.6718 18.0968L2.2957 18.0506L2.94357 15.8601L3.60687 13.6697L3.00527 11.6952C2.66591 10.6155 2.38825 9.59737 2.38825 9.44312C2.38825 9.19631 3.28293 9.18088 19.017 9.18088C28.1643 9.18088 35.692 9.21173 35.7383 9.25801Z" fill="white"/>
<path d="M9.51471 11.6489C8.86683 11.8032 8.15726 12.4665 7.9413 13.1298C7.69449 13.8702 7.97215 14.7495 8.63545 15.3357C9.11364 15.7521 9.29875 15.8138 10.1009 15.8138C10.9339 15.8138 11.0881 15.7676 11.5817 15.3048C12.2142 14.7341 12.461 13.9011 12.245 13.1144C12.0753 12.5282 11.1652 11.6489 10.7179 11.6489C10.5636 11.6489 10.3477 11.6181 10.2243 11.5872C10.1163 11.5564 9.79237 11.5872 9.51471 11.6489ZM10.8722 12.883C11.2886 13.2995 11.2886 14.1633 10.8413 14.5798C10.2706 15.1197 9.453 14.9654 9.08279 14.2559C8.49662 13.0989 9.96205 11.9729 10.8722 12.883Z" fill="white"/>
<path d="M29.8456 11.6644C29.5217 11.7261 29.1052 12.0037 28.7967 12.3431C28.2877 12.883 28.2722 12.9601 28.3339 13.8548C28.3956 14.6878 28.4573 14.8266 28.9664 15.2894C29.4754 15.7521 29.6297 15.8138 30.401 15.8138C31.4036 15.8138 31.9898 15.5208 32.3909 14.842C32.7302 14.2713 32.7765 13.2224 32.4834 12.667C32.0515 11.8803 30.8946 11.433 29.8456 11.6644ZM31.3419 12.9755C31.6504 13.2841 31.7121 13.4537 31.635 13.8548C31.3573 15.2894 29.3829 15.1505 29.3829 13.7005C29.3829 12.6362 30.5552 12.1888 31.3419 12.9755Z" fill="white"/>
<path d="M5.31909 13.7314V15.8138H6.47601H7.63292V15.3511C7.63292 14.9192 7.60207 14.8883 7.0159 14.8883H6.39888V13.2686V11.6489H5.85899H5.31909V13.7314Z" fill="white"/>
<path d="M13.8031 11.8495C12.785 12.3739 12.3686 14.0862 13.0473 14.95C13.4638 15.4899 14.1271 15.8138 14.7904 15.8138C15.6542 15.8138 15.8084 15.6904 15.8084 15.0271V14.4255L15.4228 14.6724C14.96 14.9654 14.1733 14.842 13.9574 14.4255C13.6951 13.9474 13.7723 13.2224 14.1271 12.8676C14.451 12.5436 14.8983 12.5282 15.5462 12.8059C15.793 12.9138 15.8239 12.8521 15.7776 12.3277L15.7313 11.7261L14.96 11.6798C14.5436 11.6644 14.0191 11.7415 13.8031 11.8495Z" fill="white"/>
<path d="M17.459 12.6825C17.243 13.2686 16.8883 14.1942 16.6723 14.7649L16.2712 15.8138H16.8111C17.2585 15.8138 17.3819 15.7367 17.5053 15.4282C17.6287 15.0888 17.7367 15.0426 18.4 15.0426C19.0478 15.0426 19.1712 15.0888 19.3255 15.4282C19.4643 15.7213 19.6186 15.8138 19.9734 15.8138C20.2202 15.8138 20.4361 15.7676 20.4361 15.6904C20.4361 15.6287 20.1122 14.7032 19.7111 13.608L18.9707 11.6489H18.4154C17.8601 11.6489 17.8446 11.6644 17.459 12.6825ZM18.7085 13.7622C18.8782 14.2559 18.8627 14.2713 18.4 14.2713C18.0452 14.2713 17.9526 14.225 18.0298 14.0245C18.076 13.8857 18.1686 13.608 18.2149 13.392C18.3383 12.9601 18.4771 13.0681 18.7085 13.7622Z" fill="white"/>
<path d="M20.8989 13.2686C20.8989 14.8729 20.9144 14.9192 21.3463 15.3665C21.7165 15.7213 21.9324 15.8138 22.5032 15.8138C24.0766 15.8138 24.4468 15.3048 24.4468 13.1144V11.6489H23.9069H23.367V13.0989C23.367 14.6878 23.2436 14.95 22.4878 14.8575L22.0558 14.8112L21.9787 13.2686L21.9016 11.7261L21.408 11.6798L20.8989 11.6335V13.2686Z" fill="white"/>
<path d="M25.218 12.1117C25.218 12.5282 25.2643 12.5745 25.6808 12.5745H26.1435V14.1942V15.8138H26.6063H27.0691V14.1942V12.5745H27.5318C27.9483 12.5745 27.9946 12.5282 27.9946 12.1117V11.6489H26.6063H25.218V12.1117Z" fill="white"/>
<path d="M7.18551 20.0095C9.56104 24.7143 15.1914 27.6915 20.5132 27.059C24.2153 26.6117 27.5472 24.7298 29.7531 21.8452C30.4009 20.9814 31.2339 19.6548 31.2339 19.4696C31.2339 19.4079 31.0025 19.3617 30.7094 19.3617C30.2467 19.3617 30.1387 19.4542 29.6297 20.2872C28.0254 22.8633 25.1717 24.9766 22.1328 25.7941C20.5903 26.2106 17.3355 26.1798 15.7621 25.717C12.7387 24.8532 10.0547 22.8478 8.46583 20.2872C7.95678 19.4542 7.84881 19.3617 7.37061 19.3617H6.86157L7.18551 20.0095Z" fill="white"/>
</g>
</g>
<defs>
<clipPath id="clip0_3163_1096">
<rect width="38" height="28" fill="white"/>
</clipPath>
<clipPath id="clip1_3163_1096">
<rect width="36.0957" height="29" fill="white" transform="translate(1 -1)"/>
</clipPath>
</defs>
</svg>
