<svg width="74" height="28" viewBox="0 0 74 28" fill="none" xmlns="http://www.w3.org/2000/svg">
<g clip-path="url(#clip0_3163_282)">
<g clip-path="url(#clip1_3163_282)">
<path fill-rule="evenodd" clip-rule="evenodd" d="M39.668 0.00729631C40.8264 -0.0123719 41.9802 0.00771863 43.1293 0.0676281C43.086 8.23252 43.096 16.3974 43.1594 24.5624C43.1589 25.5509 43.1188 26.5263 43.039 27.4884C41.9009 27.5382 40.7672 27.5282 39.6379 27.4583C39.6677 18.3038 39.6777 9.15348 39.668 0.00729631Z" fill="white"/>
<path fill-rule="evenodd" clip-rule="evenodd" d="M47.3128 2.17919C48.4367 2.16912 49.5606 2.17919 50.6838 2.20936C50.7139 2.23953 50.744 2.26969 50.7741 2.29986C50.8205 3.94981 50.8102 5.59886 50.744 7.24707C52.3693 7.23699 53.9946 7.24707 55.6199 7.27723C55.6988 7.69533 55.7391 8.12767 55.7403 8.57437C55.7397 9.01135 55.7198 9.44375 55.6801 9.8715C54.0349 9.90167 52.3898 9.91174 50.744 9.90167C50.7338 13.9641 50.744 18.0264 50.7741 22.0887C50.7862 22.5975 50.8464 23.1002 50.9547 23.597C51.1353 24.3008 51.5669 24.7734 52.2489 25.0148C53.3644 25.2354 54.4677 25.1852 55.5597 24.864C55.6 24.8841 55.6398 24.9042 55.6801 24.9243C55.7596 25.7224 55.7596 26.5168 55.6801 27.3074C53.9964 27.9257 52.2911 28.0062 50.5634 27.5487C48.9598 27.0274 47.9262 25.9514 47.4633 24.321C47.3375 23.8255 47.2575 23.3228 47.2225 22.8127C47.1925 18.509 47.1822 14.2054 47.1925 9.90167C46.3695 9.91174 45.5469 9.90167 44.7244 9.8715C44.6943 9.84134 44.6642 9.81117 44.6341 9.781C44.594 8.9766 44.594 8.17213 44.6341 7.36773C44.6642 7.33756 44.6943 7.3074 44.7244 7.27723C45.5469 7.24707 46.3695 7.23699 47.1925 7.24707C47.1533 5.54414 47.1937 3.85485 47.3128 2.17919Z" fill="white"/>
<path fill-rule="evenodd" clip-rule="evenodd" d="M8.42624 6.82475C10.2315 6.67827 11.9771 6.92961 13.6633 7.5789C16.3944 8.93794 17.8591 11.14 18.0576 14.1852C16.9746 14.2556 15.8911 14.2657 14.807 14.2154C14.222 10.653 12.1352 9.04412 8.54663 9.38886C6.8662 9.62663 5.61213 10.4813 4.78438 11.953C3.96264 13.6879 3.59141 15.518 3.67075 17.4432C3.5949 19.3203 3.94602 21.1102 4.72418 22.8127C5.60744 24.4074 6.96185 25.2822 8.78741 25.4371C12.5492 25.6494 14.6058 23.8696 14.9575 20.0978C14.9761 20.049 15.0062 20.0088 15.0478 19.9771C16.1086 19.9075 17.1721 19.8975 18.2382 19.9469C18.2189 22.68 17.0953 24.852 14.8672 26.4628C13.2163 27.5068 11.4105 28.0196 9.44957 28.0012C4.82531 27.9395 1.8255 25.7072 0.450258 21.3044C-0.0546666 19.1088 -0.134908 16.8967 0.209474 14.6679C1.06871 10.0557 3.80763 7.44135 8.42624 6.82475Z" fill="white"/>
<path fill-rule="evenodd" clip-rule="evenodd" d="M62.5425 6.88517C64.588 6.66514 66.4342 7.15787 68.0806 8.3633C68.7668 8.99009 69.3386 9.70399 69.7961 10.5051C69.8317 9.68016 69.8214 8.85561 69.766 8.03148C69.7763 7.81024 69.7859 7.58906 69.7961 7.36783C69.8262 7.33766 69.8563 7.30749 69.8864 7.27733C71.0103 7.23709 72.1336 7.23709 73.2574 7.27733C73.2875 7.30749 73.3176 7.33766 73.3477 7.36783C73.3056 13.2502 73.3158 19.1325 73.3778 25.0149C73.3676 25.8093 73.3579 26.6036 73.3477 27.398C73.3176 27.4282 73.2875 27.4583 73.2574 27.4885C72.1336 27.5287 71.0103 27.5287 69.8864 27.4885C69.7931 27.3786 69.7534 27.2478 69.766 27.0963C69.8142 26.1084 69.8443 25.123 69.8563 24.1401C67.8693 27.3127 65.0298 28.4892 61.3386 27.6695C59.198 27.093 57.583 25.8361 56.4928 23.8987C55.6266 22.2149 55.145 20.425 55.0481 18.5292C54.8416 15.9941 55.2835 13.5809 56.3724 11.2894C57.6805 8.75938 59.7368 7.29133 62.5425 6.88517ZM63.7464 9.35878C66.5582 9.21157 68.4243 10.4685 69.3447 13.1295C69.8985 14.9707 70.0893 16.851 69.9165 18.7705C69.8443 20.2473 69.4633 21.6349 68.7728 22.9334C67.4605 24.9024 65.6246 25.6968 63.2649 25.3165C61.7834 25.0381 60.6698 24.2437 59.924 22.9334C59.2131 21.5524 58.8122 20.0844 58.7201 18.5292C58.5479 16.6363 58.7484 14.7862 59.322 12.9787C60.0805 10.8763 61.5553 9.66967 63.7464 9.35878Z" fill="white"/>
<path fill-rule="evenodd" clip-rule="evenodd" d="M19.3218 7.24707C20.4456 7.23699 21.5692 7.24707 22.6927 7.27723C22.763 7.3074 22.8131 7.35765 22.8432 7.42806C22.8077 11.9123 22.8077 16.397 22.8432 20.8821C23.1591 24.1163 24.9148 25.5341 28.1104 25.1355C29.2675 24.8599 30.2006 24.2465 30.9095 23.2953C31.7666 22.0994 32.3285 20.7721 32.595 19.3134C32.6181 15.3314 32.6181 11.3495 32.595 7.36773C32.6251 7.33756 32.6552 7.3074 32.6853 7.27723C33.8517 7.2277 35.0155 7.23777 36.1767 7.3074C36.2342 7.38975 36.2743 7.48025 36.2971 7.57889C36.1787 13.2058 36.1586 18.8367 36.2369 24.4718C36.2268 25.4472 36.2168 26.4225 36.2068 27.3979C36.1767 27.4281 36.1466 27.4582 36.1165 27.4884C34.9984 27.5382 33.8848 27.5282 32.7756 27.4582C32.7229 27.3754 32.6928 27.2849 32.6853 27.1867C32.7514 26.132 32.7815 25.0761 32.7756 24.0193C30.4817 27.588 27.3014 28.7444 23.2345 27.4884C21.0935 26.4871 19.8394 24.8078 19.4723 22.4507C19.3839 21.9715 19.3237 21.4889 19.2917 21.0027C19.2469 16.4577 19.2269 11.9127 19.2315 7.36773C19.2746 7.33491 19.3047 7.29467 19.3218 7.24707Z" fill="white"/>
<path fill-rule="evenodd" clip-rule="evenodd" d="M64.1076 15.0902C65.8172 15.265 66.6298 16.2102 66.5455 17.9258C66.1513 19.3458 65.2182 19.9793 63.7464 19.8263C62.6852 19.5601 62.0531 18.8864 61.8502 17.8051C61.8123 16.2298 62.5648 15.3248 64.1076 15.0902Z" fill="white"/>
</g>
</g>
<defs>
<clipPath id="clip0_3163_282">
<rect width="74" height="28" fill="white"/>
</clipPath>
<clipPath id="clip1_3163_282">
<rect width="73.7882" height="28" fill="white"/>
</clipPath>
</defs>
</svg>
