<svg width="1000" height="803" viewBox="0 0 1000 803" fill="none" xmlns="http://www.w3.org/2000/svg">
<path d="M425.214 41.4312C316.667 64.4961 218.376 138.389 169.231 233.639L161.966 247.734H176.923C190.598 247.734 193.59 245.598 211.966 216.981C282.051 108.063 415.385 46.5568 542.735 64.069C644.017 77.7371 736.325 135.399 790.171 218.689C807.265 245.171 810.257 247.734 823.504 247.734H838.462L824.786 222.96C772.222 129.42 680.769 63.2147 571.795 41.0041C531.197 32.4615 464.957 32.8887 425.214 41.4312Z" fill="white"/>
<path d="M557.692 120.45C556.838 123.44 550 147.786 543.162 173.841L530.342 222.106H552.992H575.214L588.462 170.851C595.299 142.661 600.427 118.742 599.145 117.46C594.445 112.762 559.402 115.325 557.692 120.45Z" fill="white"/>
<path d="M411.111 170.851L398.291 222.106H420.513H442.735L455.556 170.851L468.803 119.596H446.581H423.932L411.111 170.851Z" fill="white"/>
<path d="M487.607 135.399C485.47 144.369 480.342 164.017 476.496 179.393C472.65 194.77 468.803 210.574 467.521 214.845C465.385 221.679 467.521 222.533 487.607 221.252L510.256 219.971L519.658 183.665C524.786 163.59 530.342 140.952 531.624 133.264L535.043 119.596H513.248C491.88 119.596 491.88 119.596 487.607 135.399Z" fill="white"/>
<path d="M4.27532 263.538C4.27532 267.809 13.677 301.552 25.2155 338.712L45.7283 406.198L29.0616 460.444C20.0873 490.342 9.83088 523.658 6.41207 534.764L0.429169 555.266H499.574H998.72L977.78 480.091L956.839 404.917L976.498 337.431C987.181 300.271 995.728 266.955 995.728 263.111C995.728 256.704 954.275 256.276 500.002 256.276C30.771 256.276 4.27532 256.704 4.27532 263.538ZM962.395 284.04C963.677 285.321 956.839 312.657 947.865 345.119L930.771 404.063L947.865 465.569L964.532 527.503L732.48 528.784C604.703 529.211 395.728 529.211 267.951 528.784L35.8993 527.503L53.848 466.85L72.224 406.198L55.5574 351.526C46.1557 321.627 38.4634 293.437 38.4634 289.165C38.4634 282.331 63.2497 281.904 499.147 281.904C752.566 281.904 961.113 282.758 962.395 284.04Z" fill="white"/>
<path d="M235.897 350.245C217.949 354.516 198.291 372.882 192.308 391.249C185.47 411.751 193.162 436.097 211.538 452.328C224.786 463.861 229.915 465.569 252.137 465.569C275.214 465.569 279.487 464.288 293.162 451.474C310.684 435.67 317.521 412.605 311.538 390.822C306.838 374.591 281.624 350.245 269.231 350.245C264.957 350.245 258.974 349.39 255.556 348.536C252.564 347.682 243.59 348.536 235.897 350.245ZM273.504 384.415C285.043 395.947 285.043 419.866 272.65 431.399C256.838 446.348 234.188 442.077 223.932 422.429C207.692 390.395 248.291 359.214 273.504 384.415Z" fill="white"/>
<path d="M799.145 350.672C790.171 352.38 778.633 360.069 770.086 369.465C755.983 384.415 755.556 386.55 757.265 411.324C758.974 434.389 760.684 438.233 774.786 451.047C788.889 463.861 793.162 465.569 814.53 465.569C842.308 465.569 858.547 457.454 869.658 438.66C879.06 422.856 880.342 393.812 872.222 378.435C860.257 356.652 828.205 344.265 799.145 350.672ZM840.598 386.978C849.145 395.52 850.855 400.219 848.718 411.324C841.026 451.047 786.325 447.203 786.325 407.053C786.325 377.581 818.804 365.194 840.598 386.978Z" fill="white"/>
<path d="M119.658 407.907V465.569H151.709H183.761V452.755C183.761 440.796 182.906 439.941 166.667 439.941H149.573V395.093V350.245H134.615H119.658V407.907Z" fill="white"/>
<path d="M354.701 355.797C326.496 370.32 314.957 417.731 333.761 441.65C345.299 456.599 363.675 465.569 382.051 465.569C405.983 465.569 410.256 462.152 410.256 443.786V427.128L399.573 433.962C386.752 442.077 364.957 438.66 358.974 427.128C351.709 413.887 353.846 393.812 363.675 383.988C372.65 375.018 385.043 374.591 402.991 382.279C409.829 385.269 410.684 383.561 409.402 369.038L408.12 352.38L386.752 351.099C375.214 350.672 360.684 352.807 354.701 355.797Z" fill="white"/>
<path d="M455.983 378.862C450 395.093 440.171 420.721 434.188 436.524L423.077 465.569H438.034C450.427 465.569 453.846 463.433 457.265 454.891C460.684 445.494 463.675 444.213 482.051 444.213C500 444.213 503.419 445.494 507.692 454.891C511.538 463.006 515.812 465.569 525.641 465.569C532.479 465.569 538.462 464.288 538.462 462.152C538.462 460.444 529.487 434.816 518.376 404.49L497.863 350.245H482.479C467.094 350.245 466.667 350.672 455.983 378.862ZM490.598 408.761C495.299 422.429 494.872 422.856 482.051 422.856C472.222 422.856 469.658 421.575 471.795 416.022C473.077 412.178 475.641 404.49 476.923 398.51C480.342 386.55 484.188 389.54 490.598 408.761Z" fill="white"/>
<path d="M551.282 395.093C551.282 439.514 551.709 440.796 563.675 453.182C573.932 463.006 579.915 465.569 595.727 465.569C639.316 465.569 649.573 451.474 649.573 390.822V350.245H634.615H619.658V390.395C619.658 434.389 616.239 441.65 595.299 439.087L583.333 437.806L581.197 395.093L579.06 352.38L565.385 351.099L551.282 349.817V395.093Z" fill="white"/>
<path d="M670.94 363.058C670.94 374.591 672.222 375.872 683.761 375.872H696.581V420.721V465.569H709.402H722.222V420.721V375.872H735.043C746.581 375.872 747.863 374.591 747.863 363.058V350.245H709.402H670.94V363.058Z" fill="white"/>
<path d="M171.368 581.748C237.179 712.022 393.162 794.457 540.598 776.945C643.162 764.558 735.47 712.449 796.581 632.576C814.53 608.657 837.607 571.924 837.607 566.798C837.607 565.09 831.197 563.808 823.077 563.808C810.256 563.808 807.265 566.371 793.162 589.436C748.718 660.766 669.658 719.283 585.47 741.921C542.735 753.453 452.564 752.599 408.974 739.785C325.214 715.866 250.855 660.339 206.838 589.436C192.735 566.371 189.744 563.808 176.496 563.808H162.393L171.368 581.748Z" fill="white"/>
</svg>
