<svg width="146" height="18" viewBox="0 0 146 18" fill="none" xmlns="http://www.w3.org/2000/svg">
<g clip-path="url(#clip0_2834_3674)">
<path d="M135.959 13.9474V3.14069H145.283V13.9474H143.103V4.95588H138.125V13.9474H135.959Z" fill="white"/>
<path d="M124.918 13.9474V3.14069H134.242V13.9474H132.061V4.95588H127.083V13.9474H124.918Z" fill="white"/>
<path d="M115.713 18C115.38 18 115.078 17.9742 114.805 17.9226C114.532 17.8757 114.328 17.8241 114.195 17.7678L114.73 16.044C115.137 16.1472 115.499 16.1918 115.817 16.1778C116.134 16.1637 116.415 16.0511 116.658 15.84C116.905 15.629 117.124 15.2842 117.313 14.8058L117.588 14.0881L113.406 3.14069H115.787L118.681 11.5272H118.801L121.696 3.14069H124.084L119.374 15.3897C119.155 15.9526 118.878 16.4286 118.54 16.818C118.203 17.2119 117.801 17.5074 117.335 17.7045C116.869 17.9015 116.328 18 115.713 18Z" fill="white"/>
<path d="M103.018 18V3.14072H105.192V4.89259H105.378C105.507 4.66745 105.693 4.40713 105.936 4.11164C106.179 3.81614 106.516 3.55816 106.948 3.33771C107.38 3.11257 107.95 3 108.659 3C109.582 3 110.406 3.22045 111.13 3.66135C111.854 4.10225 112.422 4.7378 112.834 5.56801C113.251 6.39822 113.459 7.39728 113.459 8.56523C113.459 9.73313 113.253 10.7345 112.841 11.5694C112.429 12.3996 111.864 13.0399 111.145 13.4902C110.425 13.9358 109.604 14.1585 108.682 14.1585C107.987 14.1585 107.419 14.0483 106.978 13.8278C106.541 13.6074 106.198 13.3494 105.951 13.054C105.703 12.7585 105.511 12.4958 105.378 12.266H105.244V18H103.018ZM105.199 8.54408C105.199 9.30398 105.316 9.96998 105.549 10.5422C105.782 11.1145 106.12 11.5624 106.561 11.886C107.002 12.205 107.543 12.3644 108.183 12.3644C108.848 12.3644 109.403 12.1979 109.85 11.8649C110.296 11.5272 110.634 11.0698 110.862 10.493C111.095 9.91605 111.211 9.2664 111.211 8.54408C111.211 7.83113 111.097 7.1909 110.869 6.62335C110.646 6.05581 110.309 5.60788 109.858 5.27955C109.411 4.95122 108.853 4.78706 108.183 4.78706C107.538 4.78706 106.993 4.94418 106.546 5.25845C106.105 5.5727 105.769 6.01126 105.541 6.57411C105.313 7.13696 105.199 7.79363 105.199 8.54408Z" fill="white"/>
<path d="M101.925 3.14069V4.95588H96.8122V13.9474H94.6169V3.14069H101.925Z" fill="white"/>
<path d="M84.5107 14.1655C83.4044 14.1655 82.4519 13.9287 81.6532 13.455C80.8597 12.9766 80.2492 12.3175 79.8224 11.4779C79.3964 10.6384 79.1827 9.6768 79.1827 8.59335C79.1827 7.49578 79.4009 6.5272 79.8374 5.68762C80.2739 4.84334 80.8897 4.18433 81.6832 3.7106C82.4767 3.23687 83.4119 3 84.4882 3C85.3567 3 86.1307 3.15244 86.8102 3.45732C87.4897 3.75751 88.0379 4.17964 88.4549 4.72373C88.8764 5.26782 89.1269 5.90338 89.2064 6.63039H87.0412C86.9219 6.12382 86.6489 5.68762 86.2222 5.32176C85.8007 4.95591 85.2352 4.77298 84.5257 4.77298C83.9054 4.77298 83.3624 4.92777 82.8959 5.23733C82.4347 5.54221 82.0754 5.97842 81.8174 6.54596C81.5594 7.10881 81.4304 7.77487 81.4304 8.54408C81.4304 9.3321 81.5564 10.0122 81.8099 10.5844C82.0627 11.1566 82.4197 11.5999 82.8809 11.9142C83.3474 12.2284 83.8957 12.3856 84.5257 12.3856C84.9472 12.3856 85.3297 12.3128 85.6717 12.1675C86.0189 12.0173 86.3092 11.8039 86.5424 11.5272C86.7802 11.2504 86.9467 10.9174 87.0412 10.5281H89.2064C89.1269 11.227 88.8862 11.8508 88.4849 12.3996C88.0829 12.9484 87.5444 13.3799 86.8694 13.6942C86.2004 14.0084 85.4137 14.1655 84.5107 14.1655Z" fill="white"/>
<path d="M73.1429 14.1655C72.0714 14.1655 71.1362 13.9334 70.3376 13.469C69.5388 13.0047 68.9187 12.355 68.4772 11.5201C68.0357 10.6852 67.8149 9.70965 67.8149 8.59335C67.8149 7.47232 68.0357 6.49202 68.4772 5.65243C68.9187 4.81286 69.5388 4.16088 70.3376 3.69653C71.1362 3.23218 72.0714 3 73.1429 3C74.2145 3 75.1496 3.23218 75.9487 3.69653C76.7467 4.16088 77.3669 4.81286 77.8087 5.65243C78.2504 6.49202 78.4709 7.47232 78.4709 8.59335C78.4709 9.70965 78.2504 10.6852 77.8087 11.5201C77.3669 12.355 76.7467 13.0047 75.9487 13.469C75.1496 13.9334 74.2145 14.1655 73.1429 14.1655ZM73.1504 12.3996C73.8449 12.3996 74.4204 12.226 74.8768 11.8789C75.3332 11.5319 75.6704 11.0698 75.8887 10.4929C76.1122 9.91605 76.2239 9.2805 76.2239 8.5863C76.2239 7.89682 76.1122 7.2636 75.8887 6.68668C75.6704 6.10507 75.3332 5.63836 74.8768 5.28658C74.4204 4.9348 73.8449 4.75891 73.1504 4.75891C72.4509 4.75891 71.8705 4.9348 71.4091 5.28658C70.9527 5.63836 70.6129 6.10507 70.3896 6.68668C70.1714 7.2636 70.0622 7.89682 70.0622 8.5863C70.0622 9.2805 70.1714 9.91605 70.3896 10.4929C70.6129 11.0698 70.9527 11.5319 71.4091 11.8789C71.8705 12.226 72.4509 12.3996 73.1504 12.3996Z" fill="white"/>
<path d="M67.7659 3.14069V4.95588H62.6537V13.9474H60.4585V3.14069H67.7659Z" fill="white"/>
<path d="M48.783 18V3.14072H50.9559V4.89259H51.1419C51.2709 4.66745 51.4569 4.40713 51.7 4.11164C51.9431 3.81614 52.2804 3.55816 52.712 3.33771C53.1436 3.11257 53.7141 3 54.4236 3C55.3463 3 56.1698 3.22045 56.8941 3.66135C57.6183 4.10225 58.1864 4.7378 58.5981 5.56801C59.0148 6.39822 59.2233 7.39728 59.2233 8.56523C59.2233 9.73313 59.0173 10.7345 58.6056 11.5694C58.1938 12.3996 57.6283 13.0399 56.909 13.4902C56.1896 13.9358 55.3686 14.1585 54.4458 14.1585C53.7513 14.1585 53.1833 14.0483 52.7418 13.8278C52.3052 13.6074 51.9629 13.3494 51.7149 13.054C51.4668 12.7585 51.2758 12.4958 51.1419 12.266H51.0079V18H48.783ZM50.9633 8.54408C50.9633 9.30398 51.0798 9.96998 51.313 10.5422C51.5462 11.1145 51.8835 11.5624 52.3251 11.886C52.7666 12.205 53.3073 12.3644 53.9473 12.3644C54.612 12.3644 55.1676 12.1979 55.6142 11.8649C56.0607 11.5272 56.398 11.0698 56.6262 10.493C56.8593 9.91605 56.976 9.2664 56.976 8.54408C56.976 7.83113 56.8618 7.1909 56.6336 6.62335C56.4104 6.05581 56.073 5.60788 55.6216 5.27955C55.1751 4.95122 54.617 4.78706 53.9473 4.78706C53.3024 4.78706 52.7567 4.94418 52.3102 5.25845C51.8687 5.5727 51.5338 6.01126 51.3056 6.57411C51.0774 7.13696 50.9633 7.79363 50.9633 8.54408Z" fill="white"/>
<path d="M42.6679 14.1655C41.5417 14.1655 40.5719 13.9381 39.7583 13.4831C38.9497 13.0234 38.3246 12.3785 37.8831 11.5483C37.4465 10.7134 37.2283 9.73545 37.2283 8.61442C37.2283 7.5075 37.4465 6.53189 37.8831 5.68762C38.3246 4.84334 38.9398 4.18433 39.7285 3.7106C40.5223 3.23687 41.4499 3 42.5116 3C43.1566 3 43.7816 3.10084 44.3869 3.30253C44.992 3.50422 45.5353 3.82082 46.0165 4.25234C46.4977 4.68386 46.8772 5.24437 47.155 5.93386C47.4328 6.61867 47.5717 7.45122 47.5717 8.4315V9.1773H38.4858V7.60133H45.3914C45.3914 7.04784 45.2724 6.55769 45.0343 6.13086C44.7961 5.69934 44.4613 5.35929 44.0296 5.11069C43.603 4.8621 43.102 4.7378 42.5265 4.7378C41.9014 4.7378 41.3557 4.88321 40.8894 5.17402C40.428 5.46013 40.0708 5.83537 39.8179 6.29971C39.5698 6.75938 39.4458 7.25891 39.4458 7.79827V9.02955C39.4458 9.75187 39.5797 10.3663 39.8476 10.8729C40.1204 11.3794 40.5 11.7664 40.9861 12.0337C41.4723 12.2964 42.0403 12.4278 42.6902 12.4278C43.1119 12.4278 43.4964 12.3715 43.8436 12.2589C44.1909 12.1417 44.491 11.9681 44.744 11.7382C44.9971 11.5084 45.1905 11.2246 45.3244 10.8869L47.4304 11.2458C47.2617 11.8321 46.9591 12.3457 46.5225 12.7866C46.0909 13.2228 45.5477 13.5628 44.8929 13.8067C44.2429 14.046 43.5013 14.1655 42.6679 14.1655Z" fill="white"/>
<path d="M27.5332 4.95588V3.14069H37.1772V4.95588H33.4491V13.9474H31.2762V4.95588H27.5332Z" fill="white"/>
<path d="M0.533203 9.0001L5.90245 4.70465L11.1965 8.93988L5.82725 13.2354L0.533203 9.0001Z" fill="white"/>
<path d="M6.48926 13.7648L11.8585 9.4693L17.1525 13.7046L11.7833 18L6.48926 13.7648Z" fill="white"/>
<path d="M12.3698 9.06015L17.739 4.76477L23.0331 9L17.6639 13.2955L12.3698 9.06015Z" fill="white"/>
<path d="M6.48926 4.29541L11.8585 0L17.1526 4.23526L11.7833 8.53072L6.48926 4.29541Z" fill="white"/>
</g>
<defs>
<clipPath id="clip0_2834_3674">
<rect width="144.75" height="18" fill="white" transform="translate(0.533203)"/>
</clipPath>
</defs>
</svg>
