<svg width="68" height="13" viewBox="0 0 68 13" fill="none" xmlns="http://www.w3.org/2000/svg">
<g clip-path="url(#clip0_2834_1345)">
<mask id="mask0_2834_1345" style="mask-type:luminance" maskUnits="userSpaceOnUse" x="0" y="0" width="68" height="13">
<path d="M67.7812 0H0.373779V12.9542H67.7812V0Z" fill="white"/>
</mask>
<g mask="url(#mask0_2834_1345)">
<path d="M61.0405 12.5932H63.8167V3.1211H67.371V0.804474H57.4862V3.1211H61.0405V12.5932ZM4.00543 10.4353L8.36844 10.467L9.01912 12.5297H11.7797L7.98773 0.820295L4.51295 0.772836L0.48291 12.5297H3.25959L4.00543 10.4353ZM6.32181 3.29563L7.94002 8.16641H4.46549L6.32181 3.29563ZM15.3813 7.80154L21.236 7.7857V5.3104H15.3655V2.99403L21.236 3.0101V0.757019H12.7159V12.5297H21.2835L21.2677 10.3243L15.3655 10.2924L15.3813 7.80154ZM27.6776 9.18195C28.619 9.18195 29.46 9.00486 30.2004 8.65059C30.9408 8.29607 31.5147 7.79894 31.9218 7.15891C32.329 6.51887 32.5328 5.79169 32.5328 4.97741C32.5328 4.37445 32.4138 3.81118 32.1757 3.28759C31.9377 2.764 31.6073 2.31976 31.1841 1.95488C30.7611 1.59 30.2507 1.30162 29.653 1.09026C29.0554 0.878386 28.4077 0.772836 27.7093 0.772836H22.6323V12.5616H25.2977V9.18195H27.6776ZM27.154 2.86721C27.4608 2.86721 27.7544 2.89626 28.0347 2.95435C28.3151 3.0127 28.569 3.10243 28.7964 3.22405C29.0238 3.34568 29.2222 3.48598 29.3913 3.64443C29.5604 3.80315 29.69 3.98831 29.78 4.19992C29.87 4.41154 29.9149 4.62834 29.9149 4.85035C29.9149 5.13611 29.8436 5.40294 29.7007 5.65168C29.5578 5.90012 29.3622 6.11173 29.1136 6.28627C28.8651 6.46081 28.5716 6.59851 28.2331 6.69885C27.8947 6.79948 27.535 6.84951 27.154 6.84951H25.2342V2.86721H27.154ZM38.5738 12.6251H41.636L38.7485 8.34123C39.489 8.10858 40.0758 7.65373 40.5097 6.97686C40.9433 6.29975 41.1601 5.56997 41.1601 4.78731C41.1601 3.48624 40.7262 2.49196 39.859 1.80446C38.9915 1.11697 37.8492 0.76713 36.4319 0.773096L30.6859 0.797473C30.7308 0.821071 30.7751 0.845708 30.8192 0.870345C31.1179 1.03917 31.3889 1.22849 31.6319 1.43803C31.8806 1.65249 32.1031 1.89186 32.2989 2.15482C32.4945 2.41778 32.662 2.70202 32.8002 3.00647C32.815 3.03889 32.8295 3.07156 32.8433 3.10424L36.1622 3.05782C36.7968 3.049 37.3258 3.21135 37.7488 3.51788C38.1721 3.82441 38.3834 4.2479 38.3834 4.78731C38.3834 5.30544 38.1902 5.73127 37.8043 6.06455C37.4184 6.39749 36.9236 6.55648 36.3209 6.56428L34.4509 6.5884L38.5738 12.6251ZM42.5719 0.852193V12.5772H45.1263V0.852193H42.5719ZM49.1879 0.86801H46.1735V12.5297H48.7757L48.8393 5.12003L53.4562 12.5297H56.4866V0.86801H53.8688L53.9001 8.34094L49.1879 0.86801Z" fill="white"/>
</g>
</g>
<defs>
<clipPath id="clip0_2834_1345">
<rect width="67.4074" height="13" fill="white" transform="translate(0.373779)"/>
</clipPath>
</defs>
</svg>
