<svg width="1000" height="193" viewBox="0 0 1000 193" fill="none" xmlns="http://www.w3.org/2000/svg">
<mask id="mask0_3133_200" style="mask-type:luminance" maskUnits="userSpaceOnUse" x="0" y="0" width="1000" height="193">
<path d="M1000 0H0V192.32H1000V0Z" fill="white"/>
</mask>
<g mask="url(#mask0_3133_200)">
<path d="M900 186.961H941.186V46.3363H993.914V11.9433H847.271V46.3363H900V186.961ZM53.8755 154.925L118.601 155.394L128.254 186.018H169.209L112.954 12.1782L61.4046 11.4736L1.61829 186.018H42.8108L53.8755 154.925ZM88.2393 48.9274L112.246 121.24H60.7005L88.2393 48.9274ZM222.639 115.823L309.494 115.588V78.839H222.404V44.4497L309.494 44.6884V11.2388H183.097V186.018H310.199L309.964 153.276L222.404 152.803L222.639 115.823ZM405.056 136.317C419.021 136.317 431.499 133.688 442.482 128.428C453.466 123.165 461.98 115.784 468.02 106.282C474.061 96.7802 477.084 85.9843 477.084 73.8954C477.084 64.9437 475.319 56.5813 471.786 48.808C468.255 41.0347 463.354 34.4394 457.075 29.0224C450.8 23.6053 443.229 19.324 434.361 16.1861C425.496 13.0406 415.886 11.4736 405.526 11.4736H330.208V186.492H369.75V136.317H405.056ZM397.289 42.567C401.84 42.567 406.195 42.9982 410.354 43.8606C414.513 44.7269 418.279 46.059 421.654 47.8647C425.027 49.6704 427.971 51.7533 430.479 54.1057C432.987 56.462 434.911 59.211 436.246 62.3527C437.581 65.4944 438.246 68.713 438.246 72.009C438.246 76.2514 437.189 80.2129 435.069 83.9056C432.949 87.5941 430.048 90.7357 426.359 93.3269C422.673 95.9181 418.318 97.9625 413.297 99.4521C408.276 100.946 402.94 101.689 397.289 101.689H368.807V42.567H397.289ZM566.702 187.434H612.131L569.295 123.835C580.279 120.381 588.986 113.628 595.422 103.579C601.854 93.527 605.071 82.6926 605.071 71.0731C605.071 51.7572 598.634 36.9959 585.769 26.7893C572.9 16.5827 555.953 11.3889 534.928 11.4774L449.684 11.8394C450.35 12.1897 451.008 12.5555 451.662 12.9212C456.094 15.4277 460.114 18.2382 463.719 21.3491C467.409 24.5331 470.709 28.0867 473.614 31.9908C476.515 35.8947 479.001 40.1145 481.051 44.6345C481.27 45.1158 481.486 45.6009 481.689 46.086L530.926 45.3968C540.341 45.2659 548.189 47.6761 554.464 52.2269C560.743 56.7777 563.879 63.0649 563.879 71.0731C563.879 78.7654 561.012 85.0872 555.287 90.0352C549.563 94.9781 542.222 97.3384 533.281 97.4542L505.539 97.8124L566.702 187.434ZM626.015 12.6517V186.722H663.911V12.6517H626.015ZM724.164 12.8866H679.446V186.018H718.05L718.993 76.0126L787.486 186.018H832.443V12.8866H793.607L794.071 123.831L724.164 12.8866Z" fill="white"/>
</g>
</svg>
