<svg width="60" height="22" viewBox="0 0 60 22" fill="none" xmlns="http://www.w3.org/2000/svg">
<g clip-path="url(#clip0_2834_806)">
<mask id="mask0_2834_806" style="mask-type:luminance" maskUnits="userSpaceOnUse" x="0" y="0" width="60" height="22">
<path d="M59.3892 0H0.131104V21.9113H59.3892V0Z" fill="white"/>
</mask>
<g mask="url(#mask0_2834_806)">
<path d="M3.41911 16.2666L3.90056 12.2299L4.2495 9.25647H6.57432V21.6987H4.88035V14.6886H4.83055L4.44656 17.4791L4.02908 19.888H2.69327L2.22566 17.4791L1.84167 14.7717H1.79187V21.6987H0.131104V9.25647H2.24011L2.72155 12.1635L3.33611 16.2666H3.41911Z" fill="white"/>
<path d="M9.64659 12.0805L9.43077 15.7019L9.31456 17.5957H9.96202L9.87902 15.5854L9.7299 12.0805H9.64659ZM10.0948 19.1902H9.16516L8.98222 21.6987H7.22217L8.48419 9.25647H10.9587L12.0547 21.6987H10.2778L10.0948 19.1902Z" fill="white"/>
<path d="M14.5123 16.8149V21.6987H12.7686V9.27307H14.5123V13.7418H14.6119L15.7079 9.27307H17.4849L15.9736 15.0374L17.4185 21.6987H15.5751L14.5953 16.8149H14.5123Z" fill="white"/>
<path d="M20.0756 12.0805L19.8598 15.7019L19.7436 17.5957H20.391L20.308 15.5854L20.1589 12.0805H20.0756ZM20.5237 19.1902H19.594L19.4111 21.6987H17.6511L18.9131 9.25647H21.3878L22.4837 21.6987H20.7066L20.5237 19.1902Z" fill="white"/>
<mask id="mask1_2834_806" style="mask-type:luminance" maskUnits="userSpaceOnUse" x="0" y="-1" width="60" height="23">
<path d="M0.241821 -0.230591H59.4999V21.6807H0.241821V-0.230591Z" fill="white"/>
</mask>
<g mask="url(#mask1_2834_806)">
<path d="M25.6055 11.2831C25.6055 11.0617 25.5668 10.9094 25.4893 10.8264C25.4118 10.7434 25.2952 10.7016 25.1403 10.7016H24.9411V14.4392H25.1403C25.2952 14.4392 25.4118 14.3977 25.4893 14.3147C25.5668 14.2316 25.6055 14.085 25.6055 13.8746V11.2831ZM24.9411 15.9178V21.6987H23.1974V9.25647H25.1071C25.8711 9.25647 26.4358 9.43084 26.8011 9.77957C27.1666 10.1286 27.3492 10.6576 27.3492 11.3661V13.775C27.3492 14.5057 27.1666 15.0457 26.8011 15.3944C26.4358 15.7431 25.8711 15.9178 25.1071 15.9178H24.9411Z" fill="white"/>
<path d="M30.4048 11.0671C30.4048 10.8678 30.3773 10.7322 30.3216 10.6603C30.2663 10.5883 30.1777 10.5523 30.056 10.5523C29.9343 10.5523 29.8484 10.5883 29.7986 10.6603C29.7489 10.7322 29.7239 10.8678 29.7239 11.0671V19.7883C29.7239 19.9985 29.7489 20.1398 29.7986 20.2118C29.8484 20.284 29.9343 20.3197 30.056 20.3197C30.1777 20.3197 30.2663 20.281 30.3216 20.2035C30.3773 20.1263 30.4048 19.9875 30.4048 19.7883V11.0671ZM30.056 21.8646C29.3806 21.8646 28.8659 21.6709 28.5118 21.2832C28.1573 20.8958 27.9802 20.3529 27.9802 19.6554V11.283C27.9802 10.5855 28.1573 10.04 28.5118 9.64666C28.8659 9.25394 29.3806 9.05713 30.056 9.05713C30.7315 9.05713 31.246 9.25394 31.6005 9.64666C31.9548 10.04 32.132 10.5855 32.132 11.283V19.6554C32.132 20.3529 31.9548 20.8958 31.6005 21.2832C31.246 21.6709 30.7315 21.8646 30.056 21.8646Z" fill="white"/>
<path d="M35.7358 15.3032H34.922V21.6986H33.1948V9.25665H34.922V13.8247H35.7358V9.25665H37.4626V21.6986H35.7358V15.3032Z" fill="white"/>
<path d="M41 15.3032H40.1862V21.6986H38.459V9.25665H40.1862V13.8247H41V9.25665H42.7268V21.6986H41V15.3032Z" fill="white"/>
<path d="M46.613 15.1868L45.4007 20.3367V21.6987H43.7234V9.25647H45.3839V16.0175H45.4177L46.6629 10.5687V9.25647H48.3901V21.6987H46.6629V15.1868H46.613Z" fill="white"/>
<path d="M51.2132 16.8149V21.6987H49.4695V9.27307H51.2132V13.7418H51.3129L52.4088 9.27307H54.1858L52.6744 15.0374L54.1195 21.6987H52.2761L51.2962 16.8149H51.2132Z" fill="white"/>
<path d="M57.6067 15.1868L56.3944 20.3367V21.6987H54.717V9.25647H56.3779V16.0175H56.4114L57.6564 10.5687V9.25647H59.3834V21.6987H57.6564V15.1868H57.6067Z" fill="white"/>
<path d="M14.7798 4.2344V4.30575C14.7954 4.34542 14.7917 4.3851 14.7678 4.42445C14.7441 4.47212 14.7161 4.4998 14.6848 4.5078C14.6688 4.51578 14.647 4.52378 14.6196 4.53147C14.5916 4.53947 14.5498 4.55361 14.4945 4.5733C14.4391 4.59298 14.3915 4.61081 14.3518 4.62649C14.1855 4.69015 13.9835 4.76151 13.7459 4.84053C13.5082 4.91987 13.2469 5.00322 12.9616 5.09025L12.106 5.33997C11.8207 5.41931 11.5474 5.49035 11.2861 5.554C11.0564 5.60936 10.8268 5.64903 10.5971 5.6727C10.5018 5.6887 10.2762 5.71638 9.91953 5.75573C9.79287 5.77204 9.60257 5.78772 9.34923 5.8034C9.14325 5.8114 8.95295 5.79941 8.77863 5.76772C8.60462 5.73605 8.4503 5.66471 8.31534 5.554C8.22833 5.47466 8.18068 5.36764 8.17268 5.23295C8.16499 5.09825 8.18866 4.97924 8.24402 4.87621C8.37898 4.57515 8.56497 4.31775 8.80262 4.10371C9.04796 3.88197 9.29359 3.67162 9.53923 3.47359C9.7532 3.3152 9.99853 3.16051 10.2762 3.01013C10.5295 2.86745 10.8108 2.80409 11.1198 2.81978C11.2227 2.82778 11.3098 2.86344 11.3811 2.9268C11.4444 2.98245 11.4961 3.05381 11.5357 3.14084C11.5754 3.22818 11.5871 3.31889 11.5714 3.41422C11.5634 3.50925 11.5277 3.5926 11.4644 3.66394C11.3771 3.68762 11.3177 3.68361 11.2861 3.65195C11.2464 3.62028 11.2227 3.57291 11.2147 3.50925C11.2068 3.45389 11.2068 3.39023 11.2147 3.31889C11.2307 3.22387 11.2384 3.16452 11.2384 3.14084C11.1354 3.10116 11.0285 3.08917 10.9178 3.10516C10.8148 3.11316 10.7158 3.13684 10.6208 3.17651C10.5572 3.20018 10.4621 3.24386 10.3355 3.3072C10.2325 3.35487 10.1452 3.40654 10.0742 3.46159C9.80454 3.63626 9.56691 3.81831 9.36123 4.00868C9.13127 4.21472 8.92928 4.44045 8.75497 4.68616C8.64397 4.83654 8.58864 4.95186 8.58864 5.0309C8.58864 5.11823 8.61232 5.18527 8.65998 5.23295C8.70761 5.2803 8.75928 5.31598 8.8143 5.33997L8.89761 5.36363C9.1036 5.41131 9.36123 5.423 9.66988 5.39931C9.97886 5.37533 10.2998 5.33997 10.6325 5.29229C10.9731 5.24462 11.2901 5.18527 11.5834 5.11393C11.9237 5.03489 12.1613 4.97124 12.2963 4.92388C12.399 4.8922 12.5121 4.85469 12.6348 4.81101C12.7575 4.76735 12.8943 4.71999 13.0449 4.66833C13.1952 4.61696 13.3139 4.57515 13.4015 4.54346C13.7815 4.40876 14.1738 4.26608 14.5778 4.11538C14.6331 4.0997 14.6768 4.10371 14.7084 4.12738C14.7481 4.15106 14.7718 4.18674 14.7798 4.2344Z" fill="white"/>
<path d="M15.6591 6.29078L15.6351 6.31447C15.6511 6.35444 15.6748 6.37414 15.7064 6.37414C15.7381 6.37414 15.7778 6.36214 15.8254 6.33816C15.8648 6.32247 15.9164 6.28679 15.9797 6.23144C16.0591 6.16808 16.1184 6.11642 16.1584 6.07675C16.2847 5.95005 16.4274 5.79568 16.586 5.61301C16.3957 5.65298 16.2294 5.70065 16.087 5.75569C15.9681 5.81136 15.8571 5.8827 15.7541 5.96973C15.6591 6.05707 15.6271 6.16409 15.6591 6.29078ZM16.966 1.91623L16.9306 1.89254C16.5897 2.20161 16.2414 2.54635 15.8848 2.92675C15.5678 3.2598 15.2551 3.63991 14.9462 4.06799C15.1915 3.94129 15.5678 3.75092 16.0751 3.49753C16.5817 3.24382 16.9583 3.04976 17.204 2.91476C17.6949 2.64537 18.0596 2.43933 18.2972 2.29693C18.7088 2.05122 19.0615 1.8212 19.3548 1.60746C19.4101 1.56779 19.4934 1.50044 19.6044 1.40511C19.6914 1.33407 19.7707 1.25504 19.8418 1.16739C19.9053 1.08836 19.9648 0.997329 20.0203 0.894308C20.0677 0.798974 20.0914 0.69626 20.0914 0.584935C20.0517 0.521893 20.0041 0.478225 19.949 0.454237C19.8934 0.430557 19.834 0.418564 19.7707 0.418564C19.6914 0.418564 19.6317 0.422561 19.5924 0.430557L19.4141 0.466231C18.9308 0.577248 18.4952 0.767606 18.1068 1.037C17.7426 1.2904 17.3623 1.58348 16.966 1.91623ZM21.7313 4.23435L21.6957 4.27003C21.7116 4.3097 21.7076 4.34937 21.684 4.38874C21.6602 4.4364 21.6323 4.46439 21.6006 4.47208C21.5926 4.47208 21.5292 4.49576 21.4106 4.54342C21.371 4.55942 21.2956 4.58894 21.1849 4.63261C21.0736 4.67627 20.9826 4.7098 20.9113 4.73379C20.769 4.78914 20.5194 4.87617 20.1628 4.99518C20.0677 5.02685 19.9211 5.07422 19.7231 5.13756C19.5251 5.20122 19.3704 5.25288 19.2597 5.29225L18.7961 5.43495C18.4319 5.52197 18.131 5.58164 17.8932 5.61301C17.6713 5.64498 17.4456 5.66066 17.2156 5.66066H17.1086C17.0613 5.66066 17.0257 5.65667 17.002 5.64899C16.9463 5.76 16.8633 5.87871 16.7523 6.0054C16.6414 6.1404 16.5184 6.25911 16.384 6.36214C16.2334 6.47315 16.0907 6.55219 15.9561 6.59985C15.8214 6.64722 15.6868 6.63952 15.5521 6.57586C15.4728 6.51283 15.4291 6.44947 15.4215 6.38581C15.4055 6.30679 15.4095 6.23144 15.4334 6.1601C15.4571 6.08076 15.4928 6.00541 15.5401 5.93406C15.6035 5.83904 15.6511 5.77199 15.6828 5.73202C15.7618 5.64498 15.8571 5.56965 15.9681 5.50629C16.0787 5.44293 16.1857 5.39528 16.2887 5.36359C16.384 5.33992 16.5067 5.31193 16.6573 5.28026C16.8157 5.24059 16.9306 5.14955 17.002 5.00687C17.0257 4.9595 17.0613 4.89215 17.1086 4.80483C17.1563 4.71778 17.188 4.65445 17.204 4.61477C16.689 4.67811 16.2334 4.86048 15.8374 5.16155C15.4491 5.45462 15.1005 5.80735 14.7915 6.21944C14.6092 6.44148 14.4429 6.67919 14.2926 6.9326C14.1896 7.09897 14.0429 7.34868 13.8529 7.68143C13.8053 7.74477 13.7696 7.78845 13.7459 7.81212C13.6983 7.85979 13.6626 7.89146 13.6389 7.90715C13.6153 7.92315 13.5716 7.93883 13.5083 7.95482C13.4213 7.9705 13.3736 7.93514 13.3656 7.8478C13.3579 7.79244 13.3536 7.73278 13.3536 7.66944C13.4646 6.82957 13.6786 6.0094 13.9953 5.20892C14.3125 4.41672 14.7598 3.70357 15.3381 3.06945C15.7104 2.64137 16.1224 2.2136 16.574 1.78582C17.002 1.38143 17.4653 1.01301 17.9645 0.68027C18.2892 0.489909 18.5981 0.327535 18.8916 0.192838C19.224 0.0501464 19.5645 -0.00520852 19.9131 0.0264668C20.0638 0.0344625 20.1984 0.0938153 20.3173 0.204525C20.436 0.307854 20.4876 0.438554 20.4716 0.596929C20.4637 0.779293 20.4044 0.949663 20.2933 1.10804C20.1825 1.26672 20.0638 1.40942 19.9371 1.53612C19.7231 1.74216 19.4774 1.93251 19.2004 2.10658C18.8515 2.32862 18.5901 2.49099 18.4159 2.594C17.8692 2.91107 17.2513 3.24751 16.5623 3.60423C15.9444 3.9213 15.3145 4.23036 14.6729 4.53142C14.4749 4.93551 14.2966 5.3516 14.1379 5.77967C13.9796 6.20745 13.8609 6.64722 13.7816 7.09896C13.9479 6.82957 14.1262 6.55619 14.3162 6.27879C14.5302 5.97773 14.7362 5.72033 14.9342 5.50629C15.1481 5.27657 15.3935 5.06253 15.6711 4.86417C15.9401 4.66644 16.2334 4.51574 16.5503 4.41273C16.693 4.36506 16.8513 4.32938 17.0257 4.30571C17.1997 4.28172 17.3466 4.33339 17.4653 4.46008C17.5286 4.61877 17.5246 4.76546 17.4533 4.90015C17.4059 4.99518 17.3346 5.12988 17.2396 5.30424C17.4693 5.30424 17.7306 5.28026 18.024 5.2329C18.3169 5.18523 18.7088 5.0902 19.2004 4.94751C19.5567 4.81281 19.925 4.68212 20.3054 4.55511C20.6856 4.42871 21.0896 4.28602 21.5175 4.12733C21.6203 4.09566 21.6916 4.13164 21.7313 4.23435Z" fill="white"/>
<path d="M23.4901 3.74691H23.5021C23.5021 3.77888 23.5177 3.80626 23.5495 3.83025C23.5735 3.84623 23.6088 3.8776 23.6565 3.92527C23.6801 3.90929 23.7198 3.87391 23.7754 3.81825C23.8705 3.72323 23.9418 3.63989 23.9893 3.56854C24.0051 3.54487 24.0248 3.51318 24.0484 3.47351C24.0724 3.43384 24.0881 3.41017 24.0961 3.40217C24.0644 3.41017 24.0248 3.42216 23.9771 3.43785C23.7951 3.50919 23.6721 3.57285 23.6088 3.6282C23.5374 3.68356 23.4979 3.72323 23.4901 3.74691ZM29.0513 4.23434L28.9564 4.31737C28.9959 4.4287 28.9603 4.49974 28.8494 4.53141C28.8414 4.53141 28.8297 4.5354 28.8137 4.5434C28.7979 4.5514 28.7802 4.55724 28.7605 4.56123C28.7404 4.56524 28.7227 4.57108 28.7067 4.57908C28.6116 4.61075 28.4811 4.65842 28.3146 4.72146L27.958 4.86416C27.9027 4.88815 27.7008 4.96348 27.3521 5.09019C27.0511 5.2012 26.8211 5.28823 26.6629 5.35158C26.4251 5.44661 26.2232 5.52994 26.057 5.6013C25.8192 5.69633 25.546 5.81534 25.2369 5.95772C24.9357 6.09272 24.6307 6.21173 24.322 6.31446C24.0287 6.40948 23.7555 6.45714 23.5021 6.45714C23.2482 6.45714 23.0621 6.36612 22.9434 6.18375C22.8799 6.09673 22.8602 5.9937 22.8842 5.87469C22.9078 5.73999 22.9472 5.62128 23.0029 5.51795C23.0662 5.39156 23.1375 5.27655 23.2168 5.17322C23.3435 5.00684 23.4148 4.91582 23.4308 4.90014C23.6049 4.6861 23.6881 4.52772 23.6801 4.42439C23.6801 4.38502 23.6684 4.35305 23.6444 4.32936C23.5177 4.4007 23.3158 4.51173 23.0385 4.66241C22.8561 4.75744 22.6346 4.85646 22.3732 4.95949C22.1592 5.03883 21.9689 5.09817 21.8026 5.13754C21.6442 5.16921 21.5253 5.16153 21.4464 5.11386C21.3669 5.06651 21.3197 4.99916 21.3037 4.91181C21.2956 4.83279 21.2956 4.74944 21.3037 4.66241C21.3197 4.57507 21.3433 4.49573 21.3751 4.42439C21.383 4.40871 21.3949 4.38502 21.4107 4.35305C21.4187 4.33737 21.4246 4.32537 21.4281 4.31737C21.4325 4.30969 21.4364 4.29954 21.4405 4.28785C21.4444 4.27585 21.4503 4.26601 21.4579 4.25802C21.5133 4.1553 21.5887 4.13131 21.6839 4.18666C21.7867 4.24234 21.8106 4.31737 21.7549 4.4127C21.7075 4.52373 21.676 4.60676 21.66 4.66241C21.6362 4.74944 21.6282 4.80911 21.6362 4.84047C21.6916 4.84047 21.7909 4.81679 21.9336 4.76913C22.0759 4.72146 22.2306 4.66241 22.3968 4.59107C22.5075 4.5434 22.6821 4.46436 22.9198 4.35305C23.0701 4.28169 23.2365 4.19067 23.4187 4.07996V4.06797C23.3158 3.98893 23.2525 3.91328 23.2286 3.84194C23.2048 3.77888 23.2009 3.71523 23.2168 3.65189C23.2482 3.42216 23.4862 3.2281 23.9297 3.06942C24.1911 2.96641 24.3694 2.98609 24.4645 3.12878C24.504 3.19244 24.5161 3.25979 24.5003 3.33083C24.484 3.41017 24.4566 3.4855 24.4171 3.55686C24.3694 3.64419 24.3177 3.71924 24.2624 3.78257C24.2228 3.83025 24.1557 3.90129 24.0605 3.99661C24.0051 4.05197 23.9654 4.08765 23.9418 4.10363C24.0051 4.19067 24.0367 4.27401 24.0367 4.35305C24.0605 4.5434 23.9535 4.78512 23.7157 5.0782C23.5495 5.27655 23.4266 5.46291 23.3474 5.63696C23.2761 5.78766 23.2601 5.89436 23.2999 5.95772C23.3394 6.02906 23.4704 6.05305 23.6921 6.02906C23.9297 6.00539 24.2585 5.91436 24.6784 5.75567C25.13 5.58161 25.5776 5.40325 26.0213 5.22088C26.6629 4.95949 27.0035 4.8208 27.0431 4.80479C27.3441 4.6861 27.7045 4.5514 28.1246 4.4007C28.1959 4.37704 28.3107 4.33336 28.469 4.27002C28.6274 4.20666 28.7504 4.15899 28.8377 4.12732C28.9404 4.09565 29.0117 4.13131 29.0513 4.23434Z" fill="white"/>
<path d="M38.2372 4.22236L38.2136 4.24604C38.2528 4.35706 38.2175 4.42841 38.1062 4.46008L37.8092 4.5671C37.6112 4.63844 37.3496 4.73347 37.0252 4.85218C36.6211 5.00286 36.2604 5.13357 35.9437 5.24458C35.611 5.36329 35.2028 5.49829 34.7198 5.64867C34.5609 5.69634 34.4463 5.73202 34.3749 5.75569L34.0542 5.86271C33.6816 5.98972 33.3887 6.08076 33.1751 6.13611C32.9134 6.20745 32.6877 6.24313 32.4977 6.24313C32.2597 6.24313 32.0933 6.17177 31.9984 6.02909C31.8875 5.8944 31.8794 5.73202 31.9745 5.54165C32.0697 5.3516 32.2005 5.16124 32.3667 4.97119C32.5174 4.80483 32.6914 4.62645 32.8896 4.4361C33.0716 4.26973 33.1986 4.14334 33.27 4.05569C33.2301 4.05569 33.1153 4.08766 32.9252 4.15102C32.7191 4.22236 32.5214 4.29372 32.3311 4.36506C32.1171 4.4444 31.9154 4.52743 31.7252 4.61446C31.5348 4.7018 31.4042 4.76115 31.3329 4.79283C31.2298 4.84849 31.0831 4.93152 30.8933 5.04253C30.7506 5.12988 30.5963 5.20122 30.4298 5.25657C30.3505 5.28826 30.2753 5.27627 30.204 5.22091C30.1328 5.16556 30.1165 5.0942 30.1566 5.00687C30.188 4.87218 30.2435 4.73347 30.3229 4.59079L30.5368 4.1867C30.3626 4.23435 30.1999 4.29372 30.0496 4.36506C29.9466 4.41241 29.792 4.49175 29.586 4.60278C29.38 4.71379 29.2257 4.79283 29.1226 4.84049C28.9958 4.90384 28.8373 4.9672 28.6473 5.03054C28.584 5.03054 28.5364 5.01855 28.5047 4.99488C28.4731 4.97119 28.4493 4.93551 28.4333 4.88816C28.4177 4.84049 28.4177 4.79283 28.4333 4.74546C28.4493 4.69011 28.4731 4.64614 28.5047 4.61446C28.6393 4.40074 28.79 4.1787 28.9564 3.94897C29.1146 3.72725 29.2929 3.5289 29.4909 3.35453C29.5147 3.31486 29.5463 3.29517 29.586 3.29517C29.6256 3.29517 29.6613 3.30686 29.693 3.33084C29.7246 3.35453 29.7523 3.38251 29.7762 3.41418C29.8 3.45355 29.7959 3.49322 29.7643 3.53289L29.3366 4.03201C29.2177 4.1747 29.0831 4.35306 28.9324 4.5671C29.2653 4.39274 29.5106 4.26203 29.6692 4.1747C29.907 4.04799 30.1642 3.95297 30.4419 3.88931C30.5368 3.85794 30.6319 3.85794 30.7268 3.88931C30.814 3.9213 30.8771 3.99264 30.9169 4.10335C30.8933 4.23836 30.8459 4.36506 30.7746 4.48377C30.6795 4.64245 30.6119 4.76516 30.5723 4.85218C31.0955 4.55112 31.6141 4.29372 32.129 4.07968C32.1451 4.07198 32.1687 4.06183 32.2005 4.04984C32.2321 4.03816 32.2695 4.02216 32.3131 4.00248C32.357 3.98281 32.4024 3.96496 32.4501 3.94897C32.6004 3.89362 32.7627 3.84595 32.937 3.80628C33.1037 3.76692 33.2579 3.75461 33.4005 3.77061C33.551 3.7866 33.6303 3.85794 33.6383 3.98465C33.6459 4.04001 33.6223 4.11534 33.567 4.21037C33.5113 4.30571 33.4323 4.40842 33.3292 4.51943C33.2659 4.59079 33.1509 4.70948 32.9847 4.87587L32.5928 5.26826C32.4813 5.39528 32.3983 5.51397 32.3431 5.625C32.2874 5.73601 32.2754 5.80735 32.3075 5.83872C32.355 5.90238 32.4577 5.92637 32.6164 5.91008C32.7746 5.89439 32.9529 5.85872 33.1509 5.80336C33.2856 5.76369 33.4956 5.69634 33.7809 5.60101C33.8285 5.58533 34.0185 5.51798 34.3512 5.39927C34.9136 5.2169 35.4801 5.02685 36.0507 4.82849C36.2721 4.74947 36.6072 4.63046 37.0549 4.47208C37.5021 4.31339 37.8213 4.19837 38.0115 4.12703C38.0512 4.11135 38.0945 4.11534 38.1419 4.13903C38.1973 4.16301 38.2292 4.19069 38.2372 4.22236Z" fill="white"/>
<path d="M37.3701 5.68424H37.358C37.4691 5.59722 37.5524 5.47451 37.6074 5.31583C37.6789 5.12578 37.7224 4.98709 37.7384 4.89974C37.5643 5.0981 37.4217 5.27616 37.3108 5.43454C37.1997 5.59322 37.1405 5.70024 37.1325 5.7556C37.2274 5.77158 37.3067 5.7479 37.3701 5.68424ZM47.0548 4.22227L46.9713 4.3056C46.9876 4.34527 46.9835 4.38464 46.9592 4.42431C46.936 4.47197 46.9083 4.49965 46.8765 4.50735C46.8686 4.50735 46.7619 4.54333 46.5559 4.61437C46.3492 4.68571 46.0879 4.78073 45.771 4.89974C45.4547 5.01846 45.086 5.14946 44.6661 5.29214C44.2465 5.43454 43.8185 5.57722 43.3832 5.71992C42.9392 5.86262 42.4597 6.00931 41.945 6.15969C41.5887 6.2627 41.244 6.35004 40.9113 6.42108C40.5787 6.49242 40.3448 6.5364 40.2102 6.55209C40.0358 6.57577 39.8931 6.58777 39.7824 6.58777C39.6398 6.58777 39.5445 6.57577 39.4971 6.55209C39.4496 6.5284 39.4139 6.49673 39.39 6.45706C39.3029 6.36204 39.2672 6.25471 39.2832 6.136C39.299 6.00931 39.3465 5.88259 39.4258 5.7556C39.5209 5.6129 39.6279 5.47451 39.7466 5.33951C39.8339 5.24449 39.9724 5.10179 40.1625 4.91174V4.89974L40.8281 4.23426L38.1067 4.93542C38.0829 5.03843 38.067 5.10979 38.059 5.14946C38.0354 5.24449 38.0001 5.33582 37.9523 5.42285C37.8886 5.54986 37.8377 5.64489 37.798 5.70823C37.7423 5.79527 37.671 5.8706 37.5837 5.93396C37.5047 5.98131 37.441 6.0133 37.3936 6.02898C37.3227 6.05267 37.251 6.06466 37.18 6.06466C37.1084 6.06466 37.0415 6.04497 36.9781 6.0053C36.9148 5.97363 36.8667 5.91428 36.8355 5.82694C36.8037 5.72391 36.839 5.58153 36.9421 5.39916C37.0374 5.24048 37.1761 5.05043 37.358 4.8284C37.5086 4.64634 37.6951 4.44429 37.9167 4.22227C38.067 4.07189 38.2532 3.89351 38.4752 3.68717C38.5149 3.6478 38.5582 3.62781 38.606 3.62781C38.6453 3.62781 38.6849 3.6478 38.7246 3.68717C38.7562 3.71914 38.7722 3.75851 38.7722 3.80618C38.7722 3.84586 38.7523 3.88553 38.7126 3.9252C38.6333 3.99654 38.5226 4.10326 38.3799 4.24594L38.071 4.555L41.3744 3.69917C41.4697 3.69147 41.533 3.71914 41.565 3.7825C41.604 3.84586 41.5923 3.9132 41.5291 3.98454C41.2914 4.23825 41.0538 4.47598 40.8161 4.6977C40.5072 4.99108 40.2971 5.19712 40.1862 5.31583C39.9962 5.52187 39.8575 5.68855 39.7705 5.81494C39.6753 5.95764 39.6476 6.07265 39.6871 6.15969C39.7585 6.20734 39.9802 6.19535 40.3528 6.12401C40.7329 6.05267 41.228 5.93396 41.838 5.76759C42.4086 5.61721 43.141 5.39517 44.0364 5.10179C44.8284 4.84838 45.7634 4.51934 46.8412 4.11525C46.9516 4.07588 47.0229 4.11124 47.0548 4.22227Z" fill="white"/>
<path d="M48.6468 3.11698C48.3459 3.13297 48.0725 3.228 47.827 3.40206C47.5812 3.57673 47.3676 3.77878 47.1852 4.0085C47.4469 3.92147 47.7159 3.80645 47.9932 3.66377C48.2549 3.53706 48.4728 3.35471 48.6468 3.11698ZM53.0317 4.23423L52.9368 4.24622C52.9524 4.28589 52.9485 4.32557 52.9248 4.36524C52.9012 4.41259 52.8731 4.44059 52.8417 4.44827C52.8258 4.46425 52.7188 4.50762 52.5208 4.57897C52.3148 4.65031 52.0769 4.73365 51.8079 4.82867C51.6253 4.89203 51.3603 4.98736 51.0117 5.11407C50.7503 5.2091 50.5603 5.28044 50.4414 5.32779C50.0531 5.43882 49.8114 5.50617 49.7165 5.52983C49.4232 5.60119 49.1778 5.65685 48.9795 5.69652C48.8608 5.72021 48.6745 5.75587 48.4212 5.80324C48.2549 5.83491 48.0645 5.85089 47.8506 5.85089C47.6606 5.85089 47.4705 5.82722 47.2803 5.77955C47.0823 5.73188 46.904 5.64486 46.7454 5.51816C46.6271 5.42313 46.5554 5.30811 46.5316 5.17342C46.508 5.0544 46.5157 4.91171 46.5554 4.74534C46.5873 4.61064 46.6427 4.46425 46.7217 4.30557C46.7774 4.19456 46.8446 4.07585 46.9241 3.94915C47.0823 3.69544 47.2803 3.4734 47.5179 3.28335C47.756 3.093 48.0129 2.9503 48.2906 2.85527C48.4094 2.81592 48.5398 2.80393 48.6825 2.81991C48.8329 2.8356 48.9358 2.90694 48.9916 3.03365C49.0231 3.15266 49.0114 3.26368 48.9559 3.3667C48.9002 3.46941 48.8292 3.55675 48.7421 3.62809C48.5042 3.83413 48.231 4.00451 47.9223 4.1392C47.6606 4.25792 47.3636 4.36923 47.0307 4.47195C47.0147 4.51193 46.991 4.57496 46.9597 4.66231C46.9276 4.74965 46.9079 4.80469 46.9 4.82867C46.8526 4.95569 46.8723 5.0744 46.9597 5.18541C47.11 5.32779 47.296 5.41114 47.5179 5.43481C47.756 5.45849 47.9616 5.4665 48.1359 5.45849C48.6825 5.41114 49.2412 5.30811 49.8114 5.14943C50.3737 4.99105 50.9167 4.81299 51.4396 4.61463C51.6296 4.54329 51.7487 4.49993 51.7958 4.48395L52.2238 4.34125C52.2712 4.32557 52.3386 4.30188 52.4259 4.26991C52.5128 4.23822 52.5726 4.21855 52.6038 4.21054C52.7229 4.17087 52.7901 4.14721 52.8059 4.1392C52.8455 4.12322 52.8891 4.12721 52.9368 4.1512C52.9922 4.17488 53.0238 4.20256 53.0317 4.23423Z" fill="white"/>
</g>
</g>
</g>
<defs>
<clipPath id="clip0_2834_806">
<rect width="59.2581" height="22" fill="white" transform="translate(0.131104)"/>
</clipPath>
</defs>
</svg>
