<svg width="1000" height="200" viewBox="0 0 1000 200" fill="none" xmlns="http://www.w3.org/2000/svg">
<g clip-path="url(#clip0_3133_34)">
<mask id="mask0_3133_34" style="mask-type:luminance" maskUnits="userSpaceOnUse" x="0" y="0" width="1000" height="200">
<path d="M1000 0H0V200H1000V0Z" fill="white"/>
</mask>
<g mask="url(#mask0_3133_34)">
<path d="M77.6008 49.9437L81.5312 48.9179L85.4617 48.2342V85.6879H104.274V48.2342L108.289 48.9179L112.219 49.9437L115.982 51.1233L119.576 52.5762V34.2684L113.647 32.576L107.533 31.3795L104.442 30.9521L101.267 30.6102L98.0929 30.4393L94.9017 30.3538L91.7271 30.4393L88.4683 30.6102L85.3779 30.9521L82.2033 31.3795L76.0892 32.576L73.1667 33.3282L70.2271 34.2684V52.5762L73.8383 51.1233L77.6008 49.9437Z" fill="white"/>
<path d="M104.359 89.3467H85.4621L68.9846 121.176H59.1921V145.878L77.8362 162.049V137.706H111.967V162.049L130.629 145.878V121.193H120.752L104.359 89.3467ZM87.7971 121.193L94.8179 106.048L101.923 121.193H87.7971Z" fill="white"/>
<path d="M94.9046 144.34L89.1267 147.656L83.5162 150.972V157.707V164.511L89.1267 167.827L94.9046 171.143L100.599 167.827L106.377 164.511V157.707V150.972L100.599 147.656L94.9046 144.34ZM100.515 158.904L100.179 160.015L99.675 160.955L98.9192 161.81L98.0792 162.579L97.1554 163.092L96.0637 163.434L94.8879 163.519L93.7121 163.434L92.7042 163.092L91.7804 162.579L90.9408 161.81L90.1846 160.955L89.6808 160.015L89.345 158.904L89.2608 157.707L89.345 156.51L89.6808 155.485L90.1846 154.545L90.9408 153.69L91.7804 152.921L92.7042 152.408L93.7121 152.066L94.8879 151.98L96.0637 152.066L97.1554 152.408L98.0792 152.921L98.9192 153.69L99.675 154.545L100.179 155.485L100.515 156.51L100.599 157.707L100.515 158.904Z" fill="white"/>
<path d="M182.357 63.1588C177.571 51.6546 170.735 41.3295 162.018 32.4576C153.3 23.5857 143.155 16.6284 131.851 11.7565C120.144 6.71371 107.715 4.16667 94.8992 4.16667C82.0837 4.16667 69.6542 6.71371 57.9475 11.7565C46.6433 16.6284 36.4984 23.5857 27.7811 32.4576C19.0638 41.3295 12.2277 51.6546 7.44075 63.1588C2.50265 75.0733 0 87.7233 0 100.766C0 113.809 2.50265 126.459 7.45758 138.373C12.2445 149.878 19.0806 160.203 27.7979 169.075C36.5152 177.947 46.66 184.904 57.9642 189.776C69.6712 194.819 82.1004 197.365 94.9158 197.365C107.732 197.365 120.161 194.819 131.868 189.776C143.172 184.904 153.317 177.947 162.034 169.075C170.751 160.203 177.587 149.878 182.375 138.373C187.329 126.459 189.832 113.809 189.832 100.766C189.815 87.7233 187.312 75.0733 182.357 63.1588ZM94.8992 183.81C49.9017 183.81 13.3027 146.562 13.3027 100.766C13.3027 54.9708 49.9017 17.7224 94.8992 17.7224C139.897 17.7224 176.496 54.9708 176.496 100.766C176.512 146.545 139.897 183.81 94.8992 183.81Z" fill="white"/>
<path d="M513.042 85.7246L512.404 82.6987L511.412 80.0321L510.237 77.8271L508.796 75.9979L506.996 74.5279L504.912 73.4338L502.562 72.6133L499.758 71.9637L496.7 71.6046L493.275 71.5192H465.204V57.16H507.517V44.0317H450.762V113.913H493.258L496.683 113.827L499.742 113.451L502.446 112.905L504.796 112.084L506.879 110.99L508.675 109.52L510.121 107.691L511.379 105.674L512.371 103.195L513.008 100.357L513.462 97.0408L513.546 93.2804L513.462 89.3317L513.042 85.7246ZM499.05 92.5108V94.0667L498.867 95.4342L498.683 96.5283L498.412 97.4512L498.062 98.1862L497.525 98.9212L496.883 99.4683L495.979 99.8446L494.904 100.118L493.642 100.391L492.117 100.477L490.317 100.562H465.242V84.5792H490.771L492.483 84.6646L493.929 84.7504L495.187 85.0238L496.179 85.3825L496.987 85.8442L497.708 86.3913L498.162 87.1262L498.512 87.9296L498.783 88.7504L498.967 89.8442L499.05 91.0408V92.5108Z" fill="white"/>
<path d="M365.709 62.2196L365.34 59.4671L364.802 57.0742L364.181 54.8688L363.375 52.8517L362.282 51.1083L361.107 49.5525L359.746 48.185L358.218 47.0908L356.505 46.0825L354.607 45.3475L352.54 44.8004L350.189 44.3388L347.569 44.1508L344.78 44.0654H303.544V113.913H317.972V93.16H344.948L348.459 92.9721L351.717 92.5104L354.522 91.7754L357.042 90.6813L359.209 89.2113L361.006 87.4675L362.535 85.2625L363.795 82.7838L364.785 79.8433L365.507 76.4417L365.86 72.6813L366.045 70.6638V68.4588L365.961 65.245L365.709 62.2196ZM351.449 70.2879L351.365 72.0317L351.096 73.4163L350.726 74.6983L350.273 75.7921L349.551 76.7154L348.745 77.5358L347.837 78.1854L346.662 78.6471L345.402 79.1083L343.873 79.2967L342.16 79.3821H317.972V57.8092H342.16H343.42L344.68 57.9971L346.662 58.4588L348.291 59.2792L349.551 60.3733L350.457 61.8433L351.096 63.5871L351.449 65.7921L351.532 68.4588L351.449 70.2879Z" fill="white"/>
<path d="M551.475 44.0317L519.442 113.913H536.304L544.15 96.1862H579.979L587.738 113.913H604.871L572.942 44.0317H551.475ZM550.029 83.0579L561.938 57.0746H562.658L574.217 83.0579H550.029Z" fill="white"/>
<path d="M406.571 83.3313L386.365 44.0317H369.315L397.283 93.1604L397.736 94.0837L398.089 94.9042L398.273 95.7246L398.374 96.3742L398.273 97.3829L397.82 98.2033L397.198 98.9383L396.291 99.5879L395.115 100.05L393.671 100.323L391.958 100.494L389.976 100.597H387.087V113.913H392.781L394.847 113.827L396.745 113.725L398.374 113.537L399.819 113.263L401.162 112.905L402.422 112.426L403.598 111.793L404.673 110.973L405.765 109.964L406.84 108.853L407.932 107.485L409.007 105.913L410.283 104.169L411.627 101.964L413.071 99.4L414.701 96.4596L442.937 44.0317H425.704L406.571 83.3313Z" fill="white"/>
<path d="M231.99 57.8096H257.253V113.913H271.782V57.8096H297.313V44.0317H231.99V57.8096Z" fill="white"/>
<path d="M961.354 62.1175L961.083 60.1858L960.817 58.3567L960.363 56.6133L959.908 55.0575L959.371 53.6729L958.113 51.1942L956.483 49.0746L954.583 47.4333L952.417 46.1517L949.896 45.2283L946.925 44.5788L943.5 44.1171L939.804 44.0317H913.179L910.104 44.1171L907.4 44.3054L904.867 44.6642L902.617 45.2113L900.633 45.8608L898.817 46.7838L897.187 47.8779L895.829 49.16L894.654 50.7154L893.563 52.4592L892.754 54.4763L892.033 56.6817L891.496 59.16L891.125 62.1004L890.958 65.2288L890.858 68.8183V89.9296L890.958 93.0579L891.125 95.9129L891.496 98.4942L892.033 100.87L892.754 102.99L893.663 104.921L894.754 106.665L895.929 108.22L897.375 109.605L898.988 110.802L900.883 111.81L902.867 112.545L905.117 113.195L907.554 113.571L910.258 113.845L913.146 113.93H939.771L942.842 113.845L945.633 113.571L948.067 113.195L950.317 112.545L952.4 111.81L954.213 110.887L955.742 109.793L957.104 108.409L958.279 106.938L959.188 105.195L959.992 103.263L960.629 101.161L961.083 98.7675L961.437 96.1008L961.621 93.1604L961.721 89.9467V68.8183V66.425L961.537 64.22L961.354 62.1175ZM947.192 88.2033L947.092 90.4938L946.992 92.4254L946.725 94.0837L946.271 95.4513L945.733 96.6479L945.008 97.5708L944.104 98.3912L943.013 98.9383L941.65 99.4L940.021 99.6733L938.125 99.8617L935.871 99.9471H916.658L914.575 99.8617L912.675 99.6733L911.046 99.4L909.687 98.9383L908.613 98.2887L907.704 97.5538L906.896 96.5454L906.358 95.3487L905.908 93.9642L905.637 92.3058L905.371 90.3742L905.321 88.2888V70.4767L905.421 68.1004L905.688 65.9808L906.042 64.1517L906.496 62.6817L907.033 61.3996L907.837 60.3908L908.746 59.5704L909.921 58.9208L911.283 58.4592L912.913 58.0833L914.808 57.895L916.975 57.8096H935.654L937.738 57.895L939.633 58.0833L941.263 58.4592L942.608 58.9208L943.783 59.4679L944.692 60.2883L945.513 61.2971L946.133 62.4933L946.588 64.0492L946.942 65.8954L947.125 68.015L947.229 70.3913V88.2033H947.192Z" fill="white"/>
<path d="M838.475 44.0317L806.442 113.913H823.304L848.938 57.0746H849.658L874.838 113.913H891.788L859.937 44.0317H838.475Z" fill="white"/>
<path d="M741.392 113.913H803.287V100.597H755.921V84.6133H801.758V72.4938H755.921V57.16H803.287V44.0317H741.392V113.913Z" fill="white"/>
<path d="M701.596 44.0317H680.129L654.417 99.9471H645.746V120.238L659.017 131.81V113.913H664.879H716.396H722.525V131.81L735.696 120.238V99.9471H727.029L701.596 44.0317ZM671.196 99.9471L690.596 57.0575H691.233L710.267 99.9471H671.196Z" fill="white"/>
<path d="M646.021 74.2363H610.479V88.0996H646.021V74.2363Z" fill="white"/>
<path d="M999.871 41.74L999.683 40.1845L999.333 38.7998L998.879 37.4323L998.258 36.1502L997.621 34.9537L996.813 33.8596L995.988 32.9365L994.008 31.381L992.917 30.7314L991.742 30.1844L990.563 29.7228L989.304 29.4493L986.683 29.2613L984.163 29.4493L982.904 29.7228L981.729 30.1844L980.554 30.7314L979.479 31.381L977.496 32.9365L976.675 33.8596L975.883 34.9365L975.246 36.1332L974.608 37.4152L974.154 38.7828L973.883 40.1674L973.7 41.7229L973.633 43.4838L973.717 45.0392L973.9 46.595L974.171 47.9796L974.625 49.3642L975.263 50.6462L975.9 51.8429L976.708 52.9367L977.529 53.86L979.513 55.4154L980.588 56.065L981.763 56.6121L984.2 57.3471L986.717 57.6204L988.079 57.535L989.338 57.3471L991.775 56.6121L992.95 56.065L994.042 55.4154L996.025 53.86L996.846 52.9367L997.654 51.8429L998.292 50.6462L998.913 49.3642L999.367 47.9796L999.717 46.595L999.904 45.0392L1000 43.4838L999.871 41.74ZM996.896 45.8596L996.358 48.1504L995.45 50.0821L994.192 51.8258L992.746 53.1079L990.95 54.1162L988.95 54.7658L987.875 54.8512L986.7 54.9367L984.533 54.7487L982.55 54.0992L980.838 53.0908L979.308 51.8088L978.133 50.065L977.142 48.1333L976.604 45.8425L976.421 43.4496L976.604 40.8853L977.142 38.5947L978.133 36.6631L979.308 34.9195L980.838 33.6374L982.55 32.6288L984.533 31.9793L986.7 31.7912L987.875 31.8767L988.95 31.9622L990.95 32.6117L992.746 33.6203L994.192 34.9024L995.45 36.646L996.358 38.5776L996.896 40.8683L997.083 43.4325L996.896 45.8596Z" fill="white"/>
<path d="M991.487 47.5183L990.496 45.9629L989.588 44.7663L990.867 44.0313L991.754 43.0225L992.292 41.9283L992.479 40.5439L992.379 39.3473L992.025 38.3388L991.487 37.5182L990.767 36.7832L989.775 36.2362L988.596 35.8601L987.237 35.5866L985.608 35.5011L983.525 35.5866L981.275 35.9626V51.2108H984.062V45.3304H986.6L987.592 46.4242L988.579 47.8946L989.654 49.45L990.562 51.1938H993.537L992.546 49.3475L991.487 47.5183ZM989.321 41.7404L988.967 42.2021L988.512 42.4754L987.171 42.9371L985.542 43.0225H984.096V37.9798H984.921L985.825 37.8943H986.65L987.371 38.0823L988.546 38.5439L989 38.92L989.354 39.2789L989.537 39.8259L989.621 40.4755L989.537 41.2106L989.321 41.7404Z" fill="white"/>
<path fill-rule="evenodd" clip-rule="evenodd" d="M259.467 171.895L257.686 165.724H248.314L246.534 171.895H240.739L249.658 145.724H256.259L265.363 171.895H259.467ZM256.343 161.092L255.721 159.092L255.184 157.365L254.747 155.827L254.394 154.562L254.042 153.467L253.773 152.562L253.588 151.929L253.504 151.57L253.235 150.579L253.051 149.758L252.866 150.493L252.597 151.314L252.245 152.493L251.892 153.758L251.438 155.297L250.985 157.023L250.363 158.938L249.742 161.126H256.343V161.092ZM268.57 145.827H276.431L279.018 145.912L281.168 146.271L282.948 146.715L284.376 147.45L285.451 148.357L286.156 149.45L286.593 150.818L286.778 152.459L286.694 153.553L286.509 154.647L286.156 155.553L285.703 156.374L285.081 157.006L284.46 157.553L283.653 157.929L282.847 158.1V158.288L284.006 158.647L284.896 159.109L285.703 159.656L286.324 160.391L286.778 161.211L287.13 162.118L287.315 163.211L287.399 164.391L287.214 166.032L286.761 167.57L285.955 168.853L284.88 169.947L283.536 170.853L281.923 171.485L280.043 171.844L277.993 171.93H268.537V145.827H268.57ZM273.928 156.186H277.053H278.128L279.018 155.998L279.74 155.81L280.278 155.536L280.714 155.075L280.983 154.528L281.168 153.895L281.252 153.16L281.168 152.442L280.983 151.895L280.63 151.348L280.177 150.989L279.555 150.715L278.749 150.527L277.859 150.34H276.784H273.928V156.186ZM273.928 160.63V167.348H277.506L278.497 167.263L279.387 167.177L280.193 166.904L280.731 166.459L281.185 165.998L281.537 165.365L281.722 164.63L281.806 163.81L281.722 163.075L281.537 162.357L281.185 161.81L280.647 161.451L280.025 161.092L279.32 160.818L278.43 160.733L277.355 160.647H273.928V160.63ZM308.109 171.895L306.329 165.724H296.956L295.176 171.895H289.28L298.3 145.724H304.901L313.92 171.895H308.109ZM304.985 161.092L304.363 159.092L303.826 157.365L303.373 155.827L303.02 154.562L302.667 153.467L302.398 152.562L302.213 151.929L302.13 151.57L301.861 150.579L301.592 149.758L301.424 150.493L301.239 151.314L300.887 152.493L300.534 153.758L300.097 155.297L299.644 157.023L299.022 158.938L298.401 161.126H304.985V161.092ZM322.57 158.186H324.351L325.51 158.083L326.501 157.912L327.391 157.639L328.097 157.194L328.634 156.647L328.987 155.912L329.255 155.092L329.34 154.185L329.255 153.28L329.071 152.459L328.718 151.827L328.265 151.28L327.643 150.835L326.921 150.562L326.031 150.476L325.056 150.391H322.554V158.186H322.57ZM334.798 153.912L334.614 155.998L334.16 157.724L333.354 159.263L332.195 160.442L330.767 161.451L329.071 162.083L327.105 162.545L324.872 162.647H322.554V171.912H317.112V145.827H325.325L327.475 145.912L329.44 146.374L331.053 147.006L332.396 147.912L333.471 149.092L334.194 150.459L334.647 152.083L334.798 153.912ZM339.619 145.827H344.44V158.459L344.355 161.81L344.171 165.622H344.355L356.13 145.81H362.563V171.878H357.742V159.433V157.98L357.843 156.254L357.927 154.254L358.112 151.895H357.927L346.136 171.878H339.619V145.827ZM368.979 145.827H373.883V158.459L373.799 161.81L373.615 165.622H373.699L385.49 145.81H391.923V171.878H387.102V159.433V157.98L387.186 156.254L387.371 154.254L387.455 151.895H387.27L375.479 171.878H368.962V145.827H368.979ZM388.883 137.485L388.614 139.023L388.177 140.288L387.455 141.382L386.464 142.288L385.305 142.92L383.877 143.382L382.181 143.655L380.3 143.741L378.334 143.655L376.722 143.382L375.294 142.92L374.219 142.288L373.329 141.468L372.607 140.373L372.17 139.006L371.985 137.467H376.705L376.789 138.288L376.974 139.006L377.243 139.553L377.595 139.998L378.032 140.271L378.653 140.545L379.46 140.63L380.35 140.715L381.156 140.63L381.862 140.545L382.483 140.271L383.02 139.912L383.642 138.92L383.911 138.185L383.995 137.467H388.883V137.485ZM419.233 171.895H413.875V160.715H403.781V171.895H398.339V145.827H403.781V156.1H413.875V145.827H419.233V171.895ZM448.963 158.904L448.879 160.442L448.796 161.895L448.175 164.527L447.2 166.887L445.854 168.801L444.075 170.254L442.025 171.348L440.867 171.81L439.625 172.083L438.279 172.169L436.854 172.254L435.425 172.169L434.083 172.083L432.838 171.81L431.679 171.348L429.629 170.254L427.85 168.801L426.504 166.887L425.517 164.527L425.163 163.262L424.896 161.895L424.808 160.357L424.708 158.818L424.808 157.28L424.896 155.724L425.163 154.357L425.517 152.989L425.967 151.81L426.504 150.715L427.129 149.724L427.833 148.818L429.613 147.365L431.663 146.271L432.821 145.912L434.063 145.638L435.408 145.553L436.838 145.468L439.608 145.655L440.85 145.929L442.008 146.288L443.167 146.835L444.142 147.382L445.033 148.117L445.838 148.937L447.183 150.852L447.721 151.946L448.175 153.126L448.525 154.391L448.796 155.844L448.879 157.297L448.963 158.904ZM430.304 158.904L430.388 160.989L430.738 162.716L431.275 164.254L432 165.434L432.888 166.442L434.046 167.075L435.292 167.519L436.804 167.605L438.313 167.519L439.658 167.075L440.733 166.442L441.621 165.434L442.346 164.254L442.883 162.716L443.15 160.989L443.233 158.904L443.15 156.818L442.883 155.006L442.346 153.467L441.621 152.202L440.733 151.297L439.658 150.579L438.313 150.22L436.804 150.032L435.292 150.22L434.046 150.579L432.888 151.297L432 152.288L431.275 153.553L430.738 155.109L430.388 156.835L430.304 158.904ZM452.088 164.357V159.912H461.458V164.357H452.088ZM476.542 150.1L475.117 150.271L473.871 150.647L472.796 151.382L471.821 152.374L471.1 153.639L470.563 155.177L470.208 156.989L470.125 158.989L470.208 160.989L470.563 162.801L471.017 164.254L471.738 165.519L472.629 166.425L473.788 167.058L475.029 167.502L476.542 167.588L477.971 167.502L479.483 167.228L481.179 166.87L483.058 166.237V170.87L481.446 171.502L479.75 171.861L477.871 172.135L475.988 172.22L473.4 172.032L471.083 171.314L469.117 170.22L467.504 168.767L466.263 166.853L465.288 164.579L465.021 163.314L464.75 161.946L464.667 160.408L464.583 158.87L464.667 156.955L464.938 155.04L465.371 153.314L465.996 151.673L466.8 150.22L467.775 149.04L468.933 147.946L470.175 147.04L471.604 146.322L473.117 145.861L474.729 145.502L476.508 145.416L478.392 145.502L480.271 145.861L482.154 146.408L484.033 147.228L482.254 151.775L480.825 151.057L479.396 150.51L477.971 150.151L476.542 150.1ZM504.121 171.895L502.242 165.724H492.954L491.071 171.895H485.275L494.296 145.724H500.896L509.917 171.895H504.121ZM500.913 161.092L500.292 159.092L499.754 157.365L499.3 155.827L498.95 154.562L498.596 153.467L498.329 152.562L498.142 151.929L498.058 151.57L497.792 150.579L497.604 149.758L497.438 150.493L497.167 151.314L496.9 152.493L496.546 153.758L496.008 155.297L495.554 157.023L494.933 158.938L494.313 161.126H500.913V161.092ZM534.021 171.895H528.579V160.715H518.483V171.895H513.125V145.827H518.483V156.1H528.579V145.827H534.021V171.895ZM550.263 171.895H544.904V150.459H537.95V145.827H557.233V150.459H550.263V171.895ZM575.792 171.895H561.163V145.827H575.792V150.374H566.521V156.186H575.171V160.63H566.521V167.348H575.792V171.895ZM601.775 171.895H595.613L589.633 162.083L583.738 171.895H577.925L586.408 158.545L578.463 145.827H584.442L589.883 155.28L595.325 145.827H601.121L593.092 158.818L601.775 171.895ZM625.863 171.895H620.421V160.715H610.342V171.895H604.983V145.827H610.342V156.1H620.421V145.827H625.863V171.895ZM632.296 145.827H637.117V158.459V161.81L636.929 165.622H637.013L648.804 145.81H655.238V171.878H650.417V159.433V157.98L650.5 156.254L650.588 154.254L650.771 151.895H650.588L638.796 171.878H632.279V145.827H632.296ZM681.288 171.895H675.846V161.895L673.346 162.63L672.271 162.904L671.379 163.075L669.6 163.348L667.988 163.434L666.208 163.348L664.696 162.989L663.45 162.442L662.375 161.707L661.488 160.715L660.867 159.536L660.429 158.186L660.346 156.63V145.81H665.788V155.075L665.871 155.98L665.954 156.715L666.225 157.348L666.575 157.895L667.113 158.34L667.821 158.613L668.625 158.801L669.517 158.887L670.942 158.801L672.371 158.528L673.883 158.169L674.875 157.895L675.846 157.519V145.793H681.288V171.895ZM702.354 171.895H687.621V145.827H702.354V150.374H693.079V156.186H701.729V160.63H693.079V167.348H702.354V171.895ZM718.508 150.1L717.083 150.271L715.738 150.647L714.663 151.382L713.775 152.374L713.067 153.639L712.529 155.177L712.163 156.989L712.079 158.989L712.163 160.989L712.529 162.801L712.967 164.254L713.692 165.519L714.579 166.425L715.738 167.058L716.983 167.502L718.492 167.588L719.921 167.502L721.433 167.228L723.129 166.87L724.992 166.237V170.87L723.379 171.502L721.6 171.861L719.821 172.135L717.938 172.22L715.354 172.032L713.033 171.314L711.071 170.22L709.458 168.767L708.213 166.853L707.225 164.579L706.954 163.314L706.688 161.946L706.6 160.408L706.517 158.87L706.6 156.955L706.871 155.04L707.308 153.314L707.929 151.673L708.733 150.22L709.725 149.04L710.8 147.946L712.129 147.04L713.554 146.322L715.067 145.861L716.679 145.502L718.458 145.416L720.342 145.502L722.204 145.861L723.988 146.408L725.867 147.228L724.171 151.775L722.742 151.057L721.317 150.51L719.888 150.151L718.508 150.1ZM751.179 171.895H745.117L735.829 158.715V171.895H730.383V145.827H735.829V158.545L744.929 145.827H750.725L741.438 158.357L751.179 171.895ZM770.008 171.895L768.125 165.724H758.854L757.058 171.895H751.179L760.2 145.724H766.8L775.821 171.895H770.008ZM766.883 161.092L766.263 159.092L765.725 157.365L765.288 155.827L764.933 154.562L764.583 153.467L764.313 152.562L764.129 151.929L764.046 151.57L763.692 150.579L763.508 149.758L763.342 150.493L763.171 151.314L762.821 152.493L762.45 153.758L762.013 155.297L761.558 157.023L760.938 158.938L760.317 161.126H766.883V161.092ZM787.696 161.912L781.717 171.912H775.65L783.058 160.459L781.983 160.015L781.092 159.382L780.288 158.647L779.667 157.741L779.129 156.75L778.775 155.656L778.592 154.562L778.508 153.28L778.692 151.639L779.129 150.185L779.933 148.92L781.008 147.827L782.438 146.92L784.133 146.288L786.017 145.929L788.25 145.844H796.463V171.912H791.104V161.912H787.696ZM791.088 150.374H788.417L787.425 150.459L786.533 150.545L785.813 150.818L785.192 151.092L784.654 151.536L784.3 152.083L784.133 152.818L784.05 153.639L784.133 154.545L784.3 155.263L784.654 155.895L785.108 156.442L785.729 156.904L786.517 157.177L787.508 157.365L788.583 157.45H791.088V150.374ZM823.033 150.1L821.604 150.271L820.263 150.647L819.188 151.382L818.296 152.374L817.592 153.639L817.054 155.177L816.7 156.989L816.617 158.989L816.7 160.989L817.054 162.801L817.508 164.254L818.213 165.519L819.104 166.425L820.263 167.058L821.521 167.502L823.033 167.588L824.463 167.502L825.992 167.228L827.688 166.87L829.567 166.237V170.87L827.954 171.502L826.175 171.861L824.396 172.135L822.513 172.22L821.171 172.135L819.925 172.049L818.683 171.775L817.608 171.314L815.642 170.22L814.029 168.767L812.788 166.853L811.813 164.579L811.546 163.314L811.275 161.946L811.192 160.408L811.092 158.87L811.192 156.955L811.463 155.04L811.913 153.314L812.538 151.673L813.342 150.22L814.317 149.04L815.392 147.946L816.633 147.04L818.063 146.322L819.575 145.861L821.271 145.502L823.05 145.416L824.829 145.502L826.713 145.861L828.592 146.408L830.475 147.228L828.779 151.775L827.35 151.057L825.921 150.51L824.496 150.151L823.033 150.1ZM855.079 171.895H849.725V150.459H843.475L843.204 152.818L842.938 155.006L842.667 157.092L842.4 158.904L842.217 160.63L841.946 162.083L841.763 163.451L841.492 164.63L841.308 165.639L840.771 167.365L840.233 168.818L839.513 169.912L838.804 170.818L838 171.451L837.025 171.912L835.867 172.186L834.521 172.271L833.196 172.186L831.938 171.912V167.365L832.925 167.639L833.9 167.724L834.708 167.536L835.058 167.263L835.329 166.801L835.596 166.254L835.867 165.622L836.133 164.716L836.404 163.622L836.671 162.254L836.942 160.528L837.296 158.442L837.646 155.98L838.35 150.715L838.975 145.81H855.046V171.895H855.079ZM881.671 145.827L873.725 164.271L873.021 165.912L872.313 167.263L871.675 168.357L870.971 169.263L869.625 170.528L867.929 171.519L865.879 172.066L864.804 172.152L863.563 172.237L861.513 172.152L859.55 171.69V166.972L860.354 167.245L861.263 167.434L863.396 167.605L864.638 167.434L865.713 166.972L866.067 166.613L866.521 166.066L866.871 165.348L867.142 164.527L858.288 145.827H864.083L870.333 160.459H870.517L870.788 159.553L876.042 145.827H881.671ZM890.688 158.374L882.125 145.844H887.75L895.963 158.562V145.844H901.054V158.562L909.267 145.844H914.792L906.225 158.374L915.329 171.912H909.517L901.038 158.732V171.912H895.946V158.732L887.463 171.912H881.654L890.688 158.374ZM923.896 155.912H926.029L928.446 155.998L930.496 156.459L932.292 157.092L933.804 157.997L934.963 159.092L935.854 160.459L936.292 161.997L936.475 163.81L936.292 165.724L935.854 167.365L934.963 168.733L933.888 169.912L932.379 170.733L930.596 171.365L928.463 171.827L925.963 171.912H918.554V145.827H934.629V150.374H923.913V155.912H923.896ZM923.896 167.365H925.775L927.038 167.28L928.113 167.194L929.088 166.921L929.808 166.476L930.346 166.015L930.7 165.382L930.967 164.647L931.05 163.827L930.967 163.006L930.7 162.288L930.346 161.656L929.808 161.194L929 160.835L928.013 160.647L926.767 160.459H925.342H923.913V167.365H923.896ZM956.563 171.895L954.683 165.724H945.413L943.629 171.895H937.738L946.754 145.724H953.354L962.375 171.895H956.563ZM953.442 161.092L952.821 159.092L952.283 157.365L951.846 155.827L951.492 154.562L951.138 153.467L950.871 152.562L950.671 151.912L950.583 151.553L950.317 150.562L950.046 149.741L949.863 150.476L949.679 151.297L949.325 152.476L948.954 153.741L948.521 155.28L948.067 157.006L947.429 158.921L946.804 161.109H953.442V161.092Z" fill="white"/>
</g>
</g>
<defs>
<clipPath id="clip0_3133_34">
<rect width="1000" height="200" fill="white"/>
</clipPath>
</defs>
</svg>
