<svg width="1000" height="124" viewBox="0 0 1000 124" fill="none" xmlns="http://www.w3.org/2000/svg">
<g clip-path="url(#clip0_3133_224)">
<path d="M935.585 96.0824V21.636H1000V96.0824H984.938V34.1407H950.549V96.0824H935.585Z" fill="white"/>
<path d="M859.306 96.0824V21.636H923.72V96.0824H908.658V34.1407H874.264V96.0824H859.306Z" fill="white"/>
<path d="M795.715 124C793.414 124 791.326 123.822 789.44 123.467C787.554 123.144 786.15 122.788 785.228 122.4L788.927 110.526C791.736 111.237 794.238 111.544 796.435 111.447C798.627 111.35 800.565 110.574 802.243 109.12C803.953 107.667 805.461 105.291 806.767 101.996L808.668 97.0517L779.777 21.636H796.228L816.223 79.4096H817.047L837.047 21.636H853.549L821.005 106.018C819.497 109.896 817.58 113.175 815.249 115.857C812.917 118.571 810.14 120.607 806.922 121.964C803.699 123.322 799.964 124 795.715 124Z" fill="white"/>
<path d="M708.016 124V21.6361H723.031V33.7046H724.316C725.207 32.1536 726.492 30.3603 728.171 28.3247C729.85 26.289 732.181 24.5118 735.161 22.9932C738.145 21.4422 742.083 20.6667 746.984 20.6667C753.363 20.6667 759.052 22.1854 764.052 25.2227C769.057 28.26 772.979 32.6383 775.824 38.3575C778.705 44.0767 780.145 50.9591 780.145 59.005C780.145 67.0505 778.72 73.949 775.876 79.7006C773.031 85.4196 769.124 89.8303 764.155 92.9324C759.186 96.0019 753.513 97.5364 747.14 97.5364C742.342 97.5364 738.42 96.7774 735.368 95.2584C732.352 93.74 729.984 91.9626 728.275 89.9275C726.56 87.8918 725.238 86.0819 724.316 84.4989H723.389V124H708.016ZM723.083 58.8593C723.083 64.0941 723.886 68.6821 725.497 72.6243C727.109 76.5665 729.44 79.652 732.487 81.8814C735.539 84.0788 739.275 85.1772 743.694 85.1772C748.29 85.1772 752.124 84.0302 755.212 81.7362C758.295 79.4097 760.627 76.259 762.202 72.2849C763.813 68.3106 764.617 63.8353 764.617 58.8593C764.617 53.9478 763.829 49.5374 762.254 45.6276C760.71 41.7179 758.383 38.6321 755.264 36.3703C752.176 34.1085 748.321 32.9776 743.694 32.9776C739.238 32.9776 735.471 34.06 732.383 36.2249C729.337 38.3898 727.021 41.411 725.446 45.2884C723.87 49.1658 723.083 53.6895 723.083 58.8593Z" fill="white"/>
<path d="M700.461 21.636V34.1407H665.14V96.0824H649.974V21.636H700.461Z" fill="white"/>
<path d="M580.155 97.585C572.513 97.585 565.933 95.9533 560.415 92.6901C554.933 89.3943 550.715 84.8543 547.767 79.0702C544.824 73.2867 543.347 66.6625 543.347 59.1987C543.347 51.6377 544.855 44.9653 547.87 39.1814C550.886 33.3653 555.14 28.8255 560.622 25.562C566.104 22.2985 572.565 20.6667 580 20.6667C586 20.6667 591.347 21.7169 596.042 23.8172C600.736 25.8851 604.523 28.7932 607.404 32.5413C610.316 36.2895 612.047 40.6678 612.596 45.6761H597.637C596.814 42.1864 594.927 39.1814 591.979 36.6611C589.067 34.1408 585.161 32.8806 580.259 32.8806C575.974 32.8806 572.223 33.9469 569 36.0795C565.814 38.1798 563.332 41.1848 561.549 45.0945C559.767 48.9719 558.876 53.5603 558.876 58.8593C558.876 64.2879 559.746 68.973 561.497 72.9152C563.244 76.8568 565.71 79.9103 568.896 82.0757C572.119 84.2405 575.907 85.3229 580.259 85.3229C583.171 85.3229 585.813 84.8218 588.176 83.8205C590.575 82.7861 592.58 81.3162 594.192 79.4097C595.834 77.5032 596.985 75.2092 597.637 72.5272H612.596C612.047 77.342 610.383 81.6391 607.611 85.4195C604.834 89.2 601.114 92.1729 596.451 94.3377C591.829 96.5026 586.394 97.585 580.155 97.585Z" fill="white"/>
<path d="M501.622 97.585C494.219 97.585 487.759 95.9859 482.241 92.7867C476.723 89.588 472.439 85.1126 469.389 79.3611C466.338 73.6096 464.814 66.8888 464.814 59.1987C464.814 51.4761 466.338 44.7229 469.389 38.9391C472.439 33.1553 476.723 28.6639 482.241 25.4651C487.759 22.2662 494.219 20.6667 501.622 20.6667C509.025 20.6667 515.485 22.2662 521.005 25.4651C526.518 28.6639 530.803 33.1553 533.855 38.9391C536.907 44.7229 538.43 51.4761 538.43 59.1987C538.43 66.8888 536.907 73.6096 533.855 79.3611C530.803 85.1126 526.518 89.588 521.005 92.7867C515.485 95.9859 509.025 97.585 501.622 97.585ZM501.673 85.4195C506.472 85.4195 510.447 84.224 513.6 81.8328C516.753 79.4422 519.083 76.259 520.591 72.2848C522.135 68.3106 522.907 63.9324 522.907 59.1501C522.907 54.4004 522.135 50.0382 520.591 46.0639C519.083 42.0572 516.753 38.8421 513.6 36.4188C510.447 33.9954 506.472 32.7837 501.673 32.7837C496.841 32.7837 492.831 33.9954 489.644 36.4188C486.491 38.8421 484.143 42.0572 482.601 46.0639C481.093 50.0382 480.339 54.4004 480.339 59.1501C480.339 63.9324 481.093 68.3106 482.601 72.2848C484.143 76.259 486.491 79.4422 489.644 81.8328C492.831 84.224 496.841 85.4195 501.673 85.4195Z" fill="white"/>
<path d="M464.475 21.636V34.1407H429.157V96.0824H413.992V21.636H464.475Z" fill="white"/>
<path d="M333.332 124V21.6361H348.343V33.7046H349.628C350.519 32.1536 351.805 30.3603 353.484 28.3247C355.163 26.289 357.494 24.5118 360.475 22.9932C363.457 21.4422 367.398 20.6667 372.299 20.6667C378.674 20.6667 384.363 22.1854 389.367 25.2227C394.37 28.26 398.295 32.6383 401.139 38.3575C404.018 44.0767 405.458 50.9591 405.458 59.005C405.458 67.0505 404.035 73.949 401.191 79.7006C398.346 85.4196 394.439 89.8303 389.47 92.9324C384.5 96.0019 378.828 97.5364 372.453 97.5364C367.655 97.5364 363.731 96.7774 360.681 95.2584C357.665 93.74 355.3 91.9626 353.587 89.9275C351.873 87.8918 350.553 86.0819 349.628 84.4989H348.703V124H333.332ZM348.394 58.8593C348.394 64.0941 349.199 68.6821 350.81 72.6243C352.421 76.5665 354.752 79.652 357.802 81.8814C360.852 84.0788 364.588 85.1772 369.009 85.1772C373.602 85.1772 377.44 84.0302 380.525 81.7362C383.609 79.4097 385.94 76.259 387.516 72.2849C389.127 68.3106 389.933 63.8353 389.933 58.8593C389.933 53.9478 389.144 49.5374 387.567 45.6276C386.025 41.7179 383.695 38.6321 380.576 36.3703C377.492 34.1085 373.636 32.9776 369.009 32.9776C364.554 32.9776 360.784 34.06 357.699 36.2249C354.649 38.3898 352.336 41.411 350.759 45.2884C349.182 49.1658 348.394 53.6895 348.394 58.8593Z" fill="white"/>
<path d="M291.086 97.585C283.306 97.585 276.606 96.0179 270.985 92.8838C265.399 89.7172 261.081 85.2744 258.031 79.5549C255.015 73.8038 253.507 67.0665 253.507 59.3439C253.507 51.7184 255.015 44.9976 258.031 39.1814C261.081 33.3653 265.331 28.8255 270.78 25.562C276.263 22.2985 282.672 20.6667 290.007 20.6667C294.462 20.6667 298.78 21.3615 302.962 22.7509C307.142 24.1403 310.895 26.3213 314.22 29.294C317.545 32.2667 320.166 36.128 322.085 40.8778C324.005 45.5953 324.964 51.3307 324.964 58.0837V63.2215H262.194V52.3648H309.902C309.902 48.5519 309.079 45.1753 307.434 42.2349C305.789 39.2622 303.476 36.9196 300.494 35.2071C297.547 33.4945 294.085 32.6383 290.109 32.6383C285.791 32.6383 282.021 33.6399 278.799 35.6433C275.612 37.6143 273.145 40.1993 271.397 43.3981C269.683 46.5647 268.826 50.0059 268.826 53.7215V62.2036C268.826 67.1797 269.752 71.4127 271.602 74.9023C273.487 78.3918 276.109 81.0578 279.468 82.8992C282.826 84.7086 286.751 85.6138 291.24 85.6138C294.153 85.6138 296.81 85.2258 299.209 84.4503C301.608 83.6427 303.681 82.4472 305.429 80.8636C307.177 79.2805 308.513 77.3254 309.439 74.9989L323.988 77.4711C322.822 81.5099 320.732 85.0481 317.716 88.0855C314.734 91.0905 310.981 93.433 306.458 95.1133C301.967 96.7614 296.844 97.585 291.086 97.585Z" fill="white"/>
<path d="M186.529 34.1407V21.636H253.154V34.1407H227.398V96.0824H212.387V34.1407H186.529Z" fill="white"/>
<path d="M0 62.0006L37.0933 32.4097L73.6668 61.5857L36.5737 91.1767L0 62.0006Z" fill="white"/>
<path d="M41.1472 94.824L78.2404 65.2329L114.814 94.4096L77.7207 124L41.1472 94.824Z" fill="white"/>
<path d="M81.7725 62.4144L118.866 32.824L155.44 62L118.347 91.591L81.7725 62.4144Z" fill="white"/>
<path d="M41.1472 29.5906L78.2404 0L114.815 29.1763L77.7213 58.7672L41.1472 29.5906Z" fill="white"/>
</g>
<defs>
<clipPath id="clip0_3133_224">
<rect width="1000" height="124" fill="white"/>
</clipPath>
</defs>
</svg>
