<svg width="103" height="28" viewBox="0 0 103 28" fill="none" xmlns="http://www.w3.org/2000/svg">
<g clip-path="url(#clip0_3163_962)">
<mask id="mask0_3163_962" style="mask-type:luminance" maskUnits="userSpaceOnUse" x="2" y="4" width="99" height="19">
<path d="M100.519 4H2V22.9331H100.519V4Z" fill="white"/>
</mask>
<g mask="url(#mask0_3163_962)">
<path d="M90.6667 22.4055H94.7242V8.56164H99.919V5.1758H85.4719V8.56164H90.6667V22.4055ZM7.30773 19.2517L13.6844 19.2979L14.6354 22.3127H18.6702L13.128 5.19893L8.04948 5.12956L2.15942 22.3127H6.21765L7.30773 19.2517ZM10.6932 8.81672L13.0583 15.9356H7.98011L10.6932 8.81672ZM23.934 15.4023L32.4909 15.3791V11.7614H23.9109V8.37592L32.4909 8.39941V5.10645H20.0385V22.3127H32.5603L32.5371 19.0894L23.9109 19.0428L23.934 15.4023ZM41.9056 17.4198C43.2814 17.4198 44.5106 17.161 45.5927 16.6432C46.6748 16.1251 47.5136 15.3985 48.1086 14.4631C48.7037 13.5276 49.0016 12.4648 49.0016 11.2747C49.0016 10.3935 48.8277 9.57022 48.4797 8.80497C48.1318 8.03972 47.6489 7.39045 47.0303 6.85716C46.4121 6.32387 45.6662 5.9024 44.7926 5.59349C43.9193 5.28383 42.9725 5.12956 41.9518 5.12956H34.5316V22.3593H38.4272V17.4198H41.9056ZM41.1403 8.19057C41.5887 8.19057 42.0177 8.23302 42.4274 8.31792C42.8372 8.40321 43.2082 8.53435 43.5407 8.71211C43.873 8.88987 44.163 9.09493 44.4101 9.32651C44.6572 9.55848 44.8468 9.8291 44.9783 10.1384C45.1098 10.4477 45.1754 10.7645 45.1754 11.089C45.1754 11.5067 45.0712 11.8966 44.8623 12.2602C44.6534 12.6233 44.3677 12.9326 44.0042 13.1877C43.6411 13.4428 43.212 13.644 42.7174 13.7907C42.2228 13.9377 41.697 14.0109 41.1403 14.0109H38.3343V8.19057H41.1403ZM57.8306 22.4521H62.3062L58.0861 16.1911C59.1682 15.851 60.026 15.1862 60.6601 14.197C61.2938 13.2074 61.6107 12.1408 61.6107 10.9969C61.6107 9.0953 60.9766 7.64212 59.7091 6.63732C58.4412 5.63253 56.7716 5.12122 54.7003 5.12994L46.3022 5.16557C46.3678 5.20006 46.4326 5.23607 46.4971 5.27208C46.9337 5.51882 47.3298 5.79551 47.6849 6.10176C48.0484 6.41521 48.3736 6.76505 48.6598 7.14939C48.9455 7.53372 49.1904 7.94913 49.3924 8.39411C49.414 8.44149 49.4352 8.48924 49.4553 8.537L54.3061 8.46916C55.2336 8.45626 56.0068 8.69354 56.625 9.14155C57.2435 9.58955 57.5525 10.2085 57.5525 10.9969C57.5525 11.7541 57.2701 12.3765 56.7061 12.8636C56.1421 13.3502 55.4189 13.5826 54.5381 13.594L51.8049 13.6292L57.8306 22.4521ZM63.6741 5.24555V22.382H67.4075V5.24555H63.6741ZM73.3436 5.26866H68.938V22.3127H72.7412L72.8341 11.4831L79.5819 22.3127H84.011V5.26866H80.185L80.2307 16.1906L73.3436 5.26866Z" fill="white"/>
</g>
</g>
<defs>
<clipPath id="clip0_3163_962">
<rect width="98.5185" height="19" fill="white" transform="translate(2 4)"/>
</clipPath>
</defs>
</svg>
