<svg width="140" height="28" viewBox="0 0 140 28" fill="none" xmlns="http://www.w3.org/2000/svg">
<g clip-path="url(#clip0_3163_842)">
<g clip-path="url(#clip1_3163_842)">
<mask id="mask0_3163_842" style="mask-type:luminance" maskUnits="userSpaceOnUse" x="0" y="0" width="140" height="28">
<path d="M140 0H0V28H140V0Z" fill="white"/>
</mask>
<g mask="url(#mask0_3163_842)">
<path d="M10.8641 6.99211L11.4144 6.84849L11.9646 6.75276V11.9963H14.5984V6.75276L15.1604 6.84849L15.7107 6.99211L16.2374 7.15725L16.7407 7.36066V4.79755L15.9105 4.56063L15.0546 4.39311L14.6219 4.33327L14.1774 4.28541L13.733 4.26148L13.2862 4.24951L12.8418 4.26148L12.3856 4.28541L11.9529 4.33327L11.5085 4.39311L10.6525 4.56063L10.2433 4.66593L9.83179 4.79755V7.36066L10.3374 7.15725L10.8641 6.99211Z" fill="white"/>
<path d="M14.6102 12.5085H11.9647L9.65781 16.9647H8.28687V20.4229L10.897 22.6868V19.2789H15.6754V22.6868L18.288 20.4229V16.9671H16.9053L14.6102 12.5085ZM12.2916 16.9671L13.2745 14.8467L14.2692 16.9671H12.2916Z" fill="white"/>
<path d="M13.2867 20.2076L12.4778 20.6719L11.6924 21.1362V22.0791V23.0316L12.4778 23.4959L13.2867 23.9602L14.0839 23.4959L14.8929 23.0316V22.0791V21.1362L14.0839 20.6719L13.2867 20.2076ZM14.0722 22.2466L14.0251 22.4022L13.9546 22.5338L13.8488 22.6535L13.7312 22.7612L13.6019 22.8329L13.449 22.8808L13.2844 22.8928L13.1198 22.8808L12.9787 22.8329L12.8494 22.7612L12.7318 22.6535L12.6259 22.5338L12.5554 22.4022L12.5084 22.2466L12.4966 22.0791L12.5084 21.9116L12.5554 21.768L12.6259 21.6363L12.7318 21.5167L12.8494 21.409L12.9787 21.3372L13.1198 21.2894L13.2844 21.2774L13.449 21.2894L13.6019 21.3372L13.7312 21.409L13.8488 21.5167L13.9546 21.6363L14.0251 21.768L14.0722 21.9116L14.0839 22.0791L14.0722 22.2466Z" fill="white"/>
<path d="M25.5301 8.84227C24.8599 7.23168 23.9028 5.78617 22.6824 4.54411C21.462 3.30204 20.0417 2.32801 18.4592 1.64595C16.8202 0.93996 15.0801 0.583374 13.2859 0.583374C11.4917 0.583374 9.75158 0.93996 8.11265 1.64595C6.53007 2.32801 5.10978 3.30204 3.88936 4.54411C2.66894 5.78617 1.71188 7.23168 1.0417 8.84227C0.350371 10.5103 0 12.2813 0 14.1073C0 15.9333 0.350371 17.7043 1.04406 19.3723C1.71423 20.9829 2.67129 22.4284 3.89171 23.6705C5.11213 24.9126 6.5324 25.8866 8.11498 26.5687C9.75397 27.2747 11.4941 27.6312 13.2882 27.6312C15.0824 27.6312 16.8225 27.2747 18.4615 26.5687C20.044 25.8866 21.4643 24.9126 22.6848 23.6705C23.9052 22.4284 24.8622 20.9829 25.5324 19.3723C26.2261 17.7043 26.5765 15.9333 26.5765 14.1073C26.5742 12.2813 26.2237 10.5103 25.5301 8.84227ZM13.2859 25.7334C6.98623 25.7334 1.86237 20.5187 1.86237 14.1073C1.86237 7.69596 6.98623 2.48117 13.2859 2.48117C19.5855 2.48117 24.7094 7.69596 24.7094 14.1073C24.7118 20.5163 19.5855 25.7334 13.2859 25.7334Z" fill="white"/>
<path d="M71.8258 12.0014L71.7365 11.5778L71.5977 11.2045L71.4332 10.8958L71.2314 10.6397L70.9794 10.4339L70.6877 10.2807L70.3587 10.1659L69.9661 10.0749L69.5379 10.0246L69.0584 10.0127H65.1285V8.0024H71.0523V6.16443H63.1067V15.9478H69.0561L69.5356 15.9358L69.9638 15.8832L70.3424 15.8066L70.6714 15.6917L70.963 15.5386L71.2144 15.3327L71.4169 15.0767L71.593 14.7943L71.7319 14.4473L71.8211 14.05L71.8847 13.5857L71.8964 13.0593L71.8847 12.5064L71.8258 12.0014ZM69.8669 12.9515V13.1693L69.8413 13.3608L69.8156 13.514L69.7777 13.6432L69.7287 13.7461L69.6534 13.849L69.5636 13.9256L69.437 13.9782L69.2865 14.0165L69.1098 14.0548L68.8963 14.0668L68.6443 14.0787H65.1338V11.8411H68.7079L68.9476 11.853L69.15 11.8651L69.3262 11.9033L69.465 11.9535L69.5782 12.0182L69.6791 12.0948L69.7427 12.1977L69.7917 12.3101L69.8296 12.4251L69.8553 12.5782L69.8669 12.7457V12.9515Z" fill="white"/>
<path d="M51.1992 8.71077L51.1475 8.32542L51.0722 7.99041L50.9852 7.68166L50.8724 7.39926L50.7195 7.1552L50.5549 6.93738L50.3644 6.74593L50.1504 6.59275L49.9105 6.45158L49.6448 6.34868L49.3556 6.27209L49.0263 6.20746L48.6595 6.18115L48.2692 6.16919H42.4961V15.9478H44.5161V13.0424H48.2927L48.7841 13.0161L49.2404 12.9515L49.6331 12.8486L49.9858 12.6954L50.2891 12.4896L50.5408 12.2455L50.7548 11.9368L50.9312 11.5898L51.0699 11.1781L51.171 10.7019L51.2204 10.1754L51.2462 9.89296V9.58426L51.2345 9.13433L51.1992 8.71077ZM49.2027 9.84034L49.191 10.0845L49.1533 10.2783L49.1016 10.4578L49.0381 10.6109L48.937 10.7402L48.8242 10.855L48.6972 10.946L48.5325 11.0106L48.3561 11.0752L48.1422 11.1016L47.9023 11.1135H44.5161V8.09331H47.9023H48.0787L48.2551 8.11962L48.5325 8.18426L48.7606 8.29911L48.937 8.4523L49.064 8.6581L49.1533 8.90222L49.2027 9.21092L49.2145 9.58426L49.2027 9.84034Z" fill="white"/>
<path d="M77.2066 6.16443L72.7219 15.9478H75.0827L76.1811 13.4661H81.1972L82.2833 15.9478H84.682L80.2119 6.16443H77.2066ZM77.0042 11.6281L78.6713 7.99044H78.7723L80.3904 11.6281H77.0042Z" fill="white"/>
<path d="M56.9199 11.6664L54.091 6.16443H51.7041L55.6195 13.0425L55.683 13.1717L55.7324 13.2866L55.7582 13.4014L55.7723 13.4924L55.7582 13.6336L55.6947 13.7485L55.6077 13.8514L55.4807 13.9423L55.3161 14.0069L55.1139 14.0452L54.8741 14.0692L54.5966 14.0835H54.1921V15.9478H54.9893L55.2785 15.9358L55.5442 15.9215L55.7723 15.8952L55.9746 15.8569L56.1627 15.8066L56.339 15.7396L56.5037 15.6511L56.6542 15.5362L56.807 15.395L56.9575 15.2394L57.1104 15.048L57.2609 14.8278L57.4396 14.5837L57.6277 14.275L57.8299 13.916L58.0581 13.5043L62.0112 6.16443H59.5985L56.9199 11.6664Z" fill="white"/>
<path d="M32.4788 8.09334H36.0155V15.9478H38.0497V8.09334H41.624V6.16443H32.4788V8.09334Z" fill="white"/>
<path d="M134.59 8.69645L134.552 8.42601L134.514 8.16993L134.451 7.92586L134.387 7.70805L134.312 7.5142L134.136 7.16718L133.908 6.87044L133.642 6.64066L133.338 6.46123L132.985 6.33196L132.57 6.24102L132.09 6.17639L131.573 6.16443H127.845L127.415 6.17639L127.036 6.20275L126.681 6.25298L126.366 6.32957L126.089 6.42051L125.834 6.54972L125.606 6.7029L125.416 6.8824L125.252 7.10015L125.099 7.34428L124.986 7.62667L124.885 7.93543L124.809 8.28239L124.758 8.69405L124.734 9.13202L124.72 9.63456V12.5901L124.734 13.0281L124.758 13.4278L124.809 13.7892L124.885 14.1218L124.986 14.4185L125.113 14.689L125.266 14.9331L125.43 15.1509L125.633 15.3448L125.858 15.5122L126.124 15.6535L126.401 15.7564L126.716 15.8473L127.058 15.9L127.436 15.9382L127.84 15.9502H131.568L131.998 15.9382L132.389 15.9L132.729 15.8473L133.044 15.7564L133.336 15.6535L133.59 15.5242L133.804 15.3711L133.995 15.1772L134.159 14.9714L134.286 14.7273L134.399 14.4569L134.488 14.1625L134.552 13.8274L134.601 13.4541L134.627 13.0425L134.641 12.5925V9.63456V9.2995L134.615 8.9908L134.59 8.69645ZM132.607 12.3485L132.593 12.6691L132.579 12.9396L132.542 13.1717L132.478 13.3632L132.403 13.5307L132.301 13.6599L132.175 13.7748L132.022 13.8514L131.831 13.916L131.603 13.9543L131.338 13.9806L131.022 13.9926H128.332L128.041 13.9806L127.775 13.9543L127.546 13.916L127.356 13.8514L127.206 13.7604L127.079 13.6575L126.965 13.5164L126.89 13.3488L126.827 13.155L126.789 12.9228L126.752 12.6524L126.745 12.3604V9.86673L126.759 9.53405L126.796 9.23731L126.846 8.98123L126.909 8.77543L126.985 8.59594L127.097 8.45471L127.224 8.33985L127.389 8.24891L127.58 8.18428L127.808 8.13166L128.073 8.1053L128.377 8.09334H130.992L131.283 8.1053L131.549 8.13166L131.777 8.18428L131.965 8.24891L132.13 8.3255L132.257 8.44036L132.372 8.58159L132.459 8.74906L132.522 8.96688L132.572 9.22535L132.598 9.5221L132.612 9.85477V12.3485H132.607Z" fill="white"/>
<path d="M117.387 6.16443L112.902 15.9478H115.263L118.851 7.99044H118.952L122.477 15.9478H124.85L120.391 6.16443H117.387Z" fill="white"/>
<path d="M103.795 15.9478H112.46V14.0835H105.829V11.8459H112.246V10.1491H105.829V8.0024H112.46V6.16443H103.795V15.9478Z" fill="white"/>
<path d="M98.2233 6.16443H95.218L91.6182 13.9926H90.4043V16.8333L92.2622 18.4535V15.9478H93.083H100.295H101.153V18.4535L102.997 16.8333V13.9926H101.784L98.2233 6.16443ZM93.9673 13.9926L96.6833 7.98805H96.7725L99.4372 13.9926H93.9673Z" fill="white"/>
<path d="M90.4429 10.3931H85.467V12.3339H90.4429V10.3931Z" fill="white"/>
<path d="M139.982 5.8437L139.956 5.62593L139.907 5.43208L139.843 5.24062L139.756 5.06113L139.667 4.89361L139.554 4.74045L139.438 4.61121L139.161 4.39343L139.008 4.30249L138.844 4.22591L138.679 4.1613L138.503 4.123L138.136 4.09668L137.783 4.123L137.607 4.1613L137.442 4.22591L137.278 4.30249L137.127 4.39343L136.849 4.61121L136.734 4.74045L136.624 4.89121L136.534 5.05874L136.445 5.23823L136.382 5.42968L136.344 5.62353L136.318 5.84131L136.309 6.08782L136.32 6.30558L136.346 6.5234L136.384 6.71724L136.447 6.91108L136.537 7.09057L136.626 7.25811L136.739 7.41123L136.854 7.5405L137.132 7.75826L137.282 7.8492L137.447 7.92579L137.788 8.02869L138.14 8.06696L138.331 8.055L138.507 8.02869L138.848 7.92579L139.013 7.8492L139.166 7.75826L139.443 7.5405L139.558 7.41123L139.672 7.25811L139.761 7.09057L139.848 6.91108L139.911 6.71724L139.96 6.5234L139.987 6.30558L140.001 6.08782L139.982 5.8437ZM139.565 6.42044L139.49 6.74116L139.363 7.01159L139.187 7.25572L138.984 7.43521L138.733 7.57637L138.453 7.66732L138.302 7.67927L138.138 7.69123L137.835 7.66492L137.557 7.57398L137.317 7.43282L137.103 7.25332L136.939 7.0092L136.8 6.73877L136.725 6.41805L136.699 6.08304L136.725 5.72405L136.8 5.40336L136.939 5.13293L137.103 4.88882L137.317 4.70933L137.557 4.56814L137.835 4.47719L138.138 4.45087L138.302 4.46283L138.453 4.4748L138.733 4.56574L138.984 4.70694L139.187 4.88643L139.363 5.13053L139.49 5.40097L139.565 5.72165L139.592 6.08065L139.565 6.42044Z" fill="white"/>
<path d="M138.808 6.65263L138.669 6.43487L138.542 6.26734L138.721 6.16444L138.846 6.02321L138.921 5.87003L138.947 5.67621L138.933 5.50868L138.883 5.36749L138.808 5.25261L138.707 5.14971L138.568 5.07313L138.403 5.02047L138.213 4.98218L137.985 4.97021L137.693 4.98218L137.378 5.03483V7.16958H137.769V6.34632H138.124L138.263 6.49945L138.401 6.70531L138.552 6.92306L138.679 7.16719H139.095L138.956 6.90871L138.808 6.65263ZM138.505 5.84372L138.455 5.90835L138.392 5.94662L138.204 6.01126L137.976 6.02321H137.773V5.31723H137.889L138.015 5.30526H138.131L138.232 5.33159L138.396 5.39621L138.46 5.44886L138.51 5.49911L138.535 5.57569L138.547 5.66663L138.535 5.76954L138.505 5.84372Z" fill="white"/>
<path fill-rule="evenodd" clip-rule="evenodd" d="M36.3253 24.0654L36.076 23.2014H34.7639L34.5147 24.0654H33.7034L34.9521 20.4014H35.8762L37.1507 24.0654H36.3253ZM35.8879 22.5529L35.8009 22.2729L35.7257 22.0311L35.6645 21.8158L35.6151 21.6387L35.5658 21.4855L35.5282 21.3587L35.5023 21.2701L35.4905 21.2198L35.4529 21.0811L35.4271 20.9662L35.4012 21.0691L35.3635 21.184L35.3142 21.3491L35.2648 21.5262L35.2013 21.7416L35.1378 21.9833L35.0508 22.2513L34.9638 22.5577H35.8879V22.5529ZM37.5998 20.4158H38.7003L39.0625 20.4277L39.3634 20.478L39.6127 20.5402L39.8126 20.6431L39.9631 20.77L40.0618 20.9231L40.123 21.1145L40.1488 21.3443L40.1371 21.4974L40.1112 21.6506L40.0618 21.7775L39.9983 21.8924L39.9113 21.9809L39.8243 22.0575L39.7114 22.1101L39.5985 22.134V22.1604L39.7608 22.2106L39.8854 22.2753L39.9983 22.3519L40.0853 22.4548L40.1488 22.5696L40.1982 22.6965L40.224 22.8496L40.2358 23.0148L40.2099 23.2445L40.1465 23.4599L40.0336 23.6394L39.8831 23.7926L39.695 23.9194L39.4692 24.0079L39.2059 24.0582L38.919 24.0702H37.5951V20.4158H37.5998ZM38.3499 21.8661H38.7873H38.9378L39.0625 21.8397L39.1635 21.8134L39.2388 21.7751L39.2999 21.7105L39.3376 21.6339L39.3634 21.5453L39.3752 21.4424L39.3634 21.3419L39.3376 21.2653L39.2881 21.1887L39.2247 21.1385L39.1377 21.1002L39.0248 21.0739L38.9002 21.0476H38.7497H38.3499V21.8661ZM38.3499 22.4882V23.4288H38.8508L38.9895 23.4168L39.1141 23.4048L39.227 23.3666L39.3023 23.3043L39.3658 23.2397L39.4151 23.1512L39.441 23.0482L39.4528 22.9334L39.441 22.8305L39.4151 22.73L39.3658 22.6534L39.2905 22.6032L39.2035 22.5529L39.1047 22.5146L38.9801 22.5026L38.8296 22.4906H38.3499V22.4882ZM43.1352 24.0654L42.886 23.2014H41.5738L41.3246 24.0654H40.4992L41.7619 20.4014H42.6861L43.9488 24.0654H43.1352ZM42.6978 22.5529L42.6108 22.2729L42.5356 22.0311L42.4721 21.8158L42.4227 21.6387L42.3733 21.4855L42.3357 21.3587L42.3098 21.2701L42.2981 21.2198L42.2605 21.0811L42.2228 20.9662L42.1993 21.0691L42.1734 21.184L42.1241 21.3491L42.0747 21.5262L42.0135 21.7416L41.9501 21.9833L41.863 22.2513L41.7761 22.5577H42.6978V22.5529ZM45.1598 22.1461H45.4091L45.5713 22.1316L45.7101 22.1077L45.8347 22.0695L45.9335 22.0072L46.0087 21.9306L46.0581 21.8277L46.0957 21.7129L46.1075 21.586L46.0957 21.4592L46.0699 21.3443L46.0205 21.2558L45.957 21.1792L45.87 21.1169L45.7689 21.0787L45.6443 21.0667L45.5078 21.0548H45.1575V22.1461H45.1598ZM46.8717 21.5477L46.8459 21.8397L46.7823 22.0814L46.6695 22.2968L46.5072 22.4619L46.3073 22.6032L46.0699 22.6917L45.7947 22.7563L45.482 22.7706H45.1575V24.0678H44.3956V20.4158H45.5454L45.8464 20.4277L46.1216 20.4924L46.3474 20.5808L46.5354 20.7077L46.6859 20.8729L46.7871 21.0643L46.8505 21.2916L46.8717 21.5477ZM47.5466 20.4158H48.2215V22.1843L48.2097 22.6534L48.1839 23.1871H48.2097L49.8581 20.4134H50.7587V24.063H50.0838V22.3207V22.1173L50.098 21.8756L50.1097 21.5956L50.1356 21.2653H50.1097L48.459 24.063H47.5466V20.4158ZM51.657 20.4158H52.3436V22.1843L52.3318 22.6534L52.306 23.1871H52.3178L53.9685 20.4134H54.8691V24.063H54.1942V22.3207V22.1173L54.206 21.8756L54.2319 21.5956L54.2436 21.2653H54.2177L52.567 24.063H51.6546V20.4158H51.657ZM54.4435 19.2479L54.4059 19.4632L54.3447 19.6403L54.2436 19.7935L54.1049 19.9203L53.9426 20.0089L53.7427 20.0735L53.5053 20.1118L53.2419 20.1238L52.9667 20.1118L52.741 20.0735L52.5411 20.0089L52.3906 19.9203L52.266 19.8055L52.1649 19.6523L52.1037 19.4609L52.0779 19.2455H52.7386L52.7504 19.3603L52.7763 19.4609L52.8139 19.5374L52.8633 19.5997L52.9244 19.638L53.0114 19.6763L53.1243 19.6882L53.2489 19.7002L53.3618 19.6882L53.4606 19.6763L53.5476 19.638L53.6228 19.5877L53.7098 19.4489L53.7475 19.346L53.7592 19.2455H54.4435V19.2479ZM58.6926 24.0654H57.9425V22.5002H56.5293V24.0654H55.7674V20.4158H56.5293V21.854H57.9425V20.4158H58.6926V24.0654ZM62.8547 22.2466L62.843 22.4619L62.8314 22.6653L62.7444 23.0339L62.6079 23.3642L62.4195 23.6322L62.1704 23.8356L61.8834 23.9888L61.7213 24.0534L61.5474 24.0917L61.359 24.1037L61.1595 24.1156L60.9594 24.1037L60.7716 24.0917L60.5972 24.0534L60.435 23.9888L60.148 23.8356L59.8989 23.6322L59.7105 23.3642L59.5723 23.0339L59.5227 22.8568L59.4854 22.6653L59.4731 22.45L59.4591 22.2346L59.4731 22.0192L59.4854 21.8014L59.5227 21.61L59.5723 21.4185L59.6353 21.2534L59.7105 21.1002L59.798 20.9614L59.8966 20.8345L60.1457 20.6311L60.4327 20.478L60.5949 20.4277L60.7687 20.3894L60.9571 20.3774L61.1572 20.3655L61.5451 20.3918L61.7189 20.4301L61.8811 20.4803L62.0433 20.5569L62.1798 20.6335L62.3046 20.7364L62.4172 20.8513L62.6056 21.1193L62.6809 21.2725L62.7444 21.4376L62.7934 21.6147L62.8314 21.8182L62.843 22.0216L62.8547 22.2466ZM60.2425 22.2466L60.2542 22.5385L60.3032 22.7803L60.3784 22.9956L60.4799 23.1608L60.6042 23.3019L60.7664 23.3905L60.9408 23.4527L61.1525 23.4647L61.3637 23.4527L61.5521 23.3905L61.7026 23.3019L61.8269 23.1608L61.9284 22.9956L62.0036 22.7803L62.0409 22.5385L62.0526 22.2466L62.0409 21.9545L62.0036 21.7009L61.9284 21.4855L61.8269 21.3084L61.7026 21.1816L61.5521 21.0811L61.3637 21.0308L61.1525 21.0045L60.9408 21.0308L60.7664 21.0811L60.6042 21.1816L60.4799 21.3204L60.3784 21.4974L60.3032 21.7153L60.2542 21.9569L60.2425 22.2466ZM63.2922 23.01V22.3877H64.6041V23.01H63.2922ZM66.7158 21.014L66.5163 21.0379L66.3419 21.0906L66.1914 21.1935L66.0549 21.3324L65.9539 21.5095L65.8787 21.7248L65.8291 21.9785L65.8174 22.2585L65.8291 22.5385L65.8787 22.7922L65.9423 22.9956L66.0432 23.1727L66.168 23.2995L66.3302 23.3881L66.504 23.4503L66.7158 23.4623L66.9159 23.4503L67.1276 23.412L67.365 23.3618L67.6281 23.2732V23.9218L67.4024 24.0103L67.1649 24.0606L66.9019 24.0989L66.6382 24.1108L66.2759 24.0845L65.9516 23.984L65.6763 23.8308L65.4505 23.6274L65.2767 23.3594L65.1402 23.0411L65.1029 22.864L65.0649 22.6725L65.0533 22.4571L65.0416 22.2418L65.0533 21.9737L65.0912 21.7057L65.1519 21.464L65.2394 21.2342L65.3519 21.0308L65.4884 20.8657L65.6506 20.7125L65.8244 20.5857L66.0245 20.4851L66.2363 20.4206L66.462 20.3703L66.7111 20.3583L66.9748 20.3703L67.2379 20.4206L67.5015 20.4971L67.7646 20.612L67.5155 21.2486L67.3154 21.1481L67.1154 21.0715L66.9159 21.0212L66.7158 21.014ZM70.5769 24.0654L70.3138 23.2014H69.0135L68.7499 24.0654H67.9384L69.2014 20.4014H70.1254L71.3883 24.0654H70.5769ZM70.1277 22.5529L70.0408 22.2729L69.9655 22.0311L69.9019 21.8158L69.8529 21.6387L69.8034 21.4855L69.766 21.3587L69.7398 21.2701L69.7281 21.2198L69.6908 21.0811L69.6645 20.9662L69.6412 21.0691L69.6033 21.184L69.5659 21.3491L69.5164 21.5262L69.4411 21.7416L69.3775 21.9833L69.2906 22.2513L69.2037 22.5577H70.1277V22.5529ZM74.7629 24.0654H74.001V22.5002H72.5876V24.0654H71.8374V20.4158H72.5876V21.854H74.001V20.4158H74.7629V24.0654ZM77.0367 24.0654H76.2865V21.0643H75.3129V20.4158H78.0126V21.0643H77.0367V24.0654ZM80.6108 24.0654H78.5627V20.4158H80.6108V21.0524H79.3129V21.8661H80.5239V22.4882H79.3129V23.4288H80.6108V24.0654ZM84.2484 24.0654H83.3857L82.5486 22.6917L81.7232 24.0654H80.9094L82.0971 22.1963L80.9847 20.4158H81.8218L82.5836 21.7392L83.3454 20.4158H84.1569L83.0328 22.2346L84.2484 24.0654ZM87.6207 24.0654H86.8589V22.5002H85.4478V24.0654H84.6976V20.4158H85.4478V21.854H86.8589V20.4158H87.6207V24.0654ZM88.5214 20.4158H89.1963V22.1843V22.6534L89.17 23.1871H89.1817L90.8325 20.4134H91.7332V24.063H91.0583V22.3207V22.1173L91.0699 21.8756L91.0822 21.5956L91.1079 21.2653H91.0822L89.4314 24.063H88.519V20.4158H88.5214ZM95.3802 24.0654H94.6184V22.6653L94.2684 22.7682L94.1179 22.8066L93.993 22.8305L93.7439 22.8687L93.5182 22.8808L93.2691 22.8687L93.0574 22.8185L92.8829 22.7419L92.7324 22.639L92.6082 22.5002L92.5213 22.3351L92.46 22.1461L92.4484 21.9282V20.4134H93.2102V21.7105L93.2219 21.8373L93.2335 21.9402L93.2714 22.0287L93.3204 22.1053L93.3957 22.1676L93.4949 22.2058L93.6074 22.2322L93.7323 22.2442L93.9318 22.2322L94.1319 22.1939L94.3436 22.1437L94.4824 22.1053L94.6184 22.0527V20.411H95.3802V24.0654ZM98.3295 24.0654H96.2669V20.4158H98.3295V21.0524H97.031V21.8661H98.242V22.4882H97.031V23.4288H98.3295V24.0654ZM100.591 21.014L100.392 21.0379L100.203 21.0906L100.053 21.1935L99.9284 21.3324L99.8293 21.5095L99.754 21.7248L99.7027 21.9785L99.691 22.2585L99.7027 22.5385L99.754 22.7922L99.8153 22.9956L99.9168 23.1727L100.041 23.2995L100.203 23.3881L100.378 23.4503L100.589 23.4623L100.789 23.4503L101.001 23.412L101.238 23.3618L101.499 23.2732V23.9218L101.273 24.0103L101.024 24.0606L100.775 24.0989L100.511 24.1108L100.15 24.0845L99.8246 23.984L99.5499 23.8308L99.3241 23.6274L99.1497 23.3594L99.0114 23.0411L98.9735 22.864L98.9362 22.6725L98.9239 22.4571L98.9123 22.2418L98.9239 21.9737L98.9619 21.7057L99.0231 21.464L99.11 21.2342L99.2226 21.0308L99.3614 20.8657L99.5119 20.7125L99.698 20.5857L99.8975 20.4851L100.109 20.4206L100.335 20.3703L100.584 20.3583L100.848 20.3703L101.109 20.4206L101.358 20.4971L101.621 20.612L101.384 21.2486L101.184 21.1481L100.984 21.0715L100.784 21.0212L100.591 21.014ZM105.165 24.0654H104.316L103.016 22.2202V24.0654H102.254V20.4158H103.016V22.1963L104.29 20.4158H105.101L103.801 22.17L105.165 24.0654ZM107.801 24.0654L107.537 23.2014H106.24L105.988 24.0654H105.165L106.428 20.4014H107.352L108.615 24.0654H107.801ZM107.364 22.5529L107.277 22.2729L107.201 22.0311L107.14 21.8158L107.091 21.6387L107.042 21.4855L107.004 21.3587L106.978 21.2701L106.966 21.2198L106.917 21.0811L106.891 20.9662L106.868 21.0691L106.844 21.184L106.795 21.3491L106.743 21.5262L106.682 21.7416L106.618 21.9833L106.531 22.2513L106.444 22.5577H107.364V22.5529ZM110.277 22.6677L109.44 24.0678H108.591L109.628 22.4643L109.478 22.4021L109.353 22.3135L109.24 22.2106L109.153 22.0838L109.078 21.945L109.028 21.7919L109.003 21.6387L108.991 21.4592L109.017 21.2295L109.078 21.026L109.191 20.8489L109.341 20.6958L109.541 20.5689L109.779 20.4803L110.042 20.4301L110.355 20.4182H111.505V24.0678H110.755V22.6677H110.277ZM110.752 21.0524H110.378L110.239 21.0643L110.115 21.0763L110.014 21.1145L109.927 21.1529L109.852 21.215L109.802 21.2916L109.779 21.3945L109.767 21.5095L109.779 21.6363L109.802 21.7368L109.852 21.8253L109.915 21.9019L110.002 21.9666L110.112 22.0048L110.251 22.0311L110.402 22.0431H110.752V21.0524ZM115.225 21.014L115.025 21.0379L114.837 21.0906L114.686 21.1935L114.561 21.3324L114.463 21.5095L114.388 21.7248L114.338 21.9785L114.326 22.2585L114.338 22.5385L114.388 22.7922L114.451 22.9956L114.55 23.1727L114.675 23.2995L114.837 23.3881L115.013 23.4503L115.225 23.4623L115.425 23.4503L115.639 23.412L115.876 23.3618L116.139 23.2732V23.9218L115.914 24.0103L115.664 24.0606L115.415 24.0989L115.152 24.1108L114.964 24.0989L114.789 24.0869L114.616 24.0486L114.465 23.984L114.19 23.8308L113.964 23.6274L113.79 23.3594L113.654 23.0411L113.616 22.864L113.578 22.6725L113.567 22.4571L113.553 22.2418L113.567 21.9737L113.605 21.7057L113.668 21.464L113.755 21.2342L113.868 21.0308L114.004 20.8657L114.155 20.7125L114.329 20.5857L114.529 20.4851L114.74 20.4206L114.978 20.3703L115.227 20.3583L115.476 20.3703L115.74 20.4206L116.003 20.4971L116.266 20.612L116.029 21.2486L115.829 21.1481L115.629 21.0715L115.429 21.0212L115.225 21.014ZM119.711 24.0654H118.961V21.0643H118.086L118.049 21.3945L118.011 21.7009L117.973 21.9929L117.936 22.2466L117.91 22.4882L117.872 22.6917L117.847 22.8831L117.809 23.0482L117.783 23.1895L117.708 23.4312L117.633 23.6346L117.532 23.7878L117.433 23.9146L117.32 24.0032L117.183 24.0678L117.021 24.1061L116.833 24.118L116.647 24.1061L116.471 24.0678V23.4312L116.609 23.4695L116.746 23.4814L116.859 23.4551L116.908 23.4168L116.946 23.3522L116.983 23.2756L117.021 23.1871L117.059 23.0603L117.097 22.9071L117.134 22.7156L117.172 22.4739L117.221 22.1819L117.27 21.8373L117.369 21.1002L117.456 20.4134H119.706V24.0654H119.711ZM123.434 20.4158L122.321 22.998L122.223 23.2277L122.124 23.4168L122.034 23.57L121.936 23.6968L121.747 23.8739L121.51 24.0127L121.223 24.0893L121.073 24.1013L120.899 24.1132L120.612 24.1013L120.337 24.0366V23.3761L120.45 23.4144L120.577 23.4408L120.875 23.4647L121.049 23.4408L121.2 23.3761L121.249 23.3258L121.313 23.2493L121.362 23.1488L121.4 23.0339L120.16 20.4158H120.972L121.847 22.4643H121.872L121.91 22.3375L122.646 20.4158H123.434ZM124.696 22.1724L123.497 20.4182H124.285L125.435 22.1987V20.4182H126.148V22.1987L127.297 20.4182H128.071L126.871 22.1724L128.146 24.0678H127.332L126.145 22.2226V24.0678H125.432V22.2226L124.245 24.0678H123.432L124.696 22.1724ZM129.345 21.8277H129.644L129.982 21.8397L130.269 21.9043L130.521 21.9929L130.733 22.1197L130.895 22.2729L131.02 22.4643L131.081 22.6797L131.106 22.9334L131.081 23.2014L131.02 23.4312L130.895 23.6226L130.744 23.7878L130.533 23.9026L130.283 23.9912L129.985 24.0558L129.635 24.0678H128.598V20.4158H130.848V21.0524H129.348V21.8277H129.345ZM129.345 23.4312H129.608L129.785 23.4192L129.936 23.4072L130.072 23.369L130.173 23.3067L130.248 23.2421L130.298 23.1536L130.335 23.0506L130.347 22.9358L130.335 22.8209L130.298 22.7204L130.248 22.6319L130.173 22.5672L130.06 22.517L129.922 22.4906L129.747 22.4643H129.548H129.348V23.4312H129.345ZM133.919 24.0654L133.656 23.2014H132.358L132.108 24.0654H131.283L132.546 20.4014H133.47L134.732 24.0654H133.919ZM133.482 22.5529L133.395 22.2729L133.32 22.0311L133.258 21.8158L133.209 21.6387L133.159 21.4855L133.122 21.3587L133.094 21.2677L133.082 21.2174L133.044 21.0787L133.006 20.9638L132.981 21.0667L132.955 21.1816L132.905 21.3467L132.854 21.5238L132.793 21.7392L132.729 21.9809L132.64 22.249L132.553 22.5553H133.482V22.5529Z" fill="white"/>
</g>
</g>
</g>
<defs>
<clipPath id="clip0_3163_842">
<rect width="140" height="28" fill="white"/>
</clipPath>
<clipPath id="clip1_3163_842">
<rect width="140" height="28" fill="white"/>
</clipPath>
</defs>
</svg>
