<svg width="75" height="28" viewBox="0 0 75 28" fill="none" xmlns="http://www.w3.org/2000/svg">
<g clip-path="url(#clip0_3163_899)">
<g clip-path="url(#clip1_3163_899)">
<mask id="mask0_3163_899" style="mask-type:luminance" maskUnits="userSpaceOnUse" x="0" y="0" width="76" height="28">
<path d="M75.4194 0H0V27.8871H75.4194V0Z" fill="white"/>
</mask>
<g mask="url(#mask0_3163_899)">
<path d="M4.18474 20.7029L4.79748 15.5654L5.2416 11.781H8.20045V27.6166H6.0445V18.6947H5.98112L5.4924 22.2462L4.96106 25.3121H3.26094L2.6658 22.2462L2.17709 18.8003H2.1137V27.6166H0V11.781H2.68418L3.29693 15.4809L4.0791 20.7029H4.18474Z" fill="white"/>
<path d="M12.1105 15.3752L11.8359 19.9843L11.688 22.3945H12.512L12.4064 19.836L12.2166 15.3752H12.1105ZM12.681 24.424H11.4978L11.265 27.6166H9.0249L10.6311 11.781H13.7805L15.1754 27.6166H12.9138L12.681 24.424Z" fill="white"/>
<path d="M18.3033 21.4008V27.6166H16.084V11.8021H18.3033V17.4895H18.4301L19.825 11.8021H22.0866L20.1631 19.1385L22.0021 27.6166H19.656L18.409 21.4008H18.3033Z" fill="white"/>
<path d="M25.3837 15.3752L25.1092 19.9843L24.9613 22.3945H25.7852L25.6795 19.836L25.4899 15.3752H25.3837ZM25.9541 24.424H24.7709L24.5381 27.6166H22.2981L23.9043 11.781H27.0538L28.4486 27.6166H26.1869L25.9541 24.424Z" fill="white"/>
<mask id="mask1_3163_899" style="mask-type:luminance" maskUnits="userSpaceOnUse" x="0" y="-1" width="76" height="29">
<path d="M0.140869 -0.293457H75.5602V27.5936H0.140869V-0.293457Z" fill="white"/>
</mask>
<g mask="url(#mask1_3163_899)">
<path d="M32.422 14.3603C32.422 14.0785 32.3728 13.8848 32.2741 13.7791C32.1755 13.6734 32.0271 13.6202 31.83 13.6202H31.5764V18.3772H31.83C32.0271 18.3772 32.1755 18.3244 32.2741 18.2187C32.3728 18.113 32.422 17.9264 32.422 17.6586V14.3603ZM31.5764 20.2591V27.6166H29.3572V11.781H31.7878C32.7601 11.781 33.4788 12.0029 33.9438 12.4468C34.4089 12.891 34.6413 13.5642 34.6413 14.466V17.5318C34.6413 18.4618 34.4089 19.1491 33.9438 19.5929C33.4788 20.0368 32.7601 20.2591 31.7878 20.2591H31.5764Z" fill="white"/>
<path d="M38.5302 14.0855C38.5302 13.8319 38.4952 13.6593 38.4243 13.5677C38.3539 13.4761 38.2412 13.4303 38.0863 13.4303C37.9314 13.4303 37.8221 13.4761 37.7586 13.5677C37.6954 13.6593 37.6636 13.8319 37.6636 14.0855V25.1852C37.6636 25.4528 37.6954 25.6325 37.7586 25.7242C37.8221 25.8161 37.9314 25.8615 38.0863 25.8615C38.2412 25.8615 38.3539 25.8123 38.4243 25.7136C38.4952 25.6154 38.5302 25.4388 38.5302 25.1852V14.0855ZM38.0863 27.8278C37.2266 27.8278 36.5716 27.5812 36.1209 27.0878C35.6697 26.5947 35.4443 25.9037 35.4443 25.0161V14.3603C35.4443 13.4726 35.6697 12.7782 36.1209 12.2777C36.5716 11.7778 37.2266 11.5273 38.0863 11.5273C38.9459 11.5273 39.6008 11.7778 40.0519 12.2777C40.5029 12.7782 40.7284 13.4726 40.7284 14.3603V25.0161C40.7284 25.9037 40.5029 26.5947 40.0519 27.0878C39.6008 27.5812 38.9459 27.8278 38.0863 27.8278Z" fill="white"/>
<path d="M45.3151 19.4769H44.2793V27.6165H42.0811V11.7812H44.2793V17.5951H45.3151V11.7812H47.5128V27.6165H45.3151V19.4769Z" fill="white"/>
<path d="M52.015 19.4769H50.9792V27.6165H48.781V11.7812H50.9792V17.5951H52.015V11.7812H54.2128V27.6165H52.015V19.4769Z" fill="white"/>
<path d="M59.1587 19.3287L57.6157 25.8831V27.6166H55.481V11.781H57.5943V20.3859H57.6374L59.2221 13.4511V11.781H61.4203V27.6166H59.2221V19.3287H59.1587Z" fill="white"/>
<path d="M65.0134 21.4008V27.6166H62.7942V11.8021H65.0134V17.4895H65.1403L66.5351 11.8021H68.7968L66.8732 19.1385L68.7124 27.6166H66.3662L65.1191 21.4008H65.0134Z" fill="white"/>
<path d="M73.1506 19.3287L71.6077 25.8831V27.6166H69.4729V11.781H71.5867V20.3859H71.6294L73.2138 13.4511V11.781H75.4118V27.6166H73.2138V19.3287H73.1506Z" fill="white"/>
<path d="M18.6437 5.38933V5.48015C18.6637 5.53064 18.659 5.58113 18.6285 5.63121C18.5983 5.69189 18.5627 5.72711 18.5228 5.7373C18.5025 5.74746 18.4747 5.75764 18.4399 5.76742C18.4043 5.7776 18.351 5.7956 18.2806 5.82067C18.2102 5.84571 18.1495 5.8684 18.0991 5.88836C17.8874 5.96938 17.6303 6.0602 17.3279 6.16078C17.0254 6.26176 16.6928 6.36784 16.3297 6.4786L15.2408 6.79642C14.8776 6.8974 14.5298 6.98781 14.1972 7.06883C13.9049 7.13928 13.6126 7.18978 13.3204 7.2199C13.199 7.24027 12.9119 7.27549 12.458 7.32558C12.2968 7.34633 12.0546 7.36629 11.7321 7.38625C11.47 7.39643 11.2278 7.38117 11.0059 7.34084C10.7845 7.30053 10.588 7.20974 10.4163 7.06883C10.3055 6.96785 10.2449 6.83165 10.2347 6.66021C10.2249 6.48878 10.2551 6.33731 10.3255 6.20619C10.4973 5.82301 10.734 5.49541 11.0365 5.223C11.3487 4.94079 11.6613 4.67307 11.974 4.42103C12.2463 4.21945 12.5585 4.02257 12.9119 3.83118C13.2343 3.64958 13.5923 3.56895 13.9855 3.58891C14.1166 3.59909 14.2273 3.64448 14.3181 3.72511C14.3987 3.79595 14.4645 3.88677 14.5149 3.99753C14.5654 4.10869 14.5803 4.22415 14.5603 4.34547C14.5502 4.46641 14.5048 4.5725 14.4242 4.66329C14.313 4.69344 14.2375 4.68834 14.1972 4.64803C14.1467 4.60772 14.1166 4.54743 14.1064 4.46641C14.0963 4.39596 14.0963 4.31494 14.1064 4.22415C14.1268 4.1032 14.1366 4.02767 14.1366 3.99753C14.0055 3.94704 13.8693 3.93177 13.7285 3.95212C13.5974 3.9623 13.4714 3.99245 13.3505 4.04294C13.2695 4.07306 13.1486 4.12865 12.9874 4.20927C12.8563 4.26994 12.7452 4.33569 12.6548 4.40576C12.3116 4.62807 12.0092 4.85977 11.7474 5.10206C11.4547 5.36429 11.1977 5.65158 10.9758 5.9643C10.8345 6.15569 10.7641 6.30247 10.7641 6.40307C10.7641 6.51421 10.7943 6.59954 10.8549 6.66021C10.9155 6.72048 10.9813 6.76589 11.0513 6.79642L11.1574 6.82654C11.4195 6.88722 11.7474 6.9021 12.1402 6.87195C12.5335 6.84142 12.942 6.79642 13.3654 6.73575C13.7989 6.67507 14.2023 6.59954 14.5756 6.50874C15.0087 6.40815 15.3112 6.32713 15.483 6.26686C15.6136 6.22653 15.7576 6.17879 15.9138 6.1232C16.0699 6.06763 16.244 6.00736 16.4357 5.94161C16.6271 5.87624 16.7781 5.82301 16.8896 5.78269C17.3732 5.61125 17.8725 5.42966 18.3867 5.23786C18.4571 5.2179 18.5127 5.223 18.5529 5.25312C18.6034 5.28327 18.6336 5.32868 18.6437 5.38933Z" fill="white"/>
<path d="M19.7628 8.00647L19.7323 8.03662C19.7527 8.08749 19.7828 8.11256 19.8231 8.11256C19.8634 8.11256 19.9139 8.09729 19.9745 8.06676C20.0246 8.0468 20.0903 8.00139 20.1709 7.93094C20.2719 7.85031 20.3474 7.78455 20.3983 7.73406C20.5591 7.57281 20.7406 7.37634 20.9426 7.14385C20.7003 7.19472 20.4887 7.2554 20.3075 7.32544C20.1561 7.3963 20.0148 7.4871 19.8838 7.59786C19.7628 7.70902 19.7221 7.84523 19.7628 8.00647ZM21.4262 2.43886L21.3812 2.40871C20.9472 2.80206 20.5039 3.24083 20.05 3.72498C19.6466 4.14886 19.2487 4.63263 18.8555 5.17746C19.1677 5.01621 19.6466 4.77392 20.2922 4.45142C20.9371 4.12852 21.4164 3.88153 21.729 3.70972C22.3539 3.36685 22.8181 3.10462 23.1204 2.92339C23.6443 2.61067 24.0932 2.31791 24.4664 2.04588C24.5369 1.99539 24.6428 1.90968 24.7842 1.78834C24.8948 1.69793 24.9957 1.59734 25.0863 1.48579C25.1671 1.3852 25.2428 1.26935 25.3134 1.13823C25.3737 1.0169 25.404 0.886172 25.404 0.744485C25.3534 0.664249 25.2929 0.608672 25.2227 0.578143C25.152 0.548004 25.0764 0.53274 24.9957 0.53274C24.8948 0.53274 24.8189 0.537827 24.7688 0.548004L24.5419 0.593407C23.9268 0.734701 23.3724 0.976975 22.8781 1.31984C22.4145 1.64235 21.9305 2.01536 21.4262 2.43886ZM27.4911 5.3892L27.4457 5.43461C27.4661 5.4851 27.4609 5.53559 27.4308 5.58569C27.4006 5.64635 27.3651 5.68198 27.3247 5.69176C27.3145 5.69176 27.2339 5.7219 27.0829 5.78255C27.0325 5.80292 26.9365 5.84049 26.7956 5.89607C26.6541 5.95164 26.5382 5.99431 26.4474 6.02484C26.2664 6.09529 25.9486 6.20605 25.4948 6.35752C25.3737 6.39783 25.1872 6.45812 24.9352 6.53873C24.6832 6.61975 24.4863 6.68551 24.3454 6.73561L23.7554 6.91723C23.2918 7.02799 22.9088 7.10393 22.6063 7.14385C22.3238 7.18454 22.0366 7.2045 21.7439 7.2045H21.6077C21.5475 7.2045 21.5021 7.19942 21.472 7.18964C21.4011 7.33093 21.2955 7.48202 21.1542 7.64327C21.013 7.81508 20.8565 7.96617 20.6855 8.09729C20.4937 8.23858 20.3122 8.33918 20.1408 8.39983C19.9694 8.46012 19.7981 8.45032 19.6267 8.3693C19.5257 8.28907 19.4702 8.20844 19.4604 8.12742C19.44 8.02684 19.4451 7.93094 19.4756 7.84015C19.5058 7.73917 19.5512 7.64327 19.6114 7.55247C19.692 7.43153 19.7527 7.34619 19.793 7.29532C19.8935 7.18454 20.0148 7.08866 20.1561 7.00803C20.2969 6.92739 20.4331 6.86674 20.5642 6.82641C20.6855 6.79629 20.8416 6.76065 21.0333 6.72035C21.2348 6.66986 21.3812 6.554 21.472 6.3724C21.5021 6.31211 21.5475 6.2264 21.6077 6.11526C21.6684 6.00447 21.7087 5.92386 21.729 5.87337C21.0736 5.95398 20.4937 6.18609 19.9898 6.56926C19.4956 6.94227 19.0519 7.3912 18.6586 7.91568C18.4266 8.19828 18.2149 8.50081 18.0236 8.82333C17.8925 9.03507 17.7059 9.35289 17.4641 9.77639C17.4034 9.857 17.358 9.9126 17.3279 9.94272C17.2672 10.0034 17.2219 10.0437 17.1917 10.0637C17.1616 10.084 17.106 10.104 17.0254 10.1243C16.9147 10.1443 16.8541 10.0993 16.8439 9.98813C16.8341 9.91768 16.8286 9.84174 16.8286 9.76113C16.9699 8.6922 17.2422 7.64835 17.6452 6.62955C18.049 5.6213 18.6183 4.71365 19.3543 3.9066C19.8282 3.36177 20.3525 2.81733 20.9273 2.27289C21.472 1.75821 22.0616 1.28931 22.697 0.86582C23.1103 0.623543 23.5034 0.416885 23.8769 0.245453C24.3 0.0638449 24.7334 -0.00660684 25.1771 0.0337072C25.3688 0.0438836 25.5402 0.119423 25.6914 0.260327C25.8425 0.391836 25.9082 0.558181 25.8879 0.75975C25.8777 0.991849 25.8023 1.20868 25.661 1.41025C25.5198 1.61221 25.3688 1.79382 25.2075 1.95508C24.9352 2.21732 24.6225 2.45958 24.27 2.68112C23.8258 2.96372 23.4932 3.17038 23.2715 3.30148C22.5757 3.70502 21.7893 4.13322 20.9124 4.58722C20.126 4.99076 19.3242 5.38412 18.5076 5.76729C18.2556 6.28158 18.0287 6.81115 17.8268 7.35597C17.6253 7.90041 17.4742 8.46012 17.3733 9.03507C17.585 8.6922 17.8119 8.34426 18.0537 7.99121C18.326 7.60804 18.5882 7.28044 18.8402 7.00803C19.1125 6.71565 19.4248 6.44324 19.7781 6.19079C20.1205 5.93913 20.4937 5.74733 20.8971 5.61622C21.0787 5.55555 21.2802 5.51014 21.5021 5.48002C21.7236 5.44949 21.9106 5.51524 22.0616 5.67649C22.1422 5.87845 22.1371 6.06515 22.0463 6.23658C21.9861 6.35752 21.8953 6.52895 21.7744 6.75088C22.0667 6.75088 22.3993 6.72035 22.7727 6.66008C23.1455 6.59941 23.6443 6.47846 24.27 6.29685C24.7234 6.12542 25.1922 5.95909 25.6763 5.79743C26.1602 5.63657 26.6744 5.45495 27.219 5.25299C27.3498 5.21268 27.4405 5.25848 27.4911 5.3892Z" fill="white"/>
<path d="M29.7296 4.76877H29.745C29.745 4.80946 29.7648 4.8443 29.8053 4.87483C29.8357 4.89517 29.8807 4.93509 29.9414 4.99577C29.9715 4.97542 30.022 4.9304 30.0927 4.85956C30.2137 4.73862 30.3045 4.63256 30.365 4.54174C30.3851 4.51162 30.4102 4.47129 30.4402 4.4208C30.4707 4.37031 30.4908 4.34018 30.501 4.33C30.4605 4.34018 30.4102 4.35545 30.3495 4.37541C30.1178 4.46621 29.9613 4.54723 29.8807 4.61768C29.7899 4.68813 29.7395 4.73862 29.7296 4.76877ZM36.8075 5.38912L36.6867 5.4948C36.7371 5.63649 36.6917 5.72691 36.5506 5.76721C36.5404 5.76721 36.5255 5.77229 36.5052 5.78248C36.4851 5.79266 36.4625 5.80009 36.4374 5.80517C36.4119 5.81028 36.3893 5.8177 36.369 5.82789C36.248 5.86819 36.0818 5.92887 35.87 6.0091L35.4161 6.19071C35.3456 6.22124 35.0887 6.31712 34.645 6.47839C34.2618 6.61968 33.9691 6.73044 33.7677 6.81107C33.4651 6.93201 33.2082 7.03808 32.9966 7.12889C32.694 7.24984 32.3463 7.40131 31.9529 7.58252C31.5695 7.75433 31.1813 7.9058 30.7884 8.03655C30.4152 8.15749 30.0674 8.21814 29.745 8.21814C29.4218 8.21814 29.185 8.1023 29.0339 7.87019C28.9531 7.75944 28.928 7.62831 28.9585 7.47684C28.9885 7.30541 29.0386 7.15432 29.1095 7.02281C29.1902 6.86195 29.2809 6.71558 29.3819 6.58407C29.5431 6.37231 29.6339 6.25647 29.6542 6.23651C29.8757 5.96409 29.9816 5.76252 29.9715 5.63101C29.9715 5.5809 29.9565 5.54021 29.9261 5.51007C29.7648 5.60086 29.5079 5.74217 29.1549 5.93395C28.9228 6.05489 28.6408 6.18091 28.3082 6.31204C28.0358 6.41302 27.7935 6.48855 27.582 6.53866C27.3803 6.57897 27.229 6.56919 27.1285 6.50851C27.0274 6.44825 26.9673 6.36253 26.947 6.25137C26.9366 6.15079 26.9366 6.04471 26.947 5.93395C26.9673 5.82278 26.9974 5.7218 27.0378 5.63101C27.0479 5.61105 27.0631 5.5809 27.0832 5.54021C27.0933 5.52025 27.1008 5.50498 27.1053 5.4948C27.1109 5.48502 27.1159 5.47211 27.1211 5.45723C27.1261 5.44196 27.1335 5.42943 27.1432 5.41927C27.2137 5.28853 27.3096 5.258 27.4309 5.32845C27.5616 5.39931 27.5921 5.4948 27.5212 5.61613C27.4609 5.75744 27.4207 5.86311 27.4004 5.93395C27.3702 6.04471 27.36 6.12065 27.3702 6.16057C27.4406 6.16057 27.5671 6.13042 27.7486 6.06977C27.9297 6.0091 28.1266 5.93395 28.3382 5.84315C28.4791 5.78248 28.7013 5.68188 29.0039 5.54021C29.1951 5.44939 29.4069 5.33355 29.6388 5.19265V5.17738C29.5079 5.07679 29.4273 4.9805 29.3968 4.88971C29.3665 4.80946 29.3615 4.72844 29.3819 4.64782C29.4218 4.35545 29.7246 4.10846 30.2892 3.9065C30.6218 3.7754 30.8487 3.80044 30.9697 3.98206C31.0201 4.06308 31.0355 4.14879 31.0154 4.2392C30.9946 4.34018 30.9598 4.43606 30.9095 4.52688C30.8487 4.63802 30.783 4.73354 30.7125 4.81415C30.6622 4.87483 30.5768 4.96524 30.4556 5.08657C30.3851 5.15702 30.3345 5.20243 30.3045 5.22277C30.3851 5.33355 30.4253 5.43961 30.4253 5.54021C30.4556 5.78248 30.3194 6.09012 30.0168 6.46313C29.8053 6.71558 29.6488 6.95277 29.5481 7.17428C29.4573 7.36608 29.437 7.50188 29.4875 7.58252C29.5379 7.67331 29.7045 7.70384 29.9868 7.67331C30.2892 7.64319 30.7076 7.52733 31.2421 7.32537C31.8167 7.10383 32.3865 6.87683 32.9512 6.64472C33.7677 6.31204 34.2013 6.13553 34.2516 6.11516C34.6348 5.96409 35.0934 5.79266 35.6281 5.60086C35.7189 5.57074 35.865 5.51515 36.0664 5.43453C36.2681 5.3539 36.4245 5.29322 36.5356 5.25292C36.6664 5.21261 36.7572 5.258 36.8075 5.38912Z" fill="white"/>
<path d="M48.4986 5.37391L48.4686 5.40406C48.5185 5.54534 48.4736 5.63616 48.332 5.67647L47.954 5.81268C47.702 5.90347 47.3689 6.02442 46.9561 6.1755C46.4418 6.36728 45.9827 6.53363 45.5796 6.67492C45.1562 6.82601 44.6367 6.99782 44.022 7.18921C43.8197 7.24989 43.6738 7.2953 43.583 7.32542L43.1748 7.46163C42.7006 7.62328 42.3278 7.73914 42.0559 7.8096C41.7228 7.90039 41.4356 7.9458 41.1938 7.9458C40.891 7.9458 40.6792 7.85498 40.5584 7.67339C40.4172 7.50196 40.4068 7.2953 40.5279 7.05301C40.6491 6.81112 40.8156 6.56886 41.0271 6.32697C41.2188 6.11523 41.4404 5.88821 41.6926 5.64594C41.9243 5.4342 42.0859 5.27334 42.1767 5.16179C42.1259 5.16179 41.9798 5.20248 41.738 5.28312C41.4756 5.37391 41.224 5.46473 40.9817 5.55553C40.7094 5.65651 40.4527 5.76219 40.2106 5.87294C39.9683 5.98411 39.8021 6.05964 39.7114 6.09997C39.5802 6.17081 39.3934 6.27648 39.1518 6.41777C38.9703 6.52893 38.7738 6.61973 38.562 6.69018C38.4611 6.73051 38.3653 6.71525 38.2746 6.6448C38.184 6.57434 38.1632 6.48353 38.2143 6.37238C38.2542 6.20095 38.3249 6.02442 38.4258 5.84282L38.6982 5.32852C38.4764 5.38918 38.2694 5.46473 38.0781 5.55553C37.9469 5.6158 37.7502 5.71678 37.4881 5.85809C37.2259 5.99937 37.0295 6.09997 36.8983 6.16062C36.7368 6.24126 36.5352 6.32189 36.2933 6.40251C36.2127 6.40251 36.1522 6.38724 36.1118 6.35712C36.0716 6.32697 36.0413 6.28156 36.021 6.2213C36.0011 6.16062 36.0011 6.09997 36.021 6.03968C36.0413 5.96923 36.0716 5.91327 36.1118 5.87294C36.2832 5.60094 36.4749 5.31834 36.6867 5.02597C36.8881 4.74378 37.115 4.49133 37.367 4.2694C37.3973 4.21891 37.4375 4.19385 37.4881 4.19385C37.5384 4.19385 37.5838 4.20873 37.6242 4.23926C37.6644 4.2694 37.6997 4.30501 37.7301 4.34532C37.7604 4.39542 37.7552 4.44592 37.715 4.49641L37.1706 5.13164C37.0193 5.31326 36.8479 5.54026 36.6562 5.81268C37.0798 5.59075 37.3921 5.4244 37.594 5.31326C37.8966 5.15199 38.224 5.03105 38.5774 4.95003C38.6982 4.91011 38.8192 4.91011 38.94 4.95003C39.0509 4.99074 39.1313 5.08154 39.1818 5.22244C39.1518 5.39428 39.0915 5.55553 39.0007 5.70662C38.8797 5.90858 38.7937 6.06474 38.7433 6.1755C39.4092 5.79233 40.0693 5.46473 40.7246 5.19232C40.7451 5.18252 40.7751 5.1696 40.8156 5.15434C40.8557 5.13948 40.9034 5.11911 40.9589 5.09407C41.0147 5.06903 41.0725 5.04631 41.1333 5.02597C41.3245 4.95552 41.5311 4.89484 41.7529 4.84435C41.9651 4.79427 42.1614 4.7786 42.3429 4.79896C42.5344 4.81931 42.6353 4.91011 42.6455 5.07138C42.6552 5.14183 42.6252 5.23771 42.5547 5.35865C42.4838 5.48 42.3833 5.61072 42.2521 5.752C42.1715 5.84282 42.0252 5.99389 41.8136 6.20565L41.3148 6.70506C41.173 6.86672 41.0673 7.01778 40.9971 7.15909C40.9262 7.30038 40.9108 7.39118 40.9517 7.4311C41.0122 7.51212 41.143 7.54265 41.3448 7.52192C41.5463 7.50196 41.7732 7.45655 42.0252 7.3861C42.1966 7.33561 42.4639 7.24989 42.827 7.12856C42.8876 7.1086 43.1294 7.02289 43.5528 6.8718C44.2686 6.63969 44.9896 6.39781 45.7158 6.14536C45.9976 6.04478 46.4241 5.89331 46.9938 5.69173C47.5631 5.48977 47.9693 5.34338 48.2114 5.25259C48.262 5.23262 48.3171 5.23771 48.3774 5.26785C48.4478 5.29838 48.4885 5.33361 48.4986 5.37391Z" fill="white"/>
<path d="M47.3949 7.23446H47.3795C47.5209 7.12371 47.627 6.96754 47.697 6.76558C47.788 6.52369 47.8433 6.34718 47.8637 6.23602C47.6422 6.48847 47.4606 6.71509 47.3195 6.91666C47.1781 7.11863 47.1027 7.25483 47.0925 7.32528C47.2133 7.34563 47.3143 7.31548 47.3949 7.23446ZM59.721 5.37377L59.6146 5.47984C59.6354 5.53033 59.6302 5.58043 59.5993 5.63092C59.5697 5.69157 59.5345 5.7268 59.4941 5.7366C59.4839 5.7366 59.3482 5.78239 59.086 5.87281C58.823 5.9636 58.4903 6.08455 58.0871 6.23602C57.6844 6.3871 57.2152 6.55384 56.6807 6.73543C56.1467 6.91667 55.6021 7.09826 55.0479 7.27987C54.483 7.46149 53.8726 7.64819 53.2175 7.83958C52.7641 7.97068 52.3254 8.08185 51.902 8.17226C51.4786 8.26306 51.181 8.31904 51.0096 8.339C50.7876 8.36914 50.6061 8.38441 50.4652 8.38441C50.2836 8.38441 50.1624 8.36914 50.1021 8.339C50.0416 8.30885 49.9962 8.26855 49.9657 8.21806C49.8548 8.09711 49.8094 7.96052 49.8298 7.80944C49.8499 7.64819 49.9104 7.48692 50.0113 7.32528C50.1323 7.14367 50.2685 6.96754 50.4196 6.79572C50.5307 6.67478 50.707 6.49317 50.9489 6.25128V6.23602L51.7961 5.38904L48.3324 6.28143C48.3022 6.41253 48.2819 6.50335 48.2717 6.55384C48.2417 6.67478 48.1967 6.79103 48.136 6.90178C48.0549 7.06344 47.9901 7.18438 47.9395 7.26499C47.8686 7.37577 47.7779 7.47165 47.6668 7.55229C47.5663 7.61256 47.4852 7.65327 47.4249 7.67323C47.3346 7.70337 47.2434 7.71864 47.1531 7.71864C47.0618 7.71864 46.9767 7.69357 46.8961 7.64308C46.8155 7.60278 46.7543 7.52725 46.7145 7.41608C46.6741 7.28496 46.7191 7.10375 46.8502 6.87164C46.9715 6.66968 47.1481 6.42779 47.3795 6.14522C47.5713 5.9135 47.8086 5.65635 48.0906 5.37377C48.2819 5.18238 48.519 4.95536 48.8014 4.69274C48.852 4.64264 48.9071 4.61719 48.9679 4.61719C49.018 4.61719 49.0683 4.64264 49.1189 4.69274C49.1591 4.73343 49.1794 4.78354 49.1794 4.84421C49.1794 4.8947 49.1542 4.94519 49.1036 4.99568C49.0026 5.08648 48.8617 5.2223 48.6802 5.4039L48.2871 5.79725L52.4913 4.70801C52.6126 4.69821 52.6932 4.73343 52.7339 4.81407C52.7835 4.8947 52.7686 4.98042 52.6882 5.07122C52.3857 5.39412 52.0833 5.69668 51.7807 5.97887C51.3876 6.35226 51.1202 6.61449 50.9791 6.76558C50.7373 7.02781 50.5607 7.23995 50.4501 7.40082C50.3288 7.58243 50.2936 7.7288 50.3439 7.83958C50.4347 7.90023 50.717 7.88497 51.1912 7.79417C51.6748 7.70337 52.3051 7.55229 53.0814 7.34055C53.8076 7.14915 54.7397 6.86656 55.8793 6.49316C56.8873 6.17065 58.0773 5.75187 59.4491 5.23757C59.5896 5.18746 59.6803 5.23246 59.721 5.37377Z" fill="white"/>
<path d="M61.7471 3.96703C61.3641 3.98737 61.0162 4.10831 60.7037 4.32985C60.3909 4.55216 60.119 4.80931 59.8869 5.10168C60.22 4.99092 60.5623 4.84453 60.9152 4.66294C61.2483 4.50167 61.5256 4.26958 61.7471 3.96703ZM67.3279 5.38898L67.2071 5.40424C67.227 5.45473 67.222 5.50522 67.1918 5.55571C67.1617 5.61598 67.126 5.65161 67.0861 5.66139C67.0658 5.68173 66.9296 5.73692 66.6776 5.82774C66.4154 5.91854 66.1126 6.0246 65.7703 6.14554C65.538 6.22618 65.2006 6.3475 64.7569 6.50877C64.4243 6.62971 64.1824 6.72051 64.0311 6.78078C63.5369 6.92209 63.2293 7.0078 63.1085 7.03793C62.7352 7.12875 62.4229 7.19958 62.1705 7.25007C62.0194 7.28022 61.7823 7.3256 61.4599 7.38589C61.2483 7.4262 61.006 7.44655 60.7337 7.44655C60.4919 7.44655 60.25 7.41642 60.008 7.35575C59.7559 7.29508 59.529 7.18432 59.3271 7.02307C59.1765 6.90213 59.0853 6.75574 59.055 6.5843C59.025 6.43283 59.0347 6.25122 59.0853 6.03948C59.126 5.86805 59.1964 5.68173 59.2969 5.47977C59.3678 5.33849 59.4534 5.1874 59.5545 5.02615C59.756 4.70325 60.0079 4.42065 60.3103 4.17877C60.6133 3.9365 60.9403 3.75488 61.2937 3.63394C61.445 3.58386 61.611 3.56859 61.7925 3.58894C61.984 3.6089 62.1149 3.69969 62.1859 3.86097C62.226 4.01244 62.2111 4.15372 62.1405 4.28485C62.0696 4.41557 61.9792 4.52673 61.8684 4.61753C61.5656 4.87976 61.2178 5.0966 60.8249 5.26803C60.4919 5.41912 60.1139 5.56079 59.6902 5.69153C59.6699 5.74241 59.6397 5.82264 59.5999 5.9338C59.559 6.04497 59.534 6.11501 59.5238 6.14554C59.4635 6.30719 59.4886 6.45828 59.5999 6.59957C59.7912 6.78078 60.0278 6.88686 60.3103 6.91699C60.6133 6.94713 60.875 6.95731 61.0968 6.94713C61.7925 6.88686 62.5036 6.75574 63.2293 6.55378C63.9449 6.3522 64.6361 6.12558 65.3015 5.87313C65.5434 5.78233 65.6949 5.72714 65.7549 5.7068L66.2996 5.52518C66.3599 5.50522 66.4457 5.47508 66.5568 5.43439C66.6674 5.39406 66.7435 5.36901 66.7833 5.35883C66.9348 5.30834 67.0204 5.27822 67.0405 5.26803C67.0908 5.24769 67.1464 5.25277 67.2071 5.2833C67.2776 5.31344 67.3178 5.34867 67.3279 5.38898Z" fill="white"/>
</g>
</g>
</g>
</g>
<defs>
<clipPath id="clip0_3163_899">
<rect width="75" height="28" fill="white"/>
</clipPath>
<clipPath id="clip1_3163_899">
<rect width="75.4194" height="28" fill="white"/>
</clipPath>
</defs>
</svg>
