<svg width="75" height="28" viewBox="0 0 75 28" fill="none" xmlns="http://www.w3.org/2000/svg">
<g clip-path="url(#clip0_3163_1212)">
<mask id="mask0_3163_1212" style="mask-type:luminance" maskUnits="userSpaceOnUse" x="1" y="0" width="74" height="28">
<path d="M74.2308 0H1V28H74.2308V0Z" fill="white"/>
</mask>
<g mask="url(#mask0_3163_1212)">
<path d="M28.5984 12.8481H30.3841L28.8978 17.0142C28.646 17.7154 28.3455 18.2224 27.9962 18.5351C27.6079 18.8587 27.1106 19.0249 26.6039 19.0007C26.2332 19.0002 25.8629 18.9771 25.4952 18.9317V17.6677C25.7893 17.697 26.0399 17.7108 26.2522 17.7108C26.75 17.7108 27.0529 17.5384 27.1573 17.1935L27.166 17.1591H26.4019L24.343 12.8481H26.1809L27.5976 16.2382L28.5984 12.8481Z" fill="white"/>
<path d="M30.5874 18.9489V14.3811H32.1712V15.9761H33.6663V14.3811H35.25V18.9489H33.6663V17.2659H32.1712V18.9489H30.5874Z" fill="white"/>
<path d="M38.8376 14.3811H41.168V18.9489H39.6556V15.7071L38.5382 18.9489H36.2078V14.3811H37.7237V17.6229L38.8376 14.3811Z" fill="white"/>
<path d="M45.2492 16.5693C46.2111 16.667 46.692 17.0303 46.692 17.6591C46.6902 17.8345 46.6481 18.0073 46.5688 18.1641C46.4895 18.321 46.3751 18.4579 46.2343 18.5644C45.9303 18.8218 45.4175 18.9501 44.6958 18.9489H42.1182V14.3811H44.5548C45.2185 14.3811 45.711 14.4874 46.0324 14.7001C46.1805 14.786 46.3031 14.909 46.3881 15.0567C46.473 15.2044 46.5172 15.3716 46.5163 15.5416C46.5163 16.0934 46.0939 16.4359 45.2492 16.5693ZM43.702 15.5346V16.1348H44.4486C44.7706 16.1348 44.9324 16.033 44.9324 15.8296C44.9324 15.6261 44.7584 15.5346 44.3964 15.5346H43.702ZM44.5809 17.8005C44.929 17.8005 45.103 17.6832 45.103 17.4556C45.103 17.228 44.915 17.1107 44.5409 17.1107H43.6968V17.8005H44.5809Z" fill="white"/>
<path d="M47.2192 16.6658C47.2192 15.8692 47.4513 15.272 47.9154 14.8742C48.3796 14.4765 49.0055 14.2776 49.7934 14.2776C50.6056 14.2776 51.2135 14.4926 51.6173 14.9225C52.0211 15.3525 52.2225 16.0347 52.2213 16.9693V17.1262H48.8117C48.9104 17.6803 49.2585 17.9568 49.856 17.9557C50.0115 17.9664 50.1669 17.9355 50.3062 17.8664C50.4455 17.7972 50.5636 17.6922 50.6479 17.5625L52.169 17.6504C52.0505 18.0825 51.7689 18.4529 51.3824 18.6851C50.9184 18.9466 50.3894 19.0733 49.856 19.0506C49.0438 19.0506 48.4057 18.8546 47.9415 18.4626C47.4774 18.0706 47.2367 17.4717 47.2192 16.6658ZM48.8117 16.1485H50.6584C50.5934 15.6335 50.3033 15.3755 49.7881 15.3743C49.5559 15.3545 49.3249 15.4241 49.1432 15.5686C48.9613 15.7131 48.8426 15.9213 48.8117 16.1502V16.1485Z" fill="white"/>
<path d="M52.9714 20.6922V14.3811H54.449V15.088C54.5993 14.8302 54.8183 14.6182 55.0819 14.4753C55.3457 14.3323 55.644 14.264 55.944 14.2776C56.218 14.2719 56.4894 14.3263 56.7398 14.4369C56.9896 14.5475 57.212 14.7115 57.3903 14.9173C57.772 15.345 57.9632 15.9278 57.9632 16.6658C57.9632 17.4038 57.7737 17.9844 57.3957 18.4074C57.2196 18.6149 56.9993 18.7806 56.75 18.8923C56.5007 19.0039 56.2299 19.0586 55.9563 19.0523C55.6833 19.0629 55.4125 19.0064 55.167 18.8878C54.9214 18.7693 54.7096 18.5924 54.55 18.3729V20.6922H52.9714ZM54.7449 15.8191C54.5748 16.069 54.4839 16.3635 54.4839 16.665C54.4839 16.9664 54.5748 17.2609 54.7449 17.5108C54.8307 17.6107 54.9376 17.6911 55.0576 17.7461C55.1777 17.8012 55.3086 17.8297 55.441 17.8297C55.5735 17.8297 55.7043 17.8012 55.8244 17.7461C55.945 17.6911 56.0517 17.6107 56.1373 17.5108C56.3063 17.2605 56.3968 16.9661 56.3968 16.665C56.3968 16.3638 56.3063 16.0694 56.1373 15.8191C56.0517 15.7192 55.945 15.6389 55.8244 15.5838C55.7043 15.5288 55.5735 15.5002 55.441 15.5002C55.3086 15.5002 55.1777 15.5288 55.0576 15.5838C54.9376 15.6389 54.8307 15.7192 54.7449 15.8191Z" fill="white"/>
<path d="M59.2297 18.4299C58.7876 18.0149 58.5658 17.4269 58.5647 16.6658C58.5636 15.9048 58.7833 15.3163 59.2243 14.9001C59.6642 14.4851 60.2657 14.2776 61.0292 14.2776C61.6059 14.2576 62.1735 14.4227 62.6479 14.7484C62.8589 14.8984 63.0345 15.0924 63.1621 15.3167C63.2892 15.541 63.3656 15.7902 63.3861 16.0468L61.8558 16.1675C61.7492 15.7203 61.4735 15.4967 61.0292 15.4967C60.9016 15.4912 60.7751 15.5166 60.6599 15.5707C60.5446 15.6248 60.4445 15.706 60.368 15.8071C60.1946 16.0605 60.1112 16.3638 60.1311 16.6693C60.1117 16.9755 60.1968 17.2793 60.3734 17.5314C60.4552 17.6352 60.5613 17.7176 60.6825 17.7717C60.8042 17.8257 60.9366 17.8498 61.0691 17.8419C61.544 17.8419 61.831 17.6062 61.9306 17.1349L63.4609 17.2314C63.4442 17.4961 63.3699 17.7542 63.2423 17.9874C63.1147 18.2206 62.9375 18.4234 62.7227 18.5816C62.2397 18.9165 61.6587 19.0849 61.0691 19.0609C60.2862 19.0552 59.6729 18.8449 59.2297 18.4299Z" fill="white"/>
<path d="M64.0198 17.6504C64.0198 16.7779 64.7026 16.2778 66.0681 16.1502L67.1128 16.0554V16.0364C67.1128 15.5996 66.8866 15.3788 66.4354 15.3743C66.0003 15.3743 65.7655 15.5329 65.7305 15.8537H64.2826C64.2821 15.5885 64.3494 15.3276 64.4775 15.0949C64.5917 14.887 64.764 14.7158 64.9734 14.6017C65.1856 14.4886 65.4123 14.405 65.6471 14.3534C65.9044 14.3 66.1672 14.274 66.4305 14.2759C67.1461 14.2759 67.7013 14.4483 68.096 14.7932C68.4901 15.138 68.6883 15.664 68.6894 16.371V18.9575H67.2118V18.2418C67.0401 18.5067 66.8015 18.7219 66.5188 18.8658C66.2367 19.0096 65.9206 19.0769 65.6034 19.0609C65.177 19.0878 64.7564 18.9486 64.4323 18.6729C64.2939 18.5415 64.1857 18.3823 64.1141 18.2059C64.043 18.0295 64.0107 17.8401 64.0198 17.6504ZM65.5862 17.5625C65.5862 17.8418 65.7655 17.9815 66.1241 17.9815C66.3821 17.9868 66.6319 17.8915 66.8204 17.7159C66.9087 17.6408 66.9803 17.5478 67.0298 17.4431C67.0794 17.3385 67.1058 17.2245 67.1074 17.109V16.9796L66.2808 17.0572C65.8161 17.0986 65.5846 17.2659 65.5846 17.5625H65.5862Z" fill="white"/>
<path d="M70.1944 14.3811H74.2307V18.9489H72.6487V15.6726H71.575C71.4927 16.7544 71.4253 17.4257 71.3731 17.6867C71.2498 18.3143 71.0005 18.7167 70.6247 18.8937C70.405 18.9867 70.1675 19.0314 69.9284 19.0247C69.7249 19.0259 69.5214 19.0086 69.321 18.973V17.7004C69.391 17.7127 69.4621 17.7185 69.5332 17.7177C69.5747 17.7177 69.6156 17.7091 69.6533 17.6924C69.691 17.6758 69.7249 17.6515 69.7523 17.6211C69.8283 17.5366 69.8827 17.4356 69.9112 17.3263C69.9521 17.1885 69.986 17.0486 70.0119 16.9072C70.0383 16.7624 70.0609 16.5779 70.0781 16.3538C70.0953 16.1296 70.1094 15.9261 70.1217 15.7433C70.1336 15.5605 70.146 15.3347 70.1562 15.0639C70.167 14.7932 70.1826 14.5621 70.1944 14.3811Z" fill="white"/>
<path d="M25.1919 25.7393C24.7487 25.3243 24.5271 24.7357 24.5271 23.9735C24.5271 23.2114 24.7487 22.6234 25.1919 22.2095C25.6328 21.7934 26.2339 21.5859 26.995 21.587C27.5717 21.5665 28.1396 21.7317 28.6136 22.0578C28.8254 22.2073 29.0014 22.4011 29.1292 22.6255C29.2571 22.8499 29.3335 23.0994 29.3533 23.3562L27.8217 23.4769C27.7173 23.0303 27.4406 22.8062 26.995 22.8062C26.8679 22.8009 26.7414 22.8265 26.6265 22.8805C26.5115 22.9346 26.4116 23.0156 26.3354 23.1165C26.1621 23.37 26.0789 23.6732 26.0987 23.9787C26.0792 24.2849 26.1644 24.5886 26.3406 24.8409C26.4225 24.9447 26.5287 25.0272 26.65 25.0813C26.7713 25.1353 26.904 25.1594 27.0368 25.1513C27.5102 25.1513 27.7974 24.9156 27.8983 24.4443L29.4282 24.5409C29.4115 24.8055 29.3368 25.0633 29.2094 25.2965C29.0819 25.5297 28.9048 25.7325 28.6902 25.891C28.2069 26.2259 27.6261 26.3943 27.0368 26.3704C26.2536 26.3646 25.6386 26.1543 25.1919 25.7393Z" fill="white"/>
<path d="M30.1453 26.2566V21.6906H34.7643V26.2566H33.1806V22.9803H31.7378V26.2566H30.1453Z" fill="white"/>
<path d="M35.5288 23.9684C35.5288 23.1729 35.7609 22.5763 36.225 22.1785C36.6891 21.7808 37.3151 21.5819 38.1029 21.5819C38.9151 21.5819 39.5237 21.7969 39.9286 22.2268C40.3336 22.6567 40.5343 23.339 40.5308 24.2736V24.4305H37.1213C37.2211 24.9823 37.5692 25.2582 38.1656 25.2582C38.3206 25.2688 38.4756 25.2381 38.6145 25.1692C38.7534 25.1004 38.8713 24.996 38.9557 24.8668L40.4786 24.953C40.3597 25.3854 40.0774 25.7558 39.6902 25.9877C39.2265 26.2484 38.6983 26.3751 38.1656 26.3532C37.3534 26.3532 36.7152 26.1572 36.2511 25.7652C35.7869 25.3732 35.5462 24.7743 35.5288 23.9684ZM37.1213 23.4511H38.9679C38.9035 22.9338 38.6198 22.6751 38.0977 22.6751C37.8642 22.656 37.6324 22.7269 37.4504 22.8731C37.2685 23.0193 37.1506 23.2295 37.1213 23.4597V23.4511Z" fill="white"/>
<path d="M41.2825 26.2566V21.6906H42.8646V24.9668H44.3074V21.6906H45.8912V24.9668H46.5247V27.4499H45.0331V26.2549L41.2825 26.2566Z" fill="white"/>
<path d="M47.576 25.7393C47.1316 25.3243 46.91 24.7357 46.9111 23.9735C46.9123 23.2114 47.1322 22.6234 47.5708 22.2095C48.0116 21.7934 48.6127 21.5859 49.3738 21.587C49.9505 21.5665 50.5185 21.7317 50.9925 22.0578C51.204 22.2076 51.3798 22.4015 51.5075 22.6258C51.6353 22.8501 51.712 23.0994 51.7321 23.3562L50.2005 23.4769C50.0961 23.0303 49.8194 22.8062 49.3738 22.8062C49.2467 22.8006 49.1201 22.826 49.0051 22.8801C48.8901 22.9342 48.7903 23.0154 48.7142 23.1165C48.5409 23.37 48.4577 23.6732 48.4775 23.9787C48.458 24.2849 48.5432 24.5886 48.7195 24.8409C48.8012 24.9448 48.9074 25.0274 49.0287 25.0815C49.1501 25.1355 49.2828 25.1595 49.4156 25.1513C49.8914 25.1513 50.1814 24.9156 50.2858 24.4443L51.8157 24.5409C51.799 24.8055 51.7243 25.0633 51.5969 25.2965C51.4695 25.5297 51.2923 25.7325 51.0778 25.891C50.5938 26.2259 50.0124 26.3943 49.4226 26.3704C48.6336 26.3646 48.0181 26.1543 47.576 25.7393Z" fill="white"/>
<path d="M52.1533 22.9803V21.6906H56.7814V22.9803H55.2581V26.2566H53.6762V22.9803H52.1533Z" fill="white"/>
<path d="M57.4128 27.9999V21.6906H58.892V22.3975C59.0422 22.1395 59.2608 21.9274 59.5247 21.7845C59.7885 21.6415 60.0868 21.5732 60.3873 21.5871C60.6619 21.5803 60.9344 21.6342 61.1853 21.7449C61.4368 21.8556 61.6597 22.0202 61.8385 22.2268C62.2202 22.6545 62.4108 23.2367 62.4092 23.9736C62.4081 24.7105 62.2191 25.2916 61.8422 25.7169C61.6661 25.9241 61.4459 26.0896 61.1971 26.2012C60.9484 26.3128 60.6775 26.3677 60.4045 26.3618C60.1315 26.3726 59.8602 26.3161 59.6141 26.1975C59.3685 26.079 59.1564 25.902 58.9965 25.6824V27.9999H57.4128ZM59.186 23.1286C59.0169 23.3789 58.927 23.6733 58.927 23.9745C58.927 24.2756 59.0169 24.5699 59.186 24.8203C59.2721 24.9202 59.3788 25.0005 59.4988 25.0556C59.6189 25.1107 59.7498 25.1392 59.8822 25.1392C60.0147 25.1392 60.1455 25.1107 60.2656 25.0556C60.3862 25.0005 60.4928 24.9202 60.5785 24.8203C60.7475 24.5699 60.838 24.2756 60.838 23.9745C60.838 23.6733 60.7475 23.3789 60.5785 23.1286C60.4928 23.0287 60.3862 22.9484 60.2656 22.8933C60.1455 22.8382 60.0147 22.8097 59.8822 22.8097C59.7498 22.8097 59.6189 22.8382 59.4988 22.8933C59.3788 22.9484 59.2721 23.0287 59.186 23.1286Z" fill="white"/>
<path d="M63.6974 25.7169C63.2332 25.2881 63.0017 24.707 63.0017 23.9736C63.0017 23.2401 63.2332 22.6596 63.6974 22.232C64.1616 21.8009 64.7819 21.5859 65.5583 21.587C66.3342 21.5882 66.9546 21.8032 67.4187 22.232C67.8829 22.6607 68.1149 23.2413 68.1149 23.9736C68.1149 24.7058 67.8829 25.2869 67.4187 25.7169C66.9546 26.1468 66.3342 26.3618 65.5583 26.3618C64.7819 26.3618 64.1616 26.1468 63.6974 25.7169ZM64.8379 23.1304C64.6656 23.3775 64.5729 23.6707 64.5729 23.971C64.5729 24.2713 64.6656 24.5645 64.8379 24.8116C64.9272 24.9144 65.0376 24.997 65.162 25.0535C65.2869 25.1101 65.4221 25.1393 65.5589 25.1393C65.6962 25.1393 65.8313 25.1101 65.9557 25.0535C66.0801 24.997 66.191 24.9144 66.2804 24.8116C66.4516 24.5641 66.5432 24.2711 66.5432 23.971C66.5432 23.6709 66.4516 23.3779 66.2804 23.1304C66.191 23.0275 66.0801 22.945 65.9557 22.8884C65.8313 22.8319 65.6962 22.8026 65.5589 22.8026C65.4221 22.8026 65.2869 22.8319 65.162 22.8884C65.0376 22.945 64.9272 23.0275 64.8379 23.1304Z" fill="white"/>
<path d="M71.5137 21.6906H73.8442V26.2567H72.3322V23.0149L71.2149 26.2567H68.8774V21.6906H70.3894V24.9324L71.5137 21.6906ZM72.5304 20.806C72.2692 21.0647 71.8794 21.194 71.3646 21.194C70.8493 21.194 70.4594 21.0647 70.1983 20.806C69.9274 20.523 69.7804 20.1456 69.7891 19.7559H70.8003C70.8111 19.902 70.8649 20.0417 70.9554 20.1576C71.0049 20.2166 71.0674 20.2629 71.139 20.2929C71.2101 20.3229 71.2871 20.3357 71.3646 20.3301C71.6984 20.3301 71.8858 20.1381 71.9267 19.7542H72.9396C72.9482 20.1441 72.8018 20.5219 72.532 20.806H72.5304Z" fill="white"/>
<path d="M6.98911 14.5035C5.22606 17.6401 5.08508 20.7456 5.28001 22.0907C5.69424 24.9255 6.97866 26.7205 8.01945 27.7465C6.1746 27.112 4.58558 26.0222 3.66836 25.0186C1.78521 22.9546 0.867994 20.3232 1.01593 17.4022C1.14646 14.8156 2.10545 12.086 3.71709 9.72187C6.41479 5.76967 10.2403 1.42604 11.5212 0C12.2035 0.769058 13.6098 2.37616 15.1761 4.31087C15.794 5.06959 16.7513 6.31631 17.343 7.08879C11.3611 8.67865 8.41452 11.9653 6.98911 14.5035Z" fill="white"/>
<path d="M20.3519 23.2907C20.5344 21.6654 20.1601 20.0265 19.2892 18.6372C18.4184 17.2481 17.1015 16.1892 15.5501 15.6307C13.9987 15.0723 12.3029 15.0467 10.7351 15.5581C9.16724 16.0695 7.8184 17.0882 6.90527 18.4505C7.59483 15.5061 9.32846 12.9049 11.7907 11.1203C13.4946 9.86318 15.5953 8.91996 18.0337 8.31128C18.2407 8.59753 18.5784 9.06997 19.1005 9.82872C20.6931 12.1652 21.6416 14.8569 21.7704 17.4159C21.8999 19.4705 21.4059 21.5166 20.3519 23.2907Z" fill="white"/>
<path d="M19.1199 22.1423C19.1199 23.6972 18.4965 25.1884 17.3867 26.2879C16.277 27.3874 14.7719 28.0051 13.2024 28.0051C12.94 28.0049 12.6778 27.9882 12.4175 27.9551C13.6535 27.4757 14.6844 26.588 15.3356 25.442C15.9868 24.2961 16.2184 22.9624 15.9911 21.6667C15.7639 20.3711 15.0917 19.1931 14.0884 18.332C13.0851 17.4709 11.8124 16.9798 10.4856 16.9417C11.387 16.4801 12.3931 16.256 13.4072 16.2907C14.4214 16.3255 15.4094 16.6181 16.2764 17.1404C17.1435 17.6626 17.8604 18.397 18.3584 19.273C18.8564 20.1489 19.1186 21.137 19.1199 22.1423Z" fill="white"/>
</g>
</g>
<defs>
<clipPath id="clip0_3163_1212">
<rect width="73.2308" height="28" fill="white" transform="translate(1)"/>
</clipPath>
</defs>
</svg>
