<svg width="60" height="28" viewBox="0 0 60 28" fill="none" xmlns="http://www.w3.org/2000/svg">
<g clip-path="url(#clip0_3163_918)">
<path fill-rule="evenodd" clip-rule="evenodd" d="M11.3888 -0.0515137C11.4919 -0.0515137 11.595 -0.0515137 11.6981 -0.0515137C11.3775 0.978707 11.0338 2.00925 10.6671 3.04009C10.4707 3.32902 10.2988 3.63818 10.1515 3.96757C9.94875 3.85088 9.75973 3.88524 9.58447 4.07062C9.51131 3.9188 9.39103 3.8501 9.22361 3.86452C9.21748 3.63115 9.3034 3.5968 9.48137 3.76146C9.64294 3.62171 9.83196 3.55301 10.0484 3.55536C9.95053 3.29073 9.95053 3.03309 10.0484 2.78246C9.98392 2.70512 9.93236 2.61924 9.89378 2.52482C9.79068 2.66222 9.68757 2.66222 9.58447 2.52482C9.41687 2.79562 9.21067 3.03607 8.96585 3.2462C8.89534 3.11389 8.91253 2.99366 9.0174 2.88551C8.88137 2.86541 8.7439 2.88259 8.60498 2.93704C9.39545 2.11261 10.1859 1.28818 10.9764 0.463754C11.1138 0.291997 11.2514 0.120242 11.3888 -0.0515137Z" fill="white"/>
<path opacity="0.788" fill-rule="evenodd" clip-rule="evenodd" d="M10.9751 0.463685C10.185 1.28811 9.39496 2.11254 8.60488 2.93697C8.08962 3.41789 7.57435 3.8988 7.05908 4.37972C8.23499 3.04889 9.47164 1.76073 10.769 0.515212C10.8302 0.46736 10.899 0.450184 10.9751 0.463685Z" fill="white"/>
<path fill-rule="evenodd" clip-rule="evenodd" d="M11.6971 -0.0515137C11.7658 -0.0515137 11.8345 -0.0515137 11.9033 -0.0515137C12.0402 0.664199 12.1433 1.38558 12.2126 2.11261C12.1362 2.61501 12.0502 3.13028 11.9548 3.65841C11.9325 3.46427 11.8638 3.29251 11.7486 3.14314C11.6798 3.41796 11.6112 3.41796 11.5424 3.14314C11.4481 3.22846 11.3794 3.33151 11.3362 3.4523C11.1037 3.3224 10.8803 3.18499 10.666 3.04009C11.0328 2.00925 11.3764 0.978707 11.6971 -0.0515137Z" fill="white"/>
<path fill-rule="evenodd" clip-rule="evenodd" d="M12.2129 2.11255C12.2429 2.77446 12.2086 3.42714 12.1098 4.07056C12.0141 4.3978 11.9282 4.74131 11.8521 5.1011C11.8084 4.89339 11.7224 4.70447 11.5943 4.5343C11.7285 4.33446 11.6598 4.21424 11.3881 4.17362C11.2336 4.4395 11.0789 4.71431 10.9241 4.99804C10.8846 4.94075 10.8331 4.9064 10.7695 4.89499C10.8128 4.67095 10.8128 4.46485 10.7695 4.27667C10.5305 4.2811 10.2899 4.31546 10.0478 4.37972C10.0408 4.2294 10.0752 4.09199 10.1509 3.96751C10.2982 3.63812 10.47 3.32896 10.6664 3.04003C10.8806 3.18493 11.1041 3.32234 11.3366 3.45224C11.3798 3.33145 11.4484 3.2284 11.5428 3.14308C11.6115 3.4179 11.6802 3.4179 11.749 3.14308C11.8641 3.29245 11.9329 3.46421 11.9552 3.65835C12.0506 3.13022 12.1365 2.61495 12.2129 2.11255Z" fill="white"/>
<path fill-rule="evenodd" clip-rule="evenodd" d="M9.2245 3.86447C8.77476 4.21063 8.2936 4.51979 7.78104 4.79196C7.62943 4.70122 7.54351 4.56381 7.52328 4.37974C7.41615 4.50445 7.29585 4.6075 7.16242 4.6889C7.00415 4.77694 6.86667 4.77694 6.75 4.6889C6.88747 4.6202 6.99057 4.51714 7.05931 4.37974C7.57483 3.89882 8.09035 3.41791 8.60588 2.93699C8.7448 2.88255 8.88227 2.86537 9.01829 2.88547C8.91343 2.99362 8.89624 3.11384 8.96674 3.24615C9.21156 3.03603 9.41777 2.79557 9.58537 2.52478C9.68847 2.66218 9.79157 2.66218 9.89468 2.52478C9.93326 2.6192 9.98481 2.70508 10.0493 2.78241C9.95143 3.03305 9.95143 3.29068 10.0493 3.55531C9.83286 3.55296 9.64384 3.62167 9.48226 3.76142C9.30429 3.59676 9.21838 3.63111 9.2245 3.86447Z" fill="white"/>
<path fill-rule="evenodd" clip-rule="evenodd" d="M9.22443 3.86455C9.39185 3.85013 9.51213 3.91882 9.58529 4.07065C9.76055 3.88527 9.94957 3.85091 10.1524 3.9676C10.0767 4.09208 10.0423 4.22949 10.0493 4.37981C9.86202 4.5466 9.72455 4.7527 9.63684 4.99813C9.53416 5.00698 9.44825 4.97262 9.37908 4.89508C8.90726 5.1126 8.44329 5.35305 7.98718 5.61645C7.6425 5.56227 7.316 5.45922 7.00769 5.30729C6.97332 5.34164 6.93895 5.376 6.90458 5.41035C6.83584 5.27295 6.83584 5.13554 6.90458 4.99813C7.01233 4.90813 7.09824 4.80507 7.16234 4.68897C7.29578 4.60757 7.41607 4.50452 7.52321 4.37981C7.54344 4.56388 7.62935 4.70129 7.78097 4.79203C8.29353 4.51986 8.77469 4.2107 9.22443 3.86455Z" fill="white"/>
<path opacity="0.639" fill-rule="evenodd" clip-rule="evenodd" d="M7.05931 4.37976C6.99057 4.51716 6.88747 4.62022 6.75 4.68892C6.75 4.48281 6.8531 4.37976 7.05931 4.37976Z" fill="white"/>
<path fill-rule="evenodd" clip-rule="evenodd" d="M12.1098 4.07056C12.0969 4.75048 11.9938 5.40316 11.8005 6.02857C11.6914 6.14195 11.6054 6.27936 11.5427 6.44079C11.5204 6.24664 11.4517 6.07488 11.3365 5.92552C11.0661 6.0101 10.7741 6.02728 10.4601 5.97705C10.3738 6.08126 10.3395 6.20149 10.357 6.33773C10.2195 6.33773 10.082 6.33773 9.94458 6.33773C9.99935 6.12708 10.1196 5.95533 10.3054 5.82247C10.296 5.41567 10.4507 5.10651 10.7694 4.89498C10.833 4.90639 10.8846 4.94074 10.9241 4.99804C11.0788 4.7143 11.2335 4.43949 11.388 4.17361C11.6597 4.21423 11.7284 4.33446 11.5942 4.5343C11.7223 4.70446 11.8083 4.89339 11.852 5.10109C11.9281 4.7413 12.014 4.39779 12.1098 4.07056Z" fill="white"/>
<path fill-rule="evenodd" clip-rule="evenodd" d="M6.75002 4.68896C6.86663 4.777 7.00404 4.777 7.16223 4.68896C7.09816 4.80506 7.01229 4.90812 6.9046 4.99813C6.83589 5.13553 6.83589 5.27294 6.9046 5.41034C6.93894 5.37599 6.9733 5.34163 7.00765 5.30729C7.31581 5.45921 7.64215 5.56226 7.98666 5.61645C8.44255 5.35304 8.90629 5.11259 9.37788 4.89507C9.44701 4.97261 9.53288 5.00697 9.63551 4.99813C9.60117 5.06683 9.56681 5.13553 9.53246 5.20423C9.42405 5.18883 9.32099 5.206 9.2233 5.25576C9.15459 5.46187 9.01719 5.59927 8.81109 5.66797C7.86853 5.79039 6.97539 6.0652 6.1317 6.4924C5.99429 6.56111 5.85688 6.56111 5.71948 6.4924C5.84269 6.42497 5.84269 6.37345 5.71948 6.33782C5.51442 6.47933 5.29113 6.58239 5.04963 6.64698C5.00179 6.58573 4.98461 6.51702 4.99811 6.44087C5.54772 5.82255 6.1317 5.23858 6.75002 4.68896Z" fill="white"/>
<path fill-rule="evenodd" clip-rule="evenodd" d="M10.7708 4.89505C10.4521 5.10658 10.2974 5.41574 10.3068 5.82253C10.121 5.9554 10.0007 6.12715 9.94594 6.3378C9.77679 6.40448 9.63932 6.50753 9.53352 6.64696C8.82385 6.60228 8.13649 6.67098 7.47144 6.85307C7.89613 6.50957 8.37728 6.25194 8.91489 6.08017C9.14373 5.80061 9.34994 5.50862 9.53352 5.20421C9.56788 5.13551 9.60226 5.06681 9.63662 4.99811C9.72433 4.75268 9.8618 4.54657 10.049 4.37979C10.2912 4.31552 10.5318 4.28116 10.7708 4.27673C10.8141 4.46491 10.8141 4.67102 10.7708 4.89505Z" fill="white"/>
<path fill-rule="evenodd" clip-rule="evenodd" d="M11.8009 6.02859C11.714 6.59982 11.5078 7.11508 11.1823 7.57439C11.02 7.61944 10.8997 7.72249 10.8214 7.88355C10.41 7.72457 9.99759 7.55281 9.58416 7.36829C9.38445 7.63703 9.19542 7.63703 9.01709 7.36829C9.22894 7.15652 9.40077 6.91606 9.53261 6.64691C9.63841 6.50748 9.77589 6.40443 9.94503 6.33775C10.0825 6.33775 10.22 6.33775 10.3574 6.33775C10.3399 6.2015 10.3743 6.08128 10.4605 5.97706C10.7745 6.0273 11.0666 6.01012 11.3369 5.92554C11.4521 6.0749 11.5209 6.24666 11.5431 6.4408C11.6058 6.27938 11.6918 6.14197 11.8009 6.02859Z" fill="white"/>
<path fill-rule="evenodd" clip-rule="evenodd" d="M9.53255 5.20419C9.34906 5.5086 9.14295 5.80058 8.91423 6.08015C8.37687 6.25192 7.89596 6.50955 7.47148 6.85305C7.08558 7.1858 6.65619 7.46061 6.18331 7.67748C6.14064 7.63034 6.08912 7.59599 6.02873 7.57442C5.55144 7.8142 5.07053 8.05466 4.58598 8.2958C4.20501 8.64272 3.82716 8.98623 3.45239 9.32633C3.45239 9.29198 3.45239 9.25763 3.45239 9.22328C3.8376 8.61403 4.28416 8.04723 4.79209 7.5229C4.69428 7.45929 4.60839 7.47646 4.53445 7.57442C4.47085 7.47661 4.48802 7.39073 4.58598 7.31679C4.48817 7.25318 4.40229 7.27035 4.32835 7.36832C4.2805 7.30706 4.26332 7.23836 4.27682 7.16221C4.48293 6.8874 4.72338 6.64694 4.99819 6.44083C4.98469 6.51698 5.00187 6.58569 5.04972 6.64694C5.29122 6.58235 5.5145 6.47929 5.71957 6.33778C5.84278 6.37341 5.84278 6.42493 5.71957 6.49236C5.85697 6.56107 5.99438 6.56107 6.13178 6.49236C6.97548 6.06516 7.86861 5.79035 8.81117 5.66793C9.01728 5.59923 9.15468 5.46183 9.22339 5.25572C9.32108 5.20597 9.42413 5.18879 9.53255 5.20419Z" fill="white"/>
<path fill-rule="evenodd" clip-rule="evenodd" d="M9.01715 7.36836C9.19539 7.63711 9.38433 7.63711 9.58394 7.36836C9.99717 7.55289 10.4094 7.72465 10.8206 7.88363C10.8988 7.72257 11.0191 7.61952 11.1813 7.57447C11.1216 7.86623 10.9842 8.10668 10.7691 8.29585C10.7003 8.29585 10.6317 8.29585 10.5629 8.29585C10.5054 8.16292 10.4024 8.07704 10.2538 8.03821C10.2881 8.00386 10.3225 7.96951 10.3568 7.93516C9.9139 7.79534 9.46734 7.81251 9.01715 7.98669C8.67047 7.9462 8.32696 7.92903 7.98661 7.93516C7.27784 8.1778 6.57365 8.43543 5.87402 8.70806C5.79446 8.69314 5.72575 8.65879 5.66791 8.60501C5.1453 9.17964 4.5785 9.69491 3.96753 10.1508C3.96753 9.97905 3.96753 9.8073 3.96753 9.63554C4.21002 9.47052 4.43331 9.26441 4.63738 9.01722C4.67172 9.08593 4.70608 9.15462 4.74043 9.22333C5.05238 8.84267 5.39589 8.49916 5.77096 8.19279C5.83967 8.2615 5.90837 8.33019 5.97707 8.3989C6.63645 7.72057 7.44371 7.35988 8.39883 7.31684C8.54628 7.2689 8.66651 7.18301 8.75951 7.0592C8.8473 7.16954 8.93317 7.2726 9.01715 7.36836Z" fill="white"/>
<path fill-rule="evenodd" clip-rule="evenodd" d="M10.5629 8.29576C10.4143 8.43173 10.3457 8.60349 10.3568 8.81102C10.1459 8.81217 9.93978 8.84651 9.73848 8.91408C9.66977 8.87973 9.60108 8.84537 9.53237 8.81102C9.66977 8.53621 9.60108 8.46751 9.32626 8.60492C9.14811 8.29198 8.87329 8.12022 8.50184 8.08965C7.38095 8.47846 6.31607 8.97655 5.30718 9.58392C4.87779 9.97896 4.4484 10.374 4.01901 10.769C3.42662 11.8795 2.82548 12.9788 2.21558 14.0667C2.31594 13.548 2.43616 13.0327 2.57626 12.5209C2.98783 11.6974 3.45157 10.9074 3.96748 10.1507C4.57846 9.69482 5.14525 9.17955 5.66787 8.60492C5.72571 8.6587 5.79442 8.69305 5.87397 8.70797C6.5736 8.43534 7.2778 8.17771 7.98657 7.93507C8.32691 7.92894 8.67042 7.94611 9.0171 7.9866C9.46729 7.81242 9.91385 7.79525 10.3568 7.93507C10.3225 7.96942 10.2881 8.00377 10.2537 8.03812C10.4023 8.07695 10.5054 8.16283 10.5629 8.29576Z" fill="white"/>
<path fill-rule="evenodd" clip-rule="evenodd" d="M10.5631 8.29583C10.6318 8.29583 10.7005 8.29583 10.7692 8.29583C10.613 8.6084 10.4069 8.8832 10.1509 9.12026C9.78081 9.13774 9.4373 9.17209 9.12034 9.22331C9.11123 9.07681 9.11123 8.92223 9.12034 8.75957C8.87854 8.7677 8.65526 8.85358 8.45049 9.0172C8.35623 8.93188 8.28752 8.82883 8.24438 8.70804C7.10442 9.02647 6.0567 9.52456 5.10125 10.2023C4.59778 10.8261 4.09968 11.4616 3.60698 12.1088C3.29109 13.0484 2.9304 13.9759 2.52492 14.8912C2.82336 15.3575 2.75467 15.7697 2.31881 16.1279C1.8465 16.2471 1.57169 16.0753 1.49438 15.6126C1.75452 15.1072 1.99499 14.592 2.21576 14.0668C2.82566 12.9789 3.4268 11.8796 4.01919 10.7691C4.44859 10.3741 4.87797 9.97903 5.30736 9.584C6.31626 8.97662 7.38114 8.47853 8.50202 8.08972C8.87347 8.1203 9.14829 8.29206 9.32645 8.60499C9.60126 8.46759 9.66995 8.53628 9.53255 8.8111C9.60126 8.84544 9.66995 8.8798 9.73866 8.91415C9.93996 8.84659 10.1461 8.81224 10.357 8.8111C10.3458 8.60357 10.4145 8.43181 10.5631 8.29583Z" fill="white"/>
<path fill-rule="evenodd" clip-rule="evenodd" d="M9.53237 6.647C9.40059 6.91614 9.22884 7.15661 9.0171 7.36837C8.93312 7.2726 8.84725 7.16955 8.75947 7.05921C8.66646 7.18302 8.54623 7.2689 8.39878 7.31684C7.44366 7.35989 6.6364 7.72058 5.97702 8.3989C5.90832 8.3302 5.83962 8.2615 5.77092 8.1928C5.39584 8.49916 5.05233 8.84267 4.74038 9.22333C4.70603 9.15463 4.67168 9.08593 4.63733 9.01722C4.43326 9.26442 4.20998 9.47053 3.96748 9.63555C3.93916 9.39421 3.85329 9.39421 3.70985 9.63555C3.53809 9.91036 3.36634 10.1852 3.19458 10.46C3.20848 10.2616 3.22566 10.0555 3.24611 9.84165C3.31481 9.66989 3.38351 9.49814 3.45221 9.32639C3.82698 8.98629 4.20483 8.64277 4.5858 8.29585C5.07035 8.05472 5.55126 7.81425 6.02855 7.57448C6.08894 7.59605 6.14047 7.63039 6.18313 7.67753C6.65601 7.46066 7.0854 7.18585 7.4713 6.8531C8.13602 6.67102 8.82305 6.60231 9.53237 6.647Z" fill="white"/>
<path fill-rule="evenodd" clip-rule="evenodd" d="M10.1507 9.12022C9.87292 9.43202 9.59811 9.74118 9.32626 10.0477C9.0908 9.93988 8.85033 9.93988 8.60489 10.0477C8.72739 9.68814 8.64151 9.65379 8.34726 9.94465C8.29497 9.79047 8.34649 9.67025 8.50184 9.58396C8.43919 9.49432 8.35331 9.44279 8.2442 9.42938C7.78825 9.72848 7.29016 9.81436 6.74993 9.68702C5.15339 10.5266 4.08851 11.7975 3.55527 13.5C3.68854 13.5505 3.82595 13.5677 3.96748 13.5515C3.83294 13.7902 3.69554 14.0307 3.55527 14.2729C3.6094 14.3442 3.6781 14.3957 3.76138 14.4275C3.57286 14.5422 3.48699 14.6968 3.50374 14.8912C3.86952 14.5139 3.9554 14.617 3.76138 15.2004C3.797 15.3236 3.84853 15.3236 3.91596 15.2004C3.96381 15.2616 3.98098 15.3303 3.96748 15.4065C3.41787 16.0248 2.8339 16.6088 2.21558 17.1584C2.25176 16.8762 2.32046 16.6015 2.42168 16.334C2.38431 16.2636 2.34995 16.1948 2.31863 16.1279C2.75448 15.7696 2.82318 15.3574 2.52474 14.8912C2.93022 13.9759 3.29091 13.0484 3.6068 12.1088C4.0995 11.4616 4.59759 10.8261 5.10107 10.2023C6.05652 9.52452 7.10424 9.02643 8.2442 8.70801C8.28734 8.8288 8.35605 8.93185 8.45031 9.01717C8.65508 8.85355 8.87836 8.76767 9.12016 8.75953C9.11105 8.92219 9.11105 9.07677 9.12016 9.22327C9.43712 9.17206 9.78063 9.13771 10.1507 9.12022Z" fill="white"/>
<path fill-rule="evenodd" clip-rule="evenodd" d="M8.60504 10.0478C8.44589 10.0687 8.30848 10.1374 8.19283 10.2539C8.12412 10.2195 8.05542 10.1852 7.98672 10.1508C7.84932 10.2539 7.71191 10.3569 7.5745 10.46C7.45413 10.2645 7.28237 10.2473 7.05924 10.4085C5.83281 11.2741 4.80227 12.3218 3.96763 13.5516C3.8261 13.5678 3.68869 13.5506 3.55542 13.5001C4.08866 11.7976 5.15354 10.5267 6.75008 9.68708C7.29031 9.81442 7.7884 9.72855 8.24435 9.42944C8.35347 9.44285 8.43934 9.49438 8.50199 9.58402C8.34664 9.67031 8.29512 9.79053 8.34741 9.94471C8.64166 9.65385 8.72754 9.6882 8.60504 10.0478Z" fill="white"/>
<path fill-rule="evenodd" clip-rule="evenodd" d="M9.32628 10.0477C9.18888 10.2538 9.01712 10.4256 8.81101 10.5629C8.42302 10.5425 8.09668 10.7143 7.83201 11.0782C7.42794 11.0675 7.08443 11.2393 6.80147 11.5935C6.75792 11.4434 6.67205 11.3919 6.54384 11.4389C6.02857 11.9542 5.5133 12.4694 4.99804 12.9847C5.08131 13.0164 5.15001 13.068 5.20414 13.1393C4.93488 13.3906 4.72878 13.6826 4.58582 14.0152C4.63296 14.0579 4.66731 14.1094 4.68888 14.1698C4.57788 14.3995 4.50918 14.64 4.48277 14.8912C4.34537 15.0973 4.17361 15.2691 3.9675 15.4064C3.981 15.3303 3.96382 15.2616 3.91597 15.2003C3.84855 15.3236 3.79702 15.3236 3.76139 15.2003C3.95541 14.617 3.86954 14.5139 3.50376 14.8912C3.487 14.6967 3.57288 14.5421 3.76139 14.4274C3.67812 14.3957 3.60942 14.3442 3.55529 14.2729C3.69555 14.0307 3.83295 13.7902 3.9675 13.5515C4.80214 12.3217 5.83268 11.274 7.0591 10.4084C7.28224 10.2472 7.45399 10.2644 7.57437 10.4599C7.71177 10.3568 7.84918 10.2538 7.98659 10.1507C8.05529 10.1851 8.12399 10.2194 8.19269 10.2538C8.30835 10.1373 8.44576 10.0686 8.60491 10.0477C8.85035 9.93984 9.09081 9.93984 9.32628 10.0477Z" fill="white"/>
<path fill-rule="evenodd" clip-rule="evenodd" d="M4.27684 7.16223C4.26334 7.23838 4.28052 7.30708 4.32837 7.36834C4.40231 7.27038 4.4882 7.25321 4.586 7.31681C4.48804 7.39075 4.47087 7.47664 4.53448 7.57445C4.60842 7.47648 4.6943 7.45931 4.79211 7.52292C4.28418 8.04725 3.83762 8.61405 3.45242 9.2233C2.96809 9.67285 2.47 10.1881 1.95814 10.7691C1.37875 11.7455 1.06959 12.8104 1.03066 13.9638C0.949466 14.8091 0.966642 15.6507 1.08219 16.4886C0.836558 17.0045 0.767855 17.5369 0.876081 18.0859C0.723865 18.3063 0.620811 18.5467 0.566921 18.8073C0.53257 18.8073 0.498218 18.8073 0.463867 18.8073C0.535554 18.2325 0.638608 17.6657 0.773027 17.1069C0.510854 15.5496 0.510854 13.9866 0.773027 12.418C0.839963 12.2185 0.874314 12.0124 0.876081 11.7996C1.65215 9.99284 2.78573 8.44704 4.27684 7.16223Z" fill="white"/>
<path fill-rule="evenodd" clip-rule="evenodd" d="M3.96887 9.63547C3.96887 9.80722 3.96887 9.97897 3.96887 10.1507C3.4527 10.9075 2.98873 11.6975 2.57697 12.521C2.4368 13.0327 2.31651 13.548 2.2161 14.0668C1.99522 14.5919 1.75464 15.1072 1.49437 15.6126C1.57171 16.0753 1.84666 16.2471 2.3192 16.1278C2.35054 16.1948 2.38491 16.2636 2.42231 16.3339C2.32104 16.6015 2.2523 16.8762 2.2161 17.1584C1.90679 17.5363 1.56311 17.8797 1.18506 18.1889C1.36123 17.8705 1.49871 17.527 1.59748 17.1584C1.56311 17.0896 1.52874 17.021 1.49437 16.9523C1.12221 17.0911 1.08784 17.0223 1.39127 16.7462C1.28929 16.6464 1.22056 16.5261 1.18506 16.3855C1.40563 15.066 1.62902 13.7435 1.85524 12.4179C1.8896 12.5553 1.92398 12.6928 1.95834 12.8301C2.18091 11.7297 2.61052 10.7335 3.24714 9.84157C3.22669 10.0554 3.2095 10.2615 3.19559 10.4599C3.36743 10.1851 3.53927 9.91028 3.71111 9.63547C3.85462 9.39414 3.94054 9.39414 3.96887 9.63547Z" fill="white"/>
<path fill-rule="evenodd" clip-rule="evenodd" d="M3.45406 9.22327C3.45406 9.25761 3.45406 9.29197 3.45406 9.32632C3.38532 9.49808 3.31659 9.66983 3.24785 9.84159C2.61122 10.7335 2.18162 11.7297 1.95905 12.8301C1.92468 12.6928 1.89031 12.5553 1.85594 12.4179C1.62972 13.7435 1.40633 15.066 1.18576 16.3855C1.22126 16.5261 1.28999 16.6464 1.39197 16.7462C1.08855 17.0223 1.12291 17.0911 1.49508 16.9523C1.52944 17.021 1.56382 17.0896 1.59818 17.1584C1.49942 17.527 1.36194 17.8705 1.18576 18.1889C1.01392 18.4293 0.807715 18.6354 0.567139 18.8072C0.621056 18.5467 0.72416 18.3063 0.876451 18.0859C0.768172 17.5369 0.836909 17.0044 1.08266 16.4885C0.967057 15.6507 0.949873 14.8091 1.03111 13.9637C1.07006 12.8104 1.37937 11.7455 1.95905 10.7691C2.47115 10.1881 2.96949 9.67282 3.45406 9.22327Z" fill="white"/>
<path fill-rule="evenodd" clip-rule="evenodd" d="M0.876451 11.7996C0.874683 12.0124 0.840315 12.2185 0.773347 12.4179C0.704611 12.4866 0.635875 12.5553 0.567139 12.624C0.591154 12.3105 0.694258 12.0358 0.876451 11.7996Z" fill="white"/>
<path fill-rule="evenodd" clip-rule="evenodd" d="M8.81115 10.563C7.40275 12.0401 5.96001 13.4828 4.48291 14.8913C4.50932 14.6401 4.57802 14.3996 4.68902 14.1699C4.66745 14.1095 4.6331 14.058 4.58596 14.0153C4.72892 13.6827 4.93503 13.3907 5.20428 13.1394C5.15015 13.068 5.08145 13.0165 4.99818 12.9848C5.51344 12.4695 6.02871 11.9542 6.54398 11.439C6.67219 11.392 6.75806 11.4435 6.80161 11.5936C7.08458 11.2394 7.42808 11.0676 7.83215 11.0783C8.09682 10.7144 8.42316 10.5426 8.81115 10.563Z" fill="white"/>
<path opacity="0.925" fill-rule="evenodd" clip-rule="evenodd" d="M0.567125 12.624C0.55782 13.0068 0.454716 13.3503 0.257812 13.6546C0.298986 13.2819 0.40209 12.9383 0.567125 12.624Z" fill="white"/>
<path fill-rule="evenodd" clip-rule="evenodd" d="M0.257555 13.6545C0.253546 14.1372 0.219178 14.6182 0.154451 15.0973C0.148669 15.3178 0.0799321 15.4895 -0.0517578 15.6126C-0.0517578 15.4064 -0.0517578 15.2003 -0.0517578 14.9942C0.0418194 14.5459 0.144924 14.0993 0.257555 13.6545Z" fill="white"/>
<path opacity="0.904" fill-rule="evenodd" clip-rule="evenodd" d="M0.773076 12.418C0.510774 13.9866 0.510774 15.5497 0.773076 17.1069C0.63859 17.6658 0.535486 18.2326 0.463763 18.8073C0.47051 18.8524 0.453326 18.8868 0.412211 18.9103C0.388282 18.7829 0.33673 18.6798 0.257555 18.6012C0.274473 18.3243 0.257289 18.0494 0.206003 17.7767C0.166557 17.7194 0.115005 17.6851 0.0513464 17.6737C0.0513464 17.6394 0.0513464 17.605 0.0513464 17.5706C0.118611 17.4728 0.152978 17.3527 0.154451 17.21C0.143289 17.0367 0.0745522 16.9165 -0.0517578 16.8493C-0.0517578 16.4371 -0.0517578 16.0248 -0.0517578 15.6126C0.0799322 15.4896 0.148669 15.3179 0.154451 15.0974C0.219178 14.6183 0.253546 14.1373 0.257555 13.6546C0.454458 13.3504 0.557562 13.0068 0.566868 12.6241C0.635604 12.5553 0.70434 12.4867 0.773076 12.418Z" fill="white"/>
<path opacity="0.914" fill-rule="evenodd" clip-rule="evenodd" d="M20.5076 12.1608C20.6882 12.1524 20.7912 12.2382 20.8168 12.4185C20.7224 13.5342 20.1384 14.2556 19.0649 14.5826C19.8265 14.5033 20.4276 14.7609 20.8683 15.3555C21.0143 16.309 21.0658 17.2708 21.0229 18.241C20.4733 18.241 19.9236 18.241 19.374 18.241C19.3911 17.5874 19.374 16.9348 19.3225 16.283C19.271 16.2315 19.2194 16.1799 19.1679 16.1284C18.5161 16.0769 17.8635 16.0598 17.2099 16.0769C17.2099 16.7983 17.2099 17.5196 17.2099 18.241C16.6603 18.241 16.1106 18.241 15.561 18.241C15.561 16.3173 15.561 14.3937 15.561 12.47C16.1106 12.47 16.6603 12.47 17.2099 12.47C17.2099 13.1914 17.2099 13.9128 17.2099 14.6341C17.3473 14.6341 17.4847 14.6341 17.6221 14.6341C17.618 14.3327 17.7038 14.058 17.8797 13.8097C18.1374 13.5521 18.395 13.2944 18.6526 13.0368C19.2771 12.7327 19.8955 12.4406 20.5076 12.1608Z" fill="white"/>
<path opacity="0.915" fill-rule="evenodd" clip-rule="evenodd" d="M23.3932 12.264C24.2671 12.1858 25.0057 12.4606 25.6088 13.0884C25.6598 12.8851 25.677 12.679 25.6603 12.4701C26.2099 12.4701 26.7596 12.4701 27.3092 12.4701C27.3092 14.3938 27.3092 16.3174 27.3092 18.2411C26.7596 18.2411 26.2099 18.2411 25.6603 18.2411C25.6771 17.9982 25.66 17.7578 25.6088 17.5197C25.15 18.1208 24.5317 18.43 23.7538 18.4472C22.036 18.1397 21.1601 17.1091 21.126 15.3556C21.1347 13.7518 21.8904 12.7212 23.3932 12.264ZM23.7023 13.9128C25.3426 13.861 25.9094 14.6167 25.4027 16.18C24.7983 16.8467 24.0941 16.9669 23.2901 16.5407C22.7225 15.8983 22.6366 15.1941 23.0325 14.4281C23.2185 14.1884 23.4418 14.0167 23.7023 13.9128Z" fill="white"/>
<path opacity="0.92" fill-rule="evenodd" clip-rule="evenodd" d="M47.4045 12.264C48.2455 12.2063 48.9498 12.481 49.5171 13.0884C49.5681 12.8851 49.5853 12.679 49.5686 12.4701C50.1182 12.4701 50.6679 12.4701 51.2174 12.4701C51.2174 14.3938 51.2174 16.3174 51.2174 18.2411C50.6679 18.2411 50.1182 18.2411 49.5686 18.2411C49.5853 18.0322 49.5681 17.8261 49.5171 17.6228C48.1285 18.7547 46.8231 18.6516 45.601 17.3136C45.0037 16.3034 44.8836 15.2385 45.2403 14.1189C44.6604 14.0164 44.0765 13.982 43.4884 14.0159C43.4884 15.4243 43.4884 16.8327 43.4884 18.2411C42.9389 18.2411 42.3892 18.2411 41.8396 18.2411C41.8396 16.8327 41.8396 15.4243 41.8396 14.0159C41.2213 14.0159 40.6029 14.0159 39.9846 14.0159C39.9846 13.5006 39.9846 12.9854 39.9846 12.4701C41.7708 12.4701 43.5572 12.4701 45.3434 12.4701C45.3263 12.918 45.3435 13.3645 45.3949 13.8098C45.8186 12.9548 46.4884 12.4395 47.4045 12.264ZM47.6106 13.9128C49.2058 13.8076 49.807 14.529 49.414 16.077C48.9086 16.799 48.2388 16.9878 47.4045 16.6438C46.4069 15.642 46.4756 14.7317 47.6106 13.9128Z" fill="white"/>
<path opacity="0.921" fill-rule="evenodd" clip-rule="evenodd" d="M27.7214 12.47C29.5421 12.47 31.3626 12.47 33.1833 12.47C33.1833 14.3937 33.1833 16.3173 33.1833 18.241C32.6337 18.241 32.084 18.241 31.5344 18.241C31.5344 16.8325 31.5344 15.4242 31.5344 14.0158C30.813 14.0158 30.0917 14.0158 29.3703 14.0158C29.3703 15.4242 29.3703 16.8325 29.3703 18.241C28.8207 18.241 28.271 18.241 27.7214 18.241C27.7214 16.3173 27.7214 14.3937 27.7214 12.47Z" fill="white"/>
<path opacity="0.908" fill-rule="evenodd" clip-rule="evenodd" d="M33.6984 12.47C34.248 12.47 34.7977 12.47 35.3473 12.47C35.3301 13.5698 35.3473 14.6691 35.3988 15.7677C36.2483 14.6718 37.1587 13.6241 38.1297 12.6246C38.6664 12.4806 39.216 12.4291 39.7786 12.47C39.7786 14.3937 39.7786 16.3173 39.7786 18.241C39.1946 18.241 38.6107 18.241 38.0267 18.241C38.0438 17.1755 38.0267 16.1107 37.9752 15.0463C37.0992 16.0597 36.2232 17.0731 35.3473 18.0864C34.8051 18.4416 34.3071 18.3901 33.853 17.9318C33.7012 16.1209 33.6497 14.3003 33.6984 12.47Z" fill="white"/>
<path opacity="0.923" fill-rule="evenodd" clip-rule="evenodd" d="M57.5037 12.47C57.5037 14.3937 57.5037 16.3173 57.5037 18.241C56.9541 18.241 56.4044 18.241 55.8549 18.241C55.8549 16.8326 55.8549 15.4243 55.8549 14.0158C55.3041 13.9987 54.7546 14.0159 54.206 14.0674C54.1545 14.1189 54.1029 14.1704 54.0514 14.222C54.0171 14.9433 53.9827 15.6647 53.9484 16.3861C53.7639 17.8101 52.9566 18.4284 51.5266 18.241C51.5266 17.6915 51.5266 17.1418 51.5266 16.5922C51.8559 16.6477 52.1135 16.5447 52.2995 16.283C52.4211 15.3607 52.4899 14.4332 52.5056 13.5006C52.6469 13.1523 52.8702 12.8603 53.1755 12.6246C54.6107 12.4755 56.0534 12.424 57.5037 12.47Z" fill="white"/>
<path opacity="0.702" fill-rule="evenodd" clip-rule="evenodd" d="M-0.0517578 16.8492C0.0750361 16.9164 0.144036 17.0367 0.155241 17.2099C0.153763 17.3527 0.119263 17.4728 0.0517414 17.5706C0.0763023 17.4376 0.0418026 17.3345 -0.0517578 17.2615C-0.0517578 17.1241 -0.0517578 16.9866 -0.0517578 16.8492Z" fill="white"/>
<path opacity="0.894" fill-rule="evenodd" clip-rule="evenodd" d="M0.0517578 17.6737C0.11566 17.6851 0.16741 17.7195 0.207007 17.7768C0.258489 18.0494 0.27574 18.3243 0.258756 18.6012C0.157846 18.3115 0.0888461 18.0023 0.0517578 17.6737Z" fill="white"/>
<path opacity="0.259" fill-rule="evenodd" clip-rule="evenodd" d="M0.257733 18.6012C0.336908 18.6798 0.38846 18.7829 0.412389 18.9104C0.453504 18.8869 0.470689 18.8524 0.463942 18.8073C0.498309 18.8073 0.532678 18.8073 0.567046 18.8073C0.654452 18.9232 0.757557 18.9232 0.876359 18.8073C0.778664 18.9596 0.641192 19.0627 0.463942 19.1165C0.287302 18.9995 0.218566 18.8277 0.257733 18.6012Z" fill="white"/>
<path fill-rule="evenodd" clip-rule="evenodd" d="M0.876284 18.8073C0.910652 18.8073 0.945021 18.8073 0.979388 18.8073C1.23391 18.8914 1.50886 18.943 1.80422 18.9618C1.7108 19.1369 1.67643 19.3259 1.70112 19.5286C1.42057 19.4809 1.14562 19.4123 0.876284 19.3225C0.807548 19.3225 0.738812 19.3225 0.670076 19.3225C0.566971 19.2882 0.498235 19.2195 0.463867 19.1164C0.641118 19.0626 0.77859 18.9596 0.876284 18.8073Z" fill="white"/>
<path fill-rule="evenodd" clip-rule="evenodd" d="M5.61651 18.9103C7.13275 19.1707 8.47245 19.789 9.63559 20.7652C9.82541 21.1399 9.70517 21.3117 9.27491 21.2805C8.2928 21.0333 7.33096 20.7241 6.38941 20.353C5.991 20.092 5.66466 19.7657 5.4104 19.374C5.50064 19.2107 5.63806 19.1076 5.82261 19.0649C5.72824 19.0362 5.65953 18.9847 5.61651 18.9103Z" fill="white"/>
<path opacity="0.78" fill-rule="evenodd" clip-rule="evenodd" d="M0.670166 19.3225C0.738903 19.3225 0.807638 19.3225 0.876374 19.3225C1.15882 19.6042 1.39939 19.9133 1.5981 20.25C1.25443 19.9751 0.945111 19.666 0.670166 19.3225Z" fill="white"/>
<path fill-rule="evenodd" clip-rule="evenodd" d="M2.11315 18.7042C2.43533 18.8051 2.77901 18.8395 3.14419 18.8073C3.0335 18.95 2.89603 19.0702 2.73178 19.168C2.76614 19.2023 2.80052 19.2367 2.83488 19.271C2.67854 19.4665 2.6098 19.6898 2.62867 19.9409C2.59431 19.9409 2.55993 19.9409 2.52557 19.9409C2.23396 19.8218 1.95902 19.6844 1.70073 19.5287C1.67605 19.3259 1.71041 19.1369 1.80384 18.9619C1.50848 18.943 1.23353 18.8915 0.979004 18.8073C1.3583 18.7842 1.73636 18.7498 2.11315 18.7042Z" fill="white"/>
<path fill-rule="evenodd" clip-rule="evenodd" d="M3.65835 18.6012C3.8965 18.7628 4.17131 18.8487 4.48278 18.8588C4.32365 18.8887 4.18625 18.9573 4.07056 19.0649C4.23721 19.3092 4.34027 19.5839 4.37972 19.8894C4.58358 20.0932 4.78969 20.2993 4.99805 20.5077C6.57305 21.4679 8.27343 22.1035 10.0992 22.4142C10.4519 22.3505 10.7268 22.1787 10.9236 21.8989C10.9928 21.9764 11.0786 22.0108 11.1813 22.002C11.3874 22.1393 11.5591 22.3111 11.6965 22.5172C11.3615 22.5417 11.0352 22.679 10.7175 22.9294C10.2676 22.7175 9.80388 22.6488 9.32629 22.7233C8.30765 22.2026 7.24276 21.8075 6.13163 21.5382C5.70953 21.2584 5.26295 21.0352 4.79194 20.8684C4.32219 20.382 3.87562 19.8839 3.45224 19.3741C3.72335 19.1998 3.68899 19.0796 3.34919 19.0134C3.46342 18.8368 3.39472 18.768 3.14308 18.8073C2.77808 18.8396 2.43457 18.8051 2.11255 18.7042C2.62498 18.6358 3.14025 18.6015 3.65835 18.6012Z" fill="white"/>
<path fill-rule="evenodd" clip-rule="evenodd" d="M5.10118 18.8072C5.29849 18.778 5.47024 18.8123 5.61645 18.9103C5.65947 18.9847 5.72818 19.0362 5.82255 19.0649C5.63799 19.1076 5.50058 19.2107 5.41034 19.374C5.6646 19.7657 5.99094 20.092 6.38935 20.353C7.33089 20.7241 8.29273 21.0333 9.27484 21.2805C9.70511 21.3117 9.82534 21.1399 9.63553 20.7652C9.9481 20.9215 10.2229 21.1276 10.46 21.3836C10.2664 21.3725 10.232 21.4241 10.3569 21.5381C10.1489 21.7567 9.89129 21.877 9.584 21.8988C8.68035 21.6171 7.77005 21.3594 6.85309 21.1259C6.27249 20.7666 5.68852 20.4059 5.10118 20.0439C4.97657 19.7774 4.83915 19.5197 4.68896 19.271C4.82295 19.1081 4.96037 18.9536 5.10118 18.8072Z" fill="white"/>
<path fill-rule="evenodd" clip-rule="evenodd" d="M3.65845 18.6012C4.14303 18.6531 4.62394 18.7219 5.1012 18.8073C4.96038 18.9536 4.82297 19.1082 4.68898 19.271C4.83917 19.5198 4.97658 19.7774 5.1012 20.0439C5.68854 20.406 6.27251 20.7667 6.8531 21.126C7.77006 21.3595 8.68037 21.6172 9.58402 21.8989C9.8913 21.8771 10.1489 21.7568 10.3569 21.5382C10.232 21.4241 10.2664 21.3726 10.46 21.3836C10.7621 21.5176 11.0027 21.7237 11.1813 22.002C11.0787 22.0108 10.9929 21.9764 10.9237 21.8989C10.7269 22.1787 10.452 22.3505 10.0993 22.4142C8.27353 22.1035 6.57315 21.4679 4.99814 20.5077C4.78979 20.2993 4.58368 20.0932 4.37982 19.8894C4.34036 19.5839 4.23731 19.3092 4.07066 19.0649C4.18635 18.9573 4.32375 18.8887 4.48287 18.8588C4.17141 18.8487 3.89659 18.7628 3.65845 18.6012Z" fill="white"/>
<path fill-rule="evenodd" clip-rule="evenodd" d="M3.96753 20.6622C5.5007 21.5146 7.0465 22.339 8.60493 23.1355C8.67364 23.2729 8.74234 23.4104 8.81104 23.5477C8.29474 23.2997 7.74512 23.1795 7.16219 23.187C6.85303 22.9466 6.54387 22.7061 6.23471 22.4657C6.10239 22.3952 5.98217 22.4124 5.87402 22.5172C5.5224 22.2469 5.16171 21.9893 4.79196 21.7443C4.4924 21.3944 4.21759 21.0337 3.96753 20.6622Z" fill="white"/>
<path fill-rule="evenodd" clip-rule="evenodd" d="M2.5249 19.9408C2.55925 19.9408 2.59361 19.9408 2.62796 19.9408C3.08768 20.1535 3.53424 20.394 3.96765 20.6622C4.21771 21.0337 4.49252 21.3944 4.79208 21.7442C5.16183 21.9892 5.52252 22.2468 5.87414 22.5171C5.98229 22.4123 6.10252 22.3951 6.23483 22.4656C6.54399 22.706 6.85315 22.9466 7.16231 23.187C7.74524 23.1795 8.29486 23.2996 8.81116 23.5477C8.9577 23.6945 9.12946 23.7976 9.32643 23.8568C9.40954 23.9834 9.5126 24.0864 9.63559 24.166C9.47067 24.2435 9.31609 24.3465 9.17185 24.4751C8.7927 24.3628 8.43201 24.2082 8.08979 24.0114C7.60198 23.941 7.12107 23.838 6.64704 23.7022C6.29321 23.4513 5.91534 23.2452 5.51345 23.0839C5.03691 22.6229 4.52165 22.2278 3.96765 21.8988C3.99022 21.7777 3.95587 21.6747 3.8646 21.5897C3.18857 21.2231 2.74199 20.6735 2.5249 19.9408Z" fill="white"/>
<path fill-rule="evenodd" clip-rule="evenodd" d="M3.14307 18.8072C3.39471 18.768 3.46341 18.8367 3.34918 19.0133C3.68897 19.0795 3.72333 19.1997 3.45223 19.374C3.8756 19.8838 4.32218 20.3819 4.79192 20.8683C5.26294 21.0351 5.70951 21.2583 6.13162 21.5381C7.24274 21.8074 8.30763 22.2025 9.32627 22.7232C9.80387 22.6487 10.2676 22.7174 10.7175 22.9294C11.0352 22.6789 11.3615 22.5416 11.6965 22.5171C12.0744 22.8263 12.4179 23.1698 12.727 23.5477C12.6154 23.5437 12.5124 23.5092 12.4179 23.4446C12.3266 23.5296 12.2923 23.6327 12.3148 23.7538C12.1123 23.8186 11.9062 23.8873 11.6965 23.9599C10.6972 23.8217 9.76973 23.4781 8.91406 22.9294C8.83234 23.0175 8.86669 23.1034 9.01711 23.187C8.88116 23.2071 8.74376 23.1899 8.6049 23.1355C7.04647 22.339 5.50066 21.5145 3.9675 20.6622C3.53408 20.394 3.08752 20.1535 2.6278 19.9408C2.60894 19.6898 2.67765 19.4664 2.83391 19.271C2.79956 19.2366 2.7652 19.2022 2.73086 19.1679C2.89503 19.0701 3.03243 18.9499 3.14307 18.8072Z" fill="white"/>
<path opacity="0.733" fill-rule="evenodd" clip-rule="evenodd" d="M4.89502 23.7539C5.05245 23.7463 5.15555 23.8151 5.20433 23.96C5.0469 23.9675 4.9438 23.8987 4.89502 23.7539Z" fill="white"/>
<path fill-rule="evenodd" clip-rule="evenodd" d="M0.876465 19.3225C1.14567 19.4123 1.42048 19.4809 1.70089 19.5286C1.95905 19.6843 2.23385 19.8218 2.52532 19.9408C2.74241 20.6735 3.18898 21.2231 3.86501 21.5897C3.95629 21.6747 3.99064 21.7778 3.96807 21.8988C4.52206 22.2278 5.03733 22.6229 5.51387 23.084C5.91576 23.2452 6.29362 23.4513 6.64746 23.7023C7.12148 23.838 7.6024 23.9411 8.09021 24.0114C8.43243 24.2083 8.79311 24.3629 9.17227 24.4752C9.31651 24.3466 9.47109 24.2435 9.63601 24.166C10.0194 24.3571 10.3629 24.5975 10.6665 24.8874C9.0207 24.9201 7.42337 24.6452 5.87456 24.063C5.65221 24.1196 5.60068 24.2227 5.71998 24.3721C5.48823 24.3124 5.31648 24.175 5.20471 23.9599C5.15595 23.815 5.0529 23.7463 4.89555 23.7538C3.68599 22.6818 2.58675 21.5139 1.59784 20.25C1.39922 19.9133 1.15877 19.6042 0.876465 19.3225Z" fill="white"/>
<path fill-rule="evenodd" clip-rule="evenodd" d="M12.7271 23.5478C12.8989 23.7539 13.0706 23.96 13.2424 24.1661C13.0487 24.1551 13.0144 24.2066 13.1393 24.3207C12.8665 24.3531 12.7979 24.4734 12.9332 24.6814C12.8034 24.7722 12.6832 24.8753 12.5725 24.9905C11.9166 24.7642 11.2468 24.5752 10.563 24.4237C10.2629 24.2959 9.98809 24.1242 9.73857 23.9085C9.6053 23.858 9.46789 23.8407 9.32635 23.8569C9.12939 23.7977 8.95763 23.6946 8.81109 23.5478C8.74238 23.4104 8.67369 23.2729 8.60498 23.1356C8.74383 23.19 8.88124 23.2072 9.01719 23.1871C8.86677 23.1035 8.83242 23.0176 8.91414 22.9294C9.76981 23.4782 10.6973 23.8218 11.6966 23.96C11.9063 23.8874 12.1124 23.8187 12.3149 23.7539C12.2923 23.6328 12.3267 23.5297 12.418 23.4447C12.5125 23.5093 12.6155 23.5437 12.7271 23.5478Z" fill="white"/>
<path opacity="0.494" fill-rule="evenodd" clip-rule="evenodd" d="M6.54395 24.9904C6.70138 24.9829 6.80448 25.0516 6.85326 25.1965C6.69583 25.2041 6.59272 25.1353 6.54395 24.9904Z" fill="white"/>
<path fill-rule="evenodd" clip-rule="evenodd" d="M10.666 24.8874C11.1813 25.1623 11.6966 25.437 12.2118 25.7118C12.2118 25.7462 12.2118 25.7806 12.2118 25.8149C12.1448 25.8462 12.0761 25.8805 12.0057 25.918C11.2238 25.7066 10.4336 25.5348 9.6355 25.4027C9.05204 25.4599 8.46807 25.5114 7.88359 25.5573C8.04391 25.6315 8.14696 25.7517 8.19275 25.918C7.88515 25.8328 7.61034 25.6955 7.36832 25.5057C7.31957 25.3608 7.21651 25.2921 7.05916 25.2996C6.95697 25.3174 6.88827 25.2829 6.85305 25.1966C6.8043 25.0517 6.70125 24.9829 6.54389 24.9905C6.23132 24.8342 5.95652 24.6281 5.71947 24.3721C5.60017 24.2227 5.6517 24.1197 5.87405 24.063C7.42286 24.6452 9.02018 24.9201 10.666 24.8874Z" fill="white"/>
<path fill-rule="evenodd" clip-rule="evenodd" d="M9.32642 23.8568C9.46795 23.8407 9.60536 23.8579 9.73863 23.9084C9.98815 24.1242 10.263 24.2958 10.5631 24.4236C11.2468 24.5751 11.9167 24.7641 12.5726 24.9904C12.6833 24.8752 12.8034 24.7722 12.9333 24.6813C12.798 24.4733 12.8666 24.353 13.1394 24.3206C13.0145 24.2065 13.0488 24.155 13.2424 24.166C13.6547 24.5095 14.0326 24.8874 14.376 25.2996C14.1733 25.3242 13.9843 25.2899 13.8092 25.1965C13.2828 25.3822 12.7504 25.5539 12.2119 25.7118C11.6966 25.437 11.1814 25.1622 10.6661 24.8874C10.3625 24.5975 10.019 24.3571 9.63558 24.166C9.51258 24.0864 9.40953 23.9834 9.32642 23.8568Z" fill="white"/>
<path opacity="0.431" fill-rule="evenodd" clip-rule="evenodd" d="M7.05908 25.2996C7.21651 25.2921 7.31962 25.3608 7.36839 25.5057C7.21096 25.5133 7.10786 25.4445 7.05908 25.2996Z" fill="white"/>
<path fill-rule="evenodd" clip-rule="evenodd" d="M14.3771 25.2996C14.7256 25.586 15.0865 25.8608 15.4597 26.124C15.7199 26.5297 15.634 26.8045 15.2019 26.9484C14.8583 26.9484 14.5145 26.9484 14.1709 26.9484C14.4255 26.8642 14.7003 26.8127 14.9957 26.7939C14.0454 26.5401 13.1175 26.2139 12.2119 25.8149C12.2119 25.7805 12.2119 25.7461 12.2119 25.7118C12.7506 25.5539 13.2834 25.3822 13.81 25.1965C13.9852 25.2899 14.1743 25.3242 14.3771 25.2996Z" fill="white"/>
<path fill-rule="evenodd" clip-rule="evenodd" d="M12.2118 25.8149C13.1169 26.2139 14.0444 26.5402 14.9942 26.7939C14.699 26.8128 14.4242 26.8643 14.1698 26.9485C13.2766 26.9485 12.3836 26.9485 11.4904 26.9485C11.3804 26.8523 11.243 26.8178 11.0782 26.8455C11.0298 26.7225 10.9267 26.6538 10.769 26.6394C10.6427 26.6414 10.5396 26.6757 10.4599 26.7424C10.3911 26.7424 10.3568 26.7081 10.3568 26.6394C10.1159 26.4806 9.84106 26.412 9.5324 26.4332C9.30728 26.2184 9.03248 26.1153 8.70797 26.1241C8.51186 26.0936 8.3401 26.0248 8.19271 25.918C8.14692 25.7518 8.04387 25.6315 7.88354 25.5573C8.46802 25.5114 9.052 25.4599 9.63545 25.4027C10.4336 25.5348 11.2237 25.7066 12.0057 25.918C12.0761 25.8806 12.1448 25.8463 12.2118 25.8149Z" fill="white"/>
<path opacity="0.953" fill-rule="evenodd" clip-rule="evenodd" d="M8.70801 26.124C9.03267 26.1153 9.30761 26.2183 9.53284 26.4332C9.22939 26.3837 8.95445 26.2807 8.70801 26.124Z" fill="white"/>
<path opacity="0.259" fill-rule="evenodd" clip-rule="evenodd" d="M9.53247 26.4332C9.84128 26.412 10.1162 26.4806 10.3573 26.6393C10.0554 26.6326 9.78046 26.5639 9.53247 26.4332Z" fill="white"/>
<path opacity="0.765" fill-rule="evenodd" clip-rule="evenodd" d="M10.46 26.7423C10.5398 26.6757 10.6429 26.6413 10.7693 26.6393C10.927 26.6537 11.0301 26.7224 11.0786 26.8454C10.8791 26.7784 10.6729 26.7441 10.46 26.7423Z" fill="white"/>
</g>
<defs>
<clipPath id="clip0_3163_918">
<rect width="59.771" height="27" fill="white"/>
</clipPath>
</defs>
</svg>
