<svg width="74" height="28" viewBox="0 0 74 28" fill="none" xmlns="http://www.w3.org/2000/svg">
<g clip-path="url(#clip0_2836_941)">
<mask id="mask0_2836_941" style="mask-type:luminance" maskUnits="userSpaceOnUse" x="0" y="0" width="74" height="28">
<path d="M73.423 0H0.192261V28H73.423V0Z" fill="white"/>
</mask>
<g mask="url(#mask0_2836_941)">
<path d="M27.7908 12.8481H29.5765L28.0902 17.0142C27.8384 17.7154 27.5379 18.2224 27.1886 18.5351C26.8003 18.8587 26.303 19.0249 25.7963 19.0007C25.4256 19.0002 25.0553 18.9771 24.6876 18.9317V17.6677C24.9817 17.697 25.2323 17.7108 25.4446 17.7108C25.9425 17.7108 26.2453 17.5384 26.3497 17.1935L26.3584 17.1591H25.5943L23.5354 12.8481H25.3733L26.79 16.2382L27.7908 12.8481Z" fill="white"/>
<path d="M29.7797 18.9489V14.3811H31.3636V15.9761H32.8586V14.3811H34.4424V18.9489H32.8586V17.2659H31.3636V18.9489H29.7797Z" fill="white"/>
<path d="M38.0298 14.3811H40.3602V18.9489H38.8478V15.7071L37.7304 18.9489H35.3999V14.3811H36.9159V17.6229L38.0298 14.3811Z" fill="white"/>
<path d="M44.4415 16.5693C45.4034 16.667 45.8843 17.0303 45.8843 17.6591C45.8825 17.8345 45.8403 18.0073 45.761 18.1641C45.6817 18.321 45.5673 18.4579 45.4266 18.5644C45.1226 18.8218 44.6097 18.9501 43.888 18.9489H41.3104V14.3811H43.747C44.4107 14.3811 44.9032 14.4874 45.2246 14.7001C45.3727 14.786 45.4954 14.909 45.5803 15.0567C45.6652 15.2044 45.7094 15.3716 45.7085 15.5416C45.7085 16.0934 45.2861 16.4359 44.4415 16.5693ZM42.8942 15.5346V16.1348H43.6409C43.9628 16.1348 44.1247 16.033 44.1247 15.8296C44.1247 15.6261 43.9506 15.5346 43.5886 15.5346H42.8942ZM43.7731 17.8005C44.1212 17.8005 44.2953 17.6832 44.2953 17.4556C44.2953 17.228 44.1073 17.1107 43.7331 17.1107H42.889V17.8005H43.7731Z" fill="white"/>
<path d="M46.4116 16.6659C46.4116 15.8692 46.6437 15.272 47.1078 14.8743C47.5719 14.4766 48.1979 14.2776 48.9857 14.2776C49.7979 14.2776 50.4059 14.4927 50.8097 14.9226C51.2135 15.3525 51.4148 16.0348 51.4136 16.9694V17.1263H48.0041C48.1027 17.6804 48.4509 17.9568 49.0484 17.9557C49.2038 17.9664 49.3593 17.9356 49.4986 17.8664C49.6379 17.7972 49.7559 17.6923 49.8403 17.5625L51.3614 17.6505C51.2429 18.0826 50.9612 18.453 50.5748 18.6851C50.1108 18.9466 49.5817 19.0733 49.0484 19.0507C48.2362 19.0507 47.598 18.8547 47.1339 18.4627C46.6698 18.0707 46.429 17.4717 46.4116 16.6659ZM48.0041 16.1486H49.8507C49.7858 15.6336 49.4957 15.3755 48.9805 15.3743C48.7483 15.3546 48.5173 15.4241 48.3355 15.5687C48.1537 15.7131 48.035 15.9214 48.0041 16.1503V16.1486Z" fill="white"/>
<path d="M52.1638 20.6922V14.3811H53.6414V15.0881C53.7917 14.8302 54.0106 14.6182 54.2743 14.4753C54.5381 14.3324 54.8364 14.264 55.1363 14.2776C55.4104 14.2719 55.6818 14.3263 55.9322 14.4369C56.182 14.5475 56.4044 14.7116 56.5826 14.9174C56.9644 15.345 57.1556 15.9279 57.1556 16.6659C57.1556 17.4039 56.966 17.9844 56.588 18.4075C56.4119 18.615 56.1917 18.7807 55.9424 18.8923C55.6931 19.0039 55.4222 19.0586 55.1487 19.0524C54.8757 19.063 54.6049 19.0065 54.3593 18.8879C54.1138 18.7694 53.902 18.5924 53.7424 18.373V20.6922H52.1638ZM53.9373 15.8192C53.7671 16.0691 53.6762 16.3636 53.6762 16.665C53.6762 16.9665 53.7671 17.2609 53.9373 17.5108C54.0231 17.6108 54.1299 17.6911 54.25 17.7461C54.3701 17.8012 54.5009 17.8298 54.6334 17.8298C54.7659 17.8298 54.8967 17.8012 55.0168 17.7461C55.1374 17.6911 55.244 17.6108 55.3296 17.5108C55.4987 17.2606 55.5892 16.9662 55.5892 16.665C55.5892 16.3639 55.4987 16.0695 55.3296 15.8192C55.244 15.7193 55.1374 15.6389 55.0168 15.5839C54.8967 15.5288 54.7659 15.5003 54.6334 15.5003C54.5009 15.5003 54.3701 15.5288 54.25 15.5839C54.1299 15.6389 54.0231 15.7193 53.9373 15.8192Z" fill="white"/>
<path d="M58.422 18.4298C57.9799 18.0148 57.7581 17.4268 57.757 16.6658C57.7559 15.9047 57.9756 15.3162 58.4166 14.9C58.8566 14.485 59.458 14.2776 60.2216 14.2776C60.7983 14.2575 61.3658 14.4226 61.8402 14.7483C62.0513 14.8984 62.2268 15.0923 62.3544 15.3166C62.4815 15.5409 62.5579 15.7901 62.5784 16.0467L61.0481 16.1675C60.9415 15.7203 60.6658 15.4966 60.2216 15.4966C60.0939 15.4912 59.9674 15.5165 59.8522 15.5706C59.7369 15.6247 59.6368 15.7059 59.5603 15.8071C59.3869 16.0605 59.3035 16.3638 59.3234 16.6693C59.304 16.9754 59.3891 17.2792 59.5657 17.5314C59.6476 17.6351 59.7536 17.7175 59.8748 17.7716C59.9965 17.8257 60.1289 17.8497 60.2614 17.8418C60.7363 17.8418 61.0233 17.6061 61.1229 17.1348L62.6533 17.2314C62.6366 17.4961 62.5623 17.7541 62.4346 17.9873C62.307 18.2205 62.1299 18.4233 61.915 18.5815C61.432 18.9164 60.851 19.0848 60.2614 19.0609C59.4785 19.0552 58.8652 18.8448 58.422 18.4298Z" fill="white"/>
<path d="M63.2122 17.6505C63.2122 16.7779 63.895 16.2779 65.2605 16.1503L66.3051 16.0554V16.0365C66.3051 15.5996 66.079 15.3789 65.6277 15.3743C65.1926 15.3743 64.9579 15.533 64.9229 15.8537H63.475C63.4744 15.5886 63.5417 15.3276 63.6699 15.095C63.784 14.887 63.9563 14.7159 64.1658 14.6018C64.3779 14.4887 64.6046 14.4051 64.8394 14.3535C65.0968 14.3 65.3596 14.274 65.6229 14.2759C66.3385 14.2759 66.8936 14.4483 67.2883 14.7932C67.6825 15.1381 67.8806 15.664 67.8817 16.371V18.9575H66.4042V18.2419C66.2324 18.5068 65.9939 18.722 65.7112 18.8659C65.429 19.0097 65.1129 19.077 64.7958 19.061C64.3693 19.0879 63.9488 18.9486 63.6246 18.673C63.4863 18.5416 63.378 18.3823 63.3064 18.206C63.2353 18.0296 63.203 17.8402 63.2122 17.6505ZM64.7786 17.5625C64.7786 17.8419 64.9579 17.9816 65.3165 17.9816C65.5744 17.9869 65.8243 17.8915 66.0127 17.716C66.101 17.6409 66.1726 17.5479 66.2222 17.4432C66.2717 17.3386 66.2981 17.2246 66.2997 17.109V16.9797L65.4732 17.0573C65.0085 17.0987 64.777 17.2659 64.777 17.5625H64.7786Z" fill="white"/>
<path d="M69.3867 14.3811H73.423V18.9489H71.841V15.6726H70.7673C70.6849 16.7544 70.6176 17.4257 70.5654 17.6867C70.4421 18.3143 70.1928 18.7167 69.8169 18.8937C69.5972 18.9867 69.3598 19.0314 69.1207 19.0247C68.9172 19.0259 68.7136 19.0086 68.5133 18.973V17.7004C68.5833 17.7127 68.6544 17.7185 68.7255 17.7177C68.7669 17.7177 68.8079 17.7091 68.8456 17.6924C68.8832 17.6758 68.9172 17.6515 68.9446 17.6211C69.0206 17.5366 69.0749 17.4356 69.1035 17.3263C69.1444 17.1885 69.1783 17.0486 69.2042 16.9072C69.2306 16.7624 69.2532 16.5779 69.2704 16.3538C69.2876 16.1296 69.3016 15.9261 69.314 15.7433C69.3259 15.5605 69.3382 15.3347 69.3485 15.0639C69.3592 14.7932 69.3749 14.5621 69.3867 14.3811Z" fill="white"/>
<path d="M24.3843 25.7393C23.941 25.3243 23.7195 24.7357 23.7195 23.9736C23.7195 23.2115 23.941 22.6234 24.3843 22.2096C24.8252 21.7934 25.4262 21.586 26.1874 21.5871C26.7641 21.5666 27.332 21.7317 27.806 22.0579C28.0177 22.2074 28.1938 22.4012 28.3216 22.6256C28.4494 22.8499 28.5259 23.0994 28.5457 23.3563L27.0141 23.477C26.9097 23.0304 26.6329 22.8062 26.1874 22.8062C26.0603 22.801 25.9338 22.8265 25.8188 22.8806C25.7039 22.9346 25.604 23.0157 25.5278 23.1166C25.3545 23.37 25.2713 23.6733 25.2911 23.9788C25.2715 24.2849 25.3568 24.5887 25.533 24.841C25.6149 24.9448 25.7211 25.0273 25.8424 25.0813C25.9637 25.1354 26.0964 25.1595 26.2292 25.1513C26.7025 25.1513 26.9898 24.9157 27.0907 24.4443L28.6205 24.5409C28.6038 24.8055 28.5292 25.0634 28.4018 25.2966C28.2743 25.5298 28.0972 25.7326 27.8826 25.8911C27.3993 26.226 26.8184 26.3944 26.2292 26.3705C25.446 26.3647 24.831 26.1543 24.3843 25.7393Z" fill="white"/>
<path d="M29.3376 26.2566V21.6906H33.9566V26.2566H32.3729V22.9803H30.9301V26.2566H29.3376Z" fill="white"/>
<path d="M34.7211 23.9685C34.7211 23.173 34.9532 22.5763 35.4173 22.1786C35.8814 21.7808 36.5074 21.582 37.2952 21.582C38.1074 21.582 38.716 21.7969 39.1209 22.2269C39.5259 22.6568 39.7266 23.3391 39.7231 24.2737V24.4306H36.3136C36.4134 24.9824 36.7615 25.2583 37.3579 25.2583C37.5129 25.2689 37.6679 25.2381 37.8068 25.1693C37.9457 25.1005 38.0636 24.996 38.148 24.8669L39.6709 24.9531C39.552 25.3854 39.2696 25.7559 38.8825 25.9877C38.4188 26.2485 37.8906 26.3751 37.3579 26.3533C36.5457 26.3533 35.9075 26.1573 35.4434 25.7652C34.9792 25.3732 34.7385 24.7743 34.7211 23.9685ZM36.3136 23.4512H38.1602C38.0958 22.9339 37.8121 22.6752 37.29 22.6752C37.0565 22.656 36.8247 22.727 36.6427 22.8731C36.4608 23.0193 36.3429 23.2296 36.3136 23.4598V23.4512Z" fill="white"/>
<path d="M40.4748 26.2566V21.6906H42.0569V24.9668H43.4997V21.6906H45.0835V24.9668H45.7171V27.4499H44.2255V26.2549L40.4748 26.2566Z" fill="white"/>
<path d="M46.7683 25.7393C46.3239 25.3243 46.1023 24.7357 46.1035 23.9736C46.1046 23.2115 46.3245 22.6234 46.7631 22.2096C47.204 21.7934 47.805 21.586 48.5662 21.5871C49.1429 21.5666 49.7108 21.7317 50.1848 22.0579C50.3963 22.2077 50.5721 22.4015 50.6999 22.6258C50.8277 22.8502 50.9043 23.0995 50.9245 23.3563L49.3929 23.477C49.2885 23.0304 49.0118 22.8062 48.5662 22.8062C48.439 22.8007 48.3124 22.8261 48.1974 22.8802C48.0824 22.9343 47.9826 23.0155 47.9066 23.1166C47.7333 23.37 47.65 23.6733 47.6699 23.9788C47.6504 24.2849 47.7356 24.5887 47.9118 24.841C47.9936 24.9449 48.0998 25.0274 48.2211 25.0815C48.3424 25.1356 48.4752 25.1596 48.608 25.1513C49.0837 25.1513 49.3738 24.9157 49.4782 24.4443L51.008 24.5409C50.9914 24.8055 50.9167 25.0634 50.7892 25.2966C50.6618 25.5298 50.4847 25.7326 50.2701 25.8911C49.7862 26.226 49.2047 26.3944 48.6149 26.3705C47.8259 26.3647 47.2104 26.1543 46.7683 25.7393Z" fill="white"/>
<path d="M51.3456 22.9803V21.6906H55.9736V22.9803H54.4503V26.2566H52.8684V22.9803H51.3456Z" fill="white"/>
<path d="M56.6053 28V21.6906H58.0844V22.3976C58.2346 22.1396 58.4533 21.9275 58.7171 21.7845C58.9809 21.6416 59.2793 21.5733 59.5797 21.5871C59.8543 21.5804 60.1268 21.6343 60.3777 21.745C60.6292 21.8556 60.8521 22.0202 61.0309 22.2269C61.4126 22.6545 61.6033 23.2368 61.6016 23.9737C61.6006 24.7105 61.4116 25.2916 61.0346 25.717C60.8586 25.9242 60.6383 26.0896 60.3896 26.2013C60.1408 26.3129 59.8699 26.3678 59.5969 26.3619C59.3239 26.3726 59.0526 26.3162 58.8065 26.1976C58.561 26.079 58.3488 25.9021 58.1889 25.6825V28H56.6053ZM58.3784 23.1287C58.2093 23.379 58.1194 23.6734 58.1194 23.9745C58.1194 24.2757 58.2093 24.57 58.3784 24.8203C58.4646 24.9203 58.5712 25.0006 58.6913 25.0556C58.8113 25.1107 58.9422 25.1393 59.0746 25.1393C59.2071 25.1393 59.3379 25.1107 59.458 25.0556C59.5786 25.0006 59.6853 24.9203 59.7709 24.8203C59.94 24.57 60.0304 24.2757 60.0304 23.9745C60.0304 23.6734 59.94 23.379 59.7709 23.1287C59.6853 23.0288 59.5786 22.9484 59.458 22.8934C59.3379 22.8383 59.2071 22.8098 59.0746 22.8098C58.9422 22.8098 58.8113 22.8383 58.6913 22.8934C58.5712 22.9484 58.4646 23.0288 58.3784 23.1287Z" fill="white"/>
<path d="M62.8896 25.7169C62.4255 25.2882 62.1939 24.7071 62.1939 23.9736C62.1939 23.2402 62.4255 22.6597 62.8896 22.232C63.3538 21.8009 63.9741 21.586 64.7506 21.5871C65.5265 21.5883 66.1468 21.8032 66.6109 22.232C67.0751 22.6608 67.3072 23.2414 67.3072 23.9736C67.3072 24.7059 67.0751 25.287 66.6109 25.7169C66.1468 26.1469 65.5265 26.3619 64.7506 26.3619C63.9741 26.3619 63.3538 26.1469 62.8896 25.7169ZM64.0301 23.1304C63.8578 23.3775 63.7652 23.6707 63.7652 23.971C63.7652 24.2713 63.8578 24.5645 64.0301 24.8117C64.1195 24.9145 64.2299 24.997 64.3543 25.0536C64.4792 25.1101 64.6143 25.1394 64.7511 25.1394C64.8884 25.1394 65.0236 25.1101 65.1479 25.0536C65.2723 24.997 65.3833 24.9145 65.4726 24.8117C65.6439 24.5642 65.7354 24.2711 65.7354 23.971C65.7354 23.6709 65.6439 23.3779 65.4726 23.1304C65.3833 23.0276 65.2723 22.945 65.1479 22.8885C65.0236 22.832 64.8884 22.8027 64.7511 22.8027C64.6143 22.8027 64.4792 22.832 64.3543 22.8885C64.2299 22.945 64.1195 23.0276 64.0301 23.1304Z" fill="white"/>
<path d="M70.7059 21.6906H73.0364V26.2567H71.5244V23.0149L70.4071 26.2567H68.0696V21.6906H69.5816V24.9324L70.7059 21.6906ZM71.7226 20.806C71.4614 21.0647 71.0716 21.194 70.5568 21.194C70.0415 21.194 69.6516 21.0647 69.3905 20.806C69.1196 20.523 68.9726 20.1456 68.9813 19.7559H69.9925C70.0033 19.902 70.0571 20.0417 70.1476 20.1576C70.1971 20.2166 70.2596 20.2629 70.3312 20.2929C70.4023 20.3229 70.4793 20.3357 70.5568 20.3301C70.8906 20.3301 71.078 20.1381 71.1189 19.7542H72.1318C72.1404 20.1441 71.9939 20.5219 71.7242 20.806H71.7226Z" fill="white"/>
<path d="M6.1814 14.5035C4.41835 17.6401 4.27737 20.7456 4.4723 22.0907C4.88653 24.9255 6.17095 26.7205 7.21175 27.7465C5.36689 27.112 3.77787 26.0222 2.86065 25.0186C0.977497 22.9546 0.0602854 20.3232 0.208223 17.4022C0.338756 14.8156 1.29774 12.086 2.90938 9.72187C5.60708 5.76967 9.43258 1.42604 10.7135 0C11.3958 0.769058 12.8021 2.37616 14.3684 4.31087C14.9863 5.06959 15.9435 6.31631 16.5353 7.08879C10.5534 8.67865 7.60681 11.9653 6.1814 14.5035Z" fill="white"/>
<path d="M19.5441 23.2907C19.7266 21.6655 19.3523 20.0265 18.4814 18.6373C17.6106 17.2481 16.2937 16.1892 14.7423 15.6308C13.1909 15.0724 11.495 15.0468 9.92727 15.5582C8.35943 16.0695 7.01058 17.0882 6.09746 18.4505C6.78701 15.5062 8.52064 12.905 10.9829 11.1203C12.6868 9.86324 14.7875 8.92002 17.2258 8.31134C17.4329 8.59759 17.7706 9.07003 18.2927 9.82878C19.8852 12.1653 20.8337 14.857 20.9625 17.4159C21.092 19.4706 20.5981 21.5166 19.5441 23.2907Z" fill="white"/>
<path d="M18.3122 22.1424C18.3122 23.6973 17.6888 25.1885 16.579 26.288C15.4693 27.3875 13.9642 28.0052 12.3947 28.0052C12.1323 28.0049 11.8701 27.9882 11.6098 27.9552C12.8458 27.4758 13.8767 26.588 14.5279 25.4421C15.1791 24.2962 15.4107 22.9625 15.1835 21.6668C14.9562 20.3712 14.284 19.1931 13.2807 18.3321C12.2774 17.471 11.0047 16.9798 9.6779 16.9417C10.5793 16.4802 11.5855 16.256 12.5995 16.2908C13.6137 16.3256 14.6017 16.6182 15.4687 17.1404C16.3358 17.6627 17.0527 18.3971 17.5507 19.273C18.0487 20.1489 18.3109 21.1371 18.3122 22.1424Z" fill="white"/>
</g>
</g>
<defs>
<clipPath id="clip0_2836_941">
<rect width="73.2308" height="28" fill="white" transform="translate(0.192261)"/>
</clipPath>
</defs>
</svg>
