<svg width="36" height="28" viewBox="0 0 36 28" fill="none" xmlns="http://www.w3.org/2000/svg">
<g clip-path="url(#clip0_2834_3608)">
<path d="M15.6005 1.44463C11.8175 2.24888 8.39198 4.82548 6.67922 8.14676L6.42603 8.63824H6.9473C7.4239 8.63824 7.52815 8.56378 8.16858 7.5659C10.6111 3.76803 15.2579 1.62335 19.6962 2.23399C23.226 2.71058 26.4431 4.72122 28.3196 7.62548C28.9154 8.54888 29.0196 8.63824 29.4813 8.63824H30.0026L29.526 7.77441C27.6941 4.51271 24.5069 2.2042 20.709 1.42973C19.2941 1.13186 16.9856 1.14676 15.6005 1.44463Z" fill="white"/>
<path d="M20.2175 4.19995C20.1877 4.3042 19.9494 5.15314 19.7111 6.06165L19.2643 7.74463H20.0536H20.8281L21.2898 5.95739C21.5281 4.97442 21.7068 4.14037 21.6622 4.09569C21.4983 3.93186 20.277 4.02122 20.2175 4.19995Z" fill="white"/>
<path d="M15.1089 5.95739L14.6621 7.74463H15.4366H16.211L16.6579 5.95739L17.1196 4.17016H16.3451H15.5557L15.1089 5.95739Z" fill="white"/>
<path d="M17.7749 4.72122C17.7005 5.03399 17.5217 5.7191 17.3877 6.25527C17.2537 6.79144 17.1196 7.3425 17.0749 7.49144C17.0005 7.72973 17.0749 7.75952 17.7749 7.71484L18.5643 7.67016L18.892 6.4042C19.0707 5.7042 19.2643 4.91484 19.309 4.64675L19.4281 4.17016H18.6685C17.9239 4.17016 17.9239 4.17016 17.7749 4.72122Z" fill="white"/>
<path d="M0.930307 9.18935C0.930307 9.33829 1.25797 10.5149 1.66009 11.8106L2.37499 14.1638L1.79414 16.0553C1.48137 17.0979 1.12392 18.2596 1.00478 18.6468L0.796265 19.3617H18.192H35.5878L34.858 16.7404L34.1282 14.1191L34.8133 11.7659C35.1856 10.4702 35.4835 9.3085 35.4835 9.17446C35.4835 8.95106 34.0388 8.93616 18.2069 8.93616C1.85371 8.93616 0.930307 8.95106 0.930307 9.18935ZM34.3218 9.90425C34.3665 9.94893 34.1282 10.9021 33.8154 12.034L33.2197 14.0894L33.8154 16.234L34.3963 18.3936L26.309 18.4383C21.8558 18.4532 14.5729 18.4532 10.1197 18.4383L2.03243 18.3936L2.65797 16.2787L3.29839 14.1638L2.71754 12.2574C2.38988 11.2149 2.1218 10.2319 2.1218 10.083C2.1218 9.84467 2.98563 9.82978 18.1771 9.82978C27.009 9.82978 34.2771 9.85957 34.3218 9.90425Z" fill="white"/>
<path d="M9.00255 12.2127C8.37702 12.3617 7.69191 13.0021 7.4834 13.6425C7.2451 14.3574 7.51319 15.2063 8.15361 15.7723C8.61531 16.1744 8.79404 16.234 9.56851 16.234C10.3728 16.234 10.5217 16.1893 10.9983 15.7425C11.6089 15.1915 11.8472 14.3872 11.6387 13.6276C11.4749 13.0617 10.5962 12.2127 10.1643 12.2127C10.0153 12.2127 9.8068 12.1829 9.68765 12.1532C9.5834 12.1234 9.27063 12.1532 9.00255 12.2127ZM10.3132 13.4042C10.7153 13.8063 10.7153 14.6404 10.2834 15.0425C9.73234 15.5638 8.94297 15.4149 8.58553 14.7298C8.01957 13.6127 9.43446 12.5255 10.3132 13.4042Z" fill="white"/>
<path d="M28.6324 12.2276C28.3196 12.2872 27.9175 12.5553 27.6196 12.8829C27.1281 13.4042 27.1132 13.4787 27.1728 14.3425C27.2324 15.1468 27.2919 15.2808 27.7834 15.7276C28.2749 16.1744 28.4238 16.234 29.1685 16.234C30.1366 16.234 30.7026 15.951 31.0898 15.2957C31.4175 14.7446 31.4621 13.7319 31.1792 13.1957C30.7621 12.4361 29.6451 12.0042 28.6324 12.2276ZM30.077 13.4936C30.3749 13.7915 30.4345 13.9553 30.36 14.3425C30.0919 15.7276 28.1855 15.5936 28.1855 14.1936C28.1855 13.1659 29.3175 12.734 30.077 13.4936Z" fill="white"/>
<path d="M4.95154 14.2234V16.234H6.06856H7.18558V15.7872C7.18558 15.3702 7.15579 15.3404 6.58984 15.3404H5.99409V13.7766V12.2127H5.47281H4.95154V14.2234Z" fill="white"/>
<path d="M13.1431 12.4063C12.1601 12.9127 11.758 14.5659 12.4133 15.4C12.8154 15.9212 13.4558 16.234 14.0963 16.234C14.9303 16.234 15.0792 16.1149 15.0792 15.4744V14.8936L14.7069 15.1319C14.2601 15.4149 13.5005 15.2957 13.292 14.8936C13.0388 14.4319 13.1133 13.7319 13.4558 13.3893C13.7686 13.0766 14.2005 13.0617 14.826 13.3298C15.0643 13.434 15.0941 13.3744 15.0494 12.8681L15.0048 12.2872L14.2601 12.2425C13.858 12.2276 13.3516 12.3021 13.1431 12.4063Z" fill="white"/>
<path d="M16.6728 13.2106C16.4643 13.7766 16.1217 14.6702 15.9132 15.2212L15.526 16.234H16.0473C16.4792 16.234 16.5983 16.1595 16.7175 15.8617C16.8366 15.534 16.9409 15.4893 17.5813 15.4893C18.2069 15.4893 18.326 15.534 18.4749 15.8617C18.609 16.1446 18.7579 16.234 19.1005 16.234C19.3388 16.234 19.5473 16.1893 19.5473 16.1149C19.5473 16.0553 19.2345 15.1617 18.8473 14.1042L18.1324 12.2127H17.5962C17.06 12.2127 17.0452 12.2276 16.6728 13.2106ZM17.8792 14.2532C18.043 14.7298 18.0281 14.7446 17.5813 14.7446C17.2388 14.7446 17.1494 14.7 17.2239 14.5063C17.2686 14.3723 17.3579 14.1042 17.4026 13.8957C17.5217 13.4787 17.6558 13.5829 17.8792 14.2532Z" fill="white"/>
<path d="M19.994 13.7766C19.994 15.3255 20.0089 15.3702 20.4259 15.8021C20.7834 16.1446 20.9919 16.234 21.543 16.234C23.0621 16.234 23.4196 15.7425 23.4196 13.6276V12.2127H22.8983H22.377V13.6127C22.377 15.1468 22.2578 15.4 21.5281 15.3106L21.111 15.2659L21.0366 13.7766L20.9621 12.2872L20.4855 12.2425L19.994 12.1978V13.7766Z" fill="white"/>
<path d="M24.1643 12.6595C24.1643 13.0617 24.209 13.1063 24.6111 13.1063H25.0579V14.6702V16.234H25.5047H25.9515V14.6702V13.1063H26.3983C26.8005 13.1063 26.8452 13.0617 26.8452 12.6595V12.2127H25.5047H24.1643V12.6595Z" fill="white"/>
<path d="M6.75368 20.2851C9.0473 24.8276 14.4835 27.7021 19.6218 27.0915C23.1962 26.6595 26.4133 24.8425 28.543 22.0574C29.1686 21.2234 29.9728 19.9425 29.9728 19.7638C29.9728 19.7042 29.7494 19.6595 29.4665 19.6595C29.0196 19.6595 28.9154 19.7489 28.4239 20.5532C26.875 23.0404 24.1196 25.0808 21.1856 25.8702C19.6962 26.2723 16.5537 26.2425 15.0345 25.7957C12.1154 24.9617 9.5239 23.0255 7.98985 20.5532C7.49836 19.7489 7.39411 19.6595 6.93241 19.6595H6.44092L6.75368 20.2851Z" fill="white"/>
</g>
<defs>
<clipPath id="clip0_2834_3608">
<rect width="34.8511" height="28" fill="white" transform="translate(0.78125)"/>
</clipPath>
</defs>
</svg>
