<svg width="1000" height="382" viewBox="0 0 1000 382" fill="none" xmlns="http://www.w3.org/2000/svg">
<g clip-path="url(#clip0_3133_241)">
<mask id="mask0_3133_241" style="mask-type:luminance" maskUnits="userSpaceOnUse" x="0" y="0" width="1000" height="382">
<path d="M1000 0H0V382H1000V0Z" fill="white"/>
</mask>
<g mask="url(#mask0_3133_241)">
<path d="M376.871 175.285H401.255L380.959 232.122C377.521 241.689 373.417 248.605 368.647 252.871C363.346 257.286 356.554 259.554 349.635 259.223C344.573 259.216 339.517 258.902 334.495 258.282V241.038C338.512 241.438 341.934 241.626 344.833 241.626C351.631 241.626 355.766 239.274 357.192 234.569L357.311 234.098H346.877L318.762 175.285H343.859L363.205 221.536L376.871 175.285Z" fill="white"/>
<path d="M404.031 258.517V196.2H425.659V217.96H446.074V196.2H467.701V258.517H446.074V235.557H425.659V258.517H404.031Z" fill="white"/>
<path d="M516.689 196.2H548.512V258.517H527.859V214.29L512.601 258.517H480.777V196.2H501.478V240.426L516.689 196.2Z" fill="white"/>
<path d="M604.243 226.053C617.379 227.386 623.946 232.342 623.946 240.921C623.921 243.314 623.346 245.671 622.263 247.811C621.179 249.952 619.618 251.819 617.696 253.271C613.544 256.784 606.541 258.533 596.686 258.517H561.488V196.2H594.76C603.824 196.2 610.549 197.65 614.938 200.552C616.96 201.723 618.635 203.401 619.795 205.416C620.954 207.431 621.558 209.713 621.546 212.032C621.546 219.56 615.778 224.233 604.243 226.053ZM583.116 211.937V220.125H593.311C597.707 220.125 599.918 218.736 599.918 215.961C599.918 213.185 597.541 211.937 592.598 211.937H583.116ZM595.117 242.85C599.871 242.85 602.247 241.25 602.247 238.145C602.247 235.04 599.68 233.44 594.571 233.44H583.044V242.85H595.117Z" fill="white"/>
<path d="M631.146 227.37C631.146 216.501 634.316 208.354 640.653 202.927C646.991 197.501 655.539 194.788 666.297 194.788C677.388 194.788 685.691 197.721 691.204 203.586C696.718 209.452 699.468 218.76 699.452 231.51V233.651H652.893C654.24 241.211 658.993 244.982 667.153 244.967C669.276 245.113 671.399 244.692 673.301 243.749C675.203 242.805 676.815 241.373 677.967 239.603L698.738 240.802C697.12 246.698 693.274 251.751 687.996 254.918C681.66 258.486 674.436 260.215 667.153 259.905C656.062 259.905 647.348 257.231 641.01 251.883C634.672 246.535 631.385 238.364 631.146 227.37ZM652.893 220.313H678.11C677.222 213.287 673.261 209.766 666.226 209.75C663.055 209.48 659.901 210.429 657.418 212.401C654.935 214.372 653.315 217.213 652.893 220.336V220.313Z" fill="white"/>
<path d="M709.696 282.301V196.2H729.873V205.845C731.925 202.327 734.915 199.434 738.515 197.485C742.118 195.534 746.191 194.602 750.287 194.788C754.029 194.71 757.735 195.452 761.154 196.961C764.566 198.47 767.603 200.708 770.037 203.516C775.25 209.35 777.86 217.302 777.86 227.37C777.86 237.439 775.272 245.359 770.11 251.131C767.706 253.962 764.699 256.222 761.294 257.745C757.89 259.268 754.191 260.014 750.456 259.929C746.728 260.073 743.029 259.303 739.676 257.685C736.324 256.068 733.431 253.654 731.251 250.66V282.301H709.696ZM733.913 215.819C731.59 219.229 730.349 223.246 730.349 227.359C730.349 231.471 731.59 235.489 733.913 238.898C735.085 240.261 736.544 241.357 738.184 242.108C739.824 242.86 741.61 243.249 743.419 243.249C745.228 243.249 747.015 242.86 748.654 242.108C750.301 241.357 751.757 240.261 752.926 238.898C755.235 235.483 756.471 231.467 756.471 227.359C756.471 223.25 755.235 219.234 752.926 215.819C751.757 214.456 750.301 213.36 748.654 212.609C747.015 211.857 745.228 211.468 743.419 211.468C741.61 211.468 739.824 211.857 738.184 212.609C736.544 213.36 735.085 214.456 733.913 215.819Z" fill="white"/>
<path d="M795.154 251.435C789.118 245.774 786.088 237.752 786.074 227.369C786.059 216.986 789.059 208.957 795.081 203.279C801.088 197.617 809.302 194.787 819.728 194.787C827.603 194.514 835.353 196.766 841.831 201.209C844.713 203.256 847.11 205.902 848.853 208.963C850.588 212.022 851.632 215.422 851.912 218.923L831.015 220.57C829.559 214.469 825.794 211.419 819.728 211.419C817.985 211.344 816.257 211.69 814.684 212.428C813.11 213.165 811.743 214.273 810.699 215.654C808.331 219.111 807.191 223.249 807.463 227.416C807.199 231.593 808.36 235.738 810.772 239.178C811.89 240.593 813.338 241.718 814.993 242.455C816.654 243.193 818.463 243.521 820.272 243.413C826.757 243.413 830.677 240.198 832.037 233.768L852.934 235.085C852.706 238.696 851.691 242.217 849.949 245.398C848.206 248.58 845.787 251.346 842.853 253.505C836.257 258.074 828.324 260.372 820.272 260.045C809.581 259.967 801.206 257.097 795.154 251.435Z" fill="white"/>
<path d="M860.566 240.802C860.566 228.899 869.89 222.076 888.537 220.336L902.802 219.042V218.783C902.802 212.823 899.713 209.812 893.552 209.749C887.61 209.749 884.404 211.914 883.927 216.29H864.154C864.147 212.672 865.066 209.113 866.816 205.938C868.375 203.101 870.728 200.767 873.588 199.21C876.485 197.666 879.581 196.526 882.787 195.823C886.302 195.093 889.89 194.738 893.485 194.764C903.257 194.764 910.838 197.116 916.228 201.821C921.61 206.527 924.316 213.702 924.331 223.347V258.634H904.154V248.871C901.809 252.485 898.552 255.421 894.691 257.384C890.838 259.346 886.522 260.265 882.191 260.046C876.368 260.413 870.625 258.513 866.199 254.753C864.309 252.959 862.831 250.787 861.853 248.381C860.882 245.975 860.441 243.391 860.566 240.802ZM881.956 239.603C881.956 243.414 884.404 245.319 889.302 245.319C892.824 245.392 896.235 244.091 898.809 241.696C900.015 240.672 900.993 239.403 901.669 237.975C902.346 236.547 902.706 234.992 902.728 233.416V231.651L891.441 232.71C885.096 233.275 881.934 235.556 881.934 239.603H881.956Z" fill="white"/>
<path d="M944.882 196.2H1000V258.517H978.397V213.819H963.735C962.61 228.578 961.691 237.737 960.978 241.297C959.294 249.86 955.89 255.349 950.757 257.765C947.757 259.034 944.515 259.643 941.25 259.552C938.471 259.568 935.691 259.333 932.956 258.847V241.485C933.912 241.652 934.882 241.731 935.853 241.72C936.419 241.72 936.978 241.603 937.493 241.376C938.007 241.149 938.471 240.817 938.846 240.403C939.882 239.25 940.625 237.871 941.015 236.38C941.573 234.501 942.037 232.593 942.39 230.663C942.75 228.687 943.059 226.171 943.294 223.112C943.529 220.054 943.721 217.278 943.89 214.784C944.051 212.291 944.221 209.209 944.36 205.515C944.507 201.822 944.721 198.669 944.882 196.2Z" fill="white"/>
<path d="M330.354 351.158C324.301 345.496 321.275 337.466 321.275 327.068C321.275 316.671 324.301 308.648 330.354 303.002C336.374 297.325 344.582 294.494 354.976 294.51C362.851 294.23 370.606 296.483 377.079 300.932C379.97 302.972 382.374 305.616 384.119 308.677C385.865 311.739 386.909 315.142 387.179 318.646L366.265 320.293C364.839 314.2 361.06 311.142 354.976 311.142C353.24 311.071 351.512 311.419 349.943 312.157C348.374 312.894 347.009 314 345.968 315.376C343.602 318.834 342.465 322.972 342.736 327.139C342.469 331.316 343.633 335.46 346.04 338.902C347.158 340.318 348.608 341.443 350.264 342.181C351.921 342.919 353.733 343.247 355.546 343.136C362.01 343.136 365.932 339.921 367.31 333.49L388.201 334.808C387.974 338.418 386.954 341.936 385.214 345.117C383.474 348.299 381.054 351.066 378.124 353.228C371.525 357.797 363.593 360.095 355.546 359.768C344.851 359.69 336.454 356.82 330.354 351.158Z" fill="white"/>
<path d="M397.993 358.215V295.921H461.068V358.215H439.441V313.518H419.739V358.215H397.993Z" fill="white"/>
<path d="M471.507 326.998C471.507 316.145 474.676 308.006 481.014 302.579C487.351 297.152 495.9 294.439 506.658 294.439C517.749 294.439 526.06 297.372 531.589 303.238C537.119 309.103 539.86 318.411 539.812 331.162V333.303H493.254C494.616 340.831 499.37 344.595 507.514 344.595C509.63 344.739 511.747 344.32 513.644 343.381C515.541 342.442 517.151 341.017 518.304 339.255L539.099 340.431C537.475 346.33 533.62 351.384 528.333 354.546C522.001 358.104 514.788 359.832 507.514 359.534C496.423 359.534 487.708 356.86 481.371 351.511C475.032 346.163 471.745 337.993 471.507 326.998ZM493.254 319.941H518.47C517.59 312.883 513.717 309.354 506.587 309.354C503.399 309.093 500.232 310.06 497.748 312.055C495.263 314.049 493.654 316.917 493.254 320.058V319.941Z" fill="white"/>
<path d="M550.077 358.215V295.921H571.682V340.619H591.384V295.921H613.011V340.619H621.663V374.495H601.294V358.192L550.077 358.215Z" fill="white"/>
<path d="M636.018 351.158C629.949 345.496 626.923 337.466 626.939 327.068C626.954 316.671 629.957 308.648 635.946 303.002C641.967 297.325 650.174 294.494 660.568 294.51C668.443 294.23 676.199 296.483 682.671 300.932C685.56 302.976 687.96 305.621 689.705 308.681C691.45 311.741 692.497 315.143 692.772 318.646L671.857 320.293C670.432 314.2 666.653 311.142 660.568 311.142C658.832 311.066 657.103 311.413 655.533 312.151C653.962 312.889 652.599 313.997 651.561 315.376C649.195 318.834 648.058 322.972 648.329 327.139C648.063 331.316 649.226 335.46 651.632 338.902C652.749 340.319 654.199 341.446 655.856 342.184C657.513 342.921 659.326 343.248 661.139 343.136C667.635 343.136 671.596 339.921 673.022 333.49L693.913 334.808C693.685 338.418 692.665 341.936 690.925 345.117C689.185 348.299 686.766 351.066 683.836 353.228C677.228 357.797 669.288 360.095 661.234 359.768C650.46 359.69 642.054 356.82 636.018 351.158Z" fill="white"/>
<path d="M698.522 313.518V295.921H761.721V313.518H740.919V358.215H719.318V313.518H698.522Z" fill="white"/>
<path d="M770.346 382V295.922H790.544V305.567C792.596 302.047 795.581 299.154 799.184 297.203C802.787 295.253 806.86 294.321 810.963 294.51C814.713 294.418 818.434 295.154 821.86 296.663C825.294 298.173 828.338 300.419 830.779 303.238C835.993 309.073 838.596 317.016 838.573 327.069C838.559 337.122 835.978 345.05 830.831 350.853C828.426 353.68 825.419 355.937 822.022 357.46C818.625 358.983 814.926 359.732 811.198 359.652C807.471 359.798 803.765 359.028 800.404 357.41C797.051 355.793 794.154 353.379 791.971 350.382V382H770.346ZM794.559 315.542C792.25 318.956 791.022 322.972 791.022 327.081C791.022 331.19 792.25 335.205 794.559 338.62C795.735 339.984 797.191 341.079 798.831 341.83C800.471 342.582 802.257 342.971 804.066 342.971C805.875 342.971 807.662 342.582 809.301 341.83C810.949 341.079 812.404 339.984 813.574 338.62C815.882 335.205 817.118 331.19 817.118 327.081C817.118 322.972 815.882 318.956 813.574 315.542C812.404 314.178 810.949 313.082 809.301 312.331C807.662 311.58 805.875 311.19 804.066 311.19C802.257 311.19 800.471 311.58 798.831 312.331C797.191 313.082 795.735 314.178 794.559 315.542Z" fill="white"/>
<path d="M856.162 350.852C849.824 345.002 846.662 337.074 846.662 327.068C846.662 317.062 849.824 309.142 856.162 303.308C862.5 297.426 870.971 294.494 881.573 294.509C892.169 294.525 900.64 297.458 906.978 303.308C913.316 309.158 916.485 317.078 916.485 327.068C916.485 337.058 913.316 344.986 906.978 350.852C900.64 356.718 892.169 359.651 881.573 359.651C870.971 359.651 862.5 356.718 856.162 350.852ZM871.735 315.565C869.382 318.936 868.118 322.936 868.118 327.033C868.118 331.13 869.382 335.13 871.735 338.502C872.956 339.904 874.463 341.03 876.162 341.802C877.868 342.574 879.713 342.973 881.581 342.973C883.456 342.973 885.301 342.574 887 341.802C888.699 341.03 890.213 339.904 891.434 338.502C893.772 335.125 895.022 331.127 895.022 327.033C895.022 322.939 893.772 318.941 891.434 315.565C890.213 314.162 888.699 313.036 887 312.264C885.301 311.493 883.456 311.093 881.581 311.093C879.713 311.093 877.868 311.493 876.162 312.264C874.463 313.036 872.956 314.162 871.735 315.565Z" fill="white"/>
<path d="M962.897 295.921H994.721V358.216H974.074V313.989L958.816 358.216H926.897V295.921H947.544V340.149L962.897 295.921ZM976.779 283.853C973.213 287.382 967.89 289.147 960.86 289.147C953.824 289.147 948.5 287.382 944.934 283.853C941.235 279.993 939.228 274.844 939.346 269.526H953.154C953.302 271.52 954.037 273.427 955.272 275.007C955.949 275.812 956.802 276.444 957.779 276.854C958.75 277.263 959.802 277.437 960.86 277.36C965.419 277.36 967.978 274.741 968.537 269.503H982.368C982.485 274.823 980.485 279.977 976.802 283.853H976.779Z" fill="white"/>
<path d="M81.7845 197.869C57.7093 240.661 55.7842 283.03 58.446 301.38C64.1025 340.055 81.6419 364.544 95.8544 378.542C70.662 369.885 48.9632 355.017 36.4382 341.325C10.7229 313.166 -1.8021 277.267 0.218061 237.415C2.00055 202.127 15.0959 164.887 37.1037 132.634C73.9419 78.7148 126.181 19.4553 143.673 0C152.989 10.4921 172.193 32.4175 193.582 58.8126C202.02 69.1637 215.091 86.1726 223.172 96.7114C141.486 118.402 101.249 163.24 81.7845 197.869Z" fill="white"/>
<path d="M264.258 317.752C266.75 295.578 261.639 273.219 249.747 254.266C237.855 235.314 219.872 220.867 198.688 213.249C177.502 205.63 154.345 205.281 132.936 212.258C111.526 219.234 93.1074 233.132 80.6382 251.717C90.0544 211.548 113.728 176.06 147.351 151.713C170.618 134.562 199.304 121.694 232.601 113.39C235.429 117.295 240.04 123.741 247.17 134.092C268.917 165.969 281.869 202.691 283.628 237.603C285.396 265.634 278.651 293.548 264.258 317.752Z" fill="white"/>
<path d="M247.437 302.085C247.437 323.299 238.924 343.643 223.769 358.643C208.615 373.643 188.062 382.071 166.63 382.071C163.046 382.067 159.467 381.839 155.912 381.388C172.79 374.848 186.868 362.736 195.76 347.102C204.653 331.469 207.815 313.273 204.712 295.597C201.608 277.921 192.429 261.849 178.729 250.102C165.029 238.354 147.649 231.653 129.531 231.134C141.84 224.837 155.579 221.778 169.427 222.253C183.276 222.728 196.768 226.719 208.607 233.844C220.448 240.97 230.237 250.988 237.037 262.939C243.837 274.889 247.418 288.37 247.437 302.085Z" fill="white"/>
</g>
</g>
<defs>
<clipPath id="clip0_3133_241">
<rect width="1000" height="382" fill="white"/>
</clipPath>
</defs>
</svg>
