<svg width="103" height="13" viewBox="0 0 103 13" fill="none" xmlns="http://www.w3.org/2000/svg">
<g clip-path="url(#clip0_2834_3553)">
<path d="M8.13263 7.89072L10.8678 12.3158H7.91779L5.62654 8.14853C3.79351 8.14853 3.5071 8.14853 3.5071 8.14853V12.3158H0.943726V0.730472H6.2996C8.81999 0.730472 10.3666 2.54918 10.3666 4.46813C10.3666 5.94314 9.49305 7.37516 8.13263 7.89072ZM3.5071 5.90018H6.50009C7.38796 5.90018 8.11833 5.356 8.11833 4.46813C8.11833 3.56594 7.38796 2.97879 6.50009 2.97879H3.5071V5.90018ZM19.4335 0.716151H21.7105V7.87641C21.7105 10.4254 20.2928 12.5306 16.9418 12.5306C13.6481 12.5306 12.1873 10.4254 12.1873 7.87641V0.716151H14.45V7.84775V7.93368C14.45 9.75238 15.8104 10.2536 16.9418 10.2536C18.0874 10.2536 19.4335 9.75238 19.4335 7.91938V7.84775V0.716151ZM26.2102 0.730472V5.11255H31.0934V0.730472H33.6711V12.3158H31.0934V7.4325H26.2102V12.3158H23.6468V0.730472H26.2102ZM42.8359 0.716151H45.1128V7.87641C45.1128 10.4254 43.6951 12.5306 40.3441 12.5306C37.0504 12.5306 35.5897 10.4254 35.5897 7.87641V0.716151H37.8523V7.84775V7.93368C37.8523 9.75238 39.2128 10.2536 40.3441 10.2536C41.4897 10.2536 42.8359 9.75238 42.8359 7.91938V7.84775V0.716151ZM55.0973 0.730472H57.4745V12.3158H55.0973L49.4836 4.43949L49.412 12.3158H47.0491V0.730472H49.412L55.0973 8.54947V0.730472ZM58.9679 0.730472H69.6078V3.0504H65.5697V12.3158H63.0063V3.0504H58.9679V0.730472ZM71.1089 0.730472H79.3858V3.0504H73.6145V5.11255L78.4266 5.14119V7.4468L73.6145 7.4325V10.0102H79.3858V12.3158H71.1089V0.730472ZM88.6213 7.89072L91.3568 12.3158H88.4065L86.115 8.14853C84.282 8.14853 83.996 8.14853 83.996 8.14853V12.3158H81.4323V0.730472H86.7883C89.3089 0.730472 90.8553 2.54918 90.8553 4.46813C90.8553 5.94314 89.9815 7.37516 88.6213 7.89072ZM83.996 5.90018H86.9888C87.8769 5.90018 88.6069 5.356 88.6069 4.46813C88.6069 3.56594 87.8769 2.97879 86.9888 2.97879H83.996V5.90018ZM97.7473 5.38464C99.609 5.79994 101.915 6.31548 101.915 8.63541C101.915 10.9267 100.182 12.5306 96.8455 12.5306C94.0669 12.5306 92.3345 10.9124 92.3345 8.83588V8.60674H95.0837V8.83588C95.0837 9.83832 96.1579 10.182 97.2321 10.182C98.2488 10.182 99.2799 9.88129 99.2799 8.83588C99.2799 7.97665 98.0484 7.69024 96.6163 7.34656C94.7977 6.91695 92.5206 6.37276 92.5206 4.21036C92.5206 1.96204 94.3967 0.501343 97.2889 0.501343C99.9525 0.501343 101.814 2.03364 101.814 4.21036V4.43949H99.2799V4.21036C99.2799 3.33681 98.1339 2.80695 97.0316 2.80695C96.2865 2.80695 95.1986 3.16496 95.1986 3.99555C95.1986 4.81182 96.3727 5.08391 97.7473 5.38464Z" fill="white"/>
</g>
<defs>
<clipPath id="clip0_2834_3553">
<rect width="101.947" height="13" fill="white" transform="translate(0.632324)"/>
</clipPath>
</defs>
</svg>
