<svg width="1000" height="128" viewBox="0 0 1000 128" fill="none" xmlns="http://www.w3.org/2000/svg">
<path d="M73.57 77.6934L100.4 121.263H71.4626L48.9878 80.2319C31.0077 80.2319 28.1983 80.2319 28.1983 80.2319V121.263H3.05417V7.19256H55.5899C80.3123 7.19256 95.4834 25.0998 95.4834 43.9941C95.4834 58.5173 86.9143 72.6172 73.57 77.6934ZM28.1983 58.0943H57.5565C66.2656 58.0943 73.4297 52.7362 73.4297 43.9941C73.4297 35.111 66.2656 29.3299 57.5565 29.3299H28.1983V58.0943ZM184.42 7.05156H206.755V77.5526C206.755 102.651 192.849 123.379 159.979 123.379C127.671 123.379 113.342 102.651 113.342 77.5526V7.05156H135.537V77.2703V78.1165C135.537 96.0237 148.881 100.959 159.979 100.959C171.216 100.959 184.42 96.0237 184.42 77.9757V77.2703V7.05156ZM250.892 7.19256V50.3392H298.792V7.19256H324.077V121.263H298.792V73.1817H250.892V121.263H225.748V7.19256H250.892ZM413.973 7.05156H436.308V77.5526C436.308 102.651 422.402 123.379 389.532 123.379C357.224 123.379 342.896 102.651 342.896 77.5526V7.05156H365.09V77.2703V78.1165C365.09 96.0237 378.434 100.959 389.532 100.959C400.769 100.959 413.973 96.0237 413.973 77.9757V77.2703V7.05156ZM534.245 7.19256H557.563V121.263H534.245L479.181 43.7121L478.479 121.263H455.301V7.19256H478.479L534.245 84.1796V7.19256ZM572.212 7.19256H676.579V30.0349H636.969V121.263H611.825V30.0349H572.212V7.19256ZM691.303 7.19256H772.491V30.0349H715.881V50.3392L763.082 50.6212V73.3225L715.881 73.1817V98.5621H772.491V121.263H691.303V7.19256ZM863.082 77.6934L889.914 121.263H860.975L838.498 80.2319C820.518 80.2319 817.713 80.2319 817.713 80.2319V121.263H792.565V7.19256H845.102C869.827 7.19256 884.995 25.0998 884.995 43.9941C884.995 58.5173 876.424 72.6172 863.082 77.6934ZM817.713 58.0943H847.069C855.78 58.0943 862.941 52.7362 862.941 43.9941C862.941 35.111 855.78 29.3299 847.069 29.3299H817.713V58.0943ZM952.599 53.0182C970.861 57.1073 993.478 62.1834 993.478 85.0258C993.478 107.586 976.478 123.379 943.753 123.379C916.498 123.379 899.505 107.445 899.505 86.9997V84.7435H926.471V86.9997C926.471 96.8698 937.008 100.254 947.545 100.254C957.518 100.254 967.632 97.2929 967.632 86.9997C967.632 78.5396 955.552 75.7195 941.505 72.3356C923.666 68.1055 901.33 62.7474 901.33 41.4561C901.33 19.3187 919.733 4.93652 948.102 4.93652C974.23 4.93652 992.491 20.0238 992.491 41.4561V43.7121H967.632V41.4561C967.632 32.8549 956.391 27.6379 945.579 27.6379C938.27 27.6379 927.599 31.1629 927.599 39.341C927.599 47.3782 939.116 50.0572 952.599 53.0182Z" fill="white"/>
</svg>
