<svg width="63" height="28" viewBox="0 0 63 28" fill="none" xmlns="http://www.w3.org/2000/svg">
<g clip-path="url(#clip0_2834_1179)">
<path fill-rule="evenodd" clip-rule="evenodd" d="M12.1991 -0.0534058C12.306 -0.0534058 12.4129 -0.0534058 12.5198 -0.0534058C12.1873 1.01497 11.831 2.08368 11.4508 3.1527C11.2472 3.45233 11.069 3.77294 10.9163 4.11453C10.7061 3.99352 10.5101 4.02915 10.3284 4.2214C10.2525 4.06395 10.1278 3.99271 9.95425 4.00766C9.9479 3.76566 10.037 3.73004 10.2215 3.90079C10.389 3.75587 10.585 3.68462 10.8094 3.68705C10.7079 3.41262 10.7079 3.14544 10.8094 2.88553C10.7425 2.80533 10.6891 2.71626 10.6491 2.61835C10.5422 2.76084 10.4353 2.76084 10.3284 2.61835C10.1546 2.89917 9.94083 3.14853 9.687 3.36644C9.61391 3.22923 9.63173 3.10456 9.74045 2.9924C9.59942 2.97156 9.4569 2.98937 9.31287 3.04583C10.1324 2.19087 10.9519 1.33591 11.7715 0.480945C11.914 0.302828 12.0566 0.124712 12.1991 -0.0534058Z" fill="white"/>
<path opacity="0.788" fill-rule="evenodd" clip-rule="evenodd" d="M11.7708 0.48094C10.9514 1.3359 10.1321 2.19086 9.31277 3.04583C8.77842 3.54456 8.24407 4.04328 7.70972 4.54201C8.92918 3.1619 10.2116 1.82602 11.557 0.534375C11.6205 0.484751 11.6918 0.466939 11.7708 0.48094Z" fill="white"/>
<path fill-rule="evenodd" clip-rule="evenodd" d="M12.5192 -0.0534058C12.5905 -0.0534058 12.6617 -0.0534058 12.733 -0.0534058C12.8749 0.688814 12.9818 1.43691 13.0536 2.19087C12.9744 2.71188 12.8853 3.24623 12.7864 3.79392C12.7633 3.59259 12.692 3.41447 12.5726 3.25957C12.5013 3.54456 12.4301 3.54456 12.3588 3.25957C12.261 3.34805 12.1898 3.45492 12.145 3.58018C11.904 3.44547 11.6723 3.30297 11.4502 3.1527C11.8304 2.08368 12.1867 1.01497 12.5192 -0.0534058Z" fill="white"/>
<path fill-rule="evenodd" clip-rule="evenodd" d="M13.0538 2.19086C13.0849 2.87728 13.0494 3.55414 12.9469 4.22139C12.8476 4.56075 12.7586 4.91698 12.6797 5.29009C12.6344 5.0747 12.5452 4.87877 12.4125 4.70231C12.5515 4.49506 12.4803 4.37039 12.1987 4.32826C12.0384 4.60399 11.8781 4.88898 11.7176 5.18322C11.6767 5.1238 11.6232 5.08818 11.5573 5.07635C11.6022 4.84402 11.6022 4.63028 11.5573 4.43513C11.3095 4.43973 11.0601 4.47536 10.809 4.542C10.8018 4.38611 10.8374 4.24361 10.9159 4.11452C11.0686 3.77293 11.2468 3.45232 11.4504 3.15269C11.6725 3.30296 11.9042 3.44546 12.1452 3.58017C12.19 3.45491 12.2612 3.34804 12.359 3.25956C12.4303 3.54455 12.5015 3.54455 12.5728 3.25956C12.6922 3.41446 12.7635 3.59258 12.7866 3.79391C12.8855 3.24622 12.9746 2.71187 13.0538 2.19086Z" fill="white"/>
<path fill-rule="evenodd" clip-rule="evenodd" d="M9.95468 4.00766C9.48839 4.36664 8.98954 4.68725 8.45813 4.96949C8.30093 4.87539 8.21186 4.73289 8.19088 4.54201C8.07981 4.67133 7.95509 4.77821 7.81675 4.86262C7.65266 4.95392 7.51012 4.95392 7.38916 4.86262C7.53169 4.79137 7.63858 4.6845 7.70985 4.54201C8.24433 4.04328 8.77882 3.54456 9.3133 3.04583C9.45733 2.98937 9.59986 2.97155 9.74088 2.99239C9.63216 3.10455 9.61434 3.22923 9.68744 3.36644C9.94126 3.14853 10.1551 2.89917 10.3288 2.61835C10.4357 2.76084 10.5426 2.76084 10.6495 2.61835C10.6895 2.71626 10.743 2.80533 10.8098 2.88552C10.7083 3.14544 10.7083 3.41262 10.8098 3.68705C10.5854 3.68461 10.3894 3.75586 10.2219 3.90079C10.0374 3.73003 9.94833 3.76565 9.95468 4.00766Z" fill="white"/>
<path fill-rule="evenodd" clip-rule="evenodd" d="M9.95459 4.00762C10.1282 3.99267 10.2529 4.06391 10.3287 4.22136C10.5104 4.02911 10.7064 3.99348 10.9167 4.11449C10.8382 4.24358 10.8026 4.38608 10.8098 4.54197C10.6156 4.71493 10.4731 4.92867 10.3822 5.18319C10.2757 5.19236 10.1866 5.15673 10.1149 5.07632C9.62576 5.30189 9.14473 5.55125 8.67184 5.82442C8.31448 5.76822 7.97597 5.66135 7.65632 5.5038C7.62069 5.53942 7.58505 5.57506 7.54942 5.61067C7.47815 5.46818 7.47815 5.32568 7.54942 5.18319C7.66113 5.08985 7.75021 4.98298 7.81666 4.86258C7.95501 4.77817 8.07973 4.6713 8.1908 4.54197C8.21178 4.73285 8.30085 4.87535 8.45804 4.96945C8.98946 4.68721 9.48831 4.3666 9.95459 4.00762Z" fill="white"/>
<path opacity="0.639" fill-rule="evenodd" clip-rule="evenodd" d="M7.70985 4.54199C7.63858 4.68448 7.53169 4.79135 7.38916 4.8626C7.38916 4.64886 7.49606 4.54199 7.70985 4.54199Z" fill="white"/>
<path fill-rule="evenodd" clip-rule="evenodd" d="M12.947 4.22137C12.9336 4.92648 12.8267 5.60333 12.6263 6.25191C12.5132 6.36949 12.424 6.51199 12.359 6.67939C12.336 6.47806 12.2647 6.29994 12.1453 6.14504C11.865 6.23276 11.5621 6.25057 11.2366 6.19847C11.1472 6.30655 11.1116 6.43123 11.1297 6.57252C10.9872 6.57252 10.8447 6.57252 10.7021 6.57252C10.7589 6.35407 10.8836 6.17596 11.0763 6.03817C11.0665 5.61631 11.2269 5.2957 11.5573 5.07634C11.6233 5.08817 11.6767 5.12379 11.7177 5.18321C11.8781 4.88896 12.0385 4.60397 12.1987 4.32824C12.4804 4.37037 12.5516 4.49505 12.4125 4.70229C12.5453 4.87875 12.6344 5.07468 12.6797 5.29008C12.7586 4.91696 12.8477 4.56073 12.947 4.22137Z" fill="white"/>
<path fill-rule="evenodd" clip-rule="evenodd" d="M7.38916 4.86261C7.5101 4.95391 7.6526 4.95391 7.81664 4.86261C7.7502 4.98301 7.66115 5.08988 7.54947 5.18322C7.47822 5.32571 7.47822 5.46821 7.54947 5.6107C7.58509 5.57508 7.62072 5.53945 7.65634 5.50383C7.97591 5.66138 8.31434 5.76825 8.67161 5.82444C9.14438 5.55128 9.62529 5.30192 10.1144 5.07635C10.186 5.15676 10.2751 5.19239 10.3815 5.18322C10.3459 5.25447 10.3103 5.32571 10.2747 5.39696C10.1622 5.38098 10.0554 5.3988 9.95405 5.4504C9.8828 5.66414 9.74031 5.80663 9.52657 5.87788C8.5491 6.00483 7.62289 6.28982 6.74794 6.73284C6.60545 6.80409 6.46295 6.80409 6.32046 6.73284C6.44824 6.66291 6.44824 6.60948 6.32046 6.57253C6.1078 6.71929 5.87624 6.82616 5.6258 6.89314C5.57618 6.82962 5.55837 6.75837 5.57237 6.6794C6.14234 6.03818 6.74794 5.43258 7.38916 4.86261Z" fill="white"/>
<path fill-rule="evenodd" clip-rule="evenodd" d="M11.5579 5.07634C11.2275 5.2957 11.0671 5.61631 11.0769 6.03817C10.8842 6.17596 10.7595 6.35407 10.7027 6.57252C10.5274 6.64167 10.3848 6.74854 10.2751 6.89314C9.53937 6.8468 8.82672 6.91805 8.13721 7.10688C8.57752 6.75066 9.07637 6.48348 9.63376 6.30535C9.87102 6.01543 10.0848 5.71264 10.2751 5.39695C10.3108 5.3257 10.3464 5.25446 10.382 5.18321C10.473 4.92869 10.6155 4.71495 10.8096 4.54199C11.0607 4.47535 11.3101 4.43972 11.5579 4.43512C11.6028 4.63026 11.6028 4.84401 11.5579 5.07634Z" fill="white"/>
<path fill-rule="evenodd" clip-rule="evenodd" d="M12.6266 6.25189C12.5364 6.84427 12.3227 7.37862 11.9852 7.85494C11.8169 7.90166 11.6922 8.00853 11.611 8.17555C11.1845 8.01069 10.7569 7.83256 10.3283 7.6412C10.1212 7.9199 9.92524 7.9199 9.74036 7.6412C9.96 7.4216 10.1382 7.17222 10.2748 6.89311C10.3845 6.74852 10.5271 6.64165 10.7024 6.5725C10.845 6.5725 10.9875 6.5725 11.13 6.5725C11.1118 6.43121 11.1474 6.30653 11.2369 6.19845C11.5624 6.25055 11.8652 6.23274 12.1455 6.14502C12.2649 6.29992 12.3362 6.47804 12.3593 6.67937C12.4243 6.51197 12.5135 6.36947 12.6266 6.25189Z" fill="white"/>
<path fill-rule="evenodd" clip-rule="evenodd" d="M10.2747 5.39696C10.0844 5.71265 9.87068 6.01544 9.63348 6.30536C9.07623 6.48349 8.57751 6.75067 8.1373 7.10689C7.73711 7.45196 7.29182 7.73695 6.80142 7.96185C6.75718 7.91297 6.70374 7.87735 6.64112 7.85498C6.14615 8.10363 5.64743 8.353 5.14493 8.60307C4.74985 8.96284 4.358 9.31908 3.96936 9.67177C3.96936 9.63615 3.96936 9.60052 3.96936 9.5649C4.36883 8.93308 4.83193 8.3453 5.35867 7.80154C5.25724 7.73558 5.16818 7.75339 5.0915 7.85498C5.02554 7.75355 5.04334 7.66448 5.14493 7.5878C5.0435 7.52184 4.95444 7.53965 4.87776 7.64124C4.82814 7.57771 4.81032 7.50646 4.82432 7.4275C5.03806 7.14251 5.28742 6.89315 5.57241 6.6794C5.55841 6.75837 5.57623 6.82962 5.62585 6.89315C5.87629 6.82616 6.10784 6.71929 6.32051 6.57253C6.44828 6.60948 6.44828 6.66291 6.32051 6.73284C6.463 6.80409 6.6055 6.80409 6.74799 6.73284C7.62293 6.28982 8.54914 6.00483 9.52661 5.87788C9.74035 5.80663 9.88284 5.66414 9.95409 5.4504C10.0554 5.3988 10.1623 5.38098 10.2747 5.39696Z" fill="white"/>
<path fill-rule="evenodd" clip-rule="evenodd" d="M9.7403 7.64123C9.92515 7.91992 10.1211 7.91992 10.3281 7.64123C10.7566 7.83259 11.1841 8.01071 11.6105 8.17558C11.6916 8.00855 11.8164 7.90168 11.9846 7.85497C11.9227 8.15753 11.7802 8.40689 11.5571 8.60306C11.4858 8.60306 11.4146 8.60306 11.3434 8.60306C11.2837 8.46521 11.1769 8.37615 11.0227 8.33588C11.0584 8.30026 11.094 8.26463 11.1296 8.22901C10.6703 8.08401 10.2072 8.10183 9.7403 8.28245C9.38078 8.24046 9.02455 8.22266 8.6716 8.22901C7.93658 8.48064 7.2063 8.74782 6.48076 9.03054C6.39826 9.01507 6.32701 8.97945 6.26702 8.92367C5.72505 9.51959 5.13726 10.0539 4.50366 10.5267C4.50366 10.3486 4.50366 10.1705 4.50366 9.99237C4.75514 9.82124 4.98669 9.6075 5.19832 9.35115C5.23394 9.4224 5.26957 9.49364 5.30519 9.56489C5.6287 9.17014 5.98493 8.8139 6.37389 8.49619C6.44514 8.56744 6.51638 8.63868 6.58763 8.70993C7.27143 8.00648 8.10859 7.63243 9.09908 7.58779C9.25199 7.53808 9.37668 7.44901 9.47313 7.32062C9.56416 7.43504 9.65321 7.54191 9.7403 7.64123Z" fill="white"/>
<path fill-rule="evenodd" clip-rule="evenodd" d="M11.3434 8.60304C11.1893 8.74405 11.1181 8.92218 11.1296 9.13739C10.9109 9.13858 10.6972 9.1742 10.4884 9.24426C10.4172 9.20864 10.3459 9.17301 10.2747 9.13739C10.4172 8.8524 10.3459 8.78116 10.0609 8.92365C9.87618 8.59913 9.59119 8.42101 9.20597 8.3893C8.04358 8.79251 6.93926 9.30905 5.893 9.93892C5.4477 10.3486 5.00241 10.7583 4.55712 11.1679C3.94279 12.3196 3.31938 13.4595 2.68689 14.5878C2.79097 14.0498 2.91565 13.5154 3.06094 12.9847C3.48774 12.1307 3.96866 11.3115 4.50368 10.5267C5.13728 10.0539 5.72507 9.51957 6.26704 8.92365C6.32703 8.97943 6.39828 9.01505 6.48078 9.03052C7.20632 8.7478 7.9366 8.48062 8.67162 8.22899C9.02457 8.22263 9.3808 8.24044 9.74032 8.28243C10.2072 8.10181 10.6703 8.08399 11.1296 8.22899C11.094 8.26461 11.0584 8.30024 11.0228 8.33586C11.1769 8.37613 11.2837 8.46519 11.3434 8.60304Z" fill="white"/>
<path fill-rule="evenodd" clip-rule="evenodd" d="M11.3433 8.60302C11.4146 8.60302 11.4858 8.60302 11.557 8.60302C11.395 8.92717 11.1813 9.21215 10.9158 9.45798C10.532 9.47612 10.1758 9.51174 9.84712 9.56485C9.83767 9.41293 9.83767 9.25262 9.84712 9.08394C9.59637 9.09237 9.36481 9.18144 9.15246 9.35111C9.05471 9.26264 8.98346 9.15577 8.93872 9.0305C7.75653 9.36072 6.67001 9.87726 5.67918 10.5801C5.15705 11.227 4.64051 11.8861 4.12956 12.5572C3.80197 13.5317 3.42793 14.4935 3.00742 15.4427C3.31692 15.9262 3.24568 16.3537 2.79368 16.7252C2.30387 16.8488 2.01888 16.6707 1.93872 16.1908C2.20849 15.6667 2.45786 15.1324 2.68681 14.5878C3.3193 13.4595 3.94271 12.3195 4.55704 11.1679C5.00234 10.7583 5.44762 10.3486 5.89292 9.9389C6.93918 9.30903 8.0435 8.79249 9.2059 8.38928C9.59111 8.42099 9.8761 8.59911 10.0609 8.92363C10.3458 8.78114 10.4171 8.85238 10.2746 9.13737C10.3458 9.17299 10.4171 9.20862 10.4883 9.24424C10.6971 9.17418 10.9108 9.13856 11.1296 9.13737C11.118 8.92216 11.1892 8.74404 11.3433 8.60302Z" fill="white"/>
<path fill-rule="evenodd" clip-rule="evenodd" d="M10.2747 6.89315C10.138 7.17226 9.9599 7.42164 9.74032 7.64124C9.65323 7.54193 9.56417 7.43506 9.47314 7.32063C9.37669 7.44903 9.252 7.53809 9.09909 7.58781C8.1086 7.63245 7.27144 8.00649 6.58764 8.70995C6.51639 8.63869 6.44515 8.56746 6.3739 8.4962C5.98494 8.81392 5.62871 9.17015 5.3052 9.56491C5.26958 9.49366 5.23395 9.42242 5.19833 9.35117C4.98671 9.60752 4.75515 9.82126 4.50368 9.99239C4.47431 9.74212 4.38525 9.74212 4.2365 9.99239C4.05838 10.2774 3.88027 10.5624 3.70215 10.8473C3.71657 10.6417 3.73438 10.4279 3.75558 10.2061C3.82683 10.028 3.89807 9.8499 3.96932 9.67178C4.35797 9.31908 4.74982 8.96284 5.1449 8.60307C5.64739 8.35301 6.14611 8.10364 6.64108 7.85498C6.70371 7.87735 6.75714 7.91297 6.80138 7.96185C7.29178 7.73696 7.73708 7.45197 8.13726 7.10689C8.82661 6.91806 9.53908 6.84681 10.2747 6.89315Z" fill="white"/>
<path fill-rule="evenodd" clip-rule="evenodd" d="M10.9159 9.458C10.6278 9.78135 10.3428 10.102 10.0609 10.4198C9.81675 10.308 9.56738 10.308 9.31284 10.4198C9.43988 10.0469 9.35082 10.0113 9.04567 10.313C8.99144 10.1531 9.04488 10.0284 9.20597 9.93891C9.14101 9.84595 9.05195 9.79251 8.9388 9.77861C8.46596 10.0888 7.94943 10.1778 7.38918 10.0458C5.73351 10.9165 4.62919 12.2345 4.0762 14C4.21441 14.0524 4.35691 14.0702 4.50368 14.0534C4.36415 14.3009 4.22166 14.5504 4.0762 14.8015C4.13234 14.8755 4.20358 14.9289 4.28994 14.9618C4.09445 15.0808 4.00539 15.2411 4.02277 15.4427C4.40209 15.0515 4.49115 15.1583 4.28994 15.7633C4.32689 15.8912 4.38032 15.8912 4.45025 15.7633C4.49987 15.8268 4.51768 15.8981 4.50368 15.9771C3.93371 16.6183 3.32811 17.2239 2.68689 17.7939C2.72441 17.5013 2.79566 17.2163 2.90063 16.9389C2.86187 16.8659 2.82624 16.7946 2.79376 16.7252C3.24576 16.3537 3.317 15.9262 3.0075 15.4427C3.428 14.4935 3.80205 13.5317 4.12964 12.5572C4.64058 11.8861 5.15713 11.227 5.67926 10.5801C6.67009 9.87727 7.75661 9.36074 8.9388 9.03052C8.98353 9.15578 9.05478 9.26265 9.15254 9.35113C9.36489 9.18145 9.59644 9.09238 9.84719 9.08395C9.83775 9.25264 9.83775 9.41294 9.84719 9.56487C10.1759 9.51175 10.5321 9.47613 10.9159 9.458Z" fill="white"/>
<path fill-rule="evenodd" clip-rule="evenodd" d="M9.31281 10.4198C9.14777 10.4416 9.00527 10.5128 8.88533 10.6336C8.81408 10.598 8.74284 10.5623 8.67159 10.5267C8.5291 10.6336 8.3866 10.7405 8.24411 10.8473C8.11928 10.6446 7.94116 10.6268 7.70976 10.7939C6.43791 11.6916 5.36921 12.7782 4.50365 14.0534C4.35688 14.0702 4.21438 14.0524 4.07617 14C4.62916 12.2345 5.73348 10.9165 7.38915 10.0458C7.94939 10.1779 8.46593 10.0888 8.93877 9.77863C9.05192 9.79253 9.14098 9.84596 9.20594 9.93893C9.04485 10.0284 8.99141 10.1531 9.04564 10.313C9.3508 10.0113 9.43985 10.047 9.31281 10.4198Z" fill="white"/>
<path fill-rule="evenodd" clip-rule="evenodd" d="M10.0609 10.4199C9.91844 10.6336 9.74031 10.8118 9.52657 10.9542C9.12421 10.9331 8.78578 11.1112 8.51131 11.4886C8.09228 11.4775 7.73605 11.6556 7.4426 12.0229C7.39744 11.8673 7.30839 11.8139 7.17543 11.8626C6.64108 12.397 6.10673 12.9313 5.57238 13.4657C5.65874 13.4986 5.72998 13.552 5.78612 13.626C5.50689 13.8866 5.29315 14.1894 5.1449 14.5344C5.19378 14.5786 5.2294 14.632 5.25177 14.6947C5.13666 14.9329 5.06542 15.1823 5.03802 15.4428C4.89553 15.6565 4.71741 15.8347 4.50367 15.9771C4.51767 15.8981 4.49986 15.8269 4.45024 15.7634C4.38031 15.8912 4.32688 15.8912 4.28993 15.7634C4.49114 15.1584 4.40208 15.0515 4.02276 15.4428C4.00538 15.2411 4.09444 15.0808 4.28993 14.9618C4.20357 14.9289 4.13233 14.8755 4.07619 14.8015C4.22165 14.5504 4.36414 14.301 4.50367 14.0535C5.36923 12.7782 6.43793 11.6916 7.70978 10.7939C7.94118 10.6268 8.1193 10.6446 8.24413 10.8473C8.38662 10.7405 8.52912 10.6336 8.67161 10.5267C8.74286 10.5624 8.8141 10.598 8.88535 10.6336C9.00529 10.5128 9.14779 10.4416 9.31283 10.4199C9.56737 10.308 9.81674 10.308 10.0609 10.4199Z" fill="white"/>
<path fill-rule="evenodd" clip-rule="evenodd" d="M4.82444 7.42749C4.81044 7.50646 4.82825 7.57771 4.87787 7.64123C4.95455 7.53964 5.04362 7.52184 5.14505 7.5878C5.04346 7.66447 5.02565 7.75354 5.09161 7.85497C5.16829 7.75338 5.25736 7.73558 5.35879 7.80154C4.83205 8.34529 4.36895 8.93308 3.96948 9.56489C3.46721 10.0311 2.95067 10.5654 2.41986 11.1679C1.81901 12.1805 1.4984 13.2848 1.45803 14.4809C1.37382 15.3576 1.39164 16.2304 1.51146 17.0992C1.25673 17.6342 1.18549 18.1864 1.29772 18.7557C1.13987 18.9843 1.033 19.2337 0.977109 19.5038C0.941486 19.5038 0.905862 19.5038 0.870239 19.5038C0.944581 18.9078 1.05145 18.32 1.19085 17.7405C0.918967 16.1256 0.918967 14.5047 1.19085 12.8779C1.26026 12.6711 1.29589 12.4573 1.29772 12.2366C2.10253 10.3629 3.2781 8.75988 4.82444 7.42749Z" fill="white"/>
<path fill-rule="evenodd" clip-rule="evenodd" d="M4.50437 9.99239C4.50437 10.1705 4.50437 10.3486 4.50437 10.5267C3.96921 11.3115 3.48818 12.1308 3.06127 12.9848C2.91594 13.5155 2.79124 14.0498 2.68713 14.5878C2.45813 15.1324 2.20869 15.6668 1.93885 16.1909C2.01904 16.6707 2.3041 16.8489 2.79403 16.7252C2.82651 16.7947 2.86215 16.866 2.90092 16.939C2.79593 17.2164 2.72466 17.5013 2.68713 17.7939C2.36644 18.1858 2.01012 18.542 1.61816 18.8626C1.80082 18.5324 1.94335 18.1762 2.04575 17.7939C2.01012 17.7226 1.97448 17.6515 1.93885 17.5802C1.553 17.7241 1.51737 17.6528 1.83196 17.3664C1.72623 17.263 1.65497 17.1383 1.61816 16.9924C1.84685 15.624 2.07845 14.2526 2.31299 12.8779C2.34862 13.0203 2.38426 13.1629 2.41989 13.3054C2.65065 12.1642 3.09605 11.1311 3.75609 10.2061C3.73489 10.4279 3.71707 10.6417 3.70265 10.8474C3.88081 10.5624 4.05896 10.2774 4.23713 9.99239C4.38592 9.74212 4.475 9.74212 4.50437 9.99239Z" fill="white"/>
<path fill-rule="evenodd" clip-rule="evenodd" d="M3.97015 9.56488C3.97015 9.6005 3.97015 9.63613 3.97015 9.67175C3.89889 9.84987 3.82763 10.028 3.75636 10.2061C3.09632 11.1311 2.65091 12.1642 2.42015 13.3053C2.38453 13.1629 2.34889 13.0203 2.31326 12.8779C2.07872 14.2525 1.84711 15.624 1.61843 16.9924C1.65523 17.1382 1.72649 17.263 1.83222 17.3664C1.51764 17.6528 1.55327 17.7241 1.93912 17.5801C1.97475 17.6514 2.01039 17.7226 2.04602 17.7939C1.94362 18.1762 1.80108 18.5324 1.61843 18.8626C1.44027 19.1119 1.22648 19.3257 0.977051 19.5038C1.03295 19.2336 1.13985 18.9843 1.29774 18.7557C1.18548 18.1864 1.25674 17.6342 1.51153 17.0992C1.39168 16.2304 1.37386 15.3576 1.45809 14.4809C1.49847 13.2848 1.81916 12.1805 2.42015 11.1679C2.9511 10.5654 3.46776 10.0311 3.97015 9.56488Z" fill="white"/>
<path fill-rule="evenodd" clip-rule="evenodd" d="M1.29774 12.2366C1.29591 12.4573 1.26028 12.6711 1.19084 12.8779C1.11958 12.9491 1.04832 13.0203 0.977051 13.0916C1.00195 12.7665 1.10885 12.4816 1.29774 12.2366Z" fill="white"/>
<path fill-rule="evenodd" clip-rule="evenodd" d="M9.52651 10.9542C8.06595 12.486 6.56977 13.9822 5.03796 15.4427C5.06535 15.1823 5.13659 14.9329 5.2517 14.6947C5.22934 14.632 5.19372 14.5786 5.14483 14.5344C5.29308 14.1894 5.50682 13.8866 5.78606 13.626C5.72992 13.552 5.65868 13.4986 5.57231 13.4656C6.10667 12.9313 6.64102 12.3969 7.17537 11.8626C7.30833 11.8139 7.39738 11.8673 7.44254 12.0229C7.73599 11.6556 8.09222 11.4774 8.51125 11.4886C8.78572 11.1112 9.12415 10.933 9.52651 10.9542Z" fill="white"/>
<path opacity="0.925" fill-rule="evenodd" clip-rule="evenodd" d="M0.977062 13.0916C0.967414 13.4885 0.860518 13.8448 0.656372 14.1603C0.69906 13.7739 0.805957 13.4176 0.977062 13.0916Z" fill="white"/>
<path fill-rule="evenodd" clip-rule="evenodd" d="M0.656383 14.1603C0.652227 14.6609 0.616595 15.1596 0.549486 15.6565C0.543492 15.8852 0.472227 16.0632 0.335693 16.1908C0.335693 15.9771 0.335693 15.7633 0.335693 15.5496C0.432712 15.0846 0.539609 14.6215 0.656383 14.1603Z" fill="white"/>
<path opacity="0.904" fill-rule="evenodd" clip-rule="evenodd" d="M1.19087 12.8779C0.918916 14.5046 0.918916 16.1255 1.19087 17.7405C1.05143 18.32 0.944537 18.9078 0.870176 19.5038C0.877171 19.5506 0.859355 19.5863 0.816728 19.6107C0.791918 19.4785 0.73847 19.3716 0.656383 19.2901C0.673924 19.0029 0.656107 18.7179 0.602935 18.4351C0.562038 18.3757 0.50859 18.3401 0.44259 18.3283C0.44259 18.2927 0.44259 18.257 0.44259 18.2214C0.512328 18.12 0.54796 17.9953 0.549486 17.8473C0.537914 17.6677 0.466649 17.543 0.335693 17.4733C0.335693 17.0458 0.335693 16.6183 0.335693 16.1908C0.472227 16.0632 0.543492 15.8852 0.549486 15.6565C0.616595 15.1597 0.652227 14.6609 0.656383 14.1603C0.860529 13.8448 0.967425 13.4885 0.977073 13.0916C1.04834 13.0203 1.1196 12.9492 1.19087 12.8779Z" fill="white"/>
<path opacity="0.914" fill-rule="evenodd" clip-rule="evenodd" d="M21.6564 12.6112C21.8436 12.6025 21.9505 12.6915 21.977 12.8784C21.8791 14.0355 21.2735 14.7836 20.1602 15.1227C20.9501 15.0404 21.5735 15.3076 22.0304 15.9242C22.1819 16.913 22.2353 17.9104 22.1907 18.9166C21.6208 18.9166 21.0507 18.9166 20.4808 18.9166C20.4986 18.2388 20.4808 17.562 20.4274 16.8861C20.3739 16.8326 20.3205 16.7792 20.2671 16.7257C19.5911 16.6723 18.9143 16.6546 18.2365 16.6723C18.2365 17.4204 18.2365 18.1685 18.2365 18.9166C17.6666 18.9166 17.0966 18.9166 16.5266 18.9166C16.5266 16.9216 16.5266 14.9268 16.5266 12.9319C17.0966 12.9319 17.6666 12.9319 18.2365 12.9319C18.2365 13.6799 18.2365 14.428 18.2365 15.1761C18.379 15.1761 18.5216 15.1761 18.664 15.1761C18.6597 14.8635 18.7488 14.5786 18.9312 14.3212C19.1984 14.054 19.4655 13.7868 19.7327 13.5196C20.3804 13.2043 21.0216 12.9014 21.6564 12.6112Z" fill="white"/>
<path opacity="0.915" fill-rule="evenodd" clip-rule="evenodd" d="M24.6488 12.7181C25.5551 12.637 26.3211 12.922 26.9465 13.5731C26.9994 13.3622 27.0172 13.1485 26.9999 12.9319C27.5698 12.9319 28.1399 12.9319 28.7098 12.9319C28.7098 14.9268 28.7098 16.9217 28.7098 18.9166C28.1399 18.9166 27.5698 18.9166 26.9999 18.9166C27.0173 18.6647 26.9996 18.4154 26.9465 18.1685C26.4707 18.7919 25.8295 19.1125 25.0228 19.1303C23.2414 18.8114 22.333 17.7427 22.2976 15.9242C22.3067 14.261 23.0904 13.1923 24.6488 12.7181ZM24.9694 14.4281C26.6704 14.3743 27.2582 15.158 26.7327 16.7792C26.1059 17.4705 25.3757 17.5953 24.5419 17.1532C23.9532 16.487 23.8642 15.7568 24.2747 14.9624C24.4676 14.7138 24.6992 14.5358 24.9694 14.4281Z" fill="white"/>
<path opacity="0.92" fill-rule="evenodd" clip-rule="evenodd" d="M49.5495 12.7181C50.4217 12.6583 51.152 12.9432 51.7404 13.5731C51.7933 13.3622 51.8111 13.1485 51.7938 12.9319C52.3637 12.9319 52.9338 12.9319 53.5037 12.9319C53.5037 14.9268 53.5037 16.9216 53.5037 18.9166C52.9338 18.9166 52.3637 18.9166 51.7938 18.9166C51.8111 18.7 51.7933 18.4862 51.7404 18.2754C50.3004 19.4492 48.9467 19.3424 47.6793 17.9548C47.0599 16.9071 46.9353 15.8028 47.3052 14.6418C46.7038 14.5354 46.0982 14.4998 45.4884 14.5349C45.4884 15.9955 45.4884 17.456 45.4884 18.9166C44.9185 18.9166 44.3485 18.9166 43.7785 18.9166C43.7785 17.456 43.7785 15.9955 43.7785 14.5349C43.1373 14.5349 42.4961 14.5349 41.8549 14.5349C41.8549 14.0006 41.8549 13.4662 41.8549 12.9319C43.7072 12.9319 45.5597 12.9319 47.4121 12.9319C47.3944 13.3963 47.4122 13.8594 47.4655 14.3212C47.9049 13.4345 48.5995 12.9001 49.5495 12.7181ZM49.7633 14.428C51.4176 14.3189 52.041 15.067 51.6335 16.6723C51.1094 17.4211 50.4147 17.6169 49.5495 17.2601C48.515 16.2212 48.5863 15.2772 49.7633 14.428Z" fill="white"/>
<path opacity="0.921" fill-rule="evenodd" clip-rule="evenodd" d="M29.1372 12.9319C31.0253 12.9319 32.9133 12.9319 34.8013 12.9319C34.8013 14.9268 34.8013 16.9217 34.8013 18.9166C34.2314 18.9166 33.6613 18.9166 33.0914 18.9166C33.0914 17.456 33.0914 15.9955 33.0914 14.5349C32.3433 14.5349 31.5952 14.5349 30.8471 14.5349C30.8471 15.9955 30.8471 17.456 30.8471 18.9166C30.2772 18.9166 29.7071 18.9166 29.1372 18.9166C29.1372 16.9217 29.1372 14.9268 29.1372 12.9319Z" fill="white"/>
<path opacity="0.908" fill-rule="evenodd" clip-rule="evenodd" d="M35.3357 12.9319C35.9056 12.9319 36.4757 12.9319 37.0456 12.9319C37.0278 14.0724 37.0456 15.2124 37.099 16.3517C37.98 15.2153 38.9241 14.1287 39.9311 13.0922C40.4877 12.9429 41.0576 12.8894 41.641 12.9319C41.641 14.9268 41.641 16.9217 41.641 18.9166C41.0354 18.9166 40.4299 18.9166 39.8242 18.9166C39.842 17.8117 39.8242 16.7074 39.7708 15.6036C38.8624 16.6545 37.954 17.7054 37.0456 18.7563C36.4834 19.1247 35.9669 19.0712 35.496 18.596C35.3386 16.718 35.2851 14.83 35.3357 12.9319Z" fill="white"/>
<path opacity="0.923" fill-rule="evenodd" clip-rule="evenodd" d="M60.0227 12.9319C60.0227 14.9268 60.0227 16.9217 60.0227 18.9166C59.4528 18.9166 58.8827 18.9166 58.3128 18.9166C58.3128 17.456 58.3128 15.9955 58.3128 14.5349C57.7417 14.5172 57.1717 14.5351 56.6028 14.5884C56.5494 14.6418 56.496 14.6952 56.4425 14.7487C56.407 15.4968 56.3713 16.2449 56.3357 16.993C56.1444 18.4697 55.3072 19.1109 53.8242 18.9166C53.8242 18.3467 53.8242 17.7766 53.8242 17.2067C54.1657 17.2643 54.4328 17.1574 54.6257 16.8861C54.7519 15.9296 54.8231 14.9678 54.8395 14.0006C54.986 13.6394 55.2176 13.3366 55.5341 13.0922C57.0225 12.9376 58.5187 12.8841 60.0227 12.9319Z" fill="white"/>
<path opacity="0.702" fill-rule="evenodd" clip-rule="evenodd" d="M0.335693 17.4733C0.466649 17.5429 0.537914 17.6677 0.549486 17.8473C0.54796 17.9953 0.512328 18.1199 0.44259 18.2214C0.467957 18.0834 0.432325 17.9765 0.335693 17.9007C0.335693 17.7583 0.335693 17.6157 0.335693 17.4733Z" fill="white"/>
<path opacity="0.894" fill-rule="evenodd" clip-rule="evenodd" d="M0.442627 18.3282C0.508627 18.3401 0.562075 18.3757 0.602972 18.4351C0.656144 18.7179 0.673961 19.0029 0.65642 19.2901C0.552197 18.9897 0.480933 18.6691 0.442627 18.3282Z" fill="white"/>
<path opacity="0.259" fill-rule="evenodd" clip-rule="evenodd" d="M0.656441 19.2901C0.738528 19.3716 0.791976 19.4785 0.816786 19.6107C0.859413 19.5863 0.877229 19.5506 0.870234 19.5038C0.905866 19.5038 0.941499 19.5038 0.97713 19.5038C1.06775 19.6241 1.17465 19.6241 1.29782 19.5038C1.19653 19.6618 1.054 19.7687 0.870234 19.8245C0.687098 19.7032 0.615833 19.525 0.656441 19.2901Z" fill="white"/>
<path fill-rule="evenodd" clip-rule="evenodd" d="M1.29783 19.5038C1.33346 19.5038 1.36909 19.5038 1.40472 19.5038C1.66861 19.5912 1.95367 19.6446 2.25989 19.6642C2.16304 19.8457 2.12741 20.0417 2.153 20.2519C1.86213 20.2025 1.57707 20.1313 1.29783 20.0382C1.22656 20.0382 1.1553 20.0382 1.08403 20.0382C0.977136 20.0026 0.905871 19.9313 0.870239 19.8245C1.05401 19.7687 1.19654 19.6618 1.29783 19.5038Z" fill="white"/>
<path fill-rule="evenodd" clip-rule="evenodd" d="M6.21362 19.6107C7.78602 19.8808 9.17533 20.522 10.3816 21.5344C10.5784 21.923 10.4537 22.1011 10.0075 22.0687C8.98903 21.8124 7.99156 21.4917 7.01515 21.1069C6.60198 20.8362 6.26356 20.4978 5.99988 20.0916C6.09346 19.9222 6.23596 19.8154 6.42736 19.771C6.32949 19.7413 6.25824 19.6879 6.21362 19.6107Z" fill="white"/>
<path opacity="0.78" fill-rule="evenodd" clip-rule="evenodd" d="M1.08398 20.0381C1.15525 20.0381 1.22651 20.0381 1.29778 20.0381C1.59061 20.3302 1.84003 20.6508 2.04605 21C1.68974 20.715 1.36904 20.3943 1.08398 20.0381Z" fill="white"/>
<path fill-rule="evenodd" clip-rule="evenodd" d="M2.58028 19.397C2.91431 19.5016 3.27063 19.5373 3.64925 19.5038C3.53448 19.6519 3.39196 19.7765 3.22166 19.8779C3.25729 19.9135 3.29293 19.9492 3.32856 19.9848C3.16647 20.1875 3.0952 20.4191 3.11476 20.6794C3.07914 20.6794 3.0435 20.6794 3.00787 20.6794C2.70553 20.556 2.42048 20.4134 2.15269 20.2519C2.1271 20.0417 2.16273 19.8457 2.25959 19.6641C1.95336 19.6446 1.6683 19.5912 1.40442 19.5038C1.79767 19.4799 2.18963 19.4442 2.58028 19.397Z" fill="white"/>
<path fill-rule="evenodd" clip-rule="evenodd" d="M4.18301 19.2901C4.42998 19.4577 4.71497 19.5468 5.03797 19.5573C4.87295 19.5883 4.73046 19.6594 4.61049 19.771C4.78331 20.0243 4.89018 20.3092 4.9311 20.626C5.14251 20.8374 5.35625 21.0511 5.57232 21.2672C7.20566 22.263 8.96902 22.9221 10.8624 23.2443C11.2282 23.1783 11.5132 23.0001 11.7174 22.7099C11.7891 22.7903 11.8781 22.826 11.9845 22.8168C12.1983 22.9593 12.3764 23.1374 12.5189 23.3512C12.1715 23.3765 11.8331 23.519 11.5036 23.7786C11.0371 23.5588 10.5562 23.4876 10.0609 23.5649C9.0045 23.0249 7.90017 22.6152 6.7479 22.3359C6.31015 22.0457 5.84704 21.8143 5.35858 21.6412C4.87144 21.1368 4.40832 20.6203 3.96927 20.0916C4.25041 19.9109 4.21478 19.7862 3.8624 19.7176C3.98086 19.5344 3.90961 19.4631 3.64866 19.5038C3.27013 19.5373 2.9139 19.5016 2.57996 19.397C3.11137 19.326 3.64572 19.2904 4.18301 19.2901Z" fill="white"/>
<path fill-rule="evenodd" clip-rule="evenodd" d="M5.67919 19.5038C5.88381 19.4735 6.06192 19.5091 6.21354 19.6107C6.25816 19.6879 6.32941 19.7413 6.42728 19.771C6.23589 19.8154 6.09339 19.9222 5.9998 20.0916C6.26348 20.4978 6.60191 20.8362 7.01507 21.1069C7.99149 21.4917 8.98895 21.8123 10.0074 22.0687C10.4536 22.1011 10.5783 21.9229 10.3815 21.5344C10.7056 21.6964 10.9906 21.9101 11.2364 22.1756C11.0357 22.1641 11.0001 22.2176 11.1296 22.3359C10.9139 22.5626 10.6467 22.6873 10.328 22.7099C9.39092 22.4177 8.4469 22.1506 7.49598 21.9084C6.89389 21.5357 6.28829 21.1617 5.67919 20.7863C5.54996 20.5099 5.40746 20.2427 5.25171 19.9847C5.39066 19.8159 5.53316 19.6556 5.67919 19.5038Z" fill="white"/>
<path fill-rule="evenodd" clip-rule="evenodd" d="M4.18311 19.2901C4.68563 19.344 5.18436 19.4152 5.67929 19.5038C5.53326 19.6556 5.39076 19.8159 5.25181 19.9848C5.40756 20.2427 5.55006 20.5099 5.67929 20.7863C6.28838 21.1617 6.89399 21.5358 7.49608 21.9084C8.447 22.1506 9.39102 22.4178 10.3281 22.7099C10.6468 22.6873 10.914 22.5626 11.1297 22.3359C11.0002 22.2176 11.0358 22.1642 11.2365 22.1756C11.5499 22.3145 11.7993 22.5283 11.9846 22.8168C11.8782 22.826 11.7892 22.7903 11.7175 22.7099C11.5133 23.0001 11.2283 23.1783 10.8625 23.2443C8.96912 22.9221 7.20576 22.263 5.57242 21.2672C5.35635 21.0511 5.14261 20.8374 4.9312 20.626C4.89028 20.3092 4.78341 20.0243 4.61059 19.771C4.73056 19.6594 4.87305 19.5883 5.03807 19.5573C4.71506 19.5468 4.43007 19.4577 4.18311 19.2901Z" fill="white"/>
<path fill-rule="evenodd" clip-rule="evenodd" d="M4.50366 21.4275C6.09361 22.3114 7.69667 23.1664 9.31282 23.9924C9.38407 24.1348 9.45531 24.2774 9.52656 24.4199C8.99114 24.1626 8.42116 24.038 7.81664 24.0458C7.49603 23.7965 7.17542 23.547 6.85481 23.2977C6.7176 23.2246 6.59292 23.2425 6.48076 23.3512C6.11612 23.0708 5.74207 22.8037 5.35862 22.5496C5.04797 22.1868 4.76298 21.8128 4.50366 21.4275Z" fill="white"/>
<path fill-rule="evenodd" clip-rule="evenodd" d="M3.00745 20.6794C3.04307 20.6794 3.0787 20.6794 3.11432 20.6794C3.59106 20.9 4.05417 21.1494 4.50363 21.4275C4.76295 21.8127 5.04794 22.1868 5.35859 22.5496C5.74204 22.8036 6.11609 23.0708 6.48073 23.3511C6.59289 23.2425 6.71756 23.2246 6.85477 23.2977C7.17538 23.547 7.496 23.7965 7.81661 24.0458C8.42113 24.038 8.99111 24.1626 9.52653 24.4198C9.6785 24.5721 9.85662 24.679 10.0609 24.7405C10.1471 24.8717 10.2539 24.9786 10.3815 25.0611C10.2105 25.1414 10.0502 25.2483 9.90058 25.3817C9.50738 25.2652 9.13333 25.1049 8.77844 24.9008C8.27257 24.8278 7.77384 24.7209 7.28226 24.5801C6.91532 24.3199 6.52346 24.1062 6.10668 23.9389C5.61249 23.4608 5.07814 23.051 4.50363 22.7099C4.52703 22.5843 4.49141 22.4775 4.39676 22.3893C3.69569 22.0092 3.23258 21.4392 3.00745 20.6794Z" fill="white"/>
<path fill-rule="evenodd" clip-rule="evenodd" d="M3.64872 19.5038C3.90967 19.4631 3.98092 19.5344 3.86246 19.7176C4.21484 19.7862 4.25047 19.9109 3.96933 20.0916C4.40838 20.6203 4.87149 21.1368 5.35864 21.6412C5.8471 21.8143 6.31021 22.0457 6.74795 22.3359C7.90023 22.6152 9.00456 23.0249 10.0609 23.5649C10.5562 23.4876 11.0371 23.5588 11.5037 23.7786C11.8332 23.519 12.1715 23.3765 12.5189 23.3512C12.9108 23.6718 13.267 24.028 13.5876 24.4199C13.4719 24.4157 13.365 24.38 13.267 24.313C13.1723 24.4012 13.1368 24.508 13.1602 24.6336C12.9502 24.7008 12.7364 24.7721 12.5189 24.8474C11.4826 24.704 10.5208 24.3477 9.63345 23.7786C9.5487 23.87 9.58432 23.9592 9.74032 24.0458C9.59932 24.0667 9.45683 24.0488 9.31284 23.9924C7.69668 23.1664 6.09363 22.3114 4.50368 21.4275C4.05421 21.1494 3.59111 20.9 3.11437 20.6794C3.09481 20.4191 3.16606 20.1875 3.32811 19.9848C3.29249 19.9492 3.25686 19.9135 3.22124 19.8779C3.39149 19.7765 3.53398 19.6519 3.64872 19.5038Z" fill="white"/>
<path opacity="0.733" fill-rule="evenodd" clip-rule="evenodd" d="M5.46545 24.6336C5.62867 24.6258 5.73557 24.6971 5.78614 24.8473C5.62292 24.8551 5.51603 24.7838 5.46545 24.6336Z" fill="white"/>
<path fill-rule="evenodd" clip-rule="evenodd" d="M1.29773 20.0381C1.57691 20.1312 1.8619 20.2024 2.15269 20.2519C2.42041 20.4134 2.70539 20.5559 3.00765 20.6794C3.23279 21.4392 3.6959 22.0092 4.39697 22.3893C4.49162 22.4775 4.52724 22.5843 4.50384 22.7099C5.07835 23.051 5.6127 23.4608 6.10689 23.9389C6.52366 24.1062 6.91552 24.3199 7.28246 24.5801C7.77404 24.7209 8.27277 24.8277 8.77865 24.9007C9.13354 25.1049 9.50759 25.2652 9.90078 25.3817C10.0504 25.2483 10.2107 25.1414 10.3817 25.061C10.7793 25.2592 11.1356 25.5085 11.4504 25.8091C9.7436 25.843 8.08711 25.558 6.48094 24.9542C6.25035 25.013 6.19692 25.1198 6.32063 25.2748C6.0803 25.2128 5.90219 25.0703 5.78628 24.8473C5.73572 24.697 5.62885 24.6258 5.46567 24.6336C4.21131 23.5219 3.07136 22.3107 2.04582 21C1.83985 20.6508 1.59049 20.3302 1.29773 20.0381Z" fill="white"/>
<path fill-rule="evenodd" clip-rule="evenodd" d="M13.5877 24.4198C13.7658 24.6336 13.9439 24.8473 14.122 25.0611C13.9212 25.0496 13.8856 25.1031 14.0152 25.2214C13.7323 25.255 13.6611 25.3798 13.8014 25.5954C13.6668 25.6897 13.5421 25.7965 13.4274 25.916C12.7471 25.6813 12.0525 25.4853 11.3434 25.3282C11.0322 25.1957 10.7472 25.0177 10.4884 24.7939C10.3502 24.7415 10.2077 24.7237 10.061 24.7405C9.8567 24.679 9.67858 24.5721 9.52661 24.4198C9.45536 24.2774 9.38412 24.1348 9.31287 23.9924C9.45686 24.0488 9.59935 24.0666 9.74035 24.0458C9.58435 23.9591 9.54873 23.87 9.63348 23.7786C10.5208 24.3477 11.4827 24.704 12.519 24.8473C12.7365 24.7721 12.9502 24.7008 13.1602 24.6336C13.1368 24.508 13.1724 24.4011 13.2671 24.313C13.3651 24.38 13.4719 24.4157 13.5877 24.4198Z" fill="white"/>
<path opacity="0.494" fill-rule="evenodd" clip-rule="evenodd" d="M7.17542 25.916C7.33864 25.9082 7.44553 25.9795 7.4961 26.1298C7.33288 26.1376 7.22599 26.0663 7.17542 25.916Z" fill="white"/>
<path fill-rule="evenodd" clip-rule="evenodd" d="M11.4502 25.8092C11.9845 26.0942 12.5189 26.3791 13.0532 26.6641C13.0532 26.6997 13.0532 26.7354 13.0532 26.771C12.9838 26.8035 12.9125 26.8391 12.8395 26.8779C12.0286 26.6587 11.2092 26.4805 10.3815 26.3435C9.77641 26.4028 9.17081 26.4563 8.56469 26.5038C8.73095 26.5808 8.83782 26.7055 8.8853 26.8779C8.56631 26.7896 8.28132 26.6472 8.03034 26.4504C7.97978 26.3001 7.87291 26.2289 7.70973 26.2367C7.60375 26.255 7.5325 26.2194 7.49598 26.1298C7.44542 25.9795 7.33855 25.9083 7.17537 25.9161C6.85123 25.754 6.56625 25.5403 6.32041 25.2748C6.1967 25.1199 6.25013 25.013 6.48072 24.9542C8.08689 25.558 9.74338 25.8431 11.4502 25.8092Z" fill="white"/>
<path fill-rule="evenodd" clip-rule="evenodd" d="M10.0609 24.7405C10.2077 24.7237 10.3502 24.7415 10.4884 24.7939C10.7472 25.0177 11.0321 25.1957 11.3434 25.3283C12.0524 25.4854 12.7471 25.6814 13.4273 25.916C13.5421 25.7966 13.6667 25.6897 13.8014 25.5954C13.6611 25.3798 13.7322 25.2551 14.0151 25.2214C13.8856 25.1031 13.9212 25.0496 14.122 25.0611C14.5495 25.4173 14.9414 25.8092 15.2976 26.2367C15.0873 26.2622 14.8913 26.2266 14.7098 26.1298C14.1639 26.3224 13.6117 26.5004 13.0533 26.6641C12.5189 26.3791 11.9846 26.0942 11.4502 25.8092C11.1354 25.5086 10.7792 25.2592 10.3815 25.0611C10.254 24.9786 10.1471 24.8717 10.0609 24.7405Z" fill="white"/>
<path opacity="0.431" fill-rule="evenodd" clip-rule="evenodd" d="M7.70972 26.2367C7.87294 26.2289 7.97983 26.3001 8.03041 26.4504C7.86719 26.4582 7.76029 26.3869 7.70972 26.2367Z" fill="white"/>
<path fill-rule="evenodd" clip-rule="evenodd" d="M15.2981 26.2366C15.6594 26.5336 16.0335 26.8186 16.4205 27.0916C16.6903 27.5123 16.6012 27.7973 16.1532 27.9466C15.7969 27.9466 15.4405 27.9466 15.0843 27.9466C15.3482 27.8592 15.6332 27.8058 15.9394 27.7862C14.9542 27.5231 13.9921 27.1848 13.0532 26.771C13.0532 26.7354 13.0532 26.6997 13.0532 26.6641C13.6118 26.5004 14.1641 26.3223 14.7101 26.1298C14.8917 26.2266 15.0878 26.2622 15.2981 26.2366Z" fill="white"/>
<path fill-rule="evenodd" clip-rule="evenodd" d="M13.0532 26.771C13.9919 27.1848 14.9537 27.5231 15.9387 27.7863C15.6326 27.8058 15.3476 27.8592 15.0838 27.9466C14.1575 27.9466 13.2314 27.9466 12.3052 27.9466C12.191 27.8467 12.0486 27.811 11.8777 27.8397C11.8274 27.7122 11.7206 27.6409 11.5571 27.6259C11.426 27.6281 11.3192 27.6637 11.2365 27.7328C11.1652 27.7328 11.1296 27.6972 11.1296 27.6259C10.8797 27.4614 10.5947 27.3902 10.2746 27.4122C10.0412 27.1894 9.75618 27.0825 9.41966 27.0916C9.21628 27.06 9.03816 26.9887 8.88531 26.8779C8.83783 26.7055 8.73096 26.5808 8.5647 26.5038C9.17082 26.4563 9.77642 26.4028 10.3815 26.3435C11.2092 26.4805 12.0286 26.6587 12.8395 26.8779C12.9125 26.8391 12.9838 26.8035 13.0532 26.771Z" fill="white"/>
<path opacity="0.953" fill-rule="evenodd" clip-rule="evenodd" d="M9.41968 27.0916C9.75628 27.0825 10.0413 27.1894 10.2749 27.4122C9.96023 27.3609 9.67518 27.254 9.41968 27.0916Z" fill="white"/>
<path opacity="0.259" fill-rule="evenodd" clip-rule="evenodd" d="M10.2747 27.4122C10.5948 27.3902 10.8799 27.4614 11.1298 27.626C10.8168 27.619 10.5318 27.5477 10.2747 27.4122Z" fill="white"/>
<path opacity="0.765" fill-rule="evenodd" clip-rule="evenodd" d="M11.2365 27.7328C11.3192 27.6637 11.4261 27.6281 11.5571 27.626C11.7207 27.6409 11.8276 27.7122 11.8778 27.8397C11.671 27.7703 11.4572 27.7347 11.2365 27.7328Z" fill="white"/>
</g>
<defs>
<clipPath id="clip0_2834_1179">
<rect width="61.9847" height="28" fill="white" transform="translate(0.38916)"/>
</clipPath>
</defs>
</svg>
