<svg width="58" height="22" viewBox="0 0 58 22" fill="none" xmlns="http://www.w3.org/2000/svg">
<g clip-path="url(#clip0_2834_428)">
<path fill-rule="evenodd" clip-rule="evenodd" d="M31.1677 0.00573281C32.0778 -0.00972075 32.9844 0.00606464 33.8873 0.0531364C33.8532 6.4684 33.8611 12.8837 33.9109 19.299C33.9105 20.0757 33.879 20.8421 33.8163 21.5981C32.9221 21.6372 32.0313 21.6293 31.144 21.5744C31.1675 14.3815 31.1753 7.19202 31.1677 0.00573281Z" fill="white"/>
<path fill-rule="evenodd" clip-rule="evenodd" d="M37.1745 1.71226C38.0575 1.70434 38.9406 1.71226 39.8231 1.73596C39.8468 1.75966 39.8704 1.78336 39.8941 1.80707C39.9305 3.10346 39.9225 4.39914 39.8704 5.69416C41.1475 5.68624 42.4245 5.69416 43.7015 5.71786C43.7634 6.04637 43.7951 6.38606 43.7961 6.73704C43.7956 7.08038 43.78 7.42012 43.7488 7.75621C42.4562 7.77992 41.1635 7.78783 39.8704 7.77992C39.8624 10.9718 39.8704 14.1636 39.8941 17.3554C39.9035 17.7552 39.9508 18.1502 40.036 18.5405C40.1779 19.0935 40.517 19.4649 41.0529 19.6545C41.9293 19.8279 42.7962 19.7884 43.6542 19.536C43.6859 19.5518 43.7171 19.5676 43.7488 19.5834C43.8112 20.2105 43.8112 20.8347 43.7488 21.4558C42.4259 21.9417 41.086 22.0049 39.7285 21.6455C38.4686 21.2358 37.6565 20.3905 37.2928 19.1094C37.1939 18.7201 37.131 18.3251 37.1036 17.9243C37.0799 14.5428 37.0719 11.1614 37.0799 7.77992C36.4333 7.78783 35.787 7.77992 35.1407 7.75621C35.1171 7.73251 35.0935 7.70881 35.0698 7.68511C35.0383 7.05308 35.0383 6.421 35.0698 5.78897C35.0935 5.76526 35.1171 5.74156 35.1407 5.71786C35.787 5.69416 36.4333 5.68624 37.0799 5.69416C37.0492 4.35615 37.0809 3.02885 37.1745 1.71226Z" fill="white"/>
<path fill-rule="evenodd" clip-rule="evenodd" d="M6.62062 5.36235C8.039 5.24725 9.41061 5.44474 10.7354 5.9549C12.8813 7.02271 14.0322 8.75294 14.1881 11.1456C13.3372 11.2009 12.4859 11.2088 11.6341 11.1693C11.1745 8.37025 9.53481 7.10614 6.71521 7.377C5.39487 7.56382 4.40953 8.23534 3.75915 9.39165C3.1135 10.7548 2.82182 12.1927 2.88416 13.7054C2.82457 15.1803 3.10045 16.5866 3.71186 17.9243C4.40584 19.1773 5.47002 19.8646 6.9044 19.9864C9.86008 20.1531 11.476 18.7547 11.7523 15.7911C11.7669 15.7528 11.7905 15.7212 11.8233 15.6963C12.6568 15.6417 13.4923 15.6338 14.33 15.6726C14.3149 17.8201 13.432 19.5266 11.6814 20.7922C10.3843 21.6125 8.96536 22.0155 7.42466 22.001C3.79131 21.9525 1.43432 20.1986 0.353774 16.7392C-0.0429523 15.0141 -0.105999 13.276 0.164586 11.5248C0.839703 7.90095 2.99171 5.84682 6.62062 5.36235Z" fill="white"/>
<path fill-rule="evenodd" clip-rule="evenodd" d="M49.1406 5.40972C50.7477 5.23684 52.1983 5.62398 53.4919 6.5711C54.0311 7.06358 54.4804 7.62451 54.8399 8.25393C54.8678 7.60578 54.8597 6.95792 54.8162 6.31038C54.8243 6.13656 54.8318 5.96277 54.8399 5.78895C54.8635 5.76524 54.8872 5.74154 54.9108 5.71784C55.7939 5.68622 56.6764 5.68622 57.5594 5.71784C57.5831 5.74154 57.6067 5.76524 57.6304 5.78895C57.5973 10.4108 57.6053 15.0326 57.654 19.6545C57.646 20.2787 57.6384 20.9028 57.6304 21.5269C57.6067 21.5506 57.5831 21.5743 57.5594 21.598C56.6764 21.6297 55.7939 21.6297 54.9108 21.598C54.8375 21.5117 54.8063 21.4089 54.8162 21.2899C54.8541 20.5137 54.8777 19.7394 54.8872 18.9671C53.3259 21.4599 51.0949 22.3843 48.1947 21.7402C46.5128 21.2873 45.2438 20.2997 44.3873 18.7775C43.7067 17.4545 43.3283 16.0482 43.2521 14.5586C43.0899 12.5668 43.4371 10.6706 44.2927 8.87018C45.3204 6.88231 46.9361 5.72884 49.1406 5.40972ZM50.0865 7.35326C52.2958 7.2376 53.762 8.22516 54.4851 10.316C54.9203 11.7626 55.0702 13.24 54.9345 14.7482C54.8777 15.9085 54.5783 16.9988 54.0358 18.0191C53.0048 19.5661 51.5622 20.1903 49.7082 19.8915C48.5442 19.6727 47.6692 19.0486 47.0832 18.0191C46.5246 16.934 46.2096 15.7805 46.1372 14.5586C46.002 13.0713 46.1595 11.6176 46.6102 10.1975C47.2062 8.54561 48.3649 7.59753 50.0865 7.35326Z" fill="white"/>
<path fill-rule="evenodd" clip-rule="evenodd" d="M15.1813 5.69419C16.0643 5.68628 16.9472 5.69419 17.8299 5.71789C17.8851 5.7416 17.9245 5.78108 17.9482 5.8364C17.9203 9.35972 17.9203 12.8834 17.9482 16.4074C18.1963 18.9486 19.5759 20.0625 22.0867 19.7494C22.9958 19.5329 23.7289 19.0509 24.286 18.3035C24.9594 17.3639 25.4008 16.321 25.6103 15.1749C25.6284 12.0462 25.6284 8.91754 25.6103 5.789C25.6339 5.7653 25.6576 5.7416 25.6812 5.71789C26.5977 5.67898 27.5121 5.68689 28.4244 5.7416C28.4697 5.8063 28.5012 5.87741 28.519 5.95491C28.426 10.3761 28.4103 14.8004 28.4717 19.2279C28.4638 19.9943 28.456 20.7606 28.4481 21.527C28.4244 21.5507 28.4008 21.5744 28.3771 21.5981C27.4987 21.6372 26.6237 21.6293 25.7522 21.5744C25.7108 21.5093 25.6871 21.4382 25.6812 21.3611C25.7332 20.5323 25.7568 19.7028 25.7522 18.8724C23.9498 21.6764 21.451 22.5849 18.2556 21.5981C16.5734 20.8113 15.588 19.4919 15.2996 17.6399C15.2301 17.2634 15.1828 16.8842 15.1577 16.5022C15.1225 12.9311 15.1068 9.36005 15.1104 5.789C15.1443 5.76321 15.1679 5.73159 15.1813 5.69419Z" fill="white"/>
<path fill-rule="evenodd" clip-rule="evenodd" d="M50.3702 11.8566C51.7134 11.994 52.3519 12.7366 52.2857 14.0846C51.9759 15.2003 51.2428 15.698 50.0864 15.5778C49.2525 15.3687 48.7559 14.8394 48.5965 13.9898C48.5667 12.752 49.1579 12.0409 50.3702 11.8566Z" fill="white"/>
</g>
<defs>
<clipPath id="clip0_2834_428">
<rect width="57.9765" height="22" fill="white"/>
</clipPath>
</defs>
</svg>
