<svg width="111" height="22" viewBox="0 0 111 22" fill="none" xmlns="http://www.w3.org/2000/svg">
<g clip-path="url(#clip0_2834_708)">
<mask id="mask0_2834_708" style="mask-type:luminance" maskUnits="userSpaceOnUse" x="0" y="0" width="111" height="22">
<path d="M110.464 0H0.464355V22H110.464V0Z" fill="white"/>
</mask>
<g mask="url(#mask0_2834_708)">
<path d="M9.00044 5.49376L9.43279 5.38092L9.86514 5.30571V9.42562H11.9345V5.30571L12.3761 5.38092L12.8085 5.49376L13.2223 5.62352L13.6177 5.78334V3.76947L12.9655 3.58331L12.293 3.45169L11.953 3.40468L11.6038 3.36707L11.2546 3.34827L10.9035 3.33887L10.5543 3.34827L10.1959 3.36707L9.85592 3.40468L9.50672 3.45169L8.83416 3.58331L8.51269 3.66605L8.18933 3.76947V5.78334L8.58657 5.62352L9.00044 5.49376Z" fill="white"/>
<path d="M11.9438 9.82812H9.86516L8.05264 13.3294H6.97546V16.0465L9.02632 17.8254V15.1477H12.7808V17.8254L14.8335 16.0465V13.3313H13.7471L11.9438 9.82812ZM10.122 13.3313L10.8943 11.6653L11.6759 13.3313H10.122Z" fill="white"/>
<path d="M10.9038 15.8773L10.2683 16.2421L9.65112 16.6069V17.3477V18.0962L10.2683 18.4609L10.9038 18.8257L11.5302 18.4609L12.1658 18.0962V17.3477V16.6069L11.5302 16.2421L10.9038 15.8773ZM11.521 17.4794L11.484 17.6016L11.4286 17.705L11.3454 17.7991L11.253 17.8837L11.1514 17.94L11.0313 17.9777L10.902 17.9871L10.7727 17.9777L10.6618 17.94L10.5602 17.8837L10.4678 17.7991L10.3846 17.705L10.3292 17.6016L10.2923 17.4794L10.283 17.3477L10.2923 17.2161L10.3292 17.1033L10.3846 16.9999L10.4678 16.9059L10.5602 16.8213L10.6618 16.7648L10.7727 16.7273L10.902 16.7178L11.0313 16.7273L11.1514 16.7648L11.253 16.8213L11.3454 16.9059L11.4286 16.9999L11.484 17.1033L11.521 17.2161L11.5302 17.3477L11.521 17.4794Z" fill="white"/>
<path d="M20.5237 6.94744C19.9971 5.68198 19.2452 4.54622 18.2863 3.57032C17.3274 2.59441 16.2114 1.8291 14.968 1.29319C13.6802 0.738487 12.313 0.458313 10.9033 0.458313C9.49357 0.458313 8.12631 0.738487 6.83858 1.29319C5.59512 1.8291 4.47918 2.59441 3.52028 3.57032C2.56138 4.54622 1.8094 5.68198 1.28284 6.94744C0.739647 8.25805 0.464355 9.64955 0.464355 11.0843C0.464355 12.519 0.739647 13.9104 1.28469 15.221C1.81125 16.4865 2.56322 17.6223 3.52213 18.5982C4.48103 19.5741 5.59696 20.3394 6.84041 20.8753C8.12819 21.43 9.4954 21.7102 10.9051 21.7102C12.3148 21.7102 13.682 21.43 14.9698 20.8753C16.2132 20.3394 17.3292 19.5741 18.2881 18.5982C19.247 17.6223 19.999 16.4865 20.5256 15.221C21.0706 13.9104 21.3459 12.519 21.3459 11.0843C21.344 9.64955 21.0687 8.25805 20.5237 6.94744ZM10.9033 20.2191C5.95354 20.2191 1.92765 16.1218 1.92765 11.0843C1.92765 6.04677 5.95354 1.94944 10.9033 1.94944C15.853 1.94944 19.8789 6.04677 19.8789 11.0843C19.8807 16.1199 15.853 20.2191 10.9033 20.2191Z" fill="white"/>
<path d="M56.8989 9.42967L56.8288 9.09682L56.7197 8.80349L56.5905 8.56094L56.4319 8.35973L56.2339 8.19803L56.0047 8.07767L55.7462 7.98743L55.4378 7.91597L55.1013 7.87647L54.7246 7.86707H51.6368V6.28756H56.2912V4.84344H50.0482V12.5304H54.7228L55.0995 12.521L55.4359 12.4796L55.7334 12.4195L55.9919 12.3292L56.2211 12.2089L56.4186 12.0471L56.5776 11.846L56.7161 11.6241L56.8251 11.3514L56.8953 11.0392L56.9452 10.6745L56.9544 10.2608L56.9452 9.82644L56.8989 9.42967ZM55.3598 10.1762V10.3473L55.3397 10.4977L55.3195 10.6181L55.2897 10.7196L55.2512 10.8004L55.1921 10.8813L55.1215 10.9415L55.0221 10.9829L54.9038 11.0129L54.7649 11.043L54.5972 11.0524L54.3992 11.0618H51.6409V9.30367H54.4491L54.6375 9.31307L54.7966 9.32251L54.935 9.35257L55.0441 9.39204L55.133 9.44282L55.2123 9.503L55.2622 9.58385L55.3007 9.67222L55.3305 9.76251L55.3507 9.88282L55.3598 10.0145V10.1762Z" fill="white"/>
<path d="M40.6924 6.84413L40.6517 6.54135L40.5926 6.27813L40.5243 6.03553L40.4356 5.81366L40.3155 5.62189L40.1862 5.45075L40.0365 5.30032L39.8684 5.17996L39.6799 5.06905L39.4711 4.9882L39.2438 4.92802L38.9852 4.87723L38.6969 4.85656L38.3902 4.84717H33.8542V12.5303H35.4414V10.2476H38.4087L38.7948 10.2269L39.1533 10.1761L39.4619 10.0953L39.739 9.97491L39.9774 9.81321L40.1751 9.6214L40.3432 9.37885L40.4818 9.10618L40.5908 8.78274L40.6702 8.40856L40.709 7.99491L40.7293 7.77298V7.53043L40.7201 7.17692L40.6924 6.84413ZM39.1238 7.73164L39.1145 7.92346L39.0849 8.07576L39.0443 8.21679L38.9944 8.3371L38.915 8.43867L38.8263 8.52891L38.7265 8.60037L38.5972 8.65115L38.4586 8.70189L38.2905 8.72261L38.102 8.732H35.4414V6.35898H38.102H38.2406L38.3791 6.37965L38.5972 6.43043L38.7764 6.52068L38.915 6.64104L39.0147 6.80274L39.0849 6.99455L39.1238 7.2371L39.133 7.53043L39.1238 7.73164Z" fill="white"/>
<path d="M61.1266 4.84344L57.6029 12.5304H59.4578L60.3208 10.5804H64.262L65.1154 12.5304H67.0001L63.4879 4.84344H61.1266ZM60.9675 9.13633L62.2774 6.27817H62.3567L63.6282 9.13633H60.9675Z" fill="white"/>
<path d="M45.1872 9.1664L42.9645 4.84344H41.0891L44.1655 10.2476L44.2154 10.3492L44.2542 10.4394L44.2745 10.5297L44.2856 10.6011L44.2745 10.7121L44.2246 10.8023L44.1562 10.8832L44.0565 10.9546L43.9271 11.0054L43.7682 11.0355L43.5798 11.0543L43.3618 11.0656H43.044V12.5304H43.6703L43.8975 12.521L44.1064 12.5097L44.2856 12.489L44.4445 12.4589L44.5923 12.4195L44.7308 12.3668L44.8602 12.2972L44.9784 12.207L45.0985 12.096L45.2168 11.9738L45.3369 11.8234L45.4551 11.6504L45.5955 11.4586L45.7433 11.216L45.9023 10.934L46.0815 10.6105L49.1875 4.84344H47.2919L45.1872 9.1664Z" fill="white"/>
<path d="M25.9833 6.35902H28.7622V12.5304H30.3604V6.35902H33.1688V4.84344H25.9833V6.35902Z" fill="white"/>
<path d="M106.213 6.83289L106.183 6.6204L106.154 6.41919L106.104 6.22743L106.054 6.05629L105.995 5.90398L105.857 5.63132L105.677 5.39817L105.468 5.21763L105.23 5.07664L104.953 4.97508L104.626 4.90362L104.249 4.85284L103.843 4.84344H100.914L100.576 4.85284L100.278 4.87356L99.9997 4.91302L99.7522 4.9732L99.534 5.04465L99.3342 5.14617L99.1549 5.26653L99.0055 5.40756L98.8763 5.57866L98.7562 5.77047L98.6673 5.99235L98.588 6.23494L98.5289 6.50756L98.4881 6.83101L98.4697 7.17512L98.4587 7.56998V9.89222L98.4697 10.2363L98.4881 10.5504L98.5289 10.8343L98.588 11.0957L98.6673 11.3288L98.7672 11.5413L98.8873 11.7331L99.0165 11.9042L99.1756 12.0566L99.353 12.1881L99.5615 12.2991L99.7797 12.38L100.027 12.4514L100.295 12.4928L100.593 12.5229L100.91 12.5323H103.839L104.177 12.5229L104.484 12.4928L104.752 12.4514L104.999 12.38L105.228 12.2991L105.428 12.1975L105.596 12.0772L105.746 11.9249L105.875 11.7632L105.975 11.5714L106.063 11.3589L106.134 11.1277L106.183 10.8644L106.222 10.5711L106.243 10.2476L106.254 9.89409V7.56998V7.30671L106.233 7.06416L106.213 6.83289ZM104.655 9.70233L104.644 9.95427L104.633 10.1668L104.604 10.3492L104.554 10.4996L104.495 10.6312L104.415 10.7328L104.316 10.823L104.196 10.8832L104.046 10.934L103.867 10.964L103.658 10.9847L103.41 10.9941H101.297L101.068 10.9847L100.859 10.964L100.679 10.934L100.53 10.8832L100.412 10.8117L100.312 10.7309L100.223 10.62L100.164 10.4883L100.114 10.336L100.084 10.1536L100.055 9.94112L100.05 9.71172V7.75239L100.061 7.49101L100.09 7.25785L100.129 7.05664L100.179 6.89494L100.238 6.75392L100.326 6.64295L100.426 6.55271L100.556 6.48125L100.705 6.43047L100.885 6.38913L101.093 6.36841L101.332 6.35902H103.386L103.615 6.36841L103.824 6.38913L104.003 6.43047L104.151 6.48125L104.28 6.54143L104.38 6.63168L104.471 6.74264L104.539 6.87423L104.589 7.04537L104.628 7.24846L104.648 7.48161L104.66 7.743V9.70233H104.655Z" fill="white"/>
<path d="M92.6966 4.84344L89.173 12.5304H91.0278L93.8475 6.27817H93.9268L96.6965 12.5304H98.561L95.0575 4.84344H92.6966Z" fill="white"/>
<path d="M82.0175 12.5304H88.826V11.0656H83.6157V9.30743H88.6578V7.97427H83.6157V6.28756H88.826V4.84344H82.0175V12.5304Z" fill="white"/>
<path d="M77.6398 4.84344H75.2785L72.4501 10.9941H71.4963V13.2261L72.9561 14.4991V12.5304H73.601H79.2678H79.942V14.4991L81.3908 13.2261V10.9941H80.4375L77.6398 4.84344ZM74.2958 10.9941L76.4298 6.27629H76.5L78.5936 10.9941H74.2958Z" fill="white"/>
<path d="M71.5266 8.16595H67.6171V9.69092H71.5266V8.16595Z" fill="white"/>
<path d="M110.45 4.59141L110.429 4.4203L110.391 4.26799L110.341 4.11756L110.273 3.97654L110.203 3.84491L110.114 3.72457L110.023 3.62303L109.805 3.45191L109.685 3.38046L109.556 3.32029L109.426 3.26952L109.288 3.23943L108.999 3.21875L108.722 3.23943L108.584 3.26952L108.455 3.32029L108.325 3.38046L108.207 3.45191L107.989 3.62303L107.899 3.72457L107.811 3.84303L107.741 3.97466L107.671 4.11568L107.621 4.26611L107.591 4.41842L107.571 4.58953L107.564 4.78322L107.573 4.95432L107.593 5.12546L107.623 5.27776L107.673 5.43007L107.743 5.5711L107.813 5.70273L107.902 5.82304L107.993 5.92461L108.211 6.0957L108.329 6.16716L108.458 6.22734L108.726 6.30819L109.003 6.33825L109.153 6.32886L109.291 6.30819L109.56 6.22734L109.689 6.16716L109.809 6.0957L110.027 5.92461L110.117 5.82304L110.206 5.70273L110.276 5.5711L110.345 5.43007L110.395 5.27776L110.433 5.12546L110.454 4.95432L110.465 4.78322L110.45 4.59141ZM110.123 5.04456L110.064 5.29655L109.964 5.50904L109.825 5.70085L109.666 5.84188L109.469 5.9528L109.249 6.02425L109.131 6.03365L109.001 6.04304L108.763 6.02237L108.545 5.95092L108.356 5.84L108.188 5.69897L108.059 5.50716L107.95 5.29467L107.891 5.04268L107.871 4.77946L107.891 4.49739L107.95 4.24543L108.059 4.03295L108.188 3.84115L108.356 3.70012L108.545 3.58918L108.763 3.51773L109.001 3.49704L109.131 3.50644L109.249 3.51585L109.469 3.5873L109.666 3.69824L109.825 3.83927L109.964 4.03106L110.064 4.24355L110.123 4.49552L110.143 4.77758L110.123 5.04456Z" fill="white"/>
<path d="M109.528 5.22699L109.419 5.05589L109.319 4.92426L109.46 4.84341L109.557 4.73245L109.616 4.61209L109.637 4.4598L109.626 4.32817L109.587 4.21723L109.528 4.12697L109.449 4.04612L109.34 3.98595L109.21 3.94458L109.06 3.9145L108.881 3.90509L108.652 3.9145L108.405 3.95586V5.63316H108.711V4.98632H108.99L109.099 5.10663L109.208 5.26838L109.326 5.43947L109.426 5.63128H109.753L109.644 5.4282L109.528 5.22699ZM109.29 4.59142L109.251 4.6422L109.201 4.67227L109.053 4.72305L108.874 4.73245H108.715V4.17774H108.806L108.905 4.16834H108.996L109.075 4.18903L109.204 4.2398L109.254 4.28117L109.293 4.32065L109.313 4.38082L109.323 4.45228L109.313 4.53314L109.29 4.59142Z" fill="white"/>
<path fill-rule="evenodd" clip-rule="evenodd" d="M29.0057 18.9085L28.8099 18.2296H27.779L27.5831 18.9085H26.9457L27.9268 16.0296H28.6529L29.6543 18.9085H29.0057ZM28.6621 17.7201L28.5938 17.5001L28.5346 17.3101L28.4866 17.1409L28.4478 17.0018L28.409 16.8814L28.3794 16.7818L28.3591 16.7122L28.3499 16.6727L28.3203 16.5636L28.3 16.4734L28.2797 16.5542L28.2501 16.6445L28.2113 16.7742L28.1725 16.9134L28.1226 17.0826L28.0727 17.2725L28.0044 17.4831L27.936 17.7238H28.6621V17.7201ZM30.0072 16.0409H30.8719L31.1564 16.0503L31.3928 16.0898L31.5887 16.1387L31.7458 16.2195L31.864 16.3192L31.9416 16.4395L31.9896 16.5899L32.0099 16.7705L32.0007 16.8908L31.9804 17.0112L31.9416 17.1108L31.8917 17.2011L31.8234 17.2707L31.755 17.3308L31.6663 17.3722L31.5776 17.391V17.4117L31.7051 17.4512L31.803 17.5019L31.8917 17.5621L31.9601 17.643L32.0099 17.7332L32.0488 17.8329L32.0691 17.9532L32.0783 18.083L32.058 18.2635L32.0081 18.4327L31.9194 18.5737L31.8012 18.6941L31.6534 18.7937L31.476 18.8633L31.2691 18.9028L31.0437 18.9122H30.0034V16.0409H30.0072ZM30.5965 17.1804H30.9402H31.0584L31.1564 17.1597L31.2358 17.139L31.2949 17.109L31.343 17.0582L31.3725 16.998L31.3928 16.9284L31.4021 16.8476L31.3928 16.7686L31.3725 16.7084L31.3337 16.6482L31.2838 16.6088L31.2155 16.5787L31.1268 16.558L31.0289 16.5373H30.9106H30.5965V17.1804ZM30.5965 17.6693V18.4083H30.9901L31.0991 18.3988L31.197 18.3895L31.2857 18.3594L31.3448 18.3105L31.3947 18.2597L31.4335 18.1902L31.4538 18.1093L31.4631 18.019L31.4538 17.9382L31.4335 17.8592L31.3947 17.799L31.3356 17.7596L31.2672 17.7201L31.1896 17.69L31.0917 17.6806L30.9735 17.6712H30.5965V17.6693ZM34.3564 18.9085L34.1606 18.2296H33.1296L32.9338 18.9085H32.2853L33.2774 16.0296H34.0035L34.9957 18.9085H34.3564ZM34.0128 17.7201L33.9444 17.5001L33.8853 17.3101L33.8354 17.1409L33.7966 17.0018L33.7578 16.8814L33.7282 16.7818L33.7079 16.7122L33.6987 16.6727L33.6691 16.5636L33.6395 16.4734L33.6211 16.5542L33.6007 16.6445L33.5619 16.7742L33.5231 16.9134L33.4751 17.0826L33.4252 17.2725L33.3568 17.4831L33.2885 17.7238H34.0128V17.7201ZM35.9472 17.4004H36.143L36.2705 17.3891L36.3795 17.3703L36.4775 17.3402L36.555 17.2913L36.6142 17.2312L36.653 17.1503L36.6825 17.0601L36.6918 16.9604L36.6825 16.8607L36.6622 16.7705L36.6234 16.7009L36.5735 16.6407L36.5051 16.5918L36.4257 16.5618L36.3278 16.5524L36.2206 16.543H35.9453V17.4004H35.9472ZM37.2922 16.9303L37.2719 17.1597L37.222 17.3496L37.1333 17.5188L37.0059 17.6486L36.8488 17.7596L36.6622 17.8291L36.446 17.8799L36.2003 17.8912H35.9453V18.9103H35.3467V16.0409H36.2502L36.4867 16.0503L36.7029 16.1011L36.8802 16.1706L37.028 16.2703L37.1463 16.4001L37.2257 16.5505L37.2756 16.7291L37.2922 16.9303ZM37.8225 16.0409H38.3528V17.4305L38.3435 17.799L38.3232 18.2184H38.3435L39.6387 16.039H40.3463V18.9066H39.816V17.5376V17.3778L39.8271 17.1879L39.8363 16.9679L39.8567 16.7084H39.8363L38.5394 18.9066H37.8225V16.0409ZM41.0521 16.0409H41.5916V17.4305L41.5823 17.799L41.562 18.2184H41.5713L42.8683 16.039H43.5759V18.9066H43.0456V17.5376V17.3778L43.0549 17.1879L43.0752 16.9679L43.0844 16.7084H43.0641L41.7671 18.9066H41.0502V16.0409H41.0521ZM43.2415 15.1233L43.2119 15.2925L43.1639 15.4316L43.0844 15.552L42.9754 15.6516L42.848 15.7212L42.6909 15.772L42.5043 15.8021L42.2974 15.8115L42.0812 15.8021L41.9038 15.772L41.7468 15.7212L41.6285 15.6516L41.5306 15.5614L41.4511 15.441L41.4031 15.2906L41.3828 15.1214H41.902L41.9112 15.2116L41.9315 15.2906L41.9611 15.3508L41.9999 15.3997L42.0479 15.4298L42.1163 15.4599L42.205 15.4693L42.3029 15.4787L42.3916 15.4693L42.4692 15.4599L42.5375 15.4298L42.5967 15.3903L42.665 15.2812L42.6946 15.2004L42.7038 15.1214H43.2415V15.1233ZM46.5801 18.9085H45.9907V17.6787H44.8803V18.9085H44.2817V16.0409H44.8803V17.171H45.9907V16.0409H46.5801V18.9085ZM49.8503 17.4794L49.8411 17.6486L49.832 17.8084L49.7637 18.098L49.6564 18.3575L49.5084 18.5681L49.3127 18.7279L49.0872 18.8483L48.9597 18.899L48.8232 18.9291L48.6751 18.9385L48.5184 18.9479L48.3612 18.9385L48.2136 18.9291L48.0765 18.899L47.9491 18.8483L47.7236 18.7279L47.5279 18.5681L47.3799 18.3575L47.2712 18.098L47.2323 17.9588L47.203 17.8084L47.1933 17.6392L47.1823 17.47L47.1933 17.3007L47.203 17.1296L47.2323 16.9792L47.2712 16.8288L47.3207 16.699L47.3799 16.5787L47.4486 16.4696L47.5261 16.3699L47.7218 16.2101L47.9473 16.0898L48.0747 16.0503L48.2113 16.0202L48.3593 16.0108L48.5165 16.0014L48.8213 16.0221L48.9579 16.0522L49.0853 16.0916L49.2127 16.1518L49.32 16.212L49.4181 16.2929L49.5065 16.3831L49.6546 16.5937L49.7137 16.7141L49.7637 16.8438L49.8022 16.983L49.832 17.1428L49.8411 17.3026L49.8503 17.4794ZM47.7979 17.4794L47.807 17.7088L47.8455 17.8987L47.9047 18.0679L47.9844 18.1977L48.082 18.3086L48.2095 18.3782L48.3465 18.4271L48.5129 18.4365L48.6788 18.4271L48.8268 18.3782L48.9451 18.3086L49.0427 18.1977L49.1225 18.0679L49.1816 17.8987L49.2109 17.7088L49.2201 17.4794L49.2109 17.2499L49.1816 17.0507L49.1225 16.8814L49.0427 16.7422L48.9451 16.6426L48.8268 16.5636L48.6788 16.5241L48.5129 16.5035L48.3465 16.5241L48.2095 16.5636L48.082 16.6426L47.9844 16.7517L47.9047 16.8908L47.8455 17.0619L47.807 17.2518L47.7979 17.4794ZM50.194 18.0792V17.5903H51.2248V18.0792H50.194ZM52.884 16.511L52.7272 16.5298L52.5902 16.5712L52.472 16.652L52.3647 16.7611L52.2854 16.9002L52.2263 17.0695L52.1873 17.2688L52.1782 17.4888L52.1873 17.7088L52.2263 17.9081L52.2762 18.0679L52.3555 18.2071L52.4536 18.3067L52.581 18.3763L52.7176 18.4252L52.884 18.4346L53.0412 18.4252L53.2076 18.3951L53.3941 18.3556L53.6008 18.2861V18.7956L53.4235 18.8652L53.2369 18.9047L53.0302 18.9348L52.823 18.9442L52.5384 18.9235L52.2836 18.8445L52.0672 18.7242L51.8899 18.5644L51.7533 18.3537L51.646 18.1036L51.6167 17.9645L51.5869 17.8141L51.5777 17.6448L51.5686 17.4756L51.5777 17.265L51.6075 17.0544L51.6552 16.8645L51.724 16.684L51.8124 16.5241L51.9197 16.3944L52.0471 16.2741L52.1837 16.1744L52.3409 16.0954L52.5072 16.0447L52.6846 16.0052L52.8803 15.9958L53.0875 16.0052L53.2942 16.0447L53.5014 16.1048L53.7081 16.1951L53.5124 16.6953L53.3552 16.6163L53.198 16.5561L53.0412 16.5166L52.884 16.511ZM55.9177 18.9085L55.711 18.2296H54.6894L54.4822 18.9085H53.8447L54.837 16.0296H55.563L56.5552 18.9085H55.9177ZM55.5648 17.7201L55.4965 17.5001L55.4374 17.3101L55.3874 17.1409L55.3489 17.0018L55.31 16.8814L55.2806 16.7818L55.26 16.7122L55.2508 16.6727L55.2215 16.5636L55.2009 16.4734L55.1825 16.5542L55.1528 16.6445L55.1234 16.7742L55.0845 16.9134L55.0253 17.0826L54.9754 17.2725L54.9071 17.4831L54.8388 17.7238H55.5648V17.7201ZM59.2067 18.9085H58.6081V17.6787H57.4976V18.9085H56.9082V16.0409H57.4976V17.171H58.6081V16.0409H59.2067V18.9085ZM60.9933 18.9085H60.4039V16.5505H59.6389V16.0409H61.7601V16.5505H60.9933V18.9085ZM63.8015 18.9085H62.1923V16.0409H63.8015V16.5411H62.7817V17.1804H63.7332V17.6693H62.7817V18.4083H63.8015V18.9085ZM66.6597 18.9085H65.9818L65.3241 17.8291L64.6755 18.9085H64.0362L64.9693 17.4399L64.0953 16.0409H64.753L65.3516 17.0807L65.9502 16.0409H66.5877L65.7045 17.47L66.6597 18.9085ZM69.3093 18.9085H68.7107V17.6787H67.602V18.9085H67.0126V16.0409H67.602V17.171H68.7107V16.0409H69.3093V18.9085ZM70.017 16.0409H70.5473V17.4305V17.799L70.5266 18.2184H70.5358L71.8329 16.039H72.5405V18.9066H72.0103V17.5376V17.3778L72.0194 17.1879L72.029 16.9679L72.0492 16.7084H72.029L70.732 18.9066H70.0151V16.0409H70.017ZM75.406 18.9085H74.8075V17.8084L74.5325 17.8893L74.4142 17.9194L74.3161 17.9382L74.1204 17.9682L73.943 17.9777L73.7473 17.9682L73.581 17.9288L73.4439 17.8686L73.3257 17.7878L73.228 17.6787L73.1598 17.549L73.1116 17.4004L73.1025 17.2293V16.039H73.701V17.0582L73.7102 17.1578L73.7194 17.2387L73.7492 17.3082L73.7877 17.3684L73.8468 17.4173L73.9247 17.4474L74.0132 17.4681L74.1113 17.4775L74.268 17.4681L74.4252 17.438L74.5916 17.3985L74.7007 17.3684L74.8075 17.3271V16.0371H75.406V18.9085ZM77.7234 18.9085H76.1027V16.0409H77.7234V16.5411H76.7031V17.1804H77.6546V17.6693H76.7031V18.4083H77.7234V18.9085ZM79.5003 16.511L79.3436 16.5298L79.1955 16.5712L79.0773 16.652L78.9797 16.7611L78.9018 16.9002L78.8426 17.0695L78.8023 17.2688L78.7931 17.4888L78.8023 17.7088L78.8426 17.9081L78.8908 18.0679L78.9705 18.2071L79.0681 18.3067L79.1955 18.3763L79.3326 18.4252L79.4985 18.4346L79.6557 18.4252L79.8221 18.3951L80.0086 18.3556L80.2135 18.2861V18.7956L80.0361 18.8652L79.8404 18.9047L79.6447 18.9348L79.4375 18.9442L79.1534 18.9235L78.8981 18.8445L78.6822 18.7242L78.5048 18.5644L78.3678 18.3537L78.2592 18.1036L78.2294 17.9645L78.2 17.8141L78.1904 17.6448L78.1812 17.4756L78.1904 17.265L78.2202 17.0544L78.2683 16.8645L78.3366 16.684L78.4251 16.5241L78.5342 16.3944L78.6524 16.2741L78.7986 16.1744L78.9554 16.0954L79.1217 16.0447L79.2991 16.0052L79.4948 15.9958L79.702 16.0052L79.9069 16.0447L80.103 16.1048L80.3097 16.1951L80.1232 16.6953L79.966 16.6163L79.8092 16.5561L79.652 16.5166L79.5003 16.511ZM83.0941 18.9085H82.4273L81.4056 17.4587V18.9085H80.8066V16.0409H81.4056V17.4399L82.4066 16.0409H83.0442L82.0225 17.4192L83.0941 18.9085ZM85.1653 18.9085L84.9582 18.2296H83.9384L83.7408 18.9085H83.0941L84.0864 16.0296H84.8124L85.8047 18.9085H85.1653ZM84.8216 17.7201L84.7533 17.5001L84.6942 17.3101L84.646 17.1409L84.6071 17.0018L84.5686 16.8814L84.5388 16.7818L84.5186 16.7122L84.5095 16.6727L84.4705 16.5636L84.4503 16.4734L84.432 16.5542L84.4132 16.6445L84.3747 16.7742L84.3339 16.9134L84.2858 17.0826L84.2358 17.2725L84.1675 17.4831L84.0993 17.7238H84.8216V17.7201ZM87.111 17.8103L86.4533 18.9103H85.7859L86.6008 17.6505L86.4826 17.6016L86.3845 17.532L86.296 17.4512L86.2277 17.3515L86.1686 17.2424L86.1297 17.1221L86.1095 17.0018L86.1003 16.8607L86.1205 16.6802L86.1686 16.5204L86.2571 16.3812L86.3753 16.2609L86.5325 16.1612L86.7191 16.0916L86.9263 16.0522L87.1719 16.0428H88.0753V18.9103H87.4859V17.8103H87.111ZM87.484 16.5411H87.1903L87.0812 16.5505L86.9831 16.5599L86.9038 16.5899L86.8355 16.6201L86.7764 16.6689L86.7374 16.7291L86.7191 16.8099L86.7099 16.9002L86.7191 16.9999L86.7374 17.0788L86.7764 17.1484L86.8263 17.2086L86.8946 17.2594L86.9813 17.2895L87.0903 17.3101L87.2086 17.3195H87.484V16.5411ZM90.9981 16.511L90.8409 16.5298L90.6933 16.5712L90.575 16.652L90.477 16.7611L90.3995 16.9002L90.3404 17.0695L90.3014 17.2688L90.2923 17.4888L90.3014 17.7088L90.3404 17.9081L90.3903 18.0679L90.4678 18.2071L90.5659 18.3067L90.6933 18.3763L90.8317 18.4252L90.9981 18.4346L91.1553 18.4252L91.3235 18.3951L91.51 18.3556L91.7168 18.2861V18.7956L91.5394 18.8652L91.3437 18.9047L91.148 18.9348L90.9408 18.9442L90.7932 18.9348L90.6562 18.9254L90.5196 18.8953L90.4013 18.8445L90.185 18.7242L90.0076 18.5644L89.871 18.3537L89.7638 18.1036L89.7345 17.9645L89.7047 17.8141L89.6955 17.6448L89.6845 17.4756L89.6955 17.265L89.7253 17.0544L89.7748 16.8645L89.8435 16.684L89.932 16.5241L90.0393 16.3944L90.1575 16.2741L90.2941 16.1744L90.4513 16.0954L90.6177 16.0447L90.8042 16.0052L90.9999 15.9958L91.1956 16.0052L91.4028 16.0447L91.6095 16.1048L91.8167 16.1951L91.6301 16.6953L91.4729 16.6163L91.3157 16.5561L91.159 16.5166L90.9981 16.511ZM94.5231 18.9085H93.9342V16.5505H93.2467L93.2169 16.8099L93.1875 17.0507L93.1578 17.2801L93.1284 17.4794L93.1083 17.6693L93.0785 17.8291L93.0583 17.9796L93.0285 18.1093L93.0083 18.2202L92.9492 18.4102L92.8901 18.57L92.8108 18.6903L92.7329 18.79L92.6444 18.8596L92.5372 18.9103L92.4098 18.9404L92.2617 18.9498L92.116 18.9404L91.9775 18.9103V18.4102L92.0862 18.4402L92.1934 18.4496L92.2823 18.429L92.3208 18.3988L92.3506 18.3481L92.38 18.2879L92.4098 18.2184L92.4391 18.1187L92.4689 17.9984L92.4982 17.8479L92.528 17.658L92.567 17.4286L92.6055 17.1578L92.6829 16.5787L92.7517 16.039H94.5195V18.9085H94.5231ZM97.4482 16.0409L96.5742 18.0698L96.4967 18.2503L96.4188 18.3988L96.3487 18.5192L96.2712 18.6189L96.1232 18.758L95.9366 18.8671L95.7111 18.9273L95.5929 18.9367L95.4563 18.9461L95.2308 18.9367L95.0149 18.8859V18.3669L95.1034 18.397L95.2033 18.4177L95.438 18.4365L95.5745 18.4177L95.6928 18.3669L95.7318 18.3274L95.7817 18.2673L95.8202 18.1883L95.85 18.098L94.876 16.0409H95.5136L96.2011 17.6505H96.2213L96.251 17.5508L96.829 16.0409H97.4482ZM98.44 17.4211L97.4982 16.0428H98.1169L99.0203 17.4418V16.0428H99.5804V17.4418L100.484 16.0428H101.092L100.149 17.4211L101.151 18.9103H100.511L99.5785 17.4605V18.9103H99.0185V17.4605L98.0853 18.9103H97.4464L98.44 17.4211ZM102.093 17.1503H102.328L102.593 17.1597L102.819 17.2105L103.017 17.2801L103.183 17.3797L103.31 17.5001L103.408 17.6505L103.457 17.8197L103.477 18.019L103.457 18.2296L103.408 18.4102L103.31 18.5606L103.192 18.6903L103.026 18.7806L102.83 18.8502L102.595 18.9009L102.32 18.9103H101.505V16.0409H103.274V16.5411H102.095V17.1503H102.093ZM102.093 18.4102H102.3L102.439 18.4007L102.557 18.3913L102.664 18.3613L102.743 18.3124L102.802 18.2616L102.841 18.192L102.871 18.1112L102.88 18.0209L102.871 17.9307L102.841 17.8517L102.802 17.7821L102.743 17.7313L102.654 17.6919L102.546 17.6712L102.409 17.6505H102.252H102.095V18.4102H102.093ZM105.686 18.9085L105.48 18.2296H104.46L104.264 18.9085H103.616L104.607 16.0296H105.333L106.326 18.9085H105.686ZM105.343 17.7201L105.275 17.5001L105.216 17.3101L105.167 17.1409L105.129 17.0018L105.09 16.8814L105.06 16.7818L105.038 16.7103L105.029 16.6708L104.999 16.5618L104.969 16.4715L104.949 16.5524L104.929 16.6426L104.89 16.7724L104.849 16.9115L104.802 17.0807L104.752 17.2707L104.682 17.4813L104.613 17.7219H105.343V17.7201Z" fill="white"/>
</g>
</g>
<defs>
<clipPath id="clip0_2834_708">
<rect width="110" height="22" fill="white" transform="translate(0.464355)"/>
</clipPath>
</defs>
</svg>
