<svg width="1000" height="379" viewBox="0 0 1000 379" fill="none" xmlns="http://www.w3.org/2000/svg">
<g clip-path="url(#clip0_3133_20)">
<path fill-rule="evenodd" clip-rule="evenodd" d="M537.593 0.0987608C553.291 -0.167462 568.927 0.104477 584.501 0.915395C583.913 111.433 584.05 221.951 584.909 332.469C584.902 345.85 584.359 359.053 583.277 372.076C567.853 372.749 552.489 372.614 537.185 371.667C537.589 247.755 537.724 123.899 537.593 0.0987608Z" fill="white"/>
<path fill-rule="evenodd" clip-rule="evenodd" d="M641.199 29.4975C656.429 29.3611 671.66 29.4975 686.883 29.9058C687.291 30.3141 687.699 30.7225 688.107 31.1308C688.735 53.4641 688.596 75.7851 687.699 98.0948C709.725 97.9584 731.752 98.0948 753.778 98.5031C754.847 104.162 755.394 110.014 755.41 116.061C755.402 121.976 755.132 127.828 754.594 133.618C732.298 134.027 710.003 134.163 687.699 134.027C687.56 189.014 687.699 244 688.107 298.987C688.27 305.874 689.086 312.679 690.554 319.403C693.002 328.93 698.851 335.326 708.094 338.594C723.21 341.58 738.164 340.9 752.962 336.552C753.509 336.824 754.047 337.097 754.594 337.369C755.671 348.172 755.671 358.925 754.594 369.626C731.776 377.995 708.665 379.084 685.251 372.892C663.519 365.836 649.511 351.272 643.238 329.202C641.533 322.496 640.448 315.691 639.975 308.786C639.567 250.533 639.428 192.28 639.567 134.027C628.414 134.163 617.266 134.027 606.119 133.618C605.711 133.21 605.304 132.802 604.896 132.393C604.352 121.505 604.352 110.616 604.896 99.7281C605.304 99.3197 605.711 98.9114 606.119 98.5031C617.266 98.0948 628.414 97.9584 639.567 98.0948C639.037 75.0445 639.583 52.1787 641.199 29.4975Z" fill="white"/>
<path fill-rule="evenodd" clip-rule="evenodd" d="M114.195 92.3782C138.66 90.3955 162.318 93.7976 185.169 102.586C222.182 120.982 242.032 150.789 244.722 192.008C230.045 192.96 215.361 193.096 200.669 192.416C192.741 144.196 164.46 122.419 115.826 127.085C93.0527 130.304 76.0573 141.872 64.8393 161.792C53.7029 185.275 48.6718 210.047 49.7471 236.106C48.7192 261.515 53.4777 285.742 64.0235 308.786C75.9936 330.372 94.349 342.213 119.09 344.31C170.07 347.183 197.943 323.092 202.709 272.038C202.96 271.378 203.368 270.833 203.932 270.405C218.309 269.463 232.721 269.327 247.169 269.996C246.908 306.991 231.681 336.389 201.485 358.193C179.112 372.325 154.638 379.266 128.063 379.017C65.394 378.181 24.7397 347.966 6.10203 288.37C-0.740858 258.652 -1.82831 228.709 2.83885 198.541C14.4835 136.111 51.6022 100.724 114.195 92.3782Z" fill="white"/>
<path fill-rule="evenodd" clip-rule="evenodd" d="M847.595 93.1949C875.315 90.2167 900.336 96.8861 922.648 113.202C931.948 121.686 939.698 131.35 945.898 142.193C946.379 131.027 946.241 119.866 945.49 108.711C945.629 105.716 945.759 102.723 945.898 99.728C946.306 99.3197 946.714 98.9114 947.122 98.503C962.353 97.9583 977.575 97.9583 992.806 98.503C993.214 98.9114 993.622 99.3197 994.03 99.728C993.459 179.35 993.598 258.972 994.438 338.594C994.299 349.346 994.169 360.098 994.03 370.851C993.622 371.259 993.214 371.667 992.806 372.076C977.575 372.62 962.353 372.62 947.122 372.076C945.857 370.588 945.319 368.818 945.49 366.767C946.143 353.395 946.551 340.057 946.714 326.752C919.784 369.696 881.303 385.62 831.279 374.525C802.269 366.723 780.381 349.709 765.607 323.486C753.868 300.694 747.342 276.466 746.028 250.805C743.23 216.491 749.218 183.826 763.976 152.809C781.703 118.564 809.57 98.6925 847.595 93.1949ZM863.911 126.677C902.016 124.684 927.306 141.697 939.78 177.717C947.285 202.638 949.871 228.09 947.53 254.072C946.551 274.061 941.387 292.843 932.029 310.42C914.245 337.071 889.363 347.824 857.384 342.677C837.307 338.907 822.215 328.155 812.108 310.42C802.473 291.727 797.04 271.856 795.792 250.805C793.458 225.183 796.175 200.141 803.95 175.675C814.229 147.218 834.216 130.885 863.911 126.677Z" fill="white"/>
<path fill-rule="evenodd" clip-rule="evenodd" d="M261.854 98.0949C277.085 97.9585 292.312 98.0949 307.538 98.5032C308.49 98.9116 309.17 99.5918 309.578 100.545C309.096 161.242 309.096 221.946 309.578 282.654C313.858 326.432 337.653 345.622 380.96 340.227C396.642 336.497 409.287 328.195 418.894 315.32C430.51 299.132 438.124 281.166 441.737 261.422C442.05 207.522 442.05 153.624 441.737 99.7282C442.145 99.3199 442.552 98.9116 442.96 98.5032C458.768 97.8328 474.54 97.9692 490.276 98.9116C491.056 100.026 491.6 101.251 491.908 102.586C490.303 178.751 490.032 254.97 491.092 331.244C490.956 344.447 490.821 357.648 490.684 370.851C490.276 371.259 489.869 371.667 489.461 372.076C474.308 372.749 459.216 372.614 444.184 371.667C443.47 370.546 443.062 369.321 442.96 367.993C443.856 353.715 444.264 339.424 444.184 325.119C413.096 373.424 369.996 389.076 314.88 372.076C285.864 358.522 268.869 335.792 263.893 303.887C262.696 297.401 261.88 290.868 261.446 284.288C260.84 222.767 260.568 161.248 260.63 99.7282C261.215 99.2839 261.623 98.7392 261.854 98.0949Z" fill="white"/>
<path fill-rule="evenodd" clip-rule="evenodd" d="M868.805 204.257C891.974 206.623 902.987 219.417 901.845 242.639C896.502 261.859 883.857 270.434 863.911 268.363C849.528 264.761 840.962 255.642 838.213 241.006C837.699 219.682 847.897 207.432 868.805 204.257Z" fill="white"/>
</g>
<defs>
<clipPath id="clip0_3133_20">
<rect width="1000" height="379" fill="white"/>
</clipPath>
</defs>
</svg>
