<svg width="146" height="28" viewBox="0 0 146 28" fill="none" xmlns="http://www.w3.org/2000/svg">
<g clip-path="url(#clip0_3163_1161)">
<path d="M135.426 18.9475V8.14075H144.75V18.9475H142.57V9.95594H137.592V18.9475H135.426Z" fill="white"/>
<path d="M124.385 18.9475V8.14075H133.709V18.9475H131.528V9.95594H126.55V18.9475H124.385Z" fill="white"/>
<path d="M115.18 23C114.847 23 114.545 22.9742 114.272 22.9226C113.999 22.8758 113.795 22.8242 113.662 22.7678L114.197 21.0441C114.604 21.1473 114.966 21.1919 115.284 21.1778C115.601 21.1637 115.882 21.0512 116.125 20.8401C116.372 20.6291 116.591 20.2843 116.78 19.8059L117.055 19.0882L112.873 8.14075H115.254L118.148 16.5272H118.268L121.163 8.14075H123.551L118.841 20.3898C118.622 20.9527 118.345 21.4287 118.007 21.818C117.67 22.212 117.268 22.5075 116.802 22.7045C116.336 22.9016 115.795 23 115.18 23Z" fill="white"/>
<path d="M102.485 23V8.14072H104.659V9.89259H104.845C104.974 9.66745 105.16 9.40713 105.403 9.11164C105.646 8.81614 105.983 8.55816 106.415 8.33771C106.847 8.11257 107.417 8 108.126 8C109.049 8 109.873 8.22045 110.597 8.66135C111.321 9.10225 111.889 9.7378 112.301 10.568C112.718 11.3982 112.926 12.3973 112.926 13.5652C112.926 14.7331 112.72 15.7345 112.308 16.5694C111.896 17.3996 111.331 18.0399 110.612 18.4902C109.892 18.9358 109.071 19.1585 108.149 19.1585C107.454 19.1585 106.886 19.0483 106.445 18.8278C106.008 18.6074 105.665 18.3494 105.418 18.054C105.17 17.7585 104.978 17.4958 104.845 17.266H104.711V23H102.485ZM104.666 13.5441C104.666 14.304 104.783 14.97 105.016 15.5422C105.249 16.1145 105.587 16.5624 106.028 16.886C106.469 17.205 107.01 17.3644 107.65 17.3644C108.315 17.3644 108.87 17.1979 109.317 16.8649C109.763 16.5272 110.101 16.0698 110.329 15.493C110.562 14.9161 110.678 14.2664 110.678 13.5441C110.678 12.8311 110.564 12.1909 110.336 11.6234C110.113 11.0558 109.776 10.6079 109.325 10.2796C108.878 9.95122 108.32 9.78706 107.65 9.78706C107.005 9.78706 106.46 9.94418 106.013 10.2584C105.572 10.5727 105.236 11.0113 105.008 11.5741C104.78 12.137 104.666 12.7936 104.666 13.5441Z" fill="white"/>
<path d="M101.392 8.14075V9.95594H96.279V18.9475H94.0837V8.14075H101.392Z" fill="white"/>
<path d="M83.9774 19.1655C82.8712 19.1655 81.9187 18.9287 81.1199 18.455C80.3264 17.9766 79.7159 17.3175 79.2892 16.4779C78.8632 15.6384 78.6494 14.6768 78.6494 13.5933C78.6494 12.4958 78.8677 11.5272 79.3042 10.6876C79.7407 9.84334 80.3564 9.18433 81.1499 8.7106C81.9434 8.23687 82.8787 8 83.9549 8C84.8234 8 85.5974 8.15244 86.2769 8.45732C86.9564 8.75751 87.5047 9.17964 87.9217 9.72373C88.3432 10.2678 88.5937 10.9034 88.6732 11.6304H86.5079C86.3887 11.1238 86.1157 10.6876 85.6889 10.3218C85.2674 9.95591 84.7019 9.77298 83.9924 9.77298C83.3722 9.77298 82.8292 9.92777 82.3627 10.2373C81.9014 10.5422 81.5422 10.9784 81.2842 11.546C81.0262 12.1088 80.8972 12.7749 80.8972 13.5441C80.8972 14.3321 81.0232 15.0122 81.2767 15.5844C81.5294 16.1566 81.8864 16.5999 82.3477 16.9142C82.8142 17.2284 83.3624 17.3856 83.9924 17.3856C84.4139 17.3856 84.7964 17.3128 85.1384 17.1675C85.4857 17.0173 85.7759 16.8039 86.0092 16.5272C86.2469 16.2504 86.4134 15.9174 86.5079 15.5281H88.6732C88.5937 16.227 88.3529 16.8508 87.9517 17.3996C87.5497 17.9484 87.0112 18.3799 86.3362 18.6942C85.6672 19.0084 84.8804 19.1655 83.9774 19.1655Z" fill="white"/>
<path d="M72.6097 19.1655C71.5382 19.1655 70.603 18.9334 69.8044 18.469C69.0056 18.0047 68.3855 17.355 67.944 16.5201C67.5025 15.6852 67.2817 14.7096 67.2817 13.5933C67.2817 12.4723 67.5025 11.492 67.944 10.6524C68.3855 9.81286 69.0056 9.16088 69.8044 8.69653C70.603 8.23218 71.5382 8 72.6097 8C73.6813 8 74.6164 8.23218 75.4155 8.69653C76.2135 9.16088 76.8337 9.81286 77.2755 10.6524C77.7172 11.492 77.9377 12.4723 77.9377 13.5933C77.9377 14.7096 77.7172 15.6852 77.2755 16.5201C76.8337 17.355 76.2135 18.0047 75.4155 18.469C74.6164 18.9334 73.6813 19.1655 72.6097 19.1655ZM72.6172 17.3996C73.3117 17.3996 73.8872 17.226 74.3436 16.8789C74.8 16.5319 75.1372 16.0698 75.3555 15.4929C75.579 14.916 75.6907 14.2805 75.6907 13.5863C75.6907 12.8968 75.579 12.2636 75.3555 11.6867C75.1372 11.1051 74.8 10.6384 74.3436 10.2866C73.8872 9.9348 73.3117 9.75891 72.6172 9.75891C71.9177 9.75891 71.3373 9.9348 70.8759 10.2866C70.4195 10.6384 70.0797 11.1051 69.8564 11.6867C69.6382 12.2636 69.529 12.8968 69.529 13.5863C69.529 14.2805 69.6382 14.916 69.8564 15.4929C70.0797 16.0698 70.4195 16.5319 70.8759 16.8789C71.3373 17.226 71.9177 17.3996 72.6172 17.3996Z" fill="white"/>
<path d="M67.2327 8.14075V9.95594H62.1205V18.9475H59.9253V8.14075H67.2327Z" fill="white"/>
<path d="M48.2498 23V8.14072H50.4227V9.89259H50.6087C50.7377 9.66745 50.9237 9.40713 51.1668 9.11164C51.4099 8.81614 51.7472 8.55816 52.1788 8.33771C52.6104 8.11257 53.1809 8 53.8904 8C54.8131 8 55.6366 8.22045 56.3609 8.66135C57.0851 9.10225 57.6532 9.7378 58.0649 10.568C58.4816 11.3982 58.6901 12.3973 58.6901 13.5652C58.6901 14.7331 58.4841 15.7345 58.0724 16.5694C57.6606 17.3996 57.0951 18.0399 56.3758 18.4902C55.6564 18.9358 54.8354 19.1585 53.9126 19.1585C53.2181 19.1585 52.6501 19.0483 52.2086 18.8278C51.772 18.6074 51.4297 18.3494 51.1817 18.054C50.9336 17.7585 50.7426 17.4958 50.6087 17.266H50.4747V23H48.2498ZM50.4301 13.5441C50.4301 14.304 50.5466 14.97 50.7798 15.5422C51.013 16.1145 51.3503 16.5624 51.7919 16.886C52.2334 17.205 52.7741 17.3644 53.4141 17.3644C54.0788 17.3644 54.6344 17.1979 55.081 16.8649C55.5275 16.5272 55.8648 16.0698 56.093 15.493C56.3261 14.9161 56.4428 14.2664 56.4428 13.5441C56.4428 12.8311 56.3286 12.1909 56.1004 11.6234C55.8772 11.0558 55.5398 10.6079 55.0884 10.2796C54.6419 9.95122 54.0838 9.78706 53.4141 9.78706C52.7692 9.78706 52.2235 9.94418 51.777 10.2584C51.3355 10.5727 51.0006 11.0113 50.7724 11.5741C50.5442 12.137 50.4301 12.7936 50.4301 13.5441Z" fill="white"/>
<path d="M42.1347 19.1655C41.0085 19.1655 40.0387 18.9381 39.2251 18.4831C38.4165 18.0234 37.7914 17.3785 37.3499 16.5483C36.9133 15.7134 36.6951 14.7354 36.6951 13.6144C36.6951 12.5075 36.9133 11.5319 37.3499 10.6876C37.7914 9.84334 38.4066 9.18433 39.1953 8.7106C39.9891 8.23687 40.9167 8 41.9784 8C42.6234 8 43.2484 8.10084 43.8537 8.30253C44.4588 8.50422 45.0021 8.82082 45.4833 9.25234C45.9645 9.68386 46.344 10.2444 46.6218 10.9339C46.8996 11.6187 47.0385 12.4512 47.0385 13.4315V14.1773H37.9526V12.6013H44.8582C44.8582 12.0478 44.7392 11.5577 44.5011 11.1309C44.2629 10.6993 43.9281 10.3593 43.4964 10.1107C43.0698 9.8621 42.5688 9.7378 41.9933 9.7378C41.3682 9.7378 40.8225 9.88321 40.3562 10.174C39.8948 10.4601 39.5376 10.8354 39.2847 11.2997C39.0366 11.7594 38.9126 12.2589 38.9126 12.7983V14.0295C38.9126 14.7519 39.0465 15.3663 39.3144 15.8729C39.5872 16.3794 39.9668 16.7664 40.4529 17.0337C40.9391 17.2964 41.5071 17.4278 42.157 17.4278C42.5787 17.4278 42.9632 17.3715 43.3104 17.2589C43.6577 17.1417 43.9578 16.9681 44.2108 16.7382C44.4639 16.5084 44.6573 16.2246 44.7912 15.8869L46.8972 16.2458C46.7285 16.8321 46.4259 17.3457 45.9893 17.7866C45.5577 18.2228 45.0145 18.5628 44.3597 18.8067C43.7097 19.046 42.9681 19.1655 42.1347 19.1655Z" fill="white"/>
<path d="M27 9.95594V8.14075H36.644V9.95594H32.9159V18.9475H30.743V9.95594H27Z" fill="white"/>
<path d="M0 14L5.36925 9.70459L10.6633 13.9398L5.29405 18.2353L0 14Z" fill="white"/>
<path d="M5.95605 18.7647L11.3253 14.4692L16.6193 18.7046L11.2501 23L5.95605 18.7647Z" fill="white"/>
<path d="M11.8367 14.0601L17.2059 9.76477L22.5 14L17.1308 18.2955L11.8367 14.0601Z" fill="white"/>
<path d="M5.95605 9.29541L11.3253 5L16.6194 9.23526L11.2501 13.5307L5.95605 9.29541Z" fill="white"/>
</g>
<defs>
<clipPath id="clip0_3163_1161">
<rect width="144.75" height="18" fill="white" transform="translate(0 5)"/>
</clipPath>
</defs>
</svg>
