<svg width="1000" height="452" viewBox="0 0 1000 452" fill="none" xmlns="http://www.w3.org/2000/svg">
<g clip-path="url(#clip0_3133_83)">
<path fill-rule="evenodd" clip-rule="evenodd" d="M190.529 -0.86261C192.253 -0.86261 193.978 -0.86261 195.702 -0.86261C190.339 16.3841 184.591 33.636 178.457 50.8931C175.171 55.73 172.298 60.9056 169.834 66.4198C166.442 64.4664 163.28 65.0416 160.349 68.145C159.125 65.6033 157.113 64.4533 154.313 64.6946C154.21 60.7879 155.648 60.2129 158.624 62.9695C161.327 60.6299 164.488 59.4797 168.109 59.5191C166.472 55.089 166.472 50.776 168.109 46.5801C167.03 45.2856 166.168 43.8478 165.523 42.2672C163.798 44.5674 162.073 44.5674 160.349 42.2672C157.546 46.8004 154.096 50.8258 150.001 54.3435C148.822 52.1285 149.11 50.1159 150.864 48.3053C148.589 47.9689 146.289 48.2565 143.966 49.1679C157.187 35.3664 170.409 21.5649 183.63 7.76334C185.929 4.88802 188.23 2.01271 190.529 -0.86261Z" fill="white"/>
<path opacity="0.788" fill-rule="evenodd" clip-rule="evenodd" d="M183.621 7.76339C170.402 21.5649 157.184 35.3664 143.966 49.168C135.345 57.2189 126.724 65.2697 118.103 73.3206C137.777 51.0417 158.467 29.4768 180.172 8.62598C181.197 7.82491 182.347 7.53737 183.621 7.76339Z" fill="white"/>
<path fill-rule="evenodd" clip-rule="evenodd" d="M195.694 -0.86261C196.844 -0.86261 197.993 -0.86261 199.143 -0.86261C201.433 11.1189 203.158 23.1953 204.317 35.3664C203.039 43.7771 201.601 52.403 200.005 61.2443C199.633 57.9942 198.483 55.1188 196.556 52.6183C195.406 57.2189 194.257 57.2189 193.107 52.6183C191.529 54.0466 190.381 55.7718 189.658 57.7939C185.769 55.6193 182.032 53.3189 178.448 50.8931C184.583 33.636 190.331 16.3841 195.694 -0.86261Z" fill="white"/>
<path fill-rule="evenodd" clip-rule="evenodd" d="M204.319 35.3664C204.821 46.4473 204.247 57.3736 202.595 68.145C200.993 73.6232 199.556 79.3738 198.283 85.3969C197.552 81.9198 196.114 78.757 193.972 75.9084C196.216 72.5629 195.067 70.5503 190.523 69.8702C187.938 74.3212 185.351 78.9218 182.762 83.6717C182.102 82.7125 181.239 82.1375 180.175 81.9465C180.9 78.196 180.9 74.7456 180.175 71.5954C176.178 71.6696 172.154 72.2448 168.103 73.3206C167.987 70.8041 168.562 68.5037 169.828 66.4198C172.292 60.9056 175.166 55.73 178.451 50.8931C182.034 53.3189 185.772 55.6193 189.661 57.7939C190.383 55.7718 191.532 54.0466 193.11 52.6183C194.26 57.2189 195.408 57.2189 196.559 52.6183C198.485 55.1188 199.635 57.9942 200.008 61.2443C201.603 52.403 203.041 43.777 204.319 35.3664Z" fill="white"/>
<path fill-rule="evenodd" clip-rule="evenodd" d="M154.321 64.6946C146.798 70.4895 138.75 75.6651 130.177 80.2213C127.641 78.7023 126.204 76.4019 125.865 73.3206C124.073 75.4082 122.061 77.1334 119.829 78.4962C117.182 79.97 114.883 79.97 112.931 78.4962C115.23 77.346 116.955 75.6208 118.105 73.3206C126.728 65.2696 135.35 57.2189 143.973 49.1679C146.297 48.2565 148.596 47.9689 150.871 48.3053C149.117 50.1159 148.83 52.1285 150.009 54.3435C154.104 50.8258 157.553 46.8004 160.357 42.2672C162.081 44.5673 163.806 44.5673 165.53 42.2672C166.176 43.8478 167.038 45.2855 168.117 46.5801C166.479 50.776 166.479 55.0889 168.117 59.5191C164.496 59.4797 161.335 60.6299 158.632 62.9694C155.655 60.2129 154.218 60.7879 154.321 64.6946Z" fill="white"/>
<path fill-rule="evenodd" clip-rule="evenodd" d="M154.32 64.6947C157.12 64.4533 159.132 65.6033 160.356 68.1451C163.288 65.0416 166.449 64.4664 169.841 66.4199C168.575 68.5037 168 70.8041 168.117 73.3206C164.985 76.1127 162.685 79.5631 161.218 83.6718C159.501 83.8198 158.064 83.2446 156.907 81.9466C149.015 85.5879 141.255 89.6133 133.625 94.0229C127.86 93.1158 122.399 91.3906 117.242 88.8473C116.667 89.4223 116.092 89.9975 115.517 90.5725C114.368 88.2723 114.368 85.972 115.517 83.6718C117.32 82.165 118.757 80.4398 119.829 78.4962C122.061 77.1335 124.073 75.4083 125.865 73.3206C126.203 76.402 127.64 78.7024 130.176 80.2214C138.75 75.6652 146.798 70.4896 154.32 64.6947Z" fill="white"/>
<path opacity="0.639" fill-rule="evenodd" clip-rule="evenodd" d="M118.105 73.3206C116.955 75.6208 115.23 77.346 112.931 78.4962C112.931 75.0458 114.656 73.3206 118.105 73.3206Z" fill="white"/>
<path fill-rule="evenodd" clip-rule="evenodd" d="M202.595 68.145C202.38 79.5275 200.655 90.4538 197.421 100.924C195.597 102.822 194.159 105.122 193.11 107.824C192.738 104.574 191.587 101.699 189.661 99.1985C185.139 100.614 180.253 100.902 175.002 100.061C173.559 101.806 172.984 103.818 173.278 106.099C170.978 106.099 168.679 106.099 166.379 106.099C167.295 102.573 169.307 99.6976 172.415 97.4733C172.258 90.6632 174.845 85.4877 180.176 81.9465C181.24 82.1375 182.102 82.7125 182.763 83.6717C185.351 78.9218 187.938 74.3212 190.523 69.8702C195.067 70.5503 196.216 72.5629 193.972 75.9084C196.114 78.757 197.553 81.9198 198.284 85.3969C199.556 79.3738 200.993 73.6232 202.595 68.145Z" fill="white"/>
<path fill-rule="evenodd" clip-rule="evenodd" d="M112.931 78.4962C114.882 79.97 117.181 79.97 119.828 78.4962C118.756 80.4398 117.319 82.165 115.517 83.6718C114.368 85.972 114.368 88.2724 115.517 90.5726C116.092 89.9975 116.667 89.4224 117.241 88.8474C122.397 91.3906 127.857 93.1158 133.621 94.0229C141.248 89.6133 149.007 85.588 156.897 81.9466C158.053 83.2446 159.49 83.8198 161.207 83.6718C160.632 84.822 160.057 85.972 159.483 87.1222C157.669 86.8643 155.945 87.1518 154.31 87.9848C153.161 91.4351 150.862 93.7353 147.414 94.8855C131.644 96.9349 116.702 101.535 102.586 108.687C100.287 109.837 97.9884 109.837 95.6897 108.687C97.751 107.558 97.751 106.696 95.6897 106.099C92.2588 108.468 88.5231 110.193 84.4828 111.275C83.6822 110.249 83.3948 109.099 83.6207 107.824C92.816 97.4733 102.586 87.6972 112.931 78.4962Z" fill="white"/>
<path fill-rule="evenodd" clip-rule="evenodd" d="M180.186 81.9465C174.855 85.4877 172.268 90.6632 172.425 97.4733C169.317 99.6975 167.306 102.573 166.39 106.099C163.56 107.215 161.261 108.941 159.491 111.275C147.621 110.527 136.124 111.677 125 114.725C132.104 108.975 140.151 104.662 149.144 101.786C152.972 97.1061 156.421 92.2182 159.491 87.1221C160.066 85.9719 160.641 84.8219 161.216 83.6717C162.683 79.563 164.982 76.1126 168.114 73.3206C172.164 72.2448 176.188 71.6696 180.186 71.5954C180.91 74.7456 180.91 78.196 180.186 81.9465Z" fill="white"/>
<path fill-rule="evenodd" clip-rule="evenodd" d="M197.425 100.924C195.971 110.486 192.522 119.112 187.078 126.802C184.363 127.556 182.351 129.281 181.042 131.977C174.161 129.316 167.262 126.44 160.347 123.351C157.007 127.85 153.845 127.85 150.862 123.351C154.406 119.806 157.28 115.781 159.485 111.275C161.254 108.941 163.554 107.215 166.383 106.099C168.682 106.099 170.982 106.099 173.281 106.099C172.988 103.818 173.562 101.806 175.006 100.061C180.257 100.902 185.143 100.615 189.665 99.1985C191.591 101.699 192.741 104.574 193.114 107.824C194.162 105.122 195.601 102.822 197.425 100.924Z" fill="white"/>
<path fill-rule="evenodd" clip-rule="evenodd" d="M159.483 87.1222C156.413 92.2182 152.965 97.1062 149.138 101.786C140.148 104.662 132.102 108.975 125 114.725C118.544 120.296 111.36 124.896 103.448 128.527C102.734 127.738 101.872 127.163 100.862 126.802C92.8767 130.816 84.8308 134.841 76.7241 138.878C70.3503 144.686 64.0286 150.436 57.7586 156.13C57.7586 155.555 57.7586 154.98 57.7586 154.405C64.2033 144.205 71.6745 134.717 80.1724 125.939C78.536 124.874 77.0991 125.162 75.8621 126.802C74.7979 125.164 75.0852 123.726 76.7241 122.489C75.0877 121.424 73.6508 121.711 72.4138 123.351C71.6133 122.326 71.3258 121.176 71.5517 119.901C75 115.3 79.0229 111.275 83.6207 107.824C83.3948 109.099 83.6822 110.249 84.4827 111.275C88.5231 110.193 92.2588 108.468 95.6896 106.099C97.751 106.696 97.751 107.558 95.6896 108.687C97.9884 109.837 100.287 109.837 102.586 108.687C116.702 101.535 131.644 96.9349 147.414 94.8855C150.862 93.7353 153.161 91.4351 154.31 87.9848C155.945 87.1518 157.669 86.8642 159.483 87.1222Z" fill="white"/>
<path fill-rule="evenodd" clip-rule="evenodd" d="M150.862 123.351C153.844 127.85 157.005 127.85 160.345 123.351C167.258 126.44 174.155 129.316 181.034 131.977C182.343 129.281 184.355 127.556 187.069 126.801C186.071 131.686 183.772 135.711 180.172 138.878C179.022 138.878 177.874 138.878 176.724 138.878C175.762 136.653 174.038 135.215 171.552 134.565C172.126 133.99 172.702 133.415 173.276 132.84C165.865 130.499 158.394 130.787 150.862 133.702C145.062 133.024 139.315 132.737 133.621 132.84C121.763 136.902 109.981 141.215 98.2759 145.779C96.9448 145.529 95.7953 144.954 94.8276 144.053C86.084 153.673 76.6012 162.299 66.3793 169.931C66.3793 167.056 66.3793 164.181 66.3793 161.305C70.4364 158.543 74.1721 155.092 77.5862 150.954C78.1609 152.104 78.7357 153.254 79.3103 154.405C84.5295 148.032 90.2765 142.281 96.5517 137.153C97.7012 138.303 98.8505 139.453 100 140.603C111.032 129.247 124.538 123.209 140.517 122.489C142.984 121.686 144.996 120.248 146.552 118.176C148.02 120.023 149.457 121.748 150.862 123.351Z" fill="white"/>
<path fill-rule="evenodd" clip-rule="evenodd" d="M176.724 138.878C174.238 141.154 173.09 144.03 173.276 147.504C169.747 147.523 166.299 148.098 162.931 149.229C161.782 148.654 160.632 148.079 159.483 147.504C161.782 142.903 160.632 141.753 156.034 144.053C153.054 138.815 148.456 135.939 142.241 135.428C123.488 141.936 105.672 150.275 88.7931 160.443C81.6091 167.056 74.4254 173.67 67.2414 180.282C57.3303 198.873 47.2729 217.276 37.069 235.489C38.7481 226.804 40.7595 218.178 43.1035 209.611C49.9891 195.825 57.7478 182.599 66.3793 169.931C76.6012 162.299 86.084 153.673 94.8276 144.053C95.7954 144.954 96.9448 145.529 98.2759 145.779C109.981 141.215 121.763 136.902 133.621 132.84C139.315 132.737 145.062 133.024 150.862 133.702C158.394 130.787 165.865 130.499 173.276 132.84C172.702 133.415 172.126 133.99 171.552 134.565C174.038 135.215 175.762 136.653 176.724 138.878Z" fill="white"/>
<path fill-rule="evenodd" clip-rule="evenodd" d="M176.724 138.878C177.874 138.878 179.022 138.878 180.172 138.878C177.559 144.111 174.11 148.711 169.828 152.679C163.636 152.972 157.889 153.547 152.586 154.405C152.434 151.952 152.434 149.364 152.586 146.641C148.541 146.777 144.805 148.215 141.379 150.954C139.802 149.526 138.653 147.801 137.931 145.779C118.859 151.109 101.33 159.448 85.3448 170.794C76.9214 181.236 68.5879 191.876 60.3448 202.71C55.0598 218.44 49.0253 233.967 42.2414 249.29C47.2345 257.095 46.0852 263.996 38.7931 269.992C30.891 271.988 26.2933 269.113 25 261.366C29.3522 252.906 33.3753 244.28 37.069 235.489C47.2729 217.276 57.3303 198.873 67.2414 180.282C74.4253 173.67 81.6091 167.056 88.7931 160.443C105.672 150.275 123.488 141.936 142.241 135.427C148.456 135.939 153.054 138.815 156.034 144.053C160.632 141.753 161.782 142.903 159.483 147.504C160.632 148.079 161.782 148.654 162.931 149.229C166.299 148.098 169.747 147.523 173.276 147.504C173.09 144.03 174.238 141.154 176.724 138.878Z" fill="white"/>
<path fill-rule="evenodd" clip-rule="evenodd" d="M159.483 111.275C157.278 115.78 154.405 119.806 150.862 123.351C149.457 121.748 148.02 120.023 146.552 118.176C144.996 120.248 142.984 121.686 140.517 122.489C124.538 123.209 111.032 129.247 100 140.603C98.8505 139.453 97.7012 138.303 96.5517 137.153C90.2766 142.281 84.5295 148.032 79.3103 154.405C78.7357 153.254 78.1609 152.104 77.5862 150.954C74.1721 155.092 70.4364 158.543 66.3793 161.305C65.9055 157.265 64.4688 157.265 62.069 161.305C59.1953 165.906 56.3219 170.506 53.4483 175.107C53.6809 171.786 53.9683 168.336 54.3103 164.756C55.4598 161.88 56.6091 159.005 57.7586 156.13C64.0286 150.436 70.3503 144.686 76.7241 138.878C84.8309 134.841 92.8767 130.816 100.862 126.802C101.872 127.163 102.734 127.738 103.448 128.527C111.36 124.896 118.544 120.296 125 114.725C136.121 111.677 147.616 110.527 159.483 111.275Z" fill="white"/>
<path fill-rule="evenodd" clip-rule="evenodd" d="M169.828 152.679C165.18 157.899 160.583 163.075 156.034 168.206C152.095 166.401 148.072 166.401 143.966 168.206C146.015 162.187 144.578 161.612 139.655 166.481C138.78 163.9 139.642 161.887 142.241 160.443C141.193 158.942 139.757 158.079 137.931 157.855C130.303 162.862 121.969 164.3 112.931 162.168C86.2202 176.223 68.4041 197.5 59.4828 226C61.7124 226.845 64.0114 227.133 66.3793 226.863C64.1283 230.858 61.8295 234.885 59.4828 238.939C60.3885 240.133 61.5378 240.995 62.931 241.527C59.7771 243.447 58.3403 246.035 58.6207 249.29C64.7403 242.974 66.1771 244.699 62.931 254.466C63.5271 256.529 64.3891 256.529 65.5172 254.466C66.3178 255.49 66.6052 256.641 66.3793 257.916C57.184 268.267 47.4138 278.044 37.069 287.244C37.6743 282.521 38.8238 277.921 40.5172 273.443C39.8919 272.264 39.3171 271.114 38.7931 269.992C46.0852 263.996 47.2345 257.095 42.2414 249.29C49.0253 233.967 55.0598 218.44 60.3448 202.71C68.5879 191.876 76.9214 181.236 85.3448 170.794C101.33 159.448 118.859 151.109 137.931 145.779C138.653 147.801 139.802 149.526 141.379 150.954C144.805 148.215 148.541 146.777 152.586 146.641C152.434 149.364 152.434 151.952 152.586 154.405C157.889 153.547 163.636 152.972 169.828 152.679Z" fill="white"/>
<path fill-rule="evenodd" clip-rule="evenodd" d="M143.966 168.206C141.303 168.557 139.004 169.707 137.069 171.657C135.919 171.082 134.77 170.506 133.621 169.931C131.322 171.657 129.023 173.382 126.724 175.107C124.71 171.834 121.837 171.547 118.103 174.244C97.5847 188.736 80.3433 206.276 66.3793 226.863C64.0114 227.133 61.7124 226.845 59.4828 226C68.4041 197.5 86.2202 176.223 112.931 162.168C121.969 164.3 130.303 162.862 137.931 157.855C139.757 158.079 141.193 158.942 142.241 160.443C139.642 161.887 138.78 163.9 139.655 166.481C144.578 161.612 146.015 162.187 143.966 168.206Z" fill="white"/>
<path fill-rule="evenodd" clip-rule="evenodd" d="M156.034 168.206C153.736 171.656 150.862 174.532 147.414 176.832C140.922 176.49 135.463 179.366 131.034 185.458C124.274 185.279 118.527 188.154 113.793 194.084C113.064 191.572 111.628 190.709 109.483 191.496C100.862 200.122 92.2414 208.748 83.6207 217.374C85.014 217.905 86.1633 218.768 87.069 219.962C82.5641 224.17 79.1159 229.057 76.7241 234.626C77.5128 235.34 78.0874 236.203 78.4483 237.214C76.5912 241.059 75.4419 245.086 75 249.29C72.7012 252.74 69.8276 255.616 66.3793 257.916C66.6052 256.641 66.3178 255.49 65.5172 254.466C64.3891 256.529 63.5271 256.529 62.931 254.466C66.1771 244.699 64.7403 242.974 58.6207 249.29C58.3403 246.035 59.7771 243.447 62.931 241.527C61.5378 240.995 60.3885 240.133 59.4828 238.939C61.8295 234.885 64.1283 230.858 66.3793 226.863C80.3433 206.276 97.5847 188.736 118.103 174.244C121.837 171.547 124.71 171.834 126.724 175.107C129.023 173.382 131.322 171.656 133.621 169.931C134.77 170.506 135.919 171.081 137.069 171.656C139.004 169.707 141.303 168.556 143.966 168.206C148.072 166.401 152.095 166.401 156.034 168.206Z" fill="white"/>
<path fill-rule="evenodd" clip-rule="evenodd" d="M71.5536 119.901C71.3278 121.176 71.6152 122.326 72.4157 123.351C73.6528 121.711 75.0897 121.424 76.726 122.489C75.0871 123.726 74.7998 125.164 75.864 126.802C77.101 125.162 78.5379 124.874 80.1743 125.939C71.6764 134.717 64.2052 144.205 57.7605 154.405C49.6574 161.93 41.3241 170.556 32.7605 180.282C23.0671 196.629 17.8947 214.455 17.2433 233.763C15.8849 247.915 16.1722 262.005 18.1054 276.031C13.9958 284.667 12.8464 293.581 14.6571 302.771C12.1104 306.461 10.3863 310.486 9.48467 314.847C8.90996 314.847 8.33524 314.847 7.76053 314.847C8.95989 305.226 10.684 295.737 12.9329 286.382C8.54665 260.312 8.54665 234.146 12.9329 207.885C14.0528 204.547 14.6275 201.097 14.6571 197.534C27.641 167.287 46.6066 141.409 71.5536 119.901Z" fill="white"/>
<path fill-rule="evenodd" clip-rule="evenodd" d="M66.3908 161.305C66.3908 164.181 66.3908 167.056 66.3908 169.931C57.7571 182.599 49.9966 195.825 43.1092 209.611C40.7646 218.178 38.7528 226.804 37.0732 235.489C33.3787 244.28 29.3546 252.906 25.0013 261.366C26.2949 269.113 30.8937 271.988 38.7978 269.992C39.3219 271.114 39.8968 272.264 40.5223 273.443C38.8285 277.921 37.6787 282.521 37.0732 287.244C31.8995 293.571 26.151 299.321 19.8276 304.496C22.7743 299.165 25.0739 293.415 26.7258 287.244C26.151 286.094 25.5761 284.945 25.0013 283.794C18.7763 286.118 18.2015 284.967 23.2767 280.344C21.5709 278.674 20.4213 276.66 19.8276 274.305C23.5169 252.216 27.2534 230.077 31.0372 207.886C31.612 210.185 32.187 212.487 32.7618 214.786C36.4846 196.365 43.6703 179.687 54.3188 164.756C53.9767 168.336 53.6892 171.786 53.4565 175.107C56.3309 170.506 59.205 165.906 62.0794 161.305C64.4798 157.265 65.9169 157.265 66.3908 161.305Z" fill="white"/>
<path fill-rule="evenodd" clip-rule="evenodd" d="M57.7729 154.405C57.7729 154.98 57.7729 155.555 57.7729 156.13C56.6231 159.005 55.4735 161.88 54.3237 164.756C43.6753 179.687 36.4895 196.365 32.7667 214.786C32.1919 212.487 31.6169 210.185 31.0421 207.885C27.2583 230.077 23.5218 252.216 19.8325 274.305C20.4263 276.66 21.5758 278.673 23.2816 280.343C18.2064 284.967 18.7812 286.118 25.0062 283.794C25.581 284.945 26.1559 286.094 26.7307 287.244C25.0788 293.415 22.7792 299.165 19.8325 304.496C16.9582 308.521 13.5091 311.971 9.48511 314.847C10.387 310.486 12.1115 306.461 14.6588 302.771C12.8477 293.581 13.9974 284.667 18.1079 276.03C16.1743 262.005 15.8869 247.915 17.2456 233.763C17.8972 214.455 23.0709 196.629 32.7667 180.282C41.3324 170.556 49.6678 161.93 57.7729 154.405Z" fill="white"/>
<path fill-rule="evenodd" clip-rule="evenodd" d="M14.6588 197.534C14.6292 201.097 14.0544 204.547 12.9342 207.885C11.7845 209.036 10.6348 210.185 9.48511 211.336C9.88679 206.088 11.6114 201.488 14.6588 197.534Z" fill="white"/>
<path fill-rule="evenodd" clip-rule="evenodd" d="M147.414 176.832C123.851 201.559 99.7126 225.712 75 249.29C75.4419 245.086 76.5912 241.059 78.4483 237.214C78.0874 236.203 77.5128 235.34 76.7241 234.626C79.1159 229.057 82.5641 224.17 87.069 219.962C86.1633 218.768 85.014 217.905 83.6207 217.374C92.2414 208.748 100.862 200.122 109.483 191.496C111.628 190.71 113.064 191.572 113.793 194.084C118.527 188.155 124.274 185.279 131.034 185.458C135.463 179.366 140.922 176.491 147.414 176.832Z" fill="white"/>
<path opacity="0.925" fill-rule="evenodd" clip-rule="evenodd" d="M9.48509 211.336C9.32945 217.743 7.60488 223.495 4.3114 228.588C5.00009 222.35 6.72465 216.598 9.48509 211.336Z" fill="white"/>
<path fill-rule="evenodd" clip-rule="evenodd" d="M4.31141 228.588C4.24436 236.669 3.66951 244.72 2.58685 252.74C2.49014 256.432 1.34043 259.307 -0.862274 261.366C-0.862274 257.916 -0.862274 254.466 -0.862274 251.015C0.702935 243.509 2.4275 236.034 4.31141 228.588Z" fill="white"/>
<path opacity="0.904" fill-rule="evenodd" clip-rule="evenodd" d="M12.9342 207.885C8.54685 234.146 8.54685 260.312 12.9342 286.382C10.6848 295.737 8.9602 305.226 7.76054 314.847C7.87339 315.603 7.58596 316.179 6.89826 316.573C6.498 314.438 5.63572 312.713 4.31141 311.397C4.5944 306.761 4.30696 302.16 3.44913 297.595C2.78935 296.636 1.92707 296.062 0.862288 295.87C0.862288 295.296 0.862288 294.72 0.862288 294.145C1.98738 292.508 2.56222 290.496 2.58685 288.107C2.40015 285.207 1.25044 283.194 -0.862274 282.069C-0.862274 275.168 -0.862274 268.267 -0.862274 261.366C1.34043 259.307 2.49014 256.432 2.58685 252.74C3.66951 244.72 4.24436 236.669 4.31141 228.588C7.6049 223.495 9.32946 217.743 9.4851 211.336C10.6348 210.185 11.7845 209.036 12.9342 207.885Z" fill="white"/>
<path opacity="0.914" fill-rule="evenodd" clip-rule="evenodd" d="M343.103 203.582C346.124 203.441 347.848 204.878 348.276 207.895C346.697 226.574 336.926 238.65 318.966 244.124C331.709 242.796 341.766 247.109 349.138 257.063C351.581 273.024 352.443 289.126 351.724 305.368C342.529 305.368 333.333 305.368 324.138 305.368C324.424 294.427 324.138 283.501 323.276 272.59C322.414 271.727 321.552 270.864 320.69 270.002C309.784 269.139 298.866 268.853 287.931 269.139C287.931 281.216 287.931 293.292 287.931 305.368C278.736 305.368 269.54 305.368 260.345 305.368C260.345 273.164 260.345 240.962 260.345 208.758C269.54 208.758 278.736 208.758 287.931 208.758C287.931 220.834 287.931 232.91 287.931 244.987C290.229 244.987 292.529 244.987 294.828 244.987C294.759 239.94 296.195 235.341 299.138 231.185C303.448 226.872 307.759 222.559 312.069 218.246C322.517 213.155 332.862 208.266 343.103 203.582Z" fill="white"/>
<path opacity="0.915" fill-rule="evenodd" clip-rule="evenodd" d="M391.379 205.307C406.002 203.998 418.359 208.599 428.448 219.109C429.302 215.705 429.59 212.255 429.31 208.758C438.505 208.758 447.702 208.758 456.897 208.758C456.897 240.962 456.897 273.164 456.897 305.368C447.702 305.368 438.505 305.368 429.31 305.368C429.591 301.302 429.305 297.277 428.448 293.292C420.772 303.355 410.428 308.531 397.414 308.819C368.674 303.671 354.019 286.419 353.448 257.063C353.595 230.214 366.238 212.962 391.379 205.307ZM396.552 232.91C423.995 232.042 433.478 244.693 425 270.864C414.888 282.025 403.107 284.038 389.655 276.903C380.159 266.148 378.722 254.36 385.345 241.536C388.457 237.523 392.193 234.649 396.552 232.91Z" fill="white"/>
<path opacity="0.92" fill-rule="evenodd" clip-rule="evenodd" d="M793.103 205.307C807.174 204.341 818.957 208.94 828.448 219.109C829.302 215.705 829.59 212.255 829.31 208.758C838.505 208.758 847.702 208.758 856.897 208.758C856.897 240.962 856.897 273.164 856.897 305.368C847.702 305.368 838.505 305.368 829.31 305.368C829.59 301.871 829.302 298.421 828.448 295.017C805.217 313.967 783.378 312.241 762.931 289.842C752.938 272.929 750.928 255.103 756.897 236.361C747.193 234.644 737.424 234.068 727.586 234.635C727.586 258.214 727.586 281.79 727.586 305.368C718.391 305.368 709.195 305.368 700 305.368C700 281.79 700 258.214 700 234.635C689.655 234.635 679.31 234.635 668.966 234.635C668.966 226.009 668.966 217.384 668.966 208.758C698.85 208.758 728.736 208.758 758.621 208.758C758.334 216.255 758.622 223.73 759.483 231.185C766.571 216.871 777.778 208.245 793.103 205.307ZM796.552 232.91C823.241 231.149 833.298 243.225 826.724 269.139C818.269 281.226 807.062 284.388 793.103 278.628C776.414 261.857 777.564 246.619 796.552 232.91Z" fill="white"/>
<path opacity="0.921" fill-rule="evenodd" clip-rule="evenodd" d="M463.793 208.758C494.253 208.758 524.712 208.758 555.172 208.758C555.172 240.962 555.172 273.164 555.172 305.368C545.978 305.368 536.781 305.368 527.586 305.368C527.586 281.79 527.586 258.214 527.586 234.635C515.517 234.635 503.448 234.635 491.379 234.635C491.379 258.214 491.379 281.79 491.379 305.368C482.184 305.368 472.988 305.368 463.793 305.368C463.793 273.164 463.793 240.962 463.793 208.758Z" fill="white"/>
<path opacity="0.908" fill-rule="evenodd" clip-rule="evenodd" d="M563.793 208.757C572.988 208.757 582.184 208.757 591.379 208.757C591.091 227.169 591.379 245.571 592.241 263.964C606.453 245.618 621.684 228.078 637.931 211.345C646.91 208.935 656.105 208.073 665.517 208.757C665.517 240.962 665.517 273.164 665.517 305.368C655.746 305.368 645.977 305.368 636.207 305.368C636.493 287.531 636.207 269.705 635.345 251.887C620.69 268.851 606.034 285.817 591.379 302.78C582.309 308.727 573.976 307.865 566.379 300.193C563.84 269.876 562.977 239.399 563.793 208.757Z" fill="white"/>
<path opacity="0.923" fill-rule="evenodd" clip-rule="evenodd" d="M962.069 208.758C962.069 240.962 962.069 273.164 962.069 305.368C952.874 305.368 943.678 305.368 934.483 305.368C934.483 281.79 934.483 258.214 934.483 234.635C925.269 234.349 916.074 234.637 906.897 235.498C906.034 236.361 905.172 237.223 904.31 238.086C903.736 250.162 903.16 262.239 902.586 274.315C899.5 298.154 885.993 308.505 862.069 305.368C862.069 296.168 862.069 286.966 862.069 277.765C867.578 278.695 871.888 276.97 875 272.59C877.034 257.149 878.184 241.623 878.448 226.01C880.812 220.178 884.548 215.291 889.655 211.345C913.667 208.849 937.805 207.986 962.069 208.758Z" fill="white"/>
<path opacity="0.702" fill-rule="evenodd" clip-rule="evenodd" d="M-0.862274 282.069C1.25044 283.194 2.40015 285.207 2.58685 288.107C2.56222 290.496 1.98738 292.508 0.862288 294.145C1.27154 291.918 0.696682 290.193 -0.862274 288.969C-0.862274 286.67 -0.862274 284.368 -0.862274 282.069Z" fill="white"/>
<path opacity="0.894" fill-rule="evenodd" clip-rule="evenodd" d="M0.862274 295.87C1.92705 296.062 2.78934 296.636 3.44912 297.595C4.30695 302.16 4.59438 306.761 4.3114 311.397C2.62997 306.547 1.48026 301.372 0.862274 295.87Z" fill="white"/>
<path opacity="0.259" fill-rule="evenodd" clip-rule="evenodd" d="M4.31141 311.397C5.63572 312.713 6.498 314.438 6.89825 316.573C7.58596 316.179 7.87339 315.603 7.76053 314.847C8.33538 314.847 8.91025 314.847 9.4851 314.847C10.9471 316.788 12.6717 316.788 14.6588 314.847C13.0247 317.397 10.7253 319.122 7.76053 320.023C4.80599 318.065 3.65628 315.189 4.31141 311.397Z" fill="white"/>
<path fill-rule="evenodd" clip-rule="evenodd" d="M14.6588 314.847C15.2336 314.847 15.8085 314.847 16.3833 314.847C20.6406 316.257 25.2395 317.119 30.1798 317.435C28.6172 320.366 28.0424 323.53 28.4553 326.924C23.7627 326.125 19.1639 324.976 14.6588 323.473C13.5091 323.473 12.3594 323.473 11.2097 323.473C9.48509 322.899 8.33538 321.748 7.76053 320.023C10.7253 319.122 13.0247 317.397 14.6588 314.847Z" fill="white"/>
<path fill-rule="evenodd" clip-rule="evenodd" d="M93.9655 316.573C119.333 320.932 141.747 331.283 161.207 347.626C164.383 353.899 162.371 356.775 155.172 356.252C138.741 352.113 122.649 346.938 106.897 340.725C100.231 336.355 94.7712 330.893 90.5172 324.336C92.0271 321.601 94.326 319.876 97.4138 319.16C95.8348 318.681 94.6853 317.818 93.9655 316.573Z" fill="white"/>
<path opacity="0.78" fill-rule="evenodd" clip-rule="evenodd" d="M11.2097 323.473C12.3594 323.473 13.5091 323.473 14.6588 323.473C19.383 328.188 23.407 333.364 26.7307 339C20.9822 334.399 15.8085 329.223 11.2097 323.473Z" fill="white"/>
<path fill-rule="evenodd" clip-rule="evenodd" d="M35.3495 313.122C40.7384 314.811 46.4869 315.387 52.5951 314.847C50.7436 317.237 48.4443 319.248 45.6969 320.885C46.2717 321.46 46.8466 322.036 47.4214 322.611C44.8065 325.883 43.6567 329.622 43.9723 333.824C43.3975 333.824 42.8225 333.824 42.2477 333.824C37.3702 331.832 32.7714 329.53 28.4512 326.924C28.0384 323.53 28.6132 320.366 30.1758 317.435C25.2354 317.119 20.6366 316.257 16.3793 314.847C22.7236 314.461 29.0471 313.885 35.3495 313.122Z" fill="white"/>
<path fill-rule="evenodd" clip-rule="evenodd" d="M61.2069 311.397C65.1912 314.102 69.789 315.541 75 315.71C72.3377 316.21 70.039 317.359 68.1034 319.16C70.8915 323.249 72.6157 327.848 73.2759 332.962C76.6865 336.374 80.1348 339.825 83.6207 343.313C109.971 359.388 138.42 370.028 168.966 375.229C174.867 374.163 179.466 371.287 182.759 366.603C183.916 367.9 185.352 368.477 187.069 368.328C190.517 370.628 193.391 373.504 195.69 376.954C190.084 377.363 184.626 379.663 179.31 383.855C171.783 380.306 164.025 379.157 156.034 380.405C138.992 371.687 121.176 365.073 102.586 360.565C95.5241 355.881 88.0528 352.144 80.1724 349.351C72.3133 341.208 64.8419 332.87 57.7586 324.336C62.2943 321.419 61.7195 319.405 56.0345 318.298C57.9457 315.341 56.7962 314.19 52.5862 314.847C46.4795 315.387 40.7324 314.811 35.3448 313.122C43.9181 311.977 52.5388 311.402 61.2069 311.397Z" fill="white"/>
<path fill-rule="evenodd" clip-rule="evenodd" d="M85.3448 314.847C88.646 314.357 91.5195 314.932 93.9655 316.573C94.6853 317.818 95.8348 318.681 97.4138 319.16C94.326 319.876 92.0271 321.601 90.5172 324.336C94.7712 330.893 100.231 336.355 106.897 340.725C122.649 346.938 138.741 352.113 155.172 356.252C162.371 356.775 164.383 353.899 161.207 347.626C166.436 350.241 171.034 353.692 175 357.977C171.761 357.793 171.186 358.655 173.276 360.565C169.796 364.224 165.486 366.237 160.345 366.603C145.226 361.886 129.996 357.573 114.655 353.664C104.942 347.648 95.1714 341.61 85.3448 335.55C83.26 331.088 80.961 326.775 78.4483 322.611C80.69 319.885 82.989 317.297 85.3448 314.847Z" fill="white"/>
<path fill-rule="evenodd" clip-rule="evenodd" d="M61.2069 311.397C69.3142 312.266 77.3602 313.417 85.3448 314.847C82.989 317.297 80.69 319.885 78.4483 322.611C80.961 326.775 83.26 331.088 85.3448 335.55C95.1714 341.61 104.942 347.648 114.655 353.664C129.996 357.573 145.226 361.886 160.345 366.603C165.486 366.237 169.796 364.224 173.276 360.565C171.186 358.655 171.761 357.793 175 357.977C180.055 360.22 184.079 363.67 187.069 368.328C185.352 368.477 183.916 367.9 182.759 366.603C179.466 371.287 174.867 374.163 168.966 375.229C138.42 370.028 109.971 359.388 83.6207 343.313C80.1348 339.825 76.6866 336.374 73.2759 332.962C72.6157 327.848 70.8916 323.249 68.1035 319.16C70.039 317.359 72.3378 316.21 75 315.71C69.789 315.541 65.1912 314.102 61.2069 311.397Z" fill="white"/>
<path fill-rule="evenodd" clip-rule="evenodd" d="M66.3793 345.901C92.03 360.17 117.892 373.971 143.966 387.305C145.115 389.605 146.264 391.906 147.414 394.206C138.776 390.054 129.58 388.042 119.828 388.168C114.655 384.143 109.483 380.116 104.31 376.092C102.097 374.912 100.085 375.2 98.2759 376.954C92.3931 372.429 86.3586 368.116 80.1724 364.015C75.1607 358.158 70.5629 352.12 66.3793 345.901Z" fill="white"/>
<path fill-rule="evenodd" clip-rule="evenodd" d="M42.2414 333.824C42.816 333.824 43.3909 333.824 43.9655 333.824C51.6569 337.385 59.1281 341.412 66.3793 345.901C70.5629 352.12 75.1607 358.158 80.1724 364.015C86.3586 368.116 92.3931 372.429 98.2759 376.954C100.085 375.2 102.097 374.912 104.31 376.092C109.483 380.117 114.655 384.143 119.828 388.168C129.58 388.042 138.776 390.054 147.414 394.206C149.866 396.665 152.739 398.39 156.034 399.382C157.425 401.5 159.149 403.225 161.207 404.557C158.448 405.855 155.862 407.58 153.448 409.733C147.105 407.852 141.07 405.265 135.345 401.969C127.184 400.791 119.138 399.066 111.207 396.794C105.287 392.593 98.9652 389.143 92.2414 386.443C84.2686 378.724 75.6479 372.11 66.3793 366.603C66.7569 364.576 66.1823 362.851 64.6552 361.428C53.3448 355.291 45.8735 346.091 42.2414 333.824Z" fill="white"/>
<path fill-rule="evenodd" clip-rule="evenodd" d="M52.5862 314.847C56.7962 314.19 57.9457 315.341 56.0345 318.298C61.7195 319.405 62.2943 321.419 57.7586 324.336C64.8419 332.87 72.3133 341.208 80.1724 349.351C88.0528 352.144 95.5241 355.881 102.586 360.565C121.176 365.073 138.992 371.687 156.034 380.405C164.025 379.157 171.783 380.306 179.31 383.855C184.626 379.663 190.084 377.363 195.69 376.954C202.012 382.13 207.759 387.88 212.931 394.206C211.064 394.139 209.34 393.563 207.759 392.481C206.231 393.904 205.657 395.629 206.034 397.656C202.647 398.742 199.198 399.892 195.69 401.107C178.971 398.793 163.454 393.042 149.138 383.855C147.771 385.33 148.345 386.769 150.862 388.168C148.587 388.504 146.289 388.216 143.966 387.305C117.892 373.971 92.03 360.17 66.3793 345.901C59.1281 341.412 51.6569 337.385 43.9655 333.824C43.65 329.622 44.7995 325.883 47.4138 322.611C46.8391 322.036 46.2643 321.46 45.6897 320.885C48.4364 319.248 50.7352 317.237 52.5862 314.847Z" fill="white"/>
<path opacity="0.733" fill-rule="evenodd" clip-rule="evenodd" d="M81.8965 397.657C84.5298 397.531 86.2543 398.681 87.0702 401.107C84.437 401.233 82.7124 400.082 81.8965 397.657Z" fill="white"/>
<path fill-rule="evenodd" clip-rule="evenodd" d="M14.6588 323.473C19.1627 324.976 23.7605 326.125 28.4519 326.924C32.771 329.53 37.3686 331.832 42.245 333.824C45.8771 346.091 53.3484 355.291 64.6588 361.427C66.1858 362.851 66.7605 364.576 66.3829 366.603C75.6515 372.11 84.2722 378.724 92.245 386.443C98.9688 389.143 105.291 392.593 111.21 396.794C119.141 399.066 127.187 400.791 135.348 401.969C141.074 405.265 147.108 407.852 153.452 409.733C155.865 407.58 158.451 405.855 161.21 404.557C167.626 407.756 173.373 411.781 178.452 416.634C150.916 417.18 124.192 412.579 98.2795 402.832C94.5595 403.781 93.6974 405.506 95.6933 408.008C91.816 407.007 88.9426 404.707 87.0726 401.107C86.2569 398.681 84.5327 397.531 81.9002 397.656C61.6636 379.711 43.2727 360.159 26.7277 339C23.4048 333.364 19.3819 328.188 14.6588 323.473Z" fill="white"/>
<path fill-rule="evenodd" clip-rule="evenodd" d="M212.931 394.206C215.805 397.657 218.678 401.107 221.552 404.557C218.312 404.373 217.738 405.235 219.828 407.145C215.264 407.688 214.116 409.702 216.379 413.183C214.207 414.705 212.197 416.43 210.345 418.359C199.371 414.57 188.164 411.406 176.724 408.87C171.703 406.731 167.106 403.857 162.931 400.244C160.701 399.399 158.402 399.111 156.034 399.382C152.739 398.39 149.866 396.665 147.414 394.206C146.264 391.906 145.115 389.605 143.966 387.305C146.289 388.216 148.587 388.504 150.862 388.168C148.345 386.769 147.771 385.33 149.138 383.855C163.454 393.042 178.971 398.793 195.69 401.107C199.198 399.892 202.647 398.742 206.034 397.657C205.657 395.629 206.231 393.904 207.759 392.481C209.34 393.563 211.064 394.139 212.931 394.206Z" fill="white"/>
<path opacity="0.494" fill-rule="evenodd" clip-rule="evenodd" d="M109.483 418.359C112.116 418.233 113.841 419.383 114.656 421.809C112.023 421.935 110.299 420.784 109.483 418.359Z" fill="white"/>
<path fill-rule="evenodd" clip-rule="evenodd" d="M178.448 416.634C187.069 421.235 195.69 425.834 204.31 430.435C204.31 431.01 204.31 431.586 204.31 432.16C203.19 432.685 202.04 433.259 200.862 433.885C187.779 430.347 174.56 427.471 161.207 425.26C151.445 426.217 141.675 427.08 131.897 427.847C134.579 429.089 136.303 431.103 137.069 433.885C131.923 432.46 127.325 430.161 123.276 426.985C122.46 424.559 120.736 423.408 118.103 423.534C116.394 423.831 115.244 423.255 114.655 421.809C113.839 419.384 112.115 418.233 109.483 418.359C104.253 415.743 99.6557 412.293 95.6897 408.008C93.6938 405.506 94.5559 403.781 98.2759 402.832C124.188 412.579 150.912 417.18 178.448 416.634Z" fill="white"/>
<path fill-rule="evenodd" clip-rule="evenodd" d="M156.034 399.382C158.402 399.111 160.701 399.399 162.931 400.244C167.106 403.857 171.703 406.731 176.724 408.87C188.164 411.406 199.371 414.57 210.345 418.359C212.197 416.43 214.207 414.705 216.379 413.183C214.116 409.702 215.264 407.688 219.828 407.145C217.738 405.235 218.312 404.373 221.552 404.557C228.448 410.307 234.771 416.634 240.517 423.534C237.126 423.947 233.964 423.372 231.034 421.809C222.228 424.918 213.319 427.792 204.31 430.435C195.69 425.834 187.069 421.235 178.448 416.634C173.369 411.781 167.622 407.756 161.207 404.557C159.149 403.225 157.425 401.5 156.034 399.382Z" fill="white"/>
<path opacity="0.431" fill-rule="evenodd" clip-rule="evenodd" d="M118.103 423.534C120.737 423.408 122.461 424.559 123.277 426.985C120.644 427.111 118.919 425.96 118.103 423.534Z" fill="white"/>
<path fill-rule="evenodd" clip-rule="evenodd" d="M240.526 423.534C246.355 428.329 252.391 432.93 258.634 437.336C262.987 444.128 261.55 448.727 254.323 451.137C248.575 451.137 242.825 451.137 237.077 451.137C241.335 449.728 245.933 448.865 250.874 448.55C234.978 444.302 219.457 438.84 204.31 432.16C204.31 431.586 204.31 431.01 204.31 430.435C213.321 427.792 222.232 424.918 231.041 421.809C233.971 423.372 237.134 423.947 240.526 423.534Z" fill="white"/>
<path fill-rule="evenodd" clip-rule="evenodd" d="M204.31 432.16C219.453 438.84 234.971 444.302 250.862 448.55C245.922 448.865 241.326 449.728 237.069 451.137C222.126 451.137 207.184 451.137 192.241 451.137C190.4 449.526 188.102 448.95 185.345 449.412C184.534 447.354 182.81 446.203 180.172 445.962C178.059 445.996 176.334 446.571 175 447.687C173.85 447.687 173.276 447.113 173.276 445.962C169.244 443.305 164.647 442.156 159.483 442.511C155.716 438.914 151.119 437.189 145.69 437.336C142.409 436.825 139.535 435.674 137.069 433.885C136.303 431.103 134.579 429.089 131.897 427.847C141.675 427.08 151.445 426.217 161.207 425.26C174.56 427.471 187.779 430.347 200.862 433.885C202.04 433.259 203.19 432.685 204.31 432.16Z" fill="white"/>
<path opacity="0.953" fill-rule="evenodd" clip-rule="evenodd" d="M145.69 437.336C151.12 437.189 155.719 438.914 159.486 442.511C154.41 441.683 149.812 439.958 145.69 437.336Z" fill="white"/>
<path opacity="0.259" fill-rule="evenodd" clip-rule="evenodd" d="M159.483 442.511C164.648 442.156 169.247 443.305 173.279 445.962C168.229 445.85 163.631 444.699 159.483 442.511Z" fill="white"/>
<path opacity="0.765" fill-rule="evenodd" clip-rule="evenodd" d="M175 447.687C176.335 446.571 178.059 445.996 180.174 445.962C182.812 446.203 184.537 447.354 185.347 449.412C182.01 448.291 178.561 447.716 175 447.687Z" fill="white"/>
</g>
<defs>
<clipPath id="clip0_3133_83">
<rect width="1000" height="452" fill="white"/>
</clipPath>
</defs>
</svg>
